<?xml version="1.0" encoding="UTF-8" standalone="no"?>
<svg
   viewBox="0 0 24 24"
   fill="none"
   version="1.1"
   id="svg1"
   sodipodi:docname="clock.svg"
   inkscape:version="1.3.2 (091e20e, 2023-11-25, custom)"
   xmlns:inkscape="http://www.inkscape.org/namespaces/inkscape"
   xmlns:sodipodi="http://sodipodi.sourceforge.net/DTD/sodipodi-0.dtd"
   xmlns="http://www.w3.org/2000/svg"
   xmlns:svg="http://www.w3.org/2000/svg">
  <defs
     id="defs1" />
  <sodipodi:namedview
     id="namedview1"
     pagecolor="#ffffff"
     bordercolor="#000000"
     borderopacity="0.25"
     inkscape:showpageshadow="2"
     inkscape:pageopacity="0.0"
     inkscape:pagecheckerboard="0"
     inkscape:deskcolor="#d1d1d1"
     showgrid="false"
     inkscape:zoom="27.458333"
     inkscape:cx="12"
     inkscape:cy="12"
     inkscape:window-width="1280"
     inkscape:window-height="897"
     inkscape:window-x="-8"
     inkscape:window-y="-8"
     inkscape:window-maximized="1"
     inkscape:current-layer="svg1" />
  <g
     id="SVGRepo_bgCarrier"
     stroke-width="0" />
  <g
     id="SVGRepo_tracerCarrier"
     stroke-linecap="round"
     stroke-linejoin="round" />
  <g
     id="SVGRepo_iconCarrier">
    <path
       style="color:#000000;fill:#000000;stroke-linecap:round;stroke-linejoin:round;-inkscape-stroke:none"
       d="M 12,2 C 6.4890047,2 2,6.4890047 2,12 2,17.511031 6.4890101,22 12,22 17.511026,22 22,17.511026 22,12 22,6.4890101 17.511031,2 12,2 Z m 0,2 c 4.430159,0 8,3.5698798 8,8 0,4.430165 -3.569835,8 -8,8 C 7.5698798,20 4,16.430159 4,12 4,7.5698852 7.5698852,4 12,4 Z m 0,2 a 1,1 0 0 0 -1,1 v 5 a 1.0001,1.0001 0 0 0 1,1 h 3 a 1,1 0 0 0 1,-1 1,1 0 0 0 -1,-1 H 13 V 7 A 1,1 0 0 0 12,6 Z"
       id="path1" />
  </g>
</svg>
