<svg width="66" height="66" viewBox="0 0 66 66" fill="none" xmlns="http://www.w3.org/2000/svg">
<g clip-path="url(#clip0_905_62)">
<path d="M33.0003 1.26929C15.476 1.26929 1.26953 15.4757 1.26953 33.0001C1.26953 50.5244 15.476 64.7308 33.0003 64.7308C50.5246 64.7308 64.7311 50.5244 64.7311 33.0001C64.7311 15.4757 50.5246 1.26929 33.0003 1.26929ZM33.0003 62.7477C16.5707 62.7477 3.2527 49.4287 3.2527 33.0001C3.2527 16.5705 16.5707 3.25246 33.0003 3.25246C49.4299 3.25246 62.7479 16.5705 62.7479 33.0001C62.7479 49.4287 49.4299 62.7477 33.0003 62.7477Z" fill="black" stroke="black" stroke-width="0.896"/>
<path d="M33.0004 33.9917C33.548 33.9917 33.992 33.5478 33.992 33.0001C33.992 32.4525 33.548 32.0085 33.0004 32.0085C32.4527 32.0085 32.0088 32.4525 32.0088 33.0001C32.0088 33.5478 32.4527 33.9917 33.0004 33.9917Z" fill="black" stroke="black" stroke-width="0.896"/>
<path d="M37.8894 33.6823C37.9202 33.4572 37.9579 33.2341 37.9579 33.0001C37.9579 31.3828 37.1725 29.9619 35.9747 29.0555V15.1515C35.9747 13.5085 34.643 12.1768 32.9999 12.1768C31.3569 12.1768 30.0252 13.5085 30.0252 15.1515V29.0555C28.8273 29.9609 28.042 31.3828 28.042 33.0001C28.042 35.7388 30.2612 37.958 32.9999 37.958C33.2329 37.958 33.457 37.9203 33.6821 37.8896L42.1156 46.323C43.2777 47.4852 45.1598 47.4842 46.3219 46.322C47.484 45.1599 47.484 43.2779 46.3219 42.1157L37.8894 33.6823ZM32.0083 15.1515C32.0083 14.6032 32.4516 14.1599 32.9999 14.1599C33.5483 14.1599 33.9915 14.6032 33.9915 15.1515V28.1423C33.6712 28.0768 33.34 28.0421 32.9999 28.0421C32.6598 28.0421 32.3286 28.0768 32.0083 28.1423V15.1515ZM30.0252 33.0001C30.0252 31.357 31.3569 30.0253 32.9999 30.0253C34.643 30.0253 35.9747 31.357 35.9747 33.0001C35.9747 34.6431 34.643 35.9748 32.9999 35.9748C31.3569 35.9748 30.0252 34.6431 30.0252 33.0001ZM44.9198 44.9199C44.5321 45.3086 43.9054 45.3086 43.5177 44.9209L35.7308 37.134C36.288 36.7651 36.765 36.2882 37.1338 35.7309L44.9198 43.5178C45.3065 43.9046 45.3065 44.5322 44.9198 44.9199Z" fill="black" stroke="black" stroke-width="0.896"/>
<path d="M33.0008 5.2356C17.6669 5.2356 5.23633 17.6661 5.23633 33C5.23633 48.3339 17.6669 60.7644 33.0008 60.7644C48.3346 60.7644 60.7652 48.3339 60.7652 33C60.7652 17.6661 48.3346 5.2356 33.0008 5.2356ZM51.9153 50.5114L49.83 48.4251C49.4403 48.0384 48.8136 48.0384 48.4269 48.4251C48.0392 48.8138 48.0392 49.4395 48.4269 49.8282L50.5132 51.9145C46.1413 55.9652 40.3643 58.5155 33.9933 58.7565L33.9943 55.8075C33.9923 55.2592 33.5491 54.8159 33.0027 54.8159C32.4534 54.8169 32.0111 55.2592 32.0111 55.8075L32.0102 58.7565C25.6392 58.5155 19.8622 55.9662 15.4903 51.9165L17.5766 49.8302C17.9633 49.4415 17.9633 48.8148 17.5766 48.4281C17.1869 48.0404 16.5622 48.0404 16.1745 48.4281L14.0882 50.5144C10.0386 46.1425 7.48822 40.3655 7.24627 33.9946H10.1953C10.7436 33.9936 11.1868 33.5503 11.1868 33.003C11.1858 32.4537 10.7436 32.0114 10.1953 32.0114H7.24429C7.48525 25.6405 10.0346 19.8625 14.0843 15.4906L16.1706 17.5769C16.5583 17.9646 17.1849 17.9646 17.5727 17.5769C17.9604 17.1882 17.9604 16.5625 17.5727 16.1748L15.4864 14.0885C19.8583 10.0378 25.6362 7.48749 32.0072 7.24653V10.1935C32.0072 10.7419 32.4504 11.1851 32.9988 11.1851C33.5471 11.1851 33.9904 10.7419 33.9904 10.1935V7.24356C40.3613 7.48451 46.1393 10.0339 50.5112 14.0845L48.4249 16.1708C48.0372 16.5585 48.0372 17.1852 48.4249 17.5729C48.8126 17.9606 49.4393 17.9606 49.827 17.5729L51.9143 15.4866C55.9639 19.8585 58.5143 25.6365 58.7552 32.0074H55.8072C55.2589 32.0074 54.8157 32.4507 54.8157 32.999C54.8157 33.5474 55.2589 33.9906 55.8072 33.9906H58.7572C58.5153 40.3626 55.9659 46.1395 51.9153 50.5114Z" fill="black" stroke="black" stroke-width="0.896"/>
</g>
<defs>
<clipPath id="clip0_905_62">
<rect width="66" height="66" fill="white"/>
</clipPath>
</defs>
</svg>
