<?xml version="1.0" encoding="UTF-8" standalone="no"?>
<svg
   viewBox="0 0 24 24"
   fill="none"
   version="1.1"
   id="svg1"
   sodipodi:docname="phone.svg"
   inkscape:version="1.3.2 (091e20e, 2023-11-25, custom)"
   xmlns:inkscape="http://www.inkscape.org/namespaces/inkscape"
   xmlns:sodipodi="http://sodipodi.sourceforge.net/DTD/sodipodi-0.dtd"
   xmlns="http://www.w3.org/2000/svg"
   xmlns:svg="http://www.w3.org/2000/svg">
  <defs
     id="defs1" />
  <sodipodi:namedview
     id="namedview1"
     pagecolor="#ffffff"
     bordercolor="#000000"
     borderopacity="0.25"
     inkscape:showpageshadow="2"
     inkscape:pageopacity="0.0"
     inkscape:pagecheckerboard="0"
     inkscape:deskcolor="#d1d1d1"
     inkscape:zoom="27.458333"
     inkscape:cx="12"
     inkscape:cy="12"
     inkscape:window-width="1280"
     inkscape:window-height="897"
     inkscape:window-x="-8"
     inkscape:window-y="-8"
     inkscape:window-maximized="1"
     inkscape:current-layer="svg1" />
  <g
     id="SVGRepo_bgCarrier"
     stroke-width="0" />
  <g
     id="SVGRepo_tracerCarrier"
     stroke-linecap="round"
     stroke-linejoin="round" />
  <g
     id="SVGRepo_iconCarrier">
    <path
       style="color:#000000;fill:#000000;stroke-linecap:round;stroke-linejoin:round;-inkscape-stroke:none"
       d="M 4.5625,2 C 4.0823705,2 3.6810159,1.9678408 3.2011719,2.1992188 2.8168012,2.3845725 2.5508277,2.6321316 2.3378906,3.0019531 2.0859618,3.4395253 2.0767819,3.8441868 2.0449219,4.2792969 2.0153856,4.6826862 2,5.0893902 2,5.5 2,14.600832 9.3991577,22 18.5,22 c 0.410539,0 0.817138,-0.01534 1.220703,-0.04492 0.435029,-0.03189 0.839827,-0.04119 1.277344,-0.292969 0.370126,-0.213048 0.617482,-0.479029 0.802734,-0.863281 C 22.032368,20.318863 22,19.9176 22,19.4375 v -2.816406 c 0,-0.403117 0.02628,-0.721537 -0.132813,-1.136719 v -0.002 C 21.749711,15.176647 21.559116,14.905699 21.3125,14.691406 20.975975,14.398901 20.668409,14.315715 20.289062,14.177734 l -3.207031,-1.166015 c -0.441459,-0.160486 -0.770487,-0.318202 -1.279297,-0.285156 -0.369612,0.02401 -0.723741,0.149529 -1.02539,0.363281 -0.416185,0.294878 -0.572766,0.624465 -0.814453,1.027344 l -0.279297,0.466796 C 11.884869,13.583286 10.417893,12.115494 9.4160156,10.316406 L 9.8828125,10.037109 C 10.285637,9.7954165 10.615323,9.638688 10.910156,9.2226563 11.123962,8.9209697 11.24942,8.5668686 11.273438,8.1972656 11.306477,7.6884872 11.148758,7.3593856 10.988281,6.9179687 L 9.8222656,3.7109375 C 9.6842794,3.3314978 9.6008891,3.0238836 9.3085938,2.6875 9.093802,2.4403125 8.821315,2.2501933 8.515625,2.1328125 8.099618,1.9730779 7.7826658,2 7.3789062,2 Z M 4.0703125,4 C 4.0021281,4.0328781 4.0823705,4 4.5625,4 h 2.8164062 c 0.4037596,0 0.4898093,0.026835 0.4199219,0 -0.049116,-0.056524 0.00654,0.015072 0.1445313,0.3945312 L 9.109375,7.6015625 c 0.1605226,0.4415422 0.1640827,0.5547626 0.1699219,0.4648438 0,0 -0.00195,0 -0.00195,0 C 9.3294969,7.9928141 9.25633,8.080579 8.8535156,8.3222656 L 7.4863281,9.1425781 A 1.0001,1.0001 0 0 0 7.0898437,10.414063 c 1.3029867,2.871687 3.6241083,5.194529 6.4980473,6.496093 a 1.0001,1.0001 0 0 0 1.269531,-0.396484 l 0.820312,-1.367188 a 1.0001,1.0001 0 0 0 0.002,0 c 0.241712,-0.40292 0.327691,-0.476107 0.253906,-0.423828 0,0 0,-0.002 0,-0.002 -0.09001,0.0058 0.0233,0.0094 0.464843,0.169922 l 3.207032,1.166016 c 0.379452,0.138019 0.451256,0.193836 0.394531,0.144531 -0.02699,-0.07022 0,0.01612 0,0.419922 V 19.4375 c 0,0.4801 -0.03299,0.560553 0,0.492187 0.04132,-0.02378 0.0094,-6.55e-4 -0.425781,0.03125 C 19.219385,19.986951 18.86186,20 18.5,20 10.480039,20 4,13.519951 4,5.5 4,5.1381706 4.0130788,4.778698 4.0390625,4.4238281 4.0709224,3.9887191 4.0942016,3.9585074 4.0703125,4 Z"
       id="path1" />
  </g>
</svg>
