<?xml version="1.0" standalone="no"?>
<!DOCTYPE svg PUBLIC "-//W3C//DTD SVG 20010904//EN"
 "http://www.w3.org/TR/2001/REC-SVG-20010904/DTD/svg10.dtd">
<svg version="1.0" xmlns="http://www.w3.org/2000/svg"
 width="464.000000pt" height="464.000000pt" viewBox="0 0 464.000000 464.000000"
 preserveAspectRatio="xMidYMid meet">

<g transform="translate(0.000000,464.000000) scale(0.100000,-0.100000)"
fill="#000000" stroke="none">
<path d="M2113 4630 c-390 -38 -755 -167 -1071 -377 -156 -104 -250 -183 -388
-326 -683 -704 -847 -1757 -411 -2637 221 -446 592 -818 1042 -1043 878 -440
1935 -278 2639 403 376 364 603 800 688 1320 29 180 31 497 4 675 -63 420
-235 813 -499 1140 -91 112 -283 296 -408 390 -306 229 -653 375 -1034 435
-150 24 -424 33 -562 20z m415 -391 c752 -83 1383 -593 1623 -1310 232 -694
52 -1452 -467 -1973 -310 -310 -726 -511 -1156 -556 -756 -80 -1466 276 -1869
937 -283 465 -348 1077 -168 1604 217 638 775 1131 1435 1270 180 37 418 49
602 28z"/>
<path d="M2229 3413 c-31 -26 -299 -359 -449 -557 -41 -55 -117 -152 -168
-215 -96 -121 -107 -150 -62 -162 14 -4 108 -7 209 -8 l183 -1 -3 -620 c-4
-584 -3 -620 14 -637 16 -16 45 -18 321 -21 279 -3 304 -1 324 15 21 18 21 21
24 528 2 281 4 561 6 623 l3 112 215 0 c183 0 215 2 220 15 7 16 -20 58 -89
141 -85 102 -484 590 -563 689 -72 89 -114 125 -144 125 -5 0 -23 -12 -41 -27z"/>
</g>
</svg>
