<?xml version="1.0" encoding="utf-8"?>
<!-- Generator: Adobe Illustrator 19.0.0, SVG Export Plug-In . SVG Version: 6.00 Build 0)  -->
<svg version="1.1" id="Layer_1" xmlns="http://www.w3.org/2000/svg" xmlns:xlink="http://www.w3.org/1999/xlink" x="0px" y="0px"
	 width="146.9px" height="92px" viewBox="0 0 146.9 92" style="enable-background:new 0 0 146.9 92;" xml:space="preserve">
<style type="text/css">
	.st0{fill:#FFFFFF;}
</style>
<g id="XMLID_19_">
	<g id="XMLID_1083_">
		<path id="XMLID_1084_" class="st0" d="M104,48.4c-0.2,0-0.4,0.3-0.4,0.8c0,0.4,0.2,0.8,0.4,0.8c0.2,0,0.4-0.3,0.4-0.8
			C104.4,48.7,104.2,48.4,104,48.4z M22.3,13.1c-0.2,0-0.3,0.3-0.3,0.6s0.1,0.6,0.3,0.6c0.2,0,0.3-0.3,0.3-0.6S22.5,13.1,22.3,13.1z
			 M97.2,16.6c-0.2,0-0.4,0.4-0.4,0.8c0,0.4,0.2,0.8,0.4,0.8c0.2,0,0.4-0.4,0.4-0.8C97.6,17,97.5,16.6,97.2,16.6z M22.3,39.8
			c-0.2,0-0.3,0.3-0.3,0.6c0,0.3,0.1,0.6,0.3,0.6c0.2,0,0.3-0.3,0.3-0.6C22.6,40,22.5,39.8,22.3,39.8z M97.2,51.3
			c-0.2,0-0.4,0.4-0.4,0.8s0.2,0.8,0.4,0.8c0.2,0,0.4-0.4,0.4-0.8S97.5,51.3,97.2,51.3z M111.1,15c-0.2,0-0.3,0.3-0.3,0.7
			c0,0.4,0.2,0.7,0.3,0.7s0.3-0.3,0.3-0.7C111.5,15.3,111.3,15,111.1,15z M111.1,45.4c-0.2,0-0.3,0.3-0.3,0.7c0,0.4,0.2,0.7,0.3,0.7
			s0.3-0.3,0.3-0.7C111.5,45.7,111.3,45.4,111.1,45.4z M42.7,15.9c-0.2,0-0.4,0.3-0.4,0.7c0,0.4,0.2,0.8,0.4,0.8
			c0.2,0,0.4-0.3,0.4-0.8C43.1,16.2,42.9,15.9,42.7,15.9z M104,15.9c-0.2,0-0.4,0.3-0.4,0.7c0,0.4,0.2,0.8,0.4,0.8
			c0.2,0,0.4-0.3,0.4-0.8C104.4,16.2,104.2,15.9,104,15.9z M117.9,42.4c-0.2,0-0.3,0.3-0.3,0.6c0,0.4,0.1,0.6,0.3,0.6
			c0.2,0,0.3-0.3,0.3-0.6C118.2,42.7,118.1,42.4,117.9,42.4z M81.3,17.6c-0.3,0-0.5,0.4-0.5,0.9c0,0.5,0.2,0.9,0.5,0.9
			c0.3,0,0.5-0.4,0.5-0.9C81.8,18,81.6,17.6,81.3,17.6z M81.3,58c-0.3,0-0.5,0.4-0.5,0.9s0.2,0.9,0.5,0.9c0.3,0,0.5-0.4,0.5-0.9
			S81.6,58,81.3,58z M28.8,13.8c-0.2,0-0.3,0.3-0.3,0.6s0.1,0.6,0.3,0.6c0.2,0,0.3-0.3,0.3-0.6S28.9,13.8,28.8,13.8z M35.6,46.8
			c0.2,0,0.3-0.3,0.3-0.7c0-0.4-0.2-0.7-0.3-0.7s-0.3,0.3-0.3,0.7C35.2,46.5,35.4,46.8,35.6,46.8z M4.3,11.6c0.1,0,0.3-0.2,0.3-0.5
			c0-0.3-0.1-0.5-0.3-0.5c-0.1,0-0.3,0.2-0.3,0.5C4.1,11.4,4.2,11.6,4.3,11.6z M89.3,17.1c-0.2,0-0.4,0.4-0.4,0.9
			c0,0.5,0.2,0.9,0.4,0.9c0.2,0,0.4-0.4,0.4-0.9C89.8,17.5,89.6,17.1,89.3,17.1z M4.4,31.9c-0.1,0-0.3,0.2-0.3,0.5
			c0,0.3,0.1,0.5,0.3,0.5c0.1,0,0.3-0.2,0.3-0.5C4.7,32.2,4.6,31.9,4.4,31.9z M89.3,54.5c-0.2,0-0.4,0.4-0.4,0.9s0.2,0.9,0.4,0.9
			c0.2,0,0.4-0.4,0.4-0.9S89.6,54.5,89.3,54.5z M28.8,42.4c-0.2,0-0.3,0.3-0.3,0.6c0,0.4,0.1,0.6,0.3,0.6c0.2,0,0.3-0.3,0.3-0.6
			C29.1,42.7,28.9,42.4,28.8,42.4z M49.5,18.3c0.2,0,0.4-0.4,0.4-0.8c0-0.4-0.2-0.8-0.4-0.8c-0.2,0-0.4,0.4-0.4,0.8
			C49.1,17.9,49.2,18.3,49.5,18.3z M65.4,17.6c-0.3,0-0.5,0.4-0.5,0.9c0,0.5,0.2,0.9,0.5,0.9c0.3,0,0.5-0.4,0.5-0.9
			C65.8,18,65.6,17.6,65.4,17.6z M65.4,58c-0.3,0-0.5,0.4-0.5,0.9s0.2,0.9,0.5,0.9c0.3,0,0.5-0.4,0.5-0.9S65.6,58,65.4,58z M16,12.1
			c-0.2,0-0.3,0.3-0.3,0.6c0,0.3,0.1,0.6,0.3,0.6c0.2,0,0.3-0.3,0.3-0.6C16.3,12.4,16.2,12.1,16,12.1z M16,37.1
			c-0.2,0-0.3,0.3-0.3,0.6c0,0.3,0.1,0.6,0.3,0.6c0.2,0,0.3-0.3,0.3-0.6C16.3,37.3,16.2,37.1,16,37.1z M35.6,16.4
			c0.2,0,0.3-0.3,0.3-0.7c0-0.4-0.2-0.7-0.3-0.7s-0.3,0.3-0.3,0.7C35.2,16,35.4,16.4,35.6,16.4z M57.4,54.5c-0.2,0-0.4,0.4-0.4,0.9
			s0.2,0.9,0.4,0.9c0.2,0,0.4-0.4,0.4-0.9S57.6,54.5,57.4,54.5z M117.9,13.8c-0.2,0-0.3,0.3-0.3,0.6s0.1,0.6,0.3,0.6
			c0.2,0,0.3-0.3,0.3-0.6S118.1,13.8,117.9,13.8z M49.5,52.9c0.2,0,0.4-0.4,0.4-0.8s-0.2-0.8-0.4-0.8c-0.2,0-0.4,0.4-0.4,0.8
			S49.2,52.9,49.5,52.9z M142.3,31.9c-0.1,0-0.3,0.2-0.3,0.5c0,0.3,0.1,0.5,0.3,0.5c0.1,0,0.3-0.2,0.3-0.5
			C142.5,32.2,142.4,31.9,142.3,31.9z M57.4,17.1c-0.2,0-0.4,0.4-0.4,0.9c0,0.5,0.2,0.9,0.4,0.9c0.2,0,0.4-0.4,0.4-0.9
			C57.8,17.5,57.6,17.1,57.4,17.1z M10.4,34c-0.1,0-0.3,0.2-0.3,0.5c0,0.3,0.1,0.5,0.3,0.5c0.1,0,0.3-0.2,0.3-0.5
			C10.7,34.3,10.6,34,10.4,34z M124.4,13.1c-0.2,0-0.3,0.3-0.3,0.6s0.1,0.6,0.3,0.6c0.2,0,0.3-0.3,0.3-0.6S124.5,13.1,124.4,13.1z
			 M142.4,10.6c-0.1,0-0.3,0.2-0.3,0.5c0,0.3,0.1,0.5,0.3,0.5c0.1,0,0.3-0.2,0.3-0.5C142.6,10.8,142.5,10.6,142.4,10.6z M124.4,39.8
			c-0.2,0-0.3,0.3-0.3,0.6c0,0.3,0.1,0.6,0.3,0.6c0.2,0,0.3-0.3,0.3-0.6C124.7,40,124.5,39.8,124.4,39.8z M42.7,48.4
			c-0.2,0-0.4,0.3-0.4,0.8c0,0.4,0.2,0.8,0.4,0.8c0.2,0,0.4-0.3,0.4-0.8C43.1,48.7,42.9,48.4,42.7,48.4z M10.3,12.2
			c0.1,0,0.3-0.2,0.3-0.5c0-0.3-0.1-0.5-0.3-0.5c-0.1,0-0.3,0.2-0.3,0.5C10.1,12,10.2,12.2,10.3,12.2z M130.6,37.1
			c-0.2,0-0.3,0.3-0.3,0.6c0,0.3,0.1,0.6,0.3,0.6c0.2,0,0.3-0.3,0.3-0.6C130.9,37.3,130.8,37.1,130.6,37.1z M136.4,11.2
			c-0.1,0-0.3,0.2-0.3,0.5c0,0.3,0.1,0.5,0.3,0.5c0.1,0,0.3-0.2,0.3-0.5C136.6,11.4,136.5,11.2,136.4,11.2z M136.3,34
			c-0.1,0-0.3,0.2-0.3,0.5c0,0.3,0.1,0.5,0.3,0.5c0.1,0,0.3-0.2,0.3-0.5C136.5,34.3,136.4,34,136.3,34z M130.6,12.1
			c-0.2,0-0.3,0.3-0.3,0.6c0,0.3,0.1,0.6,0.3,0.6c0.2,0,0.3-0.3,0.3-0.6C130.9,12.4,130.8,12.1,130.6,12.1z M146.8,40.5
			c0-0.9-0.8-1.7-1.7-1.7l-0.4,0v-37c0-1-0.8-1.8-1.8-1.8H3.6c-1,0-1.8,0.8-1.8,1.8v36.4H1.7c-1,0-1.8,0.8-1.8,1.8v4.8
			c0,0.6,0.3,1.2,0.8,1.5l71.7,45.6c0.3,0.2,0.6,0.3,0.9,0.3c0.3,0,0.7-0.1,0.9-0.3L146,46c0.5-0.3,0.8-0.9,0.8-1.5L146.8,40.5z
			 M138.8,1.9l4.1,0v1.3h-2.2V1.9H140v1.3h-1.2V1.9z M134.8,1.9l3.3,0v1.4h-3.3V1.9z M132.7,1.9l1.3,0v1.4h-1.3V1.9z M128.9,1.9
			l3.1,0v1.4h-3.1V1.9z M128.9,3.7h3.1v41.6h0.8V3.7h1.3v40.4h0.8V3.7h3.3v38.6h0.8V3.7h1.2v37.6h0.8V3.7h2.2v36.5l-14.1,7.4V3.7z
			 M126.8,1.9l1.3,0v1.4h-1.3V1.9z M126.8,3.7h1.3v44h0.6l-1.9,1V3.7z M122.7,1.8l3.4,0v1.4h-3.4V1.8z M120.8,1.8l1.1,0v1.4h-1.1
			V1.8z M120.8,3.7h1.1v46.9h0.8V3.7h3.4v45.1h0.6l-5.8,3V3.7z M115.8,1.8l4.3,0v1.4h-4.3V1.8z M108.8,1.8l6.2,0v1.4h-1.3V1.9H113
			v1.3h-4.2V1.8z M106.8,1.8l1.2,0v1.4h-1.2V1.8z M106.8,3.7h1.2v54.4h0.8V3.7h4.2v51.8h0.8V3.7h1.3v50.7h0.8V3.7h4.3v48.2h0.6
			l-13.9,7.3V3.7z M101.7,1.8l4.4,0v1.4h-4.4V1.8z M101.7,3.7h4.4v55.6h0.5l-4.9,2.6V3.7z M101.1,62.2l-1.2,0.7V3.7h1.1v58.5H101.1z
			 M94.7,1.8l6.2,0v1.4h-1.1V1.8h-0.8v1.4h-4.4V1.8z M92.7,1.8l1.3,0v1.4h-1.3V1.8z M92.7,3.7H94v61.7h0.8V3.7h4.4v59.5l-6.4,3.4
			V3.7z M86.8,1.8l5.1,0v1.4h-5.1V1.8z M86.8,3.7h5.1v62.9h0.6l-5.7,3V3.7z M84.7,1.8l1.4,0v1.5h-1.4V1.8z M84.7,3.7h1.4v66h0.5
			l-1.9,1V3.7z M78.8,1.8l5.1,0v1.5h-5.1V1.8z M78.8,3.7h5.1V71h0.3l-5.4,2.8V3.7z M76.7,1.8h0.8l0.6,0v1.5h-1.4V1.8z M76.7,3.7h1.4
			v70.4h0.2L76.7,75V3.7z M73.7,1.8h2.2v1.5h-2.2V1.8z M73.7,3.7h2.2v71.6l-2.2,1.1l0,0V3.7z M70.8,1.8H73v1.5h-2.1V1.8z M70.8,3.7
			H73v72.7l-2.1-1.1V3.7z M68.7,1.8l0.4,0h1v1.5h-1.4V1.8z M68.7,3.7h1.4v71.1l-1.4-0.7V3.7z M62.8,1.8l5.1,0v1.5h-5.1V1.8z
			 M62.8,3.7h5.1v70L62.8,71V3.7z M60.7,1.8l1.4,0v1.5h-1.4V1.8z M60.7,69.8v-66h1.4v66.8L60.7,69.8L60.7,69.8z M54.9,1.8l5.1,0v1.5
			h-5.1V1.8z M54.9,66.7V3.7h5.1v65.7L54.9,66.7L54.9,66.7z M52.8,1.8l1.3,0v1.4h-1.3V1.8z M52.8,65.5V3.7h1.3v62.6l-1.6-0.8H52.8z
			 M45.6,1.8l6.4,0v1.4h-4.4V1.8h-0.8v1.4h-1.3V1.8z M52.1,3.7v61.5l-4.4-2.3V3.7H52.1z M45.6,3.7h1.3v58.7l-1.3-0.7V3.7z M40.7,1.8
			l4.2,0v1.4h-4.2V1.8z M40.7,3.7h4.2v57.6l-4.2-2.2V3.7z M38.8,1.8l1.2,0v1.4h-1.2V1.8z M38.8,3.7H40v55l-1.2-0.6V3.7z M31.8,1.8
			l6.2,0v1.4h-4.2V1.9h-0.8v1.3h-1.3V1.8z M38,3.7v54l-4.2-2.2V3.7H38z M31.8,3.7h1.3v51.3l-1.3-0.7V3.7z M26.7,1.8l4.3,0v1.4h-4.3
			V1.8z M26.7,3.7H31V54l-4.3-2.3V3.7z M24.6,1.8l1.3,0v1.4h-1.3V1.8z M24.6,3.7h1.3v47.5l-1.3-0.7V3.7z M20.7,1.9l3.2,0v1.4h-3.2
			V1.9z M20.7,3.7h3.2v46.4l-3.2-1.7V3.7z M18.7,1.9l1.3,0v1.4h-1.3V1.9z M18.7,3.7H20v44.3l-1.3-0.7V3.7z M14.8,1.9l3.1,0v1.4h-3.1
			V1.9z M14.8,3.7h3.1V47l-3.1-1.7V3.7z M12.8,1.9l1.3,0v1.4h-1.3V1.9z M12.8,44.1V3.7h1.3v41.2l-1.5-0.8H12.8z M8.7,1.9l3.3,0v1.4
			H8.7V1.9z M8.7,3.7H12v40.1l-3.3-1.7V3.7z M3.6,1.9l4.4,0v1.4H6.8V1.9H6v1.3H3.6V1.9z M8,3.7v37.9L6.8,41V3.7H8z M3.6,3.7H6v36.9
			l-2.4-1.3V3.7z M73,90L4.2,46.3l-2.5-1.6v-4.1l71.2,40.3c0,0,0.1,0,0.1,0V90z M73.3,80.2L73.3,80.2L2.2,40.1l1,0l43.7,23.3v0H47
			l26,13.9c0.1,0,0.1,0,0.2,0l0.7,0c0.1,0,0.1,0,0.2,0l69.3-36.3l0.8,0L73.3,80.2z M145,44.5l-11.2,7.2l-60,38.3v-9.3L145,41.3
			l0,0.3V44.5z"/>
	</g>
</g>
</svg>
