<?xml version="1.0" encoding="utf-8"?>
<!-- Generator: Adobe Illustrator 19.0.0, SVG Export Plug-In . SVG Version: 6.00 Build 0)  -->
<svg version="1.1" id="Layer_1" xmlns="http://www.w3.org/2000/svg" xmlns:xlink="http://www.w3.org/1999/xlink" x="0px" y="0px"
	 width="148.6px" height="99.6px" viewBox="0 0 148.6 99.6" style="enable-background:new 0 0 148.6 99.6;" xml:space="preserve">
<style type="text/css">
	.st0{fill:#D8731F;}
	.st1{fill:#C4621A;}
	.st2{fill:#E9C365;}
	.st3{opacity:0.5;}
	.st4{fill:url(#XMLID_184_);}
	.st5{opacity:0.3;}
	.st6{fill:url(#XMLID_187_);}
	.st7{fill:#E9B839;}
	.st8{opacity:0.7;}
	.st9{fill:#FFFFFF;}
</style>
<g id="XMLID_17_">
	<g id="XMLID_2998_">
		<g id="XMLID_167_">
			<path id="XMLID_172_" class="st0" d="M56.2,75.2l-44-24.1v-40h-10v41.3l10,6.5v-0.1l44,28.5v0l17.6,10.8V11.1H56.2V75.2z
				 M126.2,11.1v38.3l9.8,1.8v-40H126.2z"/>
		</g>
	</g>
	<g id="XMLID_2982_">
		<g id="XMLID_162_">
			<path id="XMLID_164_" class="st1" d="M136,11.1v40l0,0v-9.6l-6-28.2v36.6l6,1.2L92,75.2V11.1H74.4v87.1L92,87.4v0l44-28.5v0.1
				l10-6.5V11.1H136z M12.2,51.1l9.7-1.8V11.1h-9.7V51.1z"/>
		</g>
	</g>
	<g id="XMLID_2960_">
		<g id="XMLID_222_">
			<path id="XMLID_223_" class="st0" d="M136.1,5.9l-11,5.3h22.4L136.1,5.9z M12.2,5.9L0.8,11.2h22.4L12.2,5.9z M74.1,1.1l-20.3,10
				h40.4L74.1,1.1z M12.4,51l43.7,23.7V64.4l-34.4-15L12.4,51z M92,64.5l0.1,10.2L135.8,51l-9.4-1.5L92,64.5z"/>
		</g>
	</g>
	<g id="XMLID_2926_">
		<g id="XMLID_582_">
			<path id="XMLID_583_" class="st0" d="M92.1,74.7l17.9-9.1l-17.7,0.2L92.1,74.7z M103,64.6l8.6-0.1l5.5-3.1l-8.8-0.1L103,64.6z
				 M110.8,60.5l8.6-0.1l4.7-2.6l-8.8-0.1L110.8,60.5z M118.2,56.6l8.6-0.1l4.3-2.3l-8.8-0.1L118.2,56.6z M125.4,52.7l7.9,0.1
				l2.8-1.7l-6.5-0.8L125.4,52.7z M136.1,5.9l0.4,5.3h11L136.1,5.9z M12.2,5.9l0.1,5.3h11L12.2,5.9z M74.1,1.1l0.1,10h20L74.1,1.1z
				 M12.4,51l31.3,7.9l-22-9.5L12.4,51z"/>
		</g>
	</g>
	<g id="XMLID_2893_">
		<g id="XMLID_306_">
			<path id="XMLID_307_" class="st2" d="M54.4,13v54.8l1.8,1.3V12.8L54.4,13z M47.2,65.1l5.3,2.5V12.8L47.2,13V65.1z M39.9,61.6
				l5.3,2.5V13l-5.3,0.2V61.6z M32.4,57.5l5.3,2.5V13l-5.3,0.2V57.5z M24.9,54l5.3,2.5V13l-5.3,0.2V54z M18.2,50l4.7,2.5V13
				l-4.7,0.2V50z"/>
		</g>
		<g id="XMLID_298_" class="st3">
			<linearGradient id="XMLID_184_" gradientUnits="userSpaceOnUse" x1="17.9128" y1="3.4769" x2="62.8789" y2="68.4111">
				<stop  offset="0" style="stop-color:#231F20;stop-opacity:0"/>
				<stop  offset="0.3537" style="stop-color:#231F20"/>
				<stop  offset="1" style="stop-color:#231F20;stop-opacity:0"/>
			</linearGradient>
			<path id="XMLID_299_" class="st4" d="M54.4,13v54.8l1.8,1.3V12.8L54.4,13z M47.2,65.1l5.3,2.5V12.8L47.2,13V65.1z M39.9,61.6
				l5.3,2.5V13l-5.3,0.2V61.6z M32.4,57.5l5.3,2.5V13l-5.3,0.2V57.5z M24.9,54l5.3,2.5V13l-5.3,0.2V54z M18.2,50l4.7,2.5V13
				l-4.7,0.2V50z"/>
		</g>
	</g>
	<g id="XMLID_2860_">
		<g id="XMLID_290_">
			<path id="XMLID_291_" class="st2" d="M92.2,69.1l1.8-1.3V13l-1.8-0.2V69.1z M95.9,67.6l5.3-2.5V13l-5.3-0.2V67.6z M103.2,64.1
				l5.3-2.5V13.1l-5.3-0.2V64.1z M110.7,60l5.3-2.5V13.1l-5.3-0.2V60z M118.2,56.5l5.3-2.5V13.1l-5.3-0.2V56.5z M125.6,13v39.5
				l4.7-2.5V13.1L125.6,13z"/>
		</g>
		<g id="XMLID_282_" class="st5">
			<linearGradient id="XMLID_187_" gradientUnits="userSpaceOnUse" x1="76.848" y1="20.4534" x2="140.9255" y2="58.9771">
				<stop  offset="0" style="stop-color:#231F20;stop-opacity:0"/>
				<stop  offset="0.5" style="stop-color:#231F20"/>
				<stop  offset="1" style="stop-color:#231F20;stop-opacity:0"/>
			</linearGradient>
			<path id="XMLID_283_" class="st6" d="M92.2,69.1l1.8-1.3V13l-1.8-0.2V69.1z M95.9,67.6l5.3-2.5V13l-5.3-0.2V67.6z M103.2,64.1
				l5.3-2.5V13.1l-5.3-0.2V64.1z M110.7,60l5.3-2.5V13.1l-5.3-0.2V60z M118.2,56.5l5.3-2.5V13.1l-5.3-0.2V56.5z M125.6,13v39.5
				l4.7-2.5V13.1L125.6,13z"/>
		</g>
	</g>
	<g id="XMLID_2847_">
		<g id="XMLID_170_">
			<path id="XMLID_171_" class="st7" d="M18.4,20.3V22L56,26.6V24L18.4,20.3z M18.4,44.1L56,59v-2.6L18.4,42.4V44.1z"/>
		</g>
	</g>
	<g id="XMLID_2834_">
		<g id="XMLID_213_">
			<path id="XMLID_214_" class="st7" d="M92.4,24v2.6l37.6-4.7v-1.7L92.4,24z M92.4,59l37.6-14.8v-1.7L92.4,56.4V59z"/>
		</g>
	</g>
	<g id="XMLID_21_" class="st8">
		<g id="XMLID_2378_">
			<path id="XMLID_2379_" class="st9" d="M147.7,10.8l-11.4-5.3c-0.1,0-0.2,0-0.3,0l-11,5.3c-0.2,0.1-0.2,0.3-0.2,0.4
				c0,0.2,0.2,0.3,0.4,0.3h0.8v1.3h-0.6c-0.2,0-0.4,0.2-0.4,0.4v7.3l-1.3,0.1v-6.9c0-0.2-0.2-0.4-0.4-0.4h-5.1
				c-0.2,0-0.4,0.2-0.4,0.4v7.5l-1.2,0.1v-7.6c0-0.2-0.2-0.4-0.4-0.4h-5.9c-0.2,0-0.4,0.2-0.4,0.4v8.3l-1.4,0.1v-8
				c0-0.2-0.2-0.3-0.3-0.3h-5.1c-0.2,0-0.3,0.2-0.3,0.3v8.5h0.7v-8.2h4.4v7.7h0.2l-6.5,0.6v-9c0-0.1,0-0.2-0.1-0.3
				c-0.1-0.1-0.2-0.1-0.3-0.1h0l-5.1,0c-0.2,0-0.4,0.2-0.4,0.4v9.6l-1.2,0.1v-9.8c0-0.2-0.2-0.4-0.4-0.4h-1.5v-1.8h1.6
				c0.2,0,0.3-0.1,0.4-0.3c0-0.2,0-0.3-0.2-0.4l-20.1-10c-0.1-0.1-0.2-0.1-0.3,0l-20.3,10c-0.2,0.1-0.2,0.3-0.2,0.4
				c0,0.2,0.2,0.3,0.4,0.3h1.8v1.9h-1.5c-0.2,0-0.4,0.2-0.4,0.4v9.8l-1.3-0.1v-9.7c0-0.2-0.2-0.4-0.4-0.4l-4.9,0
				c-0.1,0-0.2,0-0.3,0.1c-0.1,0.1-0.1,0.2-0.1,0.3v9.1l-1.3-0.1v-9c0-0.2-0.2-0.4-0.4-0.4h-5c-0.2,0-0.4,0.2-0.4,0.4V22l-1.4-0.1
				v-8.6c0-0.2-0.2-0.4-0.4-0.4h-6c-0.2,0-0.4,0.2-0.4,0.4v7.9L30.6,21v-7.8c0-0.2-0.2-0.4-0.4-0.4h-5.1c-0.2,0-0.4,0.2-0.4,0.4v7.1
				l-1.2-0.1V13c0-0.2-0.2-0.4-0.4-0.4h-0.7v-1.1h0.8c0.2,0,0.3-0.1,0.4-0.3c0-0.2,0-0.3-0.2-0.4l-11-5.3c-0.1,0-0.2-0.1-0.3,0
				L0.7,10.8c-0.2,0.1-0.2,0.2-0.2,0.4c0,0.2,0.2,0.3,0.4,0.3H2v41.3h0.6l-0.1,0.2L55.8,87v0.1h0.1L74,98.7c0.1,0,0.1,0.1,0.2,0.1
				s0.1,0,0.2-0.1l71.7-46h0.2V11.5h1.1c0.2,0,0.3-0.1,0.4-0.3C147.9,11.1,147.9,10.9,147.7,10.8z M13,51.3l4.9-1
				c0,0.1,0.1,0.2,0.2,0.3L23,53c0.1,0,0.1,0,0.2,0c0.1,0,0.1,0,0.2-0.1c0.1-0.1,0.2-0.2,0.2-0.3v-2.2l1.2,0.5v3
				c0,0.1,0.1,0.3,0.2,0.3l5.1,2.7c0.1,0,0.1,0,0.2,0c0.1,0,0.1,0,0.2-0.1c0.1-0.1,0.2-0.2,0.2-0.3v-3.2l1.2,0.5v3.7
				c0,0.1,0.1,0.3,0.2,0.3l6,2.9c0.1,0,0.1,0,0.2,0c0.1,0,0.1,0,0.2-0.1c0.1-0.1,0.2-0.2,0.2-0.3V57l1.3,0.6v3.6
				c0,0.1,0.1,0.2,0.2,0.3l5.1,3c0.1,0,0.1,0,0.2,0c0.1,0,0.1,0,0.2,0c0.1-0.1,0.2-0.2,0.2-0.3v-4.1l1.3,0.5v4.6
				c0,0.1,0.1,0.3,0.2,0.3l5,2.5c0,0,0.1,0,0.2,0c0.1,0,0.1,0,0.2-0.1c0.1-0.1,0.2-0.2,0.2-0.3v-4.5l1.2,0.6v4.7
				c0,0.1,0.1,0.3,0.2,0.3l1.7,0.9v4.7L13,51.3z M42.6,68.1v4.4l-12-7.1v-3.7L42.6,68.1z M29.9,61.2v3.7l-9.3-5.6v-3.1L29.9,61.2z
				 M2.7,48.7v-2.1l9.1,4.9v2.6L2.7,48.7z M11.8,18v3l-6.2-0.8v-2.7L11.8,18z M9.6,17.1v-2.7l2.2,0v2.8L9.6,17.1z M9.5,21.5l2.3,0.3
				v3.1l-2.3-0.4V21.5z M11.8,25.6v2.9l-6-1.2v-2.6L11.8,25.6z M9.5,28.7l2.3,0.5v3l-2.3-0.6V28.7z M11.8,33v3l-6-1.9v-2.7L11.8,33z
				 M9.5,36l2.3,0.7v2.9l-2.3-0.9V36z M11.8,40.5v3l-6-2.6v-2.6L11.8,40.5z M9.6,43.3l2.2,1v2.9l-2.2-1.1V43.3z M11.8,47.9v2.7
				l-6-3.2v-2.3L11.8,47.9z M11.8,13.7l-9.1,0v-2.2h9.1V13.7z M8.8,14.4V17l-6.1-0.4v-2.2L8.8,14.4z M4.9,17.5v2.6l-2.2-0.3v-2.5
				L4.9,17.5z M8.7,21.4v2.9l-6-1v-2.7L8.7,21.4z M5.1,24.4v2.6l-2.3-0.5v-2.5L5.1,24.4z M8.7,28.6v2.8l-6-1.6v-2.5L8.7,28.6z
				 M5.1,31.2v2.6l-2.3-0.7v-2.5L5.1,31.2z M8.7,35.8v2.7l-6-2.3v-2.4L8.7,35.8z M5.1,37.9v2.6l-2.3-1V37L5.1,37.9z M8.8,42.9v2.8
				l-6.1-2.8v-2.6L8.8,42.9z M5.1,44.8V47l-2.3-1.2v-2.1L5.1,44.8z M12.6,51.9l7.3,3.9v3.1l-7.3-4.3V51.9z M16.6,49.8l0-2.5l1.3-0.3
				v2.4L16.6,49.8z M17.9,42.8L16.6,43v-3l1.3-0.2V42.8z M17.9,35.5l-1.3,0.2v-3l1.3-0.2V35.5z M17.9,28.3l-1.3,0.1v-2.8l1.3-0.1
				V28.3z M17.9,20.8l-1.3,0.1v-3l1.3-0.1V20.8z M55.8,56.7v2l-37.1-15v-1.1L55.8,56.7z M18.7,41.8V22.4l4.2,0.5v20.5L18.7,41.8z
				 M23.5,43.6V23l1.2,0.2v20.9L23.5,43.6z M25.5,44.4V23.3l4.4,0.6v22.2L25.5,44.4z M30.6,46.3V23.9l1.2,0.2v22.7L30.6,46.3z
				 M32.5,47.1V24.2l5.3,0.7v24.2L32.5,47.1z M38.4,49.3V24.9l1.5,0.2v24.7L38.4,49.3z M40.6,50.2V25.2l4.3,0.6v26L40.6,50.2z
				 M45.7,52.1V25.9l1.2,0.2v26.5L45.7,52.1z M47.6,52.8L47.6,52.8l0.1-26.7l4.4,0.6v27.8L47.6,52.8z M52.6,54.7v-28l1.2,0.2v28.3
				L52.6,54.7z M55.8,59.5v9.3l-1.2-0.6V59L55.8,59.5z M53.9,58.7v4.1l-1.2-0.6v-4L53.9,58.7z M52.3,58.1H52v9l-4.4-2.1v-8.7
				L52.3,58.1z M46.9,55.9L46.9,55.9l0,3.8l-1.3-0.5v-3.8L46.9,55.9z M44.9,55.1v8.4l-4.4-2.6v-7.6L44.9,55.1z M39.8,53.1v3.6
				l-1.3-0.6v-3.5L39.8,53.1z M37.9,52.3v7.6l-5.4-2.5v-7.2L37.9,52.3z M31.8,49.8v3.3l-1.2-0.5v-3.2L31.8,49.8z M29.9,49.1v6.9
				l-4.4-2.3v-6.4L29.9,49.1z M24.8,47v3.1l-1.2-0.5v-3L24.8,47z M22.9,46.2V52l-4.2-2v-5.5L22.9,46.2z M54.6,55.5V27l1.2,0.1v28.8
				L54.6,55.5z M54.6,14.1h1.2v9.6l-1.2-0.1V14.1z M47.6,14l4.3,0v9.3l-4.3-0.5V14z M40.6,14h4.3v8.5l-4.3-0.5V14z M32.5,13.6h5.4
				v8.2l-5.4-0.6V13.6z M25.5,13.6h4.4v7.3l-4.4-0.5V13.6z M55.8,24.5v1.9l-37.1-4.8v-1.2L55.8,24.5z M22.8,13.4v6.8l-4.1-0.4v-6.3
				H22.8z M12.6,6.4l9.1,4.4h-9.1V6.4z M12.6,11.5h9.2v1.1h-3.4c-0.2,0-0.4,0.2-0.4,0.4v0.6l-5.3,0.1V11.5z M12.6,14.4l5.3-0.1v2.7
				l-5.3,0.2V14.4z M12.6,18.1l3.3-0.1v3l-3.3,0.2V18.1z M12.6,21.8l5.3-0.3v3.1l-5.3,0.2V21.8z M12.6,25.7l3.3-0.1v2.9l-3.3,0.2
				V25.7z M12.6,29.3l5.3-0.3v2.7l-5.3,0.6V29.3z M12.6,33.1l3.3-0.4v3l-3.3,0.4V33.1z M12.6,36.9l5.3-0.7v2.8l-5.3,0.8V36.9z
				 M12.6,40.7l3.3-0.5v3l-3.3,0.6V40.7z M12.6,44.5l5.3-0.9v2.8l-5.3,1.1V44.5z M12.6,48.2l3.3-0.7l0,2.4l-3.3,0.6V48.2z M11.8,6.4
				v4.3H2.6L11.8,6.4z M2.7,52.5v-2.8L8,52.8v2.7l-5.1-3.2L2.7,52.5z M14.9,60l-6.2-4v-2.8l6.2,3.7V60z M23,65.2l-7.3-4.7v-3.1
				l7.3,4.3V65.2z M33.7,72l-9.9-6.4v-3.5l9.9,5.9V72z M46,79.9l-11.5-7.4v-4L46,75.4V79.9z M55.8,86.2l-9-5.8v-4.5l9,5.4V86.2z
				 M43.4,72.9v-4.4l16.4,8.9v5.3L43.4,72.9z M66.9,21.9v5.9l-10.4-1.6v-5.3L66.9,21.9z M56.5,20.1v-5.2l3.3,0.1v5.4L56.5,20.1z
				 M59.8,27.5v5.6l-3.3-0.7V27L59.8,27.5z M66.9,35.2V41l-10.4-2.6v-5.2L66.9,35.2z M59.8,39.9v5.5l-3.3-1l0,0v-5.4L59.8,39.9z
				 M66.8,48.4v5.9l-10.3-3.7l0,0.1v-5.4L66.8,48.4z M59.8,52.6V58l-3.3-1.4l0,0.1v-5.3L59.8,52.6z M67,61.8v5.8l-10.5-4.9l-0.1,0.1
				v-5.5L67,61.8z M59.8,65.1v5.2l-3.2-1.5l-0.1,0.1v-5.3L59.8,65.1z M66.9,74.4l0,5.9l-10.4-5.6h0.1v-5.1L66.9,74.4z M67,93.3
				l-10.5-6.7v-5L67,87.8V93.3z M73.8,97.7l-6-3.9v-5.5l6,3.6V97.7z M73.8,91l-13.2-7.9v-5.4l13.2,7.1V91z M73.8,84l-6.2-3.3l0,0
				l0-5.9l6.1,2.9V84z M73.8,76.9l-13.2-6.2v-5.2l13.2,6.1V76.9z M73.8,70.7l-6-2.8v-5.9l6,2.5V70.7z M73.8,63.8l-13.2-5.5v-5.4
				l13.2,4.7V63.8z M73.8,56.8l-6.2-2.2v-5.9l6.2,1.9V56.8z M73.8,49.8l-13.2-4v-5.6l13.2,3.3V49.8z M73.8,42.7l-6.1-1.5v-5.8
				l6.1,1.2V42.7z M73.8,35.8l-13.2-2.6v-5.6l13.2,2V35.8z M73.8,28.9l-6.1-0.9v-6l6.1,0.6V28.9z M73.8,21.8l-13.2-1.3V15l13.2,0.5
				V21.8z M73.8,14.8l-17.3-0.7v-2.7h17.3V14.8z M73.8,10.7H55.5l18.2-9V10.7z M127.8,59.4v-3.2l8.1-4.4v2.7L127.8,59.4z M92.7,74.3
				v-4.7l1.7-0.9c0.1-0.1,0.2-0.2,0.2-0.3v-4.7l1.2-0.6v4.3c0,0.1,0.1,0.2,0.2,0.3c0.1,0,0.1,0.1,0.2,0.1c0.1,0,0.1,0,0.2,0l5.1-2.5
				c0.1-0.1,0.2-0.2,0.2-0.3v-4.5l0,0.1l1.1-0.5v4c0,0.1,0.1,0.2,0.2,0.3c0.1,0,0.1,0,0.2,0c0.1,0,0.1,0,0.2,0l5.1-2.9
				c0.1-0.1,0.2-0.2,0.2-0.3v-4.2l0.2,0.5l1.1-0.5v3.6c0,0.1,0.1,0.3,0.2,0.3c0.1,0,0.1,0.1,0.2,0.1c0.1,0,0.1,0,0.2,0l5.9-2.9
				c0.1-0.1,0.2-0.2,0.2-0.3v-3.7l1.2-0.5v3.2c0,0.1,0.1,0.3,0.2,0.3c0.1,0,0.1,0.1,0.2,0.1c0.1,0,0.1,0,0.2,0l5.1-2.7
				c0.1-0.1,0.2-0.2,0.2-0.3v-3.5l0.2,0.4l1.2-0.5v2.4c0,0.1,0.1,0.3,0.2,0.3c0.1,0,0.1,0.1,0.2,0.1c0.1,0,0.1,0,0.2,0l4.8-2.4
				c0.1-0.1,0.2-0.1,0.2-0.3l5,1L92.7,74.3z M127,56.7v3.2l-9.4,5.6v-3.7L127,56.7z M105.6,68.2l11.3-6.1v3.8l-11.2,6.7L105.6,68.2
				L105.6,68.2z M92.7,27l1.1-0.1v28.6l-1.1,0.4V27z M129.7,42.6v1.1l-37.1,15v-2L129.7,42.6z M94.6,55.2V26.7l1.2-0.1v28.1
				L94.6,55.2z M96.5,54.4V26.5l4.4-0.5v26.8L96.5,54.4z M101.6,52.5V25.9l1.2-0.1V52L101.6,52.5z M103.5,25.6l4.5-0.6v25l-4.4,1.7
				V25.6H103.5z M108.7,49.8V25l1.2-0.1v24.5L108.7,49.8z M110.6,49.1V24.8l5.3-0.6v23L110.6,49.1z M116.6,46.8V24l1.3-0.2v22.4
				L116.6,46.8z M118.7,46V23.8l4.2-0.5v21.2L118.7,46z M123.6,44.1v-21L125,23v20.6L123.6,44.1z M125.7,43.4V22.9l4-0.5v19.4
				L125.7,43.4z M129.7,44.5V50l-4,2v-5.9L129.7,44.5z M125,46.5v3l-1.3,0.6V47L125,46.5z M122.9,47.3v6.4l-4.3,2.3V49L122.9,47.3z
				 M117.8,49.3v3.2l-1.2,0.5v-3.3L117.8,49.3z M115.9,50.1v7.2l-5.2,2.5v-7.7L115.9,50.1z M108.6,53.1l1.4-0.6v3.5l-1.4,0.6
				L108.6,53.1L108.6,53.1z M103.4,55.2l4.5-1.8v7.5l-4.4,2.5v-8.2H103.4z M102.8,55.4v3.8l-1.2,0.5v-3.8L102.8,55.4z M100.9,56.2
				v8.5l-4.4,2.1V58L100.9,56.2z M95.8,58.2v4l-1.2,0.6v-4.1L95.8,58.2z M93.8,59v9.1l-1.1,0.6v-9.3L93.8,59z M92.7,75.1l12.2-6.6
				V73l-12.2,7.3V75.1z M135.9,50.6l-3.1-0.6l0-2.4l3.1,0.6c0,0,0,0,0,0V50.6z M135.9,43.7L135.9,43.7l-3.2-0.5v-3l3.2,0.5
				c0,0,0,0,0,0V43.7z M135.9,36.2L135.9,36.2l-3.2-0.4v-3l3.2,0.4c0,0,0,0,0,0V36.2z M135.9,28.6L135.9,28.6l-3.2-0.2v-2.9l3.2,0.1
				V28.6z M135.9,21.1l-3.2-0.1v-3l3.2,0.1V21.1z M135.9,17.3l-5.4-0.2v-2.7l5.4,0.1V17.3z M132,17.9v3l-1.5-0.1v-3L132,17.9z
				 M135.9,21.8v3.1l-5.4-0.2v-3.1L135.9,21.8z M132,25.5v2.9l-1.5-0.1v-2.8L132,25.5z M135.9,29.3v3l0,0l-5.4-0.7V29L135.9,29.3z
				 M132,32.7v3l-1.5-0.2v-3L132,32.7z M135.9,36.9C135.9,37,135.9,37,135.9,36.9l0,3l0,0l-5.4-0.8v-2.8L135.9,36.9z M132,40.1v3
				l-1.5-0.2v-2.9L132,40.1z M135.9,44.5C135.9,44.5,135.9,44.5,135.9,44.5l0,2.9l0,0l-5.4-1.1v-2.8L135.9,44.5z M132,47.4l0,2.4
				l-1.5-0.3v-2.4L132,47.4z M136.7,51.5l9-4.8v2.2l-9,5.3V51.5z M145.7,16.6l-6.1,0.4v-2.6l6.1,0V16.6z M143.5,17.5l2.2-0.2v2.5
				l-2.2,0.3V17.5z M145.7,20.6v2.7l-6,1v-2.9L145.7,20.6z M143.2,24.5l2.5-0.4v2.5l-2.5,0.5V24.5z M145.7,27.3v2.5l-6,1.6v-2.8
				L145.7,27.3z M143.2,31.2l2.5-0.7v2.5l-2.5,0.8V31.2z M145.7,33.9v2.4l-6,2.3v-2.7L145.7,33.9z M143.2,38l2.5-0.9v2.4l-2.5,1.1
				V38z M145.7,40.3v2.6l-6.1,2.8v-2.8L145.7,40.3z M145.7,43.7v2.1l-2.5,1.3v-2.3L145.7,43.7z M145.7,49.7v2.5l-5.9,3.8v-2.8
				L145.7,49.7z M136.7,6.5l9.2,4.3h-9.2V6.5z M136.7,11.5h9v2.2l-9,0V11.5z M136.7,14.4l2.1,0v2.7l-2.1,0.2V14.4z M136.7,18
				l6.1-0.4v2.7l-6.1,0.7V18z M136.7,21.7l2.2-0.3v3l-2.2,0.4V21.7z M136.7,25.6l5.7-1v2.6l-5.7,1.2V25.6z M136.7,29.2l2.2-0.5v2.9
				l-2.2,0.6V29.2z M136.7,33l5.7-1.5v2.7l-5.7,1.8V33z M136.7,36.7l2.2-0.7v2.7l-2.2,0.8V36.7z M136.7,40.4l5.7-2.2v2.6l-5.7,2.5
				V40.4z M136.7,44.2l2.1-0.9v2.8l-2.1,1V44.2z M142.4,45.2v2.3l-5.7,3.1v-2.7L142.4,45.2z M135.9,6.3v4.4h-9.1L135.9,6.3z
				 M126.7,11.5h9.3v2.2l-5.4-0.1v-0.4c0-0.2-0.2-0.4-0.4-0.4h-3.4V11.5z M125.7,13.6h4V20l-4,0.4V13.6z M118.6,14h4.3v6.6l-4.3,0.4
				V14z M110.7,14.1h5.2v7.3l-5.2,0.5V14.1z M96.5,14.1l4.4,0v8.7l-4.4,0.4V14.1z M129.7,20.8v0.9l-37.1,4.6v-1.8L129.7,20.8z
				 M93.8,14v9.5l-1.1,0.1V14H93.8z M74.5,1.6l18.2,9.1H74.5V1.6z M74.5,11.4h17.4v2.7l-17.4,0.7V11.4z M87.5,77.1v-5.4l4.4-2.1v5.1
				L87.5,77.1z M91.9,75.5v5.2l-10.3,6.1v-5.7L91.9,75.5z M81.5,73.7v-5.2l10.5-4.9v5.2L81.5,73.7z M87.6,64.8v-5.5l4.4-1.8v5.3
				L87.6,64.8z M81.5,61v-5.8l10.5-3.8v5.2L81.5,61z M87.6,52.2v-5.6l4.3-1.3v5.4L87.6,52.2z M81.6,47.6v-5.9l10.3-2.6v5.4
				L81.6,47.6z M87.7,39.4V34l4.2-0.8v5.2L87.7,39.4z M81.6,34.4v-5.9L91.9,27v5.5L81.6,34.4z M87.6,26.9v-5.6l4.3-0.4v5.3
				L87.6,26.9z M81.5,21.1v-5.9l10.4-0.4v5.3L81.5,21.1z M74.5,15.6l6.3-0.2v5.9l-6.3,0.6V15.6z M74.5,22.6l12.4-1.2V27l-12.4,1.9
				V22.6z M74.5,29.6l6.3-1v5.9l-6.3,1.2V29.6z M74.5,36.6l12.4-2.4v5.4l-12.4,3.2V36.6z M74.5,43.5l6.4-1.6v6l-6.4,2V43.5z
				 M74.5,50.6l12.4-3.8v5.6l-6,2.2h-0.2v0.1l-6.2,2.2V50.6z M74.5,57.7l6.2-2.2v5.8l-6.2,2.6V57.7z M74.5,64.7l12.3-5.1v5.6
				l-12.3,5.7V64.7z M74.5,71.7l6.2-2.9V74l-6.2,2.9V71.7z M74.5,77.8l6.9-3.3h0.1v0l5.3-2.5v5.5l-12.2,6.6V77.8z M74.5,84.9
				l6.3-3.4v5.8L74.5,91V84.9z M86.9,89.9l-12.4,7.9v-5.9l12.4-7.3V89.9z M101.9,80.3l-14.3,9.1v-5.3l14.3-8.5V80.3z M113.9,72.6
				l-11.2,7.2v-4.6l11.2-6.7V72.6z M124,66.1l-9.3,6v-4l9.3-5.5V66.1z M132.1,60.9l-7.4,4.7v-3.5h-0.1l7.4-4.4V60.9z M132.8,57.3
				l3.8-2.3h0.1v0l2.3-1.4v2.9l-6.2,4V57.3z"/>
		</g>
	</g>
	<path id="XMLID_18_" class="st9" d="M74.2,99.6c-0.2,0-0.3,0-0.5-0.1L1.2,53.1c-0.3-0.2-0.4-0.4-0.4-0.7V12.1
		C0.5,12,0.1,11.8,0,11.5c-0.1-0.4,0.1-0.8,0.5-1l11.4-5.4c0.2-0.1,0.5-0.1,0.8,0l11,5.3c0.4,0.2,0.6,0.6,0.5,1
		c-0.1,0.4-0.4,0.7-0.9,0.7h-0.2l0,0.6h32.2V12h-1.1c-0.4,0-0.8-0.3-0.9-0.7c-0.1-0.4,0.1-0.8,0.5-1l20-10.3c0.2-0.1,0.5-0.1,0.8,0
		l20.1,10.3c0.4,0.2,0.5,0.6,0.5,1c-0.1,0.4-0.4,0.7-0.9,0.7h-1.1v0.7h32.2l0-0.6h-0.2c-0.4,0-0.8-0.3-0.9-0.7
		c-0.1-0.4,0.1-0.8,0.5-1l11-5.3c0.2-0.1,0.5-0.1,0.8,0l11.4,5.4c0.4,0.2,0.6,0.6,0.5,1c-0.1,0.4-0.4,0.7-0.9,0.7h-0.1v40.2
		c0,0.3-0.2,0.6-0.4,0.7L74.8,99.4C74.7,99.5,74.5,99.6,74.2,99.6C74.3,99.5,74.3,99.6,74.2,99.6z M2.4,51.9l71.9,46l71.6-46V11.4
		l-9.6-4.5l-9.1,4.4v0l-0.1,2.3c0,0.5-0.4,0.8-0.9,0.8H92.4c-0.5,0-0.9-0.4-0.9-0.9v-2.5c0-0.2,0-0.3,0.1-0.4L74.2,1.9L57,10.7
		c0.1,0.1,0.1,0.3,0.1,0.4v2.5c0,0.5-0.4,0.9-0.9,0.9H22.3c-0.5,0-0.9-0.4-0.9-0.8l-0.1-2.3c0,0,0,0,0,0l-9.1-4.4l-9.9,4.6V51.9z"/>
</g>
</svg>
