<?xml version="1.0" encoding="utf-8"?>
<!-- Generator: Adobe Illustrator 19.0.0, SVG Export Plug-In . SVG Version: 6.00 Build 0)  -->
<svg version="1.1" id="Layer_1" xmlns="http://www.w3.org/2000/svg" xmlns:xlink="http://www.w3.org/1999/xlink" x="0px" y="0px"
	 width="137.3px" height="95.9px" viewBox="0 0 137.3 95.9" style="enable-background:new 0 0 137.3 95.9;" xml:space="preserve">
<style type="text/css">
	.st0{fill:#FFFFFF;}
</style>
<g id="XMLID_327_">
	<g id="XMLID_331_">
		<g id="XMLID_3054_">
			<path id="XMLID_3055_" class="st0" d="M136.5,9.1c-0.1-0.1-0.2-0.2-0.3-0.2l0,0c-0.6-0.3-1.2-0.8-1.3-1c0.7-0.5,1.2-1.3,1.2-2.2
				c0-1.5-1.2-2.6-2.6-2.6c-1.5,0-2.6,1.2-2.6,2.6c0,1,0.6,1.9,1.4,2.3c-0.2,0.3-0.7,0.7-1.4,1c-0.1,0.1-0.2,0.2-0.2,0.3v0.2
				c0,0.2,0.2,0.4,0.4,0.4l0.5,0V15l-3,0.4v-5c0.2-0.1,0.3-0.1,0.3-0.2c0-0.1-0.1-0.2-0.3-0.2V9.4c0.3-0.2,0.6-0.7,0.6-1.2
				c0-0.8-0.4-1.4-1-1.4c-0.6,0-1,0.6-1,1.4c0,0.5,0.2,0.9,0.4,1.1c0,0,0,0.1,0,0.1v0.7c-0.1,0-0.1,0.1-0.1,0.2
				c0,0.1,0.1,0.1,0.1,0.2v5.1l-3,0.4v-5.3c0.2-0.1,0.3-0.1,0.3-0.2s-0.1-0.2-0.3-0.2V9.5c0,0,0,0,0,0c0.3-0.3,0.5-0.7,0.5-1.2
				c0-0.8-0.5-1.4-1.1-1.4c-0.6,0-1.1,0.6-1.1,1.4c0,0.5,0.2,1,0.5,1.2v0.7c-0.2,0.1-0.3,0.1-0.3,0.2s0.1,0.2,0.3,0.2v5.4l-3.7,0.5
				v-5.8c0.2-0.1,0.3-0.2,0.3-0.2c0-0.1-0.1-0.2-0.3-0.2V9.6c0.3-0.3,0.6-0.7,0.6-1.3c0-0.8-0.5-1.5-1.2-1.5c-0.7,0-1.2,0.7-1.2,1.5
				c0,0.5,0.2,1,0.5,1.2v0.8c-0.2,0.1-0.3,0.1-0.3,0.2c0,0.1,0.1,0.2,0.3,0.2v5.9l-4.6,0.6v-6.3c0.2-0.1,0.4-0.2,0.4-0.3
				c0-0.1-0.2-0.2-0.4-0.2V9.8c0.4-0.3,0.7-0.8,0.7-1.4c0-0.9-0.6-1.6-1.3-1.6c-0.7,0-1.3,0.7-1.3,1.6c0,0.6,0.2,1,0.6,1.3v0.8
				c-0.2,0.1-0.4,0.2-0.4,0.3s0.1,0.2,0.4,0.2v6.4l-4.5,0.6v-6.8c0.3-0.1,0.5-0.2,0.5-0.3c0-0.1-0.2-0.2-0.5-0.3V9.9
				c0.4-0.3,0.8-0.8,0.8-1.5c0-0.9-0.6-1.6-1.4-1.6c-0.8,0-1.5,0.7-1.5,1.7c0,0.6,0.3,1.1,0.7,1.4v0.9c-0.3,0.1-0.5,0.2-0.5,0.3
				c0,0.1,0.2,0.2,0.5,0.3v6.9l-5.8,0.8v-7.4c0.4-0.1,0.7-0.2,0.7-0.4c0-0.1-0.3-0.2-0.7-0.3v-0.9c0.5-0.3,0.9-0.9,0.9-1.6
				c0-1-0.7-1.7-1.6-1.7c-0.9,0-1.6,0.8-1.6,1.8c0,0.6,0.3,1.2,0.8,1.5v1c-0.4,0.1-0.6,0.2-0.6,0.3s0.2,0.2,0.6,0.3v7.6l-7.1,0.9
				v-8.4c0.5-0.1,0.8-0.2,0.8-0.4c0-0.2-0.3-0.3-0.8-0.3v-0.8c0.7-0.3,1.1-1,1.1-1.7c0-1-0.8-1.8-1.8-1.8c-1,0-1.8,0.8-1.8,1.9
				c0,0.7,0.4,1.3,0.9,1.6h0v1c-0.5,0.1-0.8,0.2-0.8,0.4c0,0.2,0.3,0.3,0.8,0.3v8.5l-7.3,1v-8.6c0.4-0.1,0.7-0.2,0.7-0.4
				c0-0.1-0.3-0.2-0.7-0.3v-1.6c0.5-0.4,0.8-0.9,0.8-1.6c0-1.1-0.9-2-2.1-2c-1.2,0-2.1,0.9-2.1,2c0,0.7,0.4,1.3,0.9,1.6v1.6
				c-0.5,0.1-0.8,0.2-0.8,0.4c0,0.2,0.3,0.3,0.8,0.3v8.8l-9.3,1.2v-9.1l1.3,0c0.2,0,0.4-0.2,0.4-0.4v-0.6c0-0.1-0.1-0.3-0.2-0.3
				c-1.2-0.6-2.9-1.7-2.9-2.4V9.2c1.3-0.7,2.2-2.1,2.2-3.7c0-2.3-1.9-4.3-4.3-4.3c-2.3,0-4.3,1.9-4.3,4.3c0,1.6,0.9,3,2.2,3.7V10
				c0,0.7-1.7,1.8-2.9,2.4c-0.1,0.1-0.2,0.2-0.2,0.4v0.6c0,0.2,0.2,0.4,0.4,0.4h1.5v8.9l-8.5-1.1v-8.7c0.5-0.1,0.8-0.2,0.8-0.3
				c0-0.1-0.3-0.3-0.8-0.4v-1.6c0.6-0.4,0.9-1,0.9-1.6c0-1.1-0.9-2-2.1-2c-1.1,0-2.1,0.9-2.1,2c0,0.6,0.3,1.2,0.8,1.6v1.6
				c-0.4,0.1-0.7,0.2-0.7,0.3c0,0.1,0.3,0.3,0.7,0.4v8.5l-7.3-0.9v-8.5c0.5-0.1,0.8-0.2,0.8-0.3c0-0.1-0.3-0.3-0.8-0.4v-1h0
				c0.5-0.3,0.9-0.9,0.9-1.6c0-1-0.8-1.9-1.8-1.9c-1,0-1.8,0.8-1.8,1.8c0,0.8,0.5,1.4,1.1,1.7v0.8c-0.5,0.1-0.8,0.2-0.8,0.3
				c0,0.2,0.3,0.3,0.8,0.4v8.3l-7.1-0.9v-7.5c0.4-0.1,0.6-0.2,0.6-0.3s-0.2-0.3-0.6-0.3v-1c0.5-0.3,0.8-0.9,0.8-1.5
				c0-1-0.7-1.8-1.6-1.8c-0.9,0-1.6,0.8-1.6,1.7c0,0.7,0.4,1.3,0.9,1.6V11c-0.4,0.1-0.7,0.2-0.7,0.3c0,0.1,0.3,0.3,0.7,0.4V19
				l-5.8-0.8v-6.9c0.3-0.1,0.5-0.1,0.5-0.3c0-0.1-0.2-0.2-0.5-0.3V9.9c0.4-0.3,0.7-0.8,0.7-1.4c0-0.9-0.7-1.7-1.5-1.7
				c-0.8,0-1.4,0.7-1.4,1.6c0,0.6,0.3,1.2,0.8,1.5v0.8c-0.3,0.1-0.5,0.1-0.5,0.3c0,0.1,0.2,0.2,0.5,0.3v6.7l-4.5-0.6v-6.4
				C24.8,11,25,11,25,10.9s-0.1-0.2-0.4-0.3V9.8C25,9.5,25.2,9,25.2,8.4c0-0.9-0.6-1.6-1.3-1.6c-0.7,0-1.3,0.7-1.3,1.6
				c0,0.6,0.3,1.1,0.7,1.4v0.8c-0.2,0.1-0.4,0.1-0.4,0.2c0,0.1,0.2,0.2,0.4,0.3v6.2l-4.6-0.6v-5.9c0.2-0.1,0.3-0.1,0.3-0.2
				c0-0.1-0.1-0.2-0.3-0.2V9.6c0.3-0.3,0.5-0.7,0.5-1.2c0-0.8-0.5-1.5-1.2-1.5c-0.7,0-1.2,0.7-1.2,1.5c0,0.6,0.2,1,0.6,1.3v0.7
				c-0.2,0-0.3,0.1-0.3,0.2c0,0.1,0.1,0.2,0.3,0.2v5.7l-3.7-0.5v-5.4c0.2,0,0.3-0.1,0.3-0.2s-0.1-0.2-0.3-0.2V9.5
				c0.3-0.2,0.5-0.7,0.5-1.2c0-0.8-0.5-1.4-1.1-1.4c-0.6,0-1.1,0.6-1.1,1.4c0,0.5,0.2,1,0.5,1.2c0,0,0,0,0,0v0.6
				c-0.2,0-0.3,0.1-0.3,0.2s0.1,0.2,0.3,0.2v5.3l-3-0.4v-5.1c0.1,0,0.1-0.1,0.1-0.2c0-0.1-0.1-0.1-0.1-0.2V9.4c0,0,0-0.1,0-0.1
				C9.9,9.1,10,8.7,10,8.2c0-0.8-0.5-1.4-1-1.4c-0.6,0-1,0.6-1,1.4c0,0.5,0.2,1,0.6,1.2V10c-0.2,0-0.3,0.1-0.3,0.2
				c0,0.1,0.1,0.2,0.3,0.2v5l-3-0.4V9.9l0.5,0c0.2,0,0.4-0.2,0.4-0.4V9.3c0-0.1-0.1-0.3-0.2-0.3C5.7,8.7,5,8.3,4.9,8
				c0.8-0.4,1.4-1.3,1.4-2.3C6.2,4.2,5.1,3,3.6,3C2.2,3,1,4.2,1,5.7c0,0.9,0.5,1.8,1.2,2.2c-0.1,0.3-0.7,0.7-1.3,1
				C0.8,8.9,0.7,9,0.6,9.1c-0.1,0.1-0.1,0.2,0,0.3l0.1,0.2C0.8,9.8,0.9,9.9,1,9.9L1.8,10v41.7c0,0.1,0.1,0.2,0.2,0.3l1.4,1
				C3.3,53,3.4,53,3.5,53c0.1,0,0.1,0,0.2,0l1.6-0.9c0.1-0.1,0.2-0.2,0.2-0.3v-1.8l3,1.8v4.2c0,0.1,0,0.2,0.1,0.3L9,56.4
				c0.1,0.1,0.2,0.1,0.3,0.1c0.1,0,0.1,0,0.2,0c0.1-0.1,0.2-0.2,0.2-0.3v-3.8l3,1.7v4.6c0,0.1,0.1,0.2,0.1,0.3l0.4,0.3
				c0.1,0.1,0.2,0.1,0.2,0.1c0.1,0,0.1,0,0.2,0c0.1-0.1,0.2-0.2,0.2-0.3v-4.3l3.7,2.1v4.9c0,0.1,0.1,0.2,0.2,0.3l0.5,0.4
				c0.1,0,0.1,0.1,0.2,0.1c0.1,0,0.1,0,0.2,0c0.1-0.1,0.2-0.2,0.2-0.3v-4.6l4.6,2.7v5.1c0,0.1,0.1,0.2,0.2,0.3l0.6,0.4
				c0.1,0,0.1,0.1,0.2,0.1c0.1,0,0.1,0,0.2,0c0.1-0.1,0.2-0.2,0.2-0.3v-4.7l4.5,2.6v5.7c0,0.1,0.1,0.2,0.2,0.3l0.7,0.5
				c0.1,0,0.1,0.1,0.2,0.1c0.1,0,0.1,0,0.2,0c0.1-0.1,0.2-0.2,0.2-0.3v-5.3l5.8,3.4V74c0,0.1,0.1,0.2,0.2,0.3l0.8,0.5
				c0.1,0,0.1,0.1,0.2,0.1c0.1,0,0.1,0,0.2,0c0.1-0.1,0.2-0.2,0.2-0.3v-5.7l7.1,4.1v6.5c0,0.1,0.1,0.2,0.2,0.3l0.9,0.6
				c0.1,0,0.1,0.1,0.2,0.1c0.1,0,0.1,0,0.2,0c0.1-0.1,0.2-0.2,0.2-0.3v-6.1l7.3,4.2v7.2c0,0.1,0.1,0.2,0.2,0.3l1.7,1.1
				c0.1,0,0.1,0.1,0.2,0.1c0.1,0,0.1,0,0.2,0c0.1-0.1,0.2-0.2,0.2-0.3v-6.9l8.5,5v8.3c0,0.1,0.1,0.2,0.2,0.3l2.9,1.8
				C68,95,68,95,68.1,95c0.1,0,0.1,0,0.2-0.1l3.1-1.8c0.1-0.1,0.2-0.2,0.2-0.3V85l9.3-5.4v6.9c0,0.1,0.1,0.3,0.2,0.3
				c0.1,0,0.1,0,0.2,0c0.1,0,0.1,0,0.2-0.1l1.7-1.1c0.1-0.1,0.2-0.2,0.2-0.3v-7.2l7.3-4.2V80c0,0.1,0.1,0.3,0.2,0.3
				c0.1,0,0.1,0,0.2,0c0.1,0,0.1,0,0.2-0.1l0.9-0.6c0.1-0.1,0.2-0.2,0.2-0.3v-6.5l7.1-4.1v5.7c0,0.1,0.1,0.3,0.2,0.3
				c0.1,0,0.1,0,0.2,0c0.1,0,0.1,0,0.2-0.1l0.8-0.5c0.1-0.1,0.2-0.2,0.2-0.3v-6.1l5.8-3.4v5.3c0,0.1,0.1,0.3,0.2,0.3
				c0.1,0,0.1,0,0.2,0c0.1,0,0.1,0,0.2-0.1l0.7-0.5c0.1-0.1,0.2-0.2,0.2-0.3v-5.7l4.5-2.6v4.7c0,0.1,0.1,0.3,0.2,0.3
				c0.1,0,0.1,0,0.2,0c0.1,0,0.1,0,0.2-0.1l0.6-0.4c0.1-0.1,0.2-0.2,0.2-0.3v-5.1l4.6-2.7v4.5c0,0.1,0.1,0.3,0.2,0.3
				c0.1,0,0.1,0,0.2,0c0.1,0,0.1,0,0.2-0.1l0.5-0.4c0.1-0.1,0.2-0.2,0.2-0.3v-4.9l3.7-2.1V59c0,0.1,0.1,0.3,0.2,0.3
				c0.1,0,0.1,0,0.2,0c0.1,0,0.2,0,0.2-0.1l0.4-0.3c0.1-0.1,0.1-0.2,0.1-0.3v-4.6l3-1.7v3.8c0,0.1,0.1,0.3,0.2,0.3c0,0,0.1,0,0.2,0
				c0.1,0,0.2,0,0.3-0.1l0.3-0.3c0.1-0.1,0.1-0.2,0.1-0.3v-4.2l3-1.8v1.8c0,0.1,0.1,0.3,0.2,0.3l1.6,0.9c0.1,0,0.1,0,0.2,0
				c0.1,0,0.2,0,0.2-0.1l1.4-1c0.1-0.1,0.2-0.2,0.2-0.3V10l0.7-0.1c0.1,0,0.3-0.1,0.3-0.2l0.1-0.2C136.6,9.3,136.6,9.2,136.5,9.1z
				 M131.7,5.7c0-1,0.8-1.9,1.9-1.9c1,0,1.9,0.8,1.9,1.9c0,0.6-0.2,1-0.6,1.4c-0.1-0.1-0.2-0.1-0.3-0.1c-0.2,0-0.4,0.2-0.4,0.4v0.1
				c-0.2,0.1-0.4,0.1-0.6,0.1c-0.1,0-0.3,0-0.4-0.1V7.3c0-0.2-0.2-0.4-0.4-0.4c-0.1,0-0.3,0.1-0.3,0.2C132,6.8,131.7,6.3,131.7,5.7z
				 M128.2,7.6c0.1,0,0.3,0.2,0.3,0.6c0,0.4-0.2,0.6-0.3,0.6l0,0c0,0,0,0,0,0V8.8c-0.1,0-0.3-0.2-0.3-0.6
				C127.9,7.8,128.1,7.6,128.2,7.6z M124,7.6c0.1,0,0.3,0.3,0.3,0.7c0,0.4-0.2,0.7-0.4,0.7l0,0.1l0,0V9c-0.1,0-0.3-0.3-0.3-0.7
				C123.7,7.9,123.9,7.6,124,7.6z M119.2,7.6c0.2,0,0.4,0.3,0.4,0.7c0,0.4-0.2,0.8-0.4,0.8v0l0,0v0c-0.2,0-0.4-0.3-0.4-0.7
				C118.7,7.9,118.9,7.6,119.2,7.6z M113.3,7.6c0.3,0,0.5,0.4,0.5,0.8c0,0.4-0.3,0.8-0.6,0.8l0,0v0c-0.3,0-0.5-0.4-0.5-0.8
				C112.7,8,113,7.6,113.3,7.6z M107.4,7.6c0.4,0,0.7,0.4,0.7,0.9c0,0.5-0.3,0.9-0.7,0.9l0,0c-0.4,0-0.7-0.4-0.7-0.9
				C106.7,8,107,7.6,107.4,7.6z M99.3,8.6c0-0.6,0.4-1,0.9-1c0.5,0,0.8,0.4,0.8,1c0,0.5-0.4,1-0.8,1l0,0.4V9.6
				C99.6,9.6,99.3,9.2,99.3,8.6z M100.1,11v-0.6c0,0,0,0,0,0h0L100.1,11C100.1,11,100.1,11,100.1,11z M100.1,11.7v7.4l0,0
				L100.1,11.7C100.1,11.7,100.1,11.7,100.1,11.7z M90.5,8.6c0-0.6,0.5-1.1,1.1-1.1c0.6,0,1,0.5,1,1.1c0,0.6-0.5,1.1-1.1,1.1l0,0.4
				V9.7C90.9,9.7,90.5,9.2,90.5,8.6z M91.5,11.1c0,0-0.1,0-0.1,0v-0.6c0.1,0,0.1,0,0.2,0L91.5,11.1C91.5,11.1,91.5,11.1,91.5,11.1z
				 M91.5,11.9v8.4l-0.2,0v-8.4C91.4,11.9,91.4,11.9,91.5,11.9C91.5,11.9,91.5,11.9,91.5,11.9z M80.7,9c0-0.7,0.6-1.3,1.3-1.3
				c0.7,0,1.3,0.5,1.3,1.2c0,0.7-0.6,1.2-1.3,1.3l0,0.4v-0.4C81.3,10.2,80.7,9.6,80.7,9z M82,12c-0.1,0-0.3,0-0.4,0v-1.2
				c0.1,0,0.3,0,0.4,0c0,0,0.1,0,0.1,0c0.2,0,0.3,0,0.5-0.1V12C82.4,12,82.2,12,82,12z M82.5,12.9v8.6l-0.9,0.1v-8.6
				c0.1,0,0.3,0,0.4,0C82.2,12.9,82.4,12.9,82.5,12.9z M132.8,15.6v0.3l-61.3,8.8v-1.1L132.8,15.6z M130.7,43.9
				c0.1,0,0.2-0.1,0.3-0.1c0.3,0,0.6,0.5,0.6,1.2c0,1.1-0.5,2.3-1.2,2.6c-0.1,0.1-0.2,0.1-0.3,0.1c-0.3,0-0.6-0.5-0.6-1.2
				C129.5,45.5,130.1,44.2,130.7,43.9z M128.8,46.2C128.7,46.3,128.7,46.3,128.8,46.2l-0.2,0.1v-2.2l1.7-0.8
				C129.5,43.8,128.9,45,128.8,46.2z M71.5,71.2v-1.2l61.2-29v0.3L71.5,71.2z M124.9,48.7C124.9,48.6,124.9,48.6,124.9,48.7
				c0.1-1.1,0.6-2.1,1.3-2.4c0.1-0.1,0.2-0.1,0.3-0.1c0.4,0,0.7,0.5,0.7,1.3c0,1.1-0.6,2.4-1.3,2.8c-0.1,0.1-0.3,0.1-0.4,0.1
				c-0.4,0-0.7-0.5-0.7-1.3C125,49,125,48.8,124.9,48.7z M125.5,51.2c0.2,0,0.5-0.1,0.7-0.2c0.5-0.3,1-0.9,1.3-1.6v0.9l-3,1.7v-1.3
				C124.8,51,125.2,51.2,125.5,51.2z M126.6,45.4c-0.2,0-0.4,0.1-0.7,0.2c-0.5,0.3-1,0.8-1.3,1.5v-0.9l3-1.4v1.3
				C127.3,45.6,127,45.4,126.6,45.4z M120.9,53.7c0.3,0,0.6-0.1,0.8-0.2c0.7-0.4,1.4-1.3,1.7-2.3v1.4l-3.7,2.1v-1.7
				C120.1,53.5,120.5,53.7,120.9,53.7z M120.2,51.6c0,0,0-0.1,0-0.1c0-0.1,0-0.1,0-0.2c0.1-1.2,0.8-2.4,1.6-2.8
				c0.1-0.1,0.3-0.1,0.4-0.1c0.5,0,0.8,0.5,0.8,1.4c0,1.2-0.7,2.6-1.5,3.1c-0.2,0.1-0.3,0.1-0.5,0.1C120.5,53,120.2,52.5,120.2,51.6
				z M122.2,47.7c-0.2,0-0.5,0.1-0.7,0.2c-0.7,0.3-1.3,1.1-1.6,2v-1.4l3.7-1.8v1.9C123.2,48,122.7,47.7,122.2,47.7z M114.7,54
				c0-0.1-0.1-0.1-0.2-0.2c0.1-1.3,0.9-2.6,1.8-3.1c0.2-0.1,0.4-0.1,0.5-0.1c0.5,0,0.9,0.6,0.9,1.4c0,1.3-0.8,2.8-1.8,3.3
				c-0.2,0.1-0.4,0.2-0.6,0.2c-0.5,0-0.8-0.4-0.8-1.1C114.8,54.4,114.8,54.2,114.7,54z M113.9,53.3v-2l1.5-0.7
				C114.7,51.3,114.1,52.3,113.9,53.3z M115.4,56.4c0.3,0,0.6-0.1,1-0.3c1-0.6,1.9-2,2.1-3.3v2.7l-4.6,2.6V55
				C114.1,55.8,114.7,56.4,115.4,56.4z M116.9,49.9c0,0-0.1,0-0.1,0l1.7-0.8v2.4C118.3,50.5,117.7,49.9,116.9,49.9z M108.6,57.3
				c-0.1-0.1-0.1-0.2-0.2-0.2c0.2-1.3,1-2.8,2.1-3.3c0.2-0.1,0.5-0.2,0.7-0.2c0.6,0,1,0.6,1,1.5c0,1.4-0.9,3-2,3.7
				c-0.3,0.2-0.5,0.2-0.8,0.2c-0.5,0-0.9-0.5-1-1.2l0.1,0C108.6,57.7,108.7,57.5,108.6,57.3z M108.1,55.4v-1.2l1.6-0.8
				C109,53.9,108.5,54.6,108.1,55.4z M109.3,59.8c0.4,0,0.7-0.1,1.1-0.3c0.9-0.5,1.7-1.6,2.1-2.7v2.1l-4.5,2.5v-2.2
				C108.4,59.6,108.8,59.8,109.3,59.8z M111.1,52.9c-0.2,0-0.3,0-0.5,0.1l1.9-0.9v1.8C112.3,53.2,111.7,52.9,111.1,52.9z M101.5,61
				C101.5,61,101.5,61,101.5,61c0-1.6,1.1-3.3,2.4-4c0.3-0.1,0.6-0.2,0.8-0.2c0.7,0,1.2,0.6,1.2,1.6c0,1.5-1.1,3.3-2.4,4
				c-0.3,0.2-0.7,0.3-1,0.3c-0.7,0-1-0.5-1.1-1.3C101.6,61.3,101.6,61.1,101.5,61z M100.8,60.2v-2.4l2.7-1.3
				C102.2,57.1,101.2,58.6,100.8,60.2z M102.6,63.5c0.4,0,0.9-0.1,1.3-0.4c1.4-0.8,2.5-2.5,2.7-4.2v3.3l-5.8,3.3V62
				C101.1,62.9,101.8,63.5,102.6,63.5z M104.8,56.1c-0.3,0-0.7,0.1-1,0.3l2.9-1.4v3C106.5,56.8,105.8,56.1,104.8,56.1z M100.1,61.4
				v-3.3l0,0L100.1,61.4L100.1,61.4z M100.1,62.2V66l0,0L100.1,62.2L100.1,62.2z M94.7,67.9c0.5,0,1-0.2,1.6-0.5
				c1.4-0.8,2.6-2.4,3-4v3l-7.1,4v-4.1l0.5-0.2C92.9,67.2,93.7,67.9,94.7,67.9z M93.4,65.4c0-1.7,1.3-3.8,2.9-4.6
				c0.4-0.2,0.7-0.3,1.1-0.3c0.8,0,1.3,0.6,1.3,1.7c0,1.6-1.2,3.6-2.8,4.5c-0.4,0.2-0.9,0.4-1.2,0.4C93.9,67.1,93.4,66.5,93.4,65.4z
				 M97.4,59.8c-0.4,0-0.9,0.1-1.4,0.4c-1.8,0.9-3.2,3.1-3.3,5.1l-0.4,0.2v-3.5l7.1-3.5v2.8C99,60.4,98.3,59.8,97.4,59.8z M91.3,66
				v-3.6l0.2-0.1v3.6L91.3,66z M91.5,66.7v4.1l-0.2,0.1v-4.1L91.5,66.7z M85.3,73c0.6,0,1.3-0.2,2-0.6c1.5-0.8,2.7-2.3,3.3-3.9v2.8
				l-7.3,4.1v-3.8C83.6,72.5,84.4,73,85.3,73z M83.8,70.5c0-1.9,1.6-4.2,3.5-5.1c0.5-0.2,1-0.4,1.4-0.4c1,0,1.5,0.7,1.5,1.8
				c0,1.8-1.5,4-3.3,5c-0.6,0.3-1.1,0.5-1.6,0.5C84.4,72.3,83.8,71.6,83.8,70.5z M88.7,64.2c-0.5,0-1.1,0.2-1.7,0.5
				c-1.7,0.8-3.1,2.6-3.6,4.4v-2.8l7.3-3.6v2.5C90.2,64.6,89.5,64.2,88.7,64.2z M81.6,71.1v-4l0.9-0.5v3.9L81.6,71.1z M82.5,71.4
				v4.5l-0.9,0.5v-4.5L82.5,71.4z M80.3,72.2c0,0.1,0.1,0.1,0.1,0.1c-0.2,1.9-1.8,4.3-3.9,5.4c-0.7,0.4-1.5,0.6-2.1,0.6c0,0,0,0,0,0
				c-1.1,0-1.7-0.7-1.7-1.9c0-2,1.9-4.7,4.2-5.8c0.6-0.3,1.3-0.5,1.8-0.5c1,0,1.6,0.6,1.7,1.5C80.3,71.8,80.2,72,80.3,72.2z
				 M78.7,69.4c-0.7,0-1.4,0.2-2.1,0.6c-2.5,1.3-4.6,4.2-4.6,6.5c0,1.6,1,2.6,2.5,2.6c0,0,0,0,0,0c0.8,0,1.6-0.3,2.5-0.7
				c1.8-1,3.3-2.8,4-4.6v3.1l-9.3,5.3V72.1l9.3-4.6v3.1C80.5,69.9,79.7,69.4,78.7,69.4z M71.5,25.5l3.2-0.5
				c-1.7,0.9-2.9,2.8-2.9,4.7c0,2.2,1.6,3.8,3.8,3.8c0.1,0,0.2,0,0.3,0l-4.4,0.9V25.5z M80.3,27.9c-0.1,0.1-0.1,0.2-0.1,0.3
				c0,0.1,0.1,0.1,0.1,0.1c-0.1,2-1.7,4-3.8,4.4c-0.3,0.1-0.6,0.1-0.9,0.1c-1.8,0-3.1-1.3-3.1-3.1c0-2.1,1.9-4.2,4.1-4.5
				c0.2,0,0.4,0,0.6,0C78.9,25.1,80.2,26.3,80.3,27.9z M78.4,24.5l2.5-0.4v2.7C80.5,25.7,79.6,24.9,78.4,24.5z M80.9,29.6v2.9
				l-3.4,0.7C79.1,32.6,80.4,31.2,80.9,29.6z M71.5,37.3l9.3-2.1v29.7l-9.3,4.4V37.3z M81.6,64.5V35l0.9-0.2V64L81.6,64.5z
				 M83.3,63.7V34.6l7.5-1.7v27.2L83.3,63.7z M92.3,59.4V32.5l7.2-1.6V56L92.3,59.4z M100.8,55.3V30.6l5.8-1.3v23.4L100.8,55.3z
				 M108,51.9v-23l4.8-1.1v21.9L108,51.9z M113.9,49.1V27.6l4.6-1.1V47L113.9,49.1z M123.5,44.6l-3.7,1.8V26.2l3.7-0.8L123.5,44.6
				C123.4,44.6,123.5,44.6,123.5,44.6z M124.6,44.1v-19l3-0.7v18.2L124.6,44.1z M128.6,42.2v-18l3-0.7v17.2c0,0,0,0,0,0L128.6,42.2z
				 M71.5,36.5v-1.3l61.3-13.1v0.3L71.5,36.5z M82.5,28.1v4l-0.9,0.2v-4L82.5,28.1z M81.6,27.5v-3.5l0.9-0.1v3.4L81.6,27.5z
				 M90.3,26.5c0,1.7-1.4,3.4-3.2,3.8c-0.2,0-0.4,0.1-0.6,0.1c-1.5,0-2.6-1.1-2.6-2.6c0-1.8,1.5-3.5,3.4-3.8c0.2,0,0.3,0,0.4,0
				C89.2,23.9,90.3,25,90.3,26.5z M88.1,23.1l2.5-0.4v2C90.1,23.9,89.2,23.2,88.1,23.1z M83.3,26.7v-2.8l2.9-0.4
				C84.8,24,83.7,25.2,83.3,26.7z M86.5,31c0.3,0,0.5,0,0.8-0.1c1.4-0.3,2.7-1.3,3.3-2.6v2l-7.3,1.6v-3.3C83.7,30.1,84.9,31,86.5,31
				z M91.5,26.6v3.6l-0.2,0v-3.6L91.5,26.6z M91.3,25.9v-3.2l0.2,0v3.2L91.3,25.9z M98.7,25c0,1.6-1.2,3.1-2.6,3.4
				c-0.2,0-0.3,0-0.5,0c-1.3,0-2.2-1-2.2-2.4c0-1.6,1.3-3.2,2.8-3.4c0.1,0,0.2,0,0.3,0C97.8,22.6,98.7,23.6,98.7,25z M96.8,21.9
				l2.5-0.4V24C99,22.8,98,22,96.8,21.9z M92.7,25.6l-0.4,0.1v-3.2l3.1-0.4C93.9,22.6,92.9,24.1,92.7,25.6z M92.7,26.4
				c0.2,1.6,1.3,2.8,2.9,2.8c0.2,0,0.4,0,0.6-0.1c1.5-0.3,2.7-1.5,3.1-3v2.4L92.3,30v-3.5L92.7,26.4z M100.1,25.2v3.2l0,0
				L100.1,25.2L100.1,25.2z M100.1,24.4v-3l0,0L100.1,24.4L100.1,24.4z M106.7,23.3c-0.2-1.4-1.1-2.4-2.3-2.5l2.3-0.3L106.7,23.3
				L106.7,23.3z M106.7,24.3v2.7l-2.2,0.5C105.6,26.9,106.5,25.7,106.7,24.3z M105.9,23.8c0,1.5-1,2.8-2.2,3.1c-0.1,0-0.3,0-0.4,0
				c0,0,0,0,0,0c-1.1,0-1.9-0.9-1.9-2.2c0-1.5,1.1-2.9,2.4-3.1c0.1,0,0.2,0,0.3,0C105.2,21.5,105.9,22.5,105.9,23.8z M100.8,23.7
				v-2.4l2.3-0.3C102,21.4,101.1,22.5,100.8,23.7z M103.3,27.7l-2.5,0.5v-2.6C101.2,26.8,102.1,27.7,103.3,27.7z M112.3,22.6
				c0,1.4-0.9,2.6-1.9,2.8c-1.1,0.2-1.9-0.7-1.9-2.1c0-1.4,0.9-2.7,2-2.9c0.1,0,0.1,0,0.2,0C111.6,20.5,112.3,21.4,112.3,22.6z
				 M111.1,19.8l1.4-0.2v1.2C112.2,20.3,111.7,19.9,111.1,19.8z M112.6,24.6v1.1l-1.5,0.3C111.7,25.7,112.2,25.2,112.6,24.6z
				 M108.1,21.8v-1.6l1.6-0.2C109,20.4,108.4,21,108.1,21.8z M110.1,26.2l-2,0.4v-1.8C108.5,25.7,109.2,26.2,110.1,26.2z M116.8,19
				l1.7-0.2V21C118.3,20,117.6,19.2,116.8,19z M118.5,22.3v2.1l-1.6,0.3C117.7,24.3,118.3,23.4,118.5,22.3z M117.8,21.7
				c0,1.3-0.7,2.4-1.6,2.6c-0.1,0-0.2,0-0.2,0c-0.7,0-1.3-0.7-1.3-1.7c0.1-0.1,0.1-0.2,0.1-0.3c0-0.1,0-0.1-0.1-0.2
				c0.1-1.2,0.8-2.3,1.7-2.4c0.1,0,0.1,0,0.2,0C117.2,19.7,117.8,20.5,117.8,21.7z M113.9,21.5v-2.1l1.6-0.2
				C114.8,19.6,114.1,20.5,113.9,21.5z M115.7,25l-1.8,0.4v-2.3C114.1,24.2,114.8,24.9,115.7,25z M121.9,18.3l1.5-0.2v1.8
				C123.2,19,122.6,18.4,121.9,18.3z M123.4,21.9v1.5l-1.1,0.2C122.9,23.2,123.2,22.6,123.4,21.9z M122.8,20.8
				c0,1.2-0.7,2.3-1.4,2.4c-0.1,0-0.1,0-0.2,0c-0.6,0-1.1-0.7-1.2-1.7c0-0.1,0-0.1,0-0.2c0,0,0,0,0-0.1c0-1.2,0.7-2.2,1.5-2.3
				c0,0,0.1,0,0.1,0C122.3,19,122.8,19.8,122.8,20.8z M119.8,19.6v-1l1.2-0.2C120.5,18.6,120.1,19,119.8,19.6z M120.8,23.9l-1,0.2
				v-1C120,23.5,120.4,23.8,120.8,23.9z M126.4,17.6l1.1-0.2v1C127.3,18,126.9,17.7,126.4,17.6z M127.5,21.9v0.6l-0.6,0.1
				C127.2,22.4,127.4,22.2,127.5,21.9z M127.2,20.1c0,1.1-0.6,2.1-1.2,2.2c0,0-0.1,0-0.1,0c-0.5,0-1-0.7-1-1.5c0-0.1,0-0.1,0-0.2
				c0,0,0-0.1,0-0.1c0-1.1,0.6-2,1.3-2.1c0,0,0.1,0,0.1,0C126.8,18.3,127.2,19.1,127.2,20.1z M124.6,18.7v-0.8l1-0.1
				C125.2,17.9,124.9,18.2,124.6,18.7z M125.3,23l-0.7,0.2v-0.8C124.8,22.6,125,22.8,125.3,23z M128.9,20.3
				C128.9,20.3,128.9,20.3,128.9,20.3c0.1,0.8,0.5,1.4,1,1.7l-1.2,0.3v-1.9L128.9,20.3z M128.6,19.6v-2.3l1.6-0.2
				c-0.7,0.3-1.3,1.3-1.4,2.5c0,0-0.1,0-0.1,0L128.6,19.6z M130.6,21.4c-0.5,0.1-1-0.7-1-1.6c0-1.1,0.6-2,1.2-2.1
				c0.5,0,0.9,0.7,0.9,1.6C131.7,20.4,131.1,21.3,130.6,21.4z M64.6,5.5c0-1.9,1.6-3.5,3.5-3.5s3.5,1.6,3.5,3.5
				C71.6,7.4,70,9,68.1,9S64.6,7.4,64.6,5.5z M54.6,70.6v-4l0.9,0.5v4L54.6,70.6z M55.6,71.9v4.5l-0.9-0.5v-4.5L55.6,71.9z
				 M4.5,41.3v-0.3l60.3,28.5v1.2L4.5,41.3z M49.9,72.4c0.7,0.4,1.4,0.6,2,0.6c1,0,1.7-0.5,2-1.3v3.8l-7.3-4.1v-2.8
				C47.2,70.1,48.4,71.6,49.9,72.4z M47,66.7c0-1.1,0.6-1.8,1.5-1.8c0.4,0,0.9,0.1,1.4,0.4c1.9,0.9,3.5,3.3,3.5,5.1
				c0,1.1-0.6,1.8-1.5,1.8c-0.5,0-1-0.2-1.6-0.5C48.4,70.8,47,68.5,47,66.7z M50.2,64.7c-0.6-0.3-1.2-0.5-1.7-0.5
				c-0.9,0-1.5,0.4-1.9,1v-2.6l7.3,3.6v2.8C53.3,67.3,51.9,65.5,50.2,64.7z M45.7,65.9v-3.6l0.2,0.1V66L45.7,65.9z M45.8,66.8v4.1
				l-0.2-0.1v-4.1L45.8,66.8z M40.8,67.4c0.6,0.3,1.1,0.5,1.6,0.5c1.1,0,1.8-0.7,2-1.8l0.5,0.2v4l-7.1-4v-3
				C38.3,65,39.4,66.6,40.8,67.4z M38.4,62.2c0-1,0.5-1.7,1.3-1.7c0.3,0,0.7,0.1,1.1,0.3c1.6,0.8,2.9,2.9,2.9,4.6
				c0,1-0.5,1.7-1.3,1.7c-0.4,0-0.8-0.1-1.2-0.4C39.7,65.9,38.4,63.9,38.4,62.2z M44.5,65.3c-0.1-1.9-1.5-4.2-3.3-5.1
				c-0.5-0.2-1-0.4-1.4-0.4c-0.9,0-1.6,0.5-1.9,1.4v-2.8l7.1,3.4v3.6L44.5,65.3z M37.1,61.3V58l0,0L37.1,61.3L37.1,61.3z M37.1,62.2
				v3.7l0,0L37.1,62.2L37.1,62.2z M35.7,61.4c-0.1,0.8-0.5,1.3-1.1,1.3c-0.3,0-0.6-0.1-1-0.3c-1.3-0.7-2.4-2.5-2.4-4
				c0-1,0.4-1.6,1.2-1.6c0.3,0,0.5,0.1,0.8,0.2c1.3,0.6,2.4,2.4,2.5,3.9c0,0,0,0,0,0.1C35.6,61.1,35.6,61.3,35.7,61.4z M33.2,63.1
				c0.5,0.3,0.9,0.4,1.3,0.4c0.9,0,1.5-0.6,1.8-1.5v3.5l-5.8-3.3v-3.3C30.7,60.5,31.8,62.3,33.2,63.1z M33.5,56.4
				c-0.4-0.2-0.8-0.3-1.2-0.3c-1,0-1.7,0.7-1.9,1.8v-3l5.8,2.8v2.5C36,58.6,34.9,57,33.5,56.4z M28.7,57.8L28.7,57.8
				c0,1.1-0.7,1.5-1.6,1c-1.1-0.6-2-2.3-2-3.7c0-0.9,0.4-1.5,1-1.5c0.2,0,0.4,0.1,0.7,0.2c1,0.5,1.9,2,2.1,3.3
				c-0.1,0-0.2,0.1-0.2,0.2C28.5,57.5,28.5,57.7,28.7,57.8z M26.1,52.9c-0.6,0-1.2,0.3-1.5,0.9V52l2.2,1.1
				C26.5,52.9,26.3,52.9,26.1,52.9z M26.7,59.4c0.4,0.2,0.8,0.3,1.1,0.3c0.5,0,0.9-0.2,1.2-0.6v2.2l-4.5-2.5v-2.1
				C25,57.9,25.8,58.9,26.7,59.4z M27.3,53.3l1.8,0.9v1.2C28.7,54.5,28,53.7,27.3,53.3z M22.6,54.6L22.6,54.6
				c-0.1,0.9-0.7,1.3-1.5,0.9c-1-0.5-1.8-2-1.8-3.3c0-0.9,0.3-1.4,0.9-1.4c0.2,0,0.3,0,0.5,0.1c0.9,0.5,1.7,1.8,1.8,3.1
				c-0.1,0-0.1,0.1-0.2,0.2C22.3,54.2,22.4,54.5,22.6,54.6z M20.2,49.9c-0.8,0-1.4,0.6-1.6,1.6v-2.4l1.8,0.9
				C20.4,49.9,20.3,49.9,20.2,49.9z M20.8,56.1c0.3,0.2,0.7,0.3,1,0.3c0.8,0,1.3-0.5,1.5-1.4v3.1l-4.6-2.6v-2.7
				C18.9,54.1,19.7,55.5,20.8,56.1z M21.7,50.6l1.5,0.7v2C23,52.2,22.5,51.2,21.7,50.6z M15.4,53.5c0.3,0.2,0.6,0.2,0.8,0.2
				c0.4,0,0.9-0.2,1.2-0.7v1.7l-3.7-2.1v-1.4C14,52.2,14.7,53.1,15.4,53.5z M14.2,49.8c0-0.8,0.3-1.4,0.8-1.4c0.1,0,0.3,0,0.4,0.1
				c0.8,0.4,1.5,1.6,1.6,2.8c0,0.1,0,0.1,0,0.2c0,0,0,0.1,0,0.1c0,1.1-0.5,1.6-1.2,1.2C14.9,52.4,14.2,51,14.2,49.8z M15.7,47.9
				c-0.3-0.1-0.5-0.2-0.7-0.2c-0.6,0-1,0.3-1.3,0.9v-1.9l3.7,1.8v1.4C17,49,16.4,48.2,15.7,47.9z M12.3,49.1c0,1-0.4,1.5-1,1.2
				c-0.7-0.4-1.3-1.7-1.3-2.8c0-0.8,0.3-1.3,0.7-1.3c0.1,0,0.2,0,0.3,0.1c0.6,0.3,1.2,1.3,1.4,2.3c0,0,0,0-0.1,0.1
				C12.1,48.8,12.2,49,12.3,49.1z M10.9,51c0.2,0.1,0.5,0.2,0.7,0.2c0.3,0,0.7-0.1,0.9-0.4V52l-3-1.7v-0.9
				C9.9,50.1,10.4,50.7,10.9,51z M11.3,45.6c-0.2-0.1-0.4-0.2-0.7-0.2c-0.4,0-0.7,0.2-1,0.5v-1.3l3,1.4V47
				C12.2,46.4,11.8,45.8,11.3,45.6z M6.8,43.3l1.7,0.8v2.2l-0.1,0c0,0,0,0-0.1,0C8.3,45,7.6,43.7,6.8,43.3z M7.7,46.6
				c0,0.9-0.4,1.4-0.9,1.1c-0.6-0.4-1.2-1.6-1.2-2.6c0-0.7,0.2-1.2,0.6-1.2c0.1,0,0.2,0,0.3,0.1C7.1,44.2,7.7,45.5,7.7,46.6z
				 M8.4,19.5c0,0-0.1,0-0.1,0c-0.1-1.2-0.6-2.1-1.4-2.5l1.6,0.2v2.3L8.4,19.5z M8.5,20.3v1.9L7.3,22c0.5-0.3,0.9-0.9,1-1.7
				c0,0,0,0,0,0L8.5,20.3z M7.6,19.8c0,1-0.5,1.7-1,1.6c-0.5-0.1-1.1-1-1.1-2.1c0-0.9,0.4-1.6,1-1.6h0C7,17.8,7.6,18.6,7.6,19.8z
				 M64.8,35.1v1.3L4.4,22.5v-0.3L64.8,35.1z M12.3,20.5C12.3,20.5,12.3,20.5,12.3,20.5c-0.1,0.2,0,0.2,0,0.3
				c-0.1,1-0.5,1.7-1.1,1.5c-0.7-0.1-1.2-1.2-1.2-2.2c0-1,0.4-1.7,1-1.7c0,0,0.1,0,0.1,0C11.7,18.4,12.3,19.4,12.3,20.5z M11.6,17.7
				l1,0.1v0.8C12.3,18.3,12,17.9,11.6,17.7z M12.6,22.4v0.8L11.8,23C12.1,22.9,12.4,22.6,12.6,22.4z M9.6,18.4v-1l1.1,0.2
				C10.3,17.7,9.9,18,9.6,18.4z M10.2,22.6l-0.6-0.1v-0.6C9.8,22.2,10,22.4,10.2,22.6z M16.2,18.4l1.2,0.2v1
				C17.1,19.1,16.7,18.6,16.2,18.4z M17.4,23.1v1l-1-0.2C16.8,23.8,17.1,23.5,17.4,23.1z M17.1,21.3C17.1,21.3,17.1,21.4,17.1,21.3
				c0,0.1,0,0.2,0,0.2c0,1.1-0.6,1.8-1.3,1.7c-0.8-0.2-1.4-1.3-1.4-2.4c0-1,0.5-1.8,1.2-1.8c0,0,0.1,0,0.1,0
				C16.4,19.1,17.1,20.2,17.1,21.3z M13.7,19.8V18l1.5,0.2C14.5,18.4,14,19,13.7,19.8z M14.8,23.6l-1.1-0.2v-1.5
				C13.9,22.6,14.3,23.2,14.8,23.6z M22.6,22.1c0,0-0.1,0.1-0.1,0.2c0,0.1,0,0.2,0.1,0.3c-0.1,1.1-0.8,1.8-1.6,1.7
				c-0.9-0.2-1.6-1.4-1.6-2.6c0-1.1,0.6-2,1.4-2c0.1,0,0.1,0,0.2,0C21.8,19.8,22.5,20.9,22.6,22.1z M21.6,19.2l1.6,0.2v2.1
				C23,20.5,22.4,19.6,21.6,19.2z M23.3,23.1v2.3L21.4,25C22.3,24.9,23,24.2,23.3,23.1z M18.7,21v-2.2l1.7,0.2
				C19.5,19.2,18.9,20,18.7,21z M20.3,24.8l-1.6-0.3v-2.1C18.9,23.4,19.5,24.4,20.3,24.8z M27.5,20l1.6,0.2v1.6
				C28.7,21,28.2,20.4,27.5,20z M29.1,24.8v1.8l-2.2-0.5c0.1,0,0.1,0,0.2,0C27.9,26.2,28.7,25.7,29.1,24.8z M28.6,23.4
				c0,1.3-0.8,2.3-1.9,2.1c-1.1-0.2-1.9-1.5-1.9-2.8c0-1.2,0.7-2.1,1.6-2.1c0.1,0,0.1,0,0.2,0C27.7,20.7,28.6,22,28.6,23.4z
				 M24.6,20.8v-1.2l1.4,0.2C25.4,19.9,24.9,20.3,24.6,20.8z M26.3,26.1l-1.7-0.4v-1.2C25,25.3,25.6,25.8,26.3,26.1z M35.7,24.7
				c0,1.5-1,2.5-2.2,2.2c-1.2-0.2-2.2-1.6-2.2-3.1c0-1.3,0.8-2.2,1.9-2.2c0.1,0,0.2,0,0.3,0C34.6,21.7,35.7,23.2,35.7,24.7z
				 M34.1,21l2.2,0.3v2.4C36,22.5,35.2,21.4,34.1,21z M36.3,25.6v2.7l-2.8-0.6c0.1,0,0.2,0,0.3,0C35,27.7,36,26.8,36.3,25.6z
				 M30.5,23.3L30.5,23.3l0-2.8l2.3,0.3C31.6,20.9,30.7,21.9,30.5,23.3z M33,27.5L30.5,27v-2.7C30.7,25.8,31.7,27.1,33,27.5z
				 M37.1,25.2v3.2l0,0L37.1,25.2L37.1,25.2z M37.1,24.4v-3l0,0L37.1,24.4L37.1,24.4z M43.8,26.1c0,1.6-1.2,2.7-2.7,2.4
				c-1.5-0.3-2.6-1.8-2.6-3.4c0-1.4,0.9-2.4,2.2-2.4c0.1,0,0.2,0,0.3,0C42.5,22.8,43.8,24.4,43.8,26.1z M41.9,22.1l3,0.4v3.2
				l-0.4-0.1C44.3,24.1,43.3,22.7,41.9,22.1z M37.9,24v-2.5l2.4,0.3C39.1,22,38.2,22.9,37.9,24z M40.9,29.2c0.2,0,0.4,0.1,0.6,0.1
				c1.6,0,2.7-1.2,2.9-2.8l0.4,0.1v3.6l-7.1-1.5v-2.4C38.3,27.6,39.5,28.9,40.9,29.2z M45.8,26.6v3.6l-0.2,0v-3.6L45.8,26.6z
				 M45.7,25.9v-3.2l0.2,0v3.2L45.7,25.9z M53.3,27.7c0,1.5-1.1,2.6-2.6,2.6c-0.2,0-0.4,0-0.6-0.1c-1.7-0.3-3.2-2-3.2-3.8
				c0-1.5,1.1-2.6,2.6-2.6c0.1,0,0.3,0,0.4,0C51.7,24.1,53.3,25.9,53.3,27.7z M51.1,23.5l2.8,0.4v2.8C53.5,25.3,52.4,24,51.1,23.5z
				 M46.6,24.7v-1.9l2.4,0.3C47.9,23.3,47.1,23.9,46.6,24.7z M49.9,31c0.3,0.1,0.5,0.1,0.8,0.1c1.6,0,2.8-1,3.2-2.4V32l-7.3-1.6
				v-2.1C47.2,29.6,48.4,30.7,49.9,31z M55.6,28.3v4.1l-0.9-0.2v-4L55.6,28.3z M54.6,27.4V24l0.9,0.1v3.4L54.6,27.4z M56.7,71.7
				c0.1-1,0.7-1.5,1.7-1.5c0.5,0,1.2,0.2,1.8,0.5c2.3,1.1,4.2,3.8,4.2,5.8c0,1.2-0.6,1.9-1.7,1.9c-0.6,0-1.3-0.2-2.1-0.6
				c-2.1-1.1-3.7-3.5-3.9-5.4c0,0,0.1-0.1,0.1-0.1C57,72,56.9,71.8,56.7,71.7z M60.6,70c-0.8-0.4-1.5-0.6-2.1-0.6
				c-1,0-1.8,0.4-2.2,1.2v-3.2l8.5,4.1v3C64.1,72.7,62.5,70.9,60.6,70z M64.8,34.4l-4.3-0.9c0.3,0.1,0.7,0.1,1,0.1
				c1.5,0,2.7-0.7,3.3-1.8V34.4z M64.8,68.8l-8.5-4V35.2l8.5,2V68.8z M64.8,27.6c-0.5-1-1.3-1.9-2.3-2.5l2.3,0.3V27.6z M64.6,29.7
				c0,1.8-1.3,3.1-3.1,3.1c-0.3,0-0.6,0-0.9-0.1c-2.1-0.4-3.8-2.4-3.8-4.4c0,0,0.1-0.1,0.1-0.1c0-0.1,0-0.2-0.1-0.3
				c0.2-1.6,1.4-2.7,3.1-2.7c0.2,0,0.4,0,0.6,0C62.7,25.5,64.6,27.6,64.6,29.7z M56.3,26.9v-2.7l2.4,0.3
				C57.5,24.9,56.7,25.8,56.3,26.9z M60.5,33.4l-4.1-0.9v-2.9C56.9,31.4,58.5,33,60.5,33.4z M55.6,35v29.4l-0.9-0.4V34.8L55.6,35z
				 M53.9,34.6v29l-7.3-3.4V32.9L53.9,34.6z M45.8,32.8v27l-0.2-0.1v-27L45.8,32.8z M44.9,32.6v26.8L37.9,56V30.9L44.9,32.6z
				 M36.3,30.6v24.7l-5.9-2.8V29.2L36.3,30.6z M29.2,28.9v23l-4.6-2.2V27.9L29.2,28.9z M23.3,27.6v21.5l-4.6-2.2V26.5L23.3,27.6z
				 M17.4,26.2v20.1l-3.7-1.7c0,0,0,0,0-0.1V25.4L17.4,26.2z M12.6,25.1v18.9l-3-1.4V24.4L12.6,25.1z M5.5,23.5l3,0.7v18l-3-1.4
				V23.5z M56.3,73.8c0.6,1.8,2.2,3.6,4,4.6c0.9,0.5,1.7,0.7,2.5,0.7c0.9,0,1.6-0.4,2.1-1v3.6l-8.5-4.8V73.8z M53.8,8.9
				c0-0.7,0.6-1.2,1.3-1.2c0.7,0,1.3,0.6,1.3,1.3c0,0.7-0.6,1.2-1.3,1.2v0.4l0-0.4C54.4,10.2,53.8,9.6,53.8,8.9z M55.1,12
				c-0.2,0-0.3,0-0.5,0v-1.2c0.2,0,0.3,0.1,0.5,0.1c0,0,0.1,0,0.1,0c0.1,0,0.3,0,0.4,0v1.2C55.4,12,55.3,12,55.1,12z M55.6,12.9v8.6
				l-0.9-0.1v-8.5c0.2,0,0.3,0,0.5,0C55.3,12.9,55.4,12.9,55.6,12.9z M44.5,8.6c0-0.6,0.5-1.1,1-1.1c0.6,0,1.1,0.5,1.1,1.1
				c0,0.6-0.5,1.1-1,1.1v0.4l0-0.4C45,9.7,44.5,9.2,44.5,8.6z M45.7,11.1C45.7,11.1,45.7,11.1,45.7,11.1l0-0.6c0.1,0,0.1,0,0.2,0
				v0.6C45.8,11.1,45.7,11.1,45.7,11.1z M45.8,11.9v8.3l-0.2,0v-8.3c0,0,0,0,0,0C45.7,11.9,45.8,11.9,45.8,11.9z M36.2,8.6
				c0-0.5,0.4-1,0.8-1c0.5,0,0.9,0.5,0.9,1c0,0.5-0.4,1-0.8,1V10l0-0.4C36.6,9.6,36.2,9.1,36.2,8.6z M37.1,11v-0.6h0c0,0,0,0,0,0
				L37.1,11C37.1,11,37.1,11,37.1,11z M37.1,11.7v7.4l0,0L37.1,11.7C37.1,11.7,37.1,11.7,37.1,11.7z M29.1,8.5
				c0-0.5,0.3-0.9,0.7-0.9c0.4,0,0.7,0.4,0.7,0.9c0,0.5-0.3,0.9-0.7,0.9l0,0C29.4,9.4,29.1,9,29.1,8.5z M23.9,7.6
				c0.3,0,0.6,0.4,0.6,0.8c0,0.4-0.3,0.8-0.5,0.8v0l0,0c-0.3,0-0.6-0.4-0.6-0.8C23.3,8,23.6,7.6,23.9,7.6z M18,7.6
				c0.2,0,0.5,0.3,0.5,0.8c0,0.4-0.2,0.7-0.4,0.7v0l0,0v0c-0.2,0-0.4-0.3-0.4-0.8C17.6,7.9,17.8,7.6,18,7.6z M13.1,7.6
				c0.1,0,0.4,0.3,0.4,0.7c0,0.4-0.2,0.7-0.3,0.7V9l0,0l0-0.1c-0.1,0-0.4-0.3-0.4-0.7C12.8,7.9,13,7.6,13.1,7.6z M9,7.6
				c0.1,0,0.3,0.2,0.3,0.6c0,0.4-0.2,0.6-0.3,0.6v0.1c0,0,0,0,0,0l0-0.1c-0.1,0-0.3-0.3-0.3-0.6C8.7,7.8,8.9,7.6,9,7.6z M64.8,23.5
				v1.2L4.4,15.9v-0.3L64.8,23.5z M1.7,5.7c0-1,0.8-1.9,1.9-1.9c1,0,1.9,0.8,1.9,1.9c0,1-0.8,1.9-1.9,1.9C2.6,7.5,1.7,6.7,1.7,5.7z
				 M2.4,8.8c0.2-0.2,0.3-0.3,0.4-0.5c0-0.1,0-0.1,0.1-0.2c0.2,0.1,0.5,0.1,0.7,0.1c0.2,0,0.4,0,0.6-0.1c0.1,0.2,0.2,0.3,0.3,0.4
				C4.5,8.7,4.8,9,5,9.1H2.1C2.2,9,2.3,8.9,2.4,8.8z M4.8,49.7v1.8l-1.2,0.7l-1-0.7V9.9h2.3v5L4,14.8c-0.1,0-0.2,0-0.3,0.1
				c-0.1,0.1-0.1,0.2-0.1,0.3v1.1c0,0.2,0.1,0.3,0.3,0.4L6.2,17c-0.8,0.1-1.4,1.1-1.4,2.4c0,0.9,0.3,1.8,0.8,2.3l-1.5-0.3
				c-0.1,0-0.2,0-0.3,0.1c-0.1,0.1-0.1,0.2-0.1,0.3v1.1c0,0.2,0.1,0.3,0.3,0.4l0.9,0.2v17.1l-0.5-0.2c-0.1-0.1-0.3,0-0.4,0
				c-0.1,0.1-0.2,0.2-0.2,0.3v1.1c0,0.1,0.1,0.3,0.2,0.3l2.8,1.3c-0.2-0.1-0.3-0.1-0.5-0.1c-0.8,0-1.3,0.8-1.3,2
				c0,1.3,0.7,2.8,1.6,3.3c0.2,0.1,0.4,0.2,0.7,0.2c0.6,0,1.2-0.5,1.3-1.5l0.2,0.1v2.5l-4.3-2.4c-0.1-0.1-0.3-0.1-0.4,0
				c-0.1,0.1-0.2,0.2-0.2,0.3v1.1c0,0.1,0.1,0.3,0.2,0.3l0.9,0.5C4.8,49.6,4.8,49.7,4.8,49.7z M37.1,73.8l0-5.5l0,0V73.8z
				 M45.8,79.3l-0.2-0.1v-5.8l0.2,0.1V79.3z M55.6,85.8l-0.9-0.6v-6.6l0.9,0.5V85.8z M4.5,48.5v-0.2L9,50.8l0,0c0,0,0,0,0,0
				l55.8,31.7v1.1L4.5,48.5z M67.8,94l-2.3-1.4V13.8h2.3V94z M68.1,94.2L68.1,94.2L68.1,94.2L68.1,94.2z M65.5,13.1v0.1
				c-0.1-0.1-0.2-0.2-0.3-0.2h-1.5v0c0.8-0.4,3.1-1.7,3.1-3V9.5c0.4,0.1,0.9,0.2,1.3,0.2c0.5,0,0.9-0.1,1.3-0.2V10
				c0,1.3,2.2,2.6,3.1,3l-1.3,0c-0.1,0-0.2,0-0.2,0.1v-0.1H65.5z M70.8,92.6l-2.2,1.3V13.8h2.2V92.6z M82.5,85.2l-0.9,0.6v-6.6
				l0.9-0.5V85.2z M91.5,79.2l-0.2,0.1v-5.8l0.2-0.1V79.2z M100.1,73.8L100.1,73.8l0-5.4l0,0V73.8z M71.5,84.2v-1.1l56.6-32.3
				c0,0,0,0,0,0l0,0l4.5-2.6v0.2L71.5,84.2z M134.7,51.5l-1,0.7l-1.2-0.7v-1.8c0-0.1,0-0.1-0.1-0.2l0.9-0.5c0.1-0.1,0.2-0.2,0.2-0.3
				v-1.1c0-0.1-0.1-0.3-0.2-0.3c-0.1-0.1-0.3-0.1-0.4,0l-4.3,2.4v-2.5l0.2-0.1c0.1,1,0.7,1.5,1.3,1.5c0.2,0,0.4-0.1,0.7-0.2
				c0.9-0.5,1.6-1.9,1.6-3.3c0-1.2-0.5-2-1.3-2c-0.2,0-0.3,0-0.5,0.1l2.7-1.3c0.1-0.1,0.2-0.2,0.2-0.3v-1.1c0-0.1-0.1-0.2-0.2-0.3
				c-0.1-0.1-0.2-0.1-0.4,0l-0.5,0.2V23.3l0.9-0.2c0.2,0,0.3-0.2,0.3-0.4v-1.1c0-0.1-0.1-0.2-0.1-0.3c-0.1-0.1-0.2-0.1-0.3-0.1
				l-1.5,0.3c0.5-0.5,0.8-1.4,0.8-2.3c0-1.3-0.6-2.2-1.4-2.4l2.2-0.3c0.2,0,0.3-0.2,0.3-0.4v-1.1c0-0.1,0-0.2-0.1-0.3
				c-0.1-0.1-0.2-0.1-0.3-0.1l-0.7,0.1v-5h2.3V51.5z M135.1,9.2V9.1h-2.9v0.1c0,0,0,0-0.1,0c0.4-0.2,0.7-0.6,0.9-0.9
				c0.2,0,0.4,0.1,0.6,0.1c0.3,0,0.5,0,0.7-0.1c0.2,0.4,0.6,0.8,1,1L135.1,9.2z"/>
		</g>
	</g>
	<path id="XMLID_328_" class="st0" d="M68.1,1.8c1.9,0,3.5,1.6,3.5,3.5c0,1-0.4,1.9-1.1,2.5l10.1,0c0.3-0.4,0.8-0.7,1.4-0.7
		c0.6,0,1.1,0.3,1.4,0.7l6.8,0c0.2-0.5,0.7-0.9,1.3-0.9c0.6,0,1.1,0.4,1.3,0.9l6.1,0c0.2-0.5,0.6-0.8,1.1-0.8c0.5,0,0.9,0.3,1.1,0.8
		l5.2,0c0.2-0.5,0.5-0.8,1-0.8c0.5,0,0.8,0.4,1,0.9l4,0c0.1-0.5,0.5-0.9,0.9-0.9c0.4,0,0.8,0.4,0.9,0.9l4.2,0
		c0.1-0.5,0.4-0.9,0.8-0.9c0.4,0,0.7,0.4,0.8,0.9l3.4,0c0.1-0.5,0.3-0.9,0.7-0.9c0.4,0,0.6,0.4,0.7,0.9l2.8,0c0-0.5,0.3-0.9,0.6-0.9
		c0.3,0,0.6,0.4,0.6,0.9l4.2,0V7.4c-0.8-0.2-1.3-0.9-1.3-1.8c0-1,0.8-1.8,1.9-1.8c1,0,1.9,0.7,1.9,1.8c0,0.9-0.6,1.6-1.4,1.8v0.4
		l0.5,0l0.9,1.2l0,0.3h-0.8v42L68.3,94.1L2.4,51.3v-42H1.8V9.1l0.8-1.3h0.6V7.5C2.4,7.3,1.8,6.5,1.8,5.6c0-1,0.8-1.8,1.9-1.8
		c1,0,1.9,0.7,1.9,1.8c0,0.8-0.6,1.5-1.3,1.8v0.4l4.2,0C8.5,7.3,8.7,7,9.1,7c0.3,0,0.6,0.3,0.6,0.8l2.8,0C12.6,7.3,12.8,7,13.2,7
		c0.3,0,0.6,0.3,0.7,0.8l3.4,0C17.4,7.3,17.7,7,18,7c0.4,0,0.7,0.3,0.8,0.8l4.3,0C23.2,7.3,23.5,7,23.9,7c0.4,0,0.7,0.3,0.9,0.8l4,0
		C29,7.3,29.4,7,29.8,7c0.4,0,0.8,0.3,1,0.8l5.2,0C36.2,7.3,36.6,7,37.1,7c0.5,0,0.9,0.3,1.1,0.8l6.1,0c0.2-0.5,0.7-0.9,1.3-0.9
		c0.6,0,1.1,0.4,1.3,0.9l6.8,0c0.3-0.4,0.8-0.7,1.4-0.7c0.6,0,1.1,0.3,1.4,0.7l9.2,0c-0.7-0.6-1.1-1.5-1.1-2.5
		C64.6,3.3,66.2,1.8,68.1,1.8 M68.1,0c-2.9,0-5.3,2.4-5.3,5.3c0,0.3,0,0.5,0.1,0.8l-5.7,0c-0.6-0.4-1.3-0.7-2.1-0.7
		c-0.8,0-1.5,0.2-2.1,0.7l-5.3,0c-0.6-0.6-1.4-0.9-2.2-0.9c-0.8,0-1.6,0.3-2.2,0.9l-4.4,0c-0.5-0.5-1.2-0.8-2-0.8
		c-0.7,0-1.4,0.3-2,0.8l-3.4,0c-0.5-0.5-1.2-0.8-1.9-0.8c-0.7,0-1.4,0.3-1.9,0.8l-2.1,0c-0.5-0.5-1.1-0.8-1.8-0.8
		c-0.7,0-1.3,0.3-1.8,0.8l-2.3,0c-0.5-0.5-1.1-0.8-1.8-0.8c-0.7,0-1.3,0.3-1.8,0.8h-1.3c-0.4-0.5-1.1-0.8-1.7-0.8
		c-0.7,0-1.3,0.3-1.7,0.8l-0.7,0c-0.4-0.5-1-0.8-1.7-0.8c-0.7,0-1.3,0.3-1.7,0.8l-0.1,0c0-0.1,0-0.3,0-0.4c0-2-1.6-3.5-3.6-3.5
		C1.6,2.1,0,3.7,0,5.6c0,0.7,0.2,1.4,0.6,2L0.3,8.1C0.1,8.4,0,8.7,0,9.1v0.2c0,0.6,0.3,1.1,0.7,1.4v40.6c0,0.6,0.3,1.1,0.8,1.5
		l65.9,42.8c0.3,0.2,0.6,0.3,1,0.3c0.3,0,0.7-0.1,0.9-0.3l66.4-42.7c0.5-0.3,0.8-0.9,0.8-1.5V10.9c0.5-0.3,0.8-0.9,0.8-1.5l0-0.3
		c0-0.4-0.1-0.8-0.4-1.1l-0.3-0.3c0.4-0.6,0.6-1.3,0.6-2c0-2-1.6-3.5-3.6-3.5c-2,0-3.6,1.6-3.6,3.5c0,0.2,0,0.3,0,0.5l0,0
		c-0.4-0.6-1.1-0.9-1.8-0.9c-0.7,0-1.3,0.3-1.8,0.9l-0.5,0c-0.4-0.6-1.1-0.9-1.8-0.9c-0.7,0-1.4,0.3-1.8,0.9l-1.2,0
		c-0.5-0.5-1.1-0.9-1.8-0.9c-0.7,0-1.4,0.3-1.8,0.9l-2.2,0c-0.5-0.5-1.2-0.9-1.9-0.9c-0.7,0-1.4,0.3-1.9,0.9l-2,0
		c-0.5-0.5-1.2-0.9-2-0.9c-0.7,0-1.4,0.3-2,0.8l-3.3,0c-0.5-0.5-1.3-0.8-2-0.8c-0.8,0-1.5,0.3-2,0.8l-4.3,0
		c-0.6-0.6-1.4-0.9-2.2-0.9c-0.8,0-1.6,0.3-2.2,0.9l-5.2,0c-0.6-0.5-1.3-0.7-2.1-0.7c-0.8,0-1.5,0.3-2.1,0.7l-6.7,0
		c0-0.3,0.1-0.5,0.1-0.8C73.4,2.4,71,0,68.1,0L68.1,0z"/>
</g>
</svg>
