<?xml version="1.0" encoding="utf-8"?>
<!-- Generator: Adobe Illustrator 19.0.0, SVG Export Plug-In . SVG Version: 6.00 Build 0)  -->
<svg version="1.1" id="Layer_1" xmlns="http://www.w3.org/2000/svg" xmlns:xlink="http://www.w3.org/1999/xlink" x="0px" y="0px"
	 width="146.8px" height="95.9px" viewBox="0 0 146.8 95.9" style="enable-background:new 0 0 146.8 95.9;" xml:space="preserve">
<style type="text/css">
	.st0{fill:#FFFFFF;}
</style>
<g id="XMLID_249_">
	<g id="XMLID_2708_">
		<path id="XMLID_2709_" class="st0" d="M146.2,26c0.6-0.7,0.6-1.6,0-2.3l-1.4-1.7V10.2l1.5-1.6c0.6-0.7,0.6-1.7,0-2.4l-1.5-1.6V2
			c0-1-0.8-1.8-1.8-1.8H83.6c-0.1-0.1-0.1-0.1-0.2-0.1c-0.1,0-0.2,0-0.2,0.1h-4.4C78.7,0.1,78.5,0,78.4,0c-0.2,0-0.3,0.1-0.3,0.2
			h-9.4C68.6,0.1,68.4,0,68.3,0c-0.2,0-0.3,0.1-0.3,0.2h-4.4c-0.1-0.1-0.1-0.1-0.2-0.1s-0.2,0-0.2,0.1H3.7C2.8,0.2,2,1,2,2v2.6
			L0.5,6.2c-0.6,0.7-0.6,1.7,0,2.4L2,10.2V22l-1.4,1.7C0,24.3,0,25.3,0.6,26L2,27.5V44l-1.4,1.6c-0.3,0.3-0.4,0.7-0.4,1.2V49
			c0,0.6,0.3,1.2,0.8,1.5l71.3,45.1c0.3,0.2,0.6,0.3,0.9,0.3c0.3,0,0.6-0.1,0.9-0.3l71.7-45.1c0.5-0.3,0.8-0.9,0.8-1.5v-2.2
			c0-0.4-0.2-0.8-0.4-1.2l-1.4-1.6V27.5L146.2,26z M63.6,68.1V56.4l4.2,1.7v12.2L63.6,68.1z M67.9,71.4V80l-4.2-2.5v-8.3L67.9,71.4z
			 M63.6,55.3V47l4.2,1.4V57L63.6,55.3z M63.6,45.9v-0.3c0-0.1,0-0.2-0.1-0.2l-2-2.7l3.7,1.1l2.7,3.5v0L63.6,45.9z M3.7,32.1L8,33.8
			V40l-4.2-2.1V32.1z M3.7,31.1v-4L8,28.5v4.3L3.7,31.1z M7.2,26.2l3.7,1.1c0,0.1,0,0.1,0.1,0.2l1.1,1.3l-3.7-1.2L7.2,26.2z
			 M3.7,9.8L8,10.1v3.6l-4.2-0.5V9.8z M8,14.7v3.2l-4.2-0.8v-2.9L8,14.7z M3.7,18.1L8,18.9v3.3l-4.2-1.1V18.1z M8.6,23.8
			c0.1-0.1,0.1-0.2,0.1-0.2v0l4.2,1.1v0.1l-1.5,1.8l-4.1-1.2L8.6,23.8z M22.9,16.7v4.3l-4.2-0.9v-4L22.9,16.7z M18.7,15.1v-4.3
			l4.2,0.3v4.6L18.7,15.1z M22.9,22v4.2l-4.2-1.1v-4L22.9,22z M22.9,27.2L22.9,27.2l-1.7,2.2l-4.1-1.2l1.5-1.8
			c0.1-0.1,0.1-0.2,0.1-0.2v0L22.9,27.2z M23.6,27.7c0.1-0.1,0.1-0.1,0.1-0.2v0l4.2,1.1v0.1l-1.8,2.3L22,29.7L23.6,27.7z M27.9,17.3
			v4.6l-4.2-0.9v-4.3L27.9,17.3z M23.7,15.8v-4.6l4.2,0.3v4.9L23.7,15.8z M27.9,23v4.5l-4.2-1.1v-4.3L27.9,23z M28.6,29
			c0.1-0.1,0.1-0.1,0.1-0.2v0l4.2,1.1v0.1L31,32.4l-4.1-1.2L28.6,29z M32.9,18v5l-4.2-0.9v-4.7L32.9,18z M28.7,16.4v-5l4.2,0.3V17
			L28.7,16.4z M32.9,24v4.8l-4.2-1.1v-4.6L32.9,24z M33.6,30.3c0.1-0.1,0.1-0.1,0.1-0.2v0l4.2,1.1v0.1l-2.1,2.7l-4.1-1.2L33.6,30.3z
			 M37.9,18.6v5.3l-4.2-0.9v-5L37.9,18.6z M33.7,17.1v-5.3l4.2,0.3v5.5L33.7,17.1z M37.9,25v5.1L33.7,29v-4.9L37.9,25z M38.6,31.6
			c0.1-0.1,0.1-0.1,0.1-0.2v0l4.2,1.1v0.1l-2.2,2.8l-4.1-1.2L38.6,31.6z M42.9,19.3V25l-4.2-0.9v-5.4L42.9,19.3z M38.7,17.7v-5.6
			l4.2,0.3v5.9L38.7,17.7z M42.9,26v5.4l-4.2-1.1v-5.2L42.9,26z M43.6,32.9c0-0.1,0.1-0.1,0.1-0.2v0l4.2,1.1v0.1l-2.3,3l-4.1-1.2
			L43.6,32.9z M47.9,19.9V26l-4.2-0.9v-5.7L47.9,19.9z M43.7,18.3v-5.9l4.2,0.3v6.2L43.7,18.3z M47.9,27v5.7l-4.2-1.1v-5.5L47.9,27z
			 M48.6,34.2c0-0.1,0.1-0.1,0.1-0.2l4.2,1.1v0.1l-2.4,3.2l-4.1-1.2L48.6,34.2z M52.9,20.5V27l-4.2-0.9V20L52.9,20.5z M48.7,19v-6.2
			l4.2,0.3v6.5L48.7,19z M52.9,28v6l-4.2-1.1v-5.8L52.9,28z M53.6,35.5c0-0.1,0.1-0.1,0.1-0.2l4.2,1.1v0.1l-2.5,3.4l-4.1-1.2
			L53.6,35.5z M57.9,21.2V28l-4.2-0.9v-6.5L57.9,21.2z M53.7,19.6v-6.5l4.2,0.3v6.8L53.7,19.6z M57.9,29v6.3l-4.2-1.1v-6.1L57.9,29z
			 M58.6,36.8c0-0.1,0.1-0.1,0.1-0.2l4.2,1.1v0.1l-2.6,3.5L56.1,40L58.6,36.8z M58.6,35.5v-6.4l4.2,0.9v6.6L58.6,35.5z M58.6,28.1
			v-6.8l4.2,0.5V29L58.6,28.1z M58.6,20.3v-6.9l4.2,0.3v7.1L58.6,20.3z M58.6,12.4c0-0.1,0-0.1-0.1-0.2l-2.8-3.4l4,0.1
			c0,0.1,0,0.2,0.1,0.2l2.8,3.5L58.6,12.4z M57.7,12.4l-4.1-0.3c0,0,0-0.1-0.1-0.1l-2.6-3.2l4,0.1c0,0.1,0,0.1,0.1,0.2L57.7,12.4z
			 M52.7,12l-4-0.3c0,0,0-0.1,0-0.1L46,8.6l4,0.1c0,0.1,0,0.1,0.1,0.2L52.7,12z M47.6,11.7l-4-0.3c0,0,0-0.1,0-0.1l-2.4-2.9l4,0.1
			c0,0.1,0,0.1,0.1,0.2L47.6,11.7z M42.6,11.4l-4-0.3c0,0,0-0.1,0-0.1l-2.3-2.7l3.9,0.1c0,0,0,0.1,0,0.1L42.6,11.4z M37.6,11l-4-0.3
			c0,0,0-0.1,0-0.1l-2.2-2.6l3.9,0.1c0,0,0,0.1,0,0.1L37.6,11z M32.6,10.7l-4-0.3c0,0,0,0,0-0.1L26.5,8l3.9,0.1c0,0,0,0.1,0,0.1
			L32.6,10.7z M27.6,10.4l-4-0.3c0,0,0,0,0-0.1l-1.9-2.2L25.5,8c0,0,0,0.1,0,0.1L27.6,10.4z M22.6,10l-4-0.3c0,0,0,0,0,0l-1.8-2
			l3.9,0.1c0,0,0,0,0,0.1L22.6,10z M17.9,15l-4.2-0.5v-4l4.2,0.3V15z M17.9,16v3.9l-4.2-0.9v-3.6L17.9,16z M17.9,21v3.9l-4.2-1.1
			v-3.7L17.9,21z M17.9,25.9L17.9,25.9l-1.6,2l-4.1-1.2l1.4-1.6c0.1-0.1,0.1-0.2,0.1-0.2v0L17.9,25.9z M12.9,14.4l-4.2-0.5v-3.7
			l4.2,0.3V14.4z M12.9,15.4v3.6l-4.2-0.9v-3.3L12.9,15.4z M12.9,19.9v3.6l-4.2-1.1v-3.4L12.9,19.9z M8.7,41.5l4.2,2.1v4.6l-4.2-2.5
			V41.5z M8.7,40.4v-6.3l4.2,1.7v6.7L8.7,40.4z M8.7,33.1v-4.3l4.2,1.4v4.6L8.7,33.1z M12.2,27.7l3.7,1.1c0,0,0,0.1,0,0.1l1.3,1.6
			l-3.7-1.2L12.2,27.7z M13.7,44.1l4.2,2.1v4.9l-4.2-2.5V44.1z M13.7,42.9v-6.8l4.2,1.7v7.2L13.7,42.9z M13.7,35.1v-4.7l4.2,1.4v5
			L13.7,35.1z M17.1,29.2l3.7,1.1c0,0,0,0.1,0,0.1l1.5,1.8L18.6,31L17.1,29.2z M18.7,46.6l4.2,2.1V54l-4.2-2.5V46.6z M18.7,45.5
			v-7.3l4.2,1.7v7.7L18.7,45.5z M18.7,37.1v-5l4.2,1.4v5.4L18.7,37.1z M22,30.7l3.7,1.1c0,0,0,0,0,0l1.7,2l-3.8-1.2c0,0,0,0,0-0.1
			L22,30.7z M23.7,49.1l4.2,2.1v5.7l-4.2-2.5V49.1z M23.7,48v-7.8l4.2,1.7v8.2L23.7,48z M23.7,39.1v-5.4l4.2,1.4v5.7L23.7,39.1z
			 M27,32.2l3.7,1.1l1.8,2.3l-3.8-1.3c0,0,0-0.1,0-0.1L27,32.2z M28.7,51.6l4.2,2.1v6l-4.2-2.5V51.6z M28.7,50.5v-8.3l4.2,1.7v8.7
			L28.7,50.5z M28.7,41.1v-5.8l4.2,1.4v6.1L28.7,41.1z M31.9,33.7l3.7,1.1l2,2.4L33.7,36c0-0.1,0-0.1-0.1-0.2L31.9,33.7z M33.7,54.1
			l4.2,2.1v6.4l-4.2-2.5V54.1z M33.7,53v-8.8l4.2,1.7v9.2L33.7,53z M33.7,43.2V37l4.2,1.4v6.4L33.7,43.2z M36.8,35.2l3.7,1.1
			l2.1,2.6l-3.9-1.3v0c0-0.1,0-0.2-0.1-0.2L36.8,35.2z M38.7,56.7l4.2,2.1v6.8l-4.2-2.5V56.7z M38.7,55.5v-9.3l4.2,1.7v9.7
			L38.7,55.5z M38.7,45.2v-6.5l4.2,1.4v6.8L38.7,45.2z M41.8,36.7l3.7,1.1l2.2,2.8l-4-1.3v-0.1c0-0.1,0-0.2-0.1-0.2L41.8,36.7z
			 M43.7,59.2l4.2,2.1v7.1L43.7,66V59.2z M43.7,58.1v-9.8l4.2,1.7v10.2L43.7,58.1z M43.7,47.2v-6.9l4.2,1.4v7.2L43.7,47.2z
			 M46.7,38.2l3.7,1.1l2.3,3l-4.1-1.3v-0.1c0-0.1,0-0.2-0.1-0.2L46.7,38.2z M48.7,61.7l4.2,2.1v7.5l-4.2-2.5V61.7z M48.7,60.6V50.3
			l4.2,1.7v10.7L48.7,60.6z M48.7,49.2V42l4.2,1.4v7.5L48.7,49.2z M51.6,39.7l3.7,1.1l2.4,3.1l-4.1-1.4v-0.2c0-0.1,0-0.2-0.1-0.2
			L51.6,39.7z M53.7,64.2l4.2,2.1v7.9l-4.2-2.5V64.2z M53.7,63.1V52.3l4.2,1.7v11.2L53.7,63.1z M53.7,51.3v-7.6l4.2,1.4V53
			L53.7,51.3z M56.6,41.2l3.7,1.1l2.5,3.3l-4.2-1.4V44c0-0.1,0-0.2-0.1-0.2L56.6,41.2z M58.6,66.7l4.2,2.1v8.2l-4.2-2.5V66.7z
			 M58.6,65.6V54.4l4.2,1.7v11.7L58.6,65.6z M58.6,53.3v-8l4.2,1.4V55L58.6,53.3z M65.2,42.8L61,41.5l2.5-3.4c0-0.1,0.1-0.1,0.1-0.2
			l4.2,1.1V39L65.2,42.8z M63.6,36.8v-6.7l4.2,0.9v6.9L63.6,36.8z M63.6,29.1v-7.2l4.2,0.5V30L63.6,29.1z M63.6,20.9v-7.2l4.2,0.3
			v7.4L63.6,20.9z M63.6,12.7c0-0.1,0-0.1-0.1-0.2L60.7,9l4,0.1c0,0.1,0,0.2,0.1,0.2l2.9,3.7L63.6,12.7z M61.4,8l2.2-2.7
			c0,0,0,0,0-0.1h4.1l-2.3,2.9L61.4,8z M60.4,8l-4-0.1l2.1-2.6c0,0,0,0,0,0h4.1L60.4,8z M55.5,7.9l-4-0.1l2-2.4c0,0,0,0,0,0h4.1
			L55.5,7.9z M50.6,7.7l-4-0.1l1.9-2.3c0,0,0,0,0,0h4L50.6,7.7z M45.7,7.6l-4-0.1l1.8-2.2h4L45.7,7.6z M40.8,7.4l-4-0.1l1.7-2h4
			L40.8,7.4z M35.9,7.3l-4-0.1l1.6-1.9h4L35.9,7.3z M31,7.1L27,7l1.5-1.7h4L31,7.1z M26.1,7l-3.9-0.1l1.4-1.6h4L26.1,7z M21.2,6.8
			l-3.9-0.1l1.3-1.4h4L21.2,6.8z M16.2,6.7l-3.9-0.1l1.2-1.3h4L16.2,6.7z M15.8,7.7C15.8,7.7,15.8,7.7,15.8,7.7l1.8,2l-4-0.3
			c0,0,0,0,0,0l-1.7-1.9L15.8,7.7z M12.5,9.4L8.6,9.1c0,0,0,0,0,0L7,7.4l3.8,0.1c0,0,0,0,0,0L12.5,9.4z M7.5,9.1L3.6,8.8L2.2,7.3
			L6,7.4c0,0,0,0,0,0L7.5,9.1z M3.7,22.6v-0.4L8,23.3v0.1L6.6,25l-3.9-1.2L3.7,22.6z M6,25.9c0,0.1,0,0.2,0.1,0.2L7,27.1L3.5,26
			l0,0.1l-1.2-1.3L6,25.9z M3.7,39L8,41.2v4.2l-4.2-2.4V39z M8.6,47.4c0.1-0.1,0.1-0.2,0.1-0.2V47l4.2,2.5v0.4L11.1,52l-4.2-2.7
			L8.6,47.4z M13.6,50.2c0.1-0.1,0.1-0.2,0.1-0.2v-0.1l4.2,2.5v0.4l-2,2.4l-4.2-2.7L13.6,50.2z M16.6,55.5l2-2.4
			c0.1-0.1,0.1-0.2,0.1-0.2v-0.1l4.2,2.5v0.3l-2.1,2.6c0,0,0,0.1,0,0.1L16.6,55.5L16.6,55.5z M21.5,58.5l2.1-2.6
			c0.1-0.1,0.1-0.2,0.1-0.2v0l4.2,2.5v0.3l-2.2,2.7c-0.1,0.1-0.1,0.1-0.1,0.2l-4.2-2.7V58.5z M26.4,61.4l2.2-2.7
			c0.1-0.1,0.1-0.1,0.1-0.2l4.2,2.5v0.2l-2.3,2.9c-0.1,0.1-0.1,0.1-0.1,0.2v0.2l-4.2-2.7V61.4z M31.3,64.4l2.3-2.9
			c0-0.1,0.1-0.1,0.1-0.2l4.3,2.5V64l-2.4,3c-0.1,0.1-0.1,0.1-0.1,0.2v0.3l-4.2-2.7V64.4z M36.2,67.4l2.4-3c0,0,0-0.1,0-0.1l4.3,2.5
			v0.2L40.4,70c-0.1,0.1-0.1,0.1-0.1,0.2v0.5l-4.2-2.7V67.4z M41.1,70.4l2.5-3.2c0,0,0-0.1,0-0.1l4.3,2.5v0.1L45.3,73
			c-0.1,0.1-0.1,0.1-0.1,0.2v0.6l-4.2-2.7V70.4z M46,73.4l2.6-3.3c0,0,0,0,0-0.1l4.3,2.5v0.1L50.2,76c0,0.1-0.1,0.1-0.1,0.2V77
			L46,74.4V73.4z M50.9,76.4l2.7-3.5c0,0,0,0,0,0l4.3,2.5v0L55.1,79c0,0.1-0.1,0.1-0.1,0.2v0.9l-4.2-2.7V76.4z M55.8,79.4l2.7-3.6
			l4.3,2.5L60.1,82c0,0.1-0.1,0.1-0.1,0.2v1.1l-4.2-2.7V79.4z M60.7,82.4l2.8-3.7l4.3,2.5L65,85c0,0.1-0.1,0.1-0.1,0.2v1.3l-4.2-2.7
			V82.4z M65.6,85.3l2.9-3.8l1.6,0.9v7.4L65.6,87V85.3z M68.6,80.4v-8.6l1.5,0.7v8.7L68.6,80.4z M68.6,70.7V58.4l1.5,0.6v12.4
			L68.6,70.7z M68.6,57.3v-8.7l1.5,0.5v8.8L68.6,57.3z M68.6,47.6v-0.4c0-0.1,0-0.2-0.1-0.2l-2.1-2.8l3.6,1.1v2.8L68.6,47.6z
			 M65.9,43l2.6-3.6c0-0.1,0.1-0.1,0.1-0.2l1.5,0.4v4.7L65.9,43z M68.6,38.1v-7l1.5,0.3v7.1L68.6,38.1z M68.6,30.1v-7.5l1.5,0.2v7.6
			L68.6,30.1z M68.6,21.6v-7.5l1.5,0.1v7.6L68.6,21.6z M68.6,13.1c0-0.1,0-0.1-0.1-0.2l-3-3.7l4.5,0.1v3.9L68.6,13.1z M66.3,8.2
			l2.3-2.8c0,0,0-0.1,0-0.1h1.5v3L66.3,8.2z M67.9,4.3h-4.2V2h4.2V4.3z M62.9,4.3h-4.2V2h4.2V4.3z M57.9,4.3h-4.2V2h4.2V4.3z
			 M52.9,4.3h-4.2V2h4.2V4.3z M47.9,4.3h-4.2V2h4.2V4.3z M42.9,4.3h-4.2V2h4.2V4.3z M37.9,4.3h-4.2V2h4.2V4.3z M32.9,4.3h-4.2V2h4.2
			V4.3z M27.9,4.3h-4.2V2h4.2V4.3z M22.9,4.3h-4.2V2h4.2V4.3z M17.9,4.3h-4.2V2.1c0,0,0-0.1,0-0.1h4.3V4.3z M12.9,2.1v2.2H8.7V2.2
			c0-0.1,0-0.2-0.1-0.2L12.9,2.1C13,2,12.9,2,12.9,2.1z M12.5,5.3l-1.2,1.3L7.4,6.4l1.1-1.2H12.5z M6.4,6.4L2.8,6.3l1-1v0h3.7
			L6.4,6.4z M3.7,44.7v-0.6L8,46.5V47l-1.7,1.9l-4-2.6L3.7,44.7z M6.8,51.8v-1.4l4.2,2.7v1.7L6.6,52C6.7,52,6.8,51.9,6.8,51.8z
			 M11.7,54.9v-1.4l4.2,2.7v1.7l-4.3-2.7C11.6,55.1,11.7,55,11.7,54.9z M16.6,58.1v-1.4l4.2,2.7V61l-4.2-2.7
			C16.5,58.2,16.6,58.1,16.6,58.1z M21.5,61.2v-1.4l4.2,2.7v1.6l-4.2-2.7C21.5,61.3,21.5,61.3,21.5,61.2z M26.4,64.4V63l4.2,2.7v1.5
			l-4.2-2.7C26.4,64.5,26.4,64.4,26.4,64.4z M31.3,67.5v-1.4l4.2,2.7v1.5l-4.2-2.6C31.3,67.6,31.3,67.5,31.3,67.5z M36.2,70.6v-1.4
			l4.2,2.7v1.4L36.2,70.6C36.2,70.7,36.2,70.7,36.2,70.6z M41.1,73.8v-1.4l4.2,2.7v1.4L41.1,73.8C41.1,73.8,41.1,73.8,41.1,73.8z
			 M46,76.9v-1.4l4.2,2.7v1.3L46,76.9C46,76.9,46,76.9,46,76.9z M50.9,78.7l4.2,2.7v1.3L50.9,80V78.7z M55.8,81.9l4.2,2.7v1.3
			l-4.2-2.6V81.9z M60.7,85l4.2,2.7v1.2l-4.2-2.6V85z M65.6,88.2l4.5,2.9v1.1c0,0,0,0.1,0,0.1l-4.5-2.8V88.2z M70.8,3.4
			c-0.4,0-0.8,0.3-0.8,0.8v0.1h-1.5V2H78v2.3h-1.4V4.1c0-0.4-0.3-0.8-0.8-0.8H70.8z M73,4.1v89l-2.1-1.1v-88H73z M120.9,61.1
			l-2.2-2.7v-0.2l4.3-2.5c0,0.1,0,0.2,0.1,0.2l2.1,2.6v0.3l-4.2,2.7v-0.1C121,61.2,121,61.1,120.9,61.1z M116,64.1l-2.3-2.9V61
			l4.3-2.5c0,0.1,0,0.1,0.1,0.2l2.2,2.7v0.4l-4.2,2.7v-0.2C116.1,64.2,116.1,64.1,116,64.1z M111.1,67.1l-2.4-3v-0.1l4.3-2.5
			c0,0,0,0.1,0,0.1l2.3,2.9V65l-4.2,2.7v-0.4C111.2,67.2,111.2,67.1,111.1,67.1z M106.2,70l-2.5-3.2v-0.1l4.3-2.5c0,0,0,0.1,0,0.1
			l2.4,3v0.7l-4.2,2.7v-0.5C106.3,70.2,106.3,70.1,106.2,70z M101.3,73l-2.6-3.3v-0.1l4.3-2.5c0,0,0,0,0,0.1l2.5,3.2v0.9l-4.2,2.7
			v-0.7C101.4,73.2,101.4,73.1,101.3,73z M96.4,76l-2.7-3.5v0l4.3-2.5c0,0,0,0,0,0l2.6,3.3v1l-4.2,2.7v-0.9
			C96.5,76.2,96.5,76.1,96.4,76z M91.5,79l-2.7-3.6l4.3-2.5l2.6,3.5v1.2l-4.2,2.7v-1C91.6,79.2,91.5,79.1,91.5,79z M86.6,82
			l-2.8-3.7l4.3-2.5l2.7,3.6v1.4l-4.2,2.7v-1.2C86.7,82.2,86.6,82.1,86.6,82z M81.7,85l-2.9-3.8l4.3-2.5l2.8,3.7v1.5l-4.2,2.7v-1.3
			C81.8,85.1,81.7,85.1,81.7,85z M144.1,23.8l-4,1.2l-1.4-1.6v0l4.3-1.1c0,0.1,0,0.2,0.1,0.2l0,0v0.1L144.1,23.8z M133.7,42.6v-6.7
			l4.2-1.7v6.3L133.7,42.6z M137.9,41.6v4.3l-4.2,2.5v-4.6L137.9,41.6z M133.7,34.8v-4.6l4.2-1.4v4.3L133.7,34.8z M133.1,29.3
			l-3.7,1.2l1.4-1.6c0,0,0-0.1,0-0.1l3.7-1.1L133.1,29.3z M78.8,70.3V58.1l4.2-1.7v11.8L78.8,70.3z M83,69.3v8.3l-4.2,2.5v-8.6
			L83,69.3z M78.8,57.1v-8.6L83,47v8.3L78.8,57.1z M78.8,47.4L78.8,47.4l2.6-3.5l3.7-1.1l-2,2.6c0,0.1-0.1,0.1-0.1,0.2V46L78.8,47.4
			z M88,21.1v7L83.8,29v-7.3L88,21.1z M83.8,20.7v-7l4.2-0.3v6.7L83.8,20.7z M88,29.2v6.4l-4.2,1.1V30L88,29.2z M88,36.6
			c0,0.1,0,0.1,0.1,0.2l2.4,3.3l-4.1,1.3l-2.6-3.6v0L88,36.6z M88.8,36.4L88.8,36.4l4.3-1.2c0,0.1,0,0.1,0.1,0.2l2.3,3.1l-4.1,1.2
			L88.8,36.4z M93,20.4v6.8L88.8,28v-7L93,20.4z M88.8,20v-6.6l4.2-0.3v6.3L88.8,20z M93,28.1v6.1l-4.2,1.1V29L93,28.1z M93.7,35.1
			L93.7,35.1L98,34c0,0.1,0,0.1,0.1,0.2l2.2,2.9l-4.1,1.2L93.7,35.1z M98,19.7v6.5L93.7,27v-6.7L98,19.7z M93.7,19.3v-6.2l4.2-0.3
			v5.9L93.7,19.3z M98,27.1v5.8L93.7,34v-6L98,27.1z M98.7,33.8L98.7,33.8l4.3-1.2c0,0.1,0,0.1,0.1,0.2l2.1,2.7l-4.1,1.2L98.7,33.8z
			 M103,18.9v6.2L98.7,26v-6.4L103,18.9z M98.7,18.5v-5.8l4.2-0.3v5.5L98.7,18.5z M103,26.1v5.5l-4.2,1.1V27L103,26.1z M103.7,32.5
			L103.7,32.5l4.3-1.2c0,0.1,0,0.1,0.1,0.2l2,2.6l-4.1,1.2L103.7,32.5z M108,18.2v5.9l-4.2,0.9v-6.1L108,18.2z M103.7,17.8v-5.4
			l4.2-0.3v5.1L103.7,17.8z M108,25.1v5.2l-4.2,1.1V26L108,25.1z M108.7,31.2L108.7,31.2l4.3-1.2c0,0.1,0,0.2,0.1,0.2l1.9,2.4
			l-4.1,1.2L108.7,31.2z M113,17.5v5.6l-4.2,0.9v-5.9L113,17.5z M108.7,17.1v-5l4.2-0.3v4.7L108.7,17.1z M113,24.1V29l-4.2,1.1V25
			L113,24.1z M113.7,29.9L113.7,29.9l4.3-1.2c0,0.1,0,0.2,0.1,0.2l1.7,2.2l-4.1,1.2L113.7,29.9z M118,16.8v5.3l-4.2,0.9v-5.6
			L118,16.8z M113.7,16.4v-4.7l4.2-0.3v4.3L113.7,16.4z M118,23.1v4.6l-4.2,1.1V24L118,23.1z M118.7,28.6L118.7,28.6l4.3-1.2
			c0,0.1,0,0.2,0.1,0.2l1.6,2l-4.1,1.2L118.7,28.6z M123,16.1v5l-4.2,0.9v-5.3L123,16.1z M118.7,15.7v-4.3l4.2-0.3v3.9L118.7,15.7z
			 M123,22.1v4.3l-4.2,1.1V23L123,22.1z M123.7,27.3L123.7,27.3l4.3-1.2c0,0.1,0,0.2,0.1,0.2l1.5,1.8l-4.1,1.2L123.7,27.3z
			 M128,15.4v4.8l-4.2,0.9v-5L128,15.4z M123.7,15v-3.9l4.2-0.3v3.5L123.7,15z M128,21.1v4l-4.2,1.1V22L128,21.1z M128.7,26
			L128.7,26l4.3-1.1c0,0.1,0,0.2,0.1,0.2l1.4,1.7l-4.1,1.2L128.7,26z M132.9,20.1v3.7l-4.2,1.1v-4L132.9,20.1z M128.7,20v-4.7
			l4.2-0.6v4.5L128.7,20z M132.9,13.6l-4.2,0.6v-3.5l4.2-0.3V13.6z M128,9.7C128,9.8,128,9.8,128,9.7l-4,0.3l1.9-2.2c0,0,0,0,0-0.1
			l3.9-0.1L128,9.7z M123.1,10.1C123,10.1,123,10.1,123.1,10.1l-4,0.3l2-2.3c0,0,0,0,0-0.1l3.9-0.1L123.1,10.1z M118.1,10.4
			C118,10.4,118,10.4,118.1,10.4l-4,0.3l2.1-2.5c0,0,0-0.1,0-0.1l3.9-0.1L118.1,10.4z M113.1,10.7C113,10.7,113,10.8,113.1,10.7
			l-4,0.4l2.3-2.7c0,0,0-0.1,0-0.1l3.9-0.1L113.1,10.7z M108.1,11c0,0,0,0.1,0,0.1l-4,0.3l2.4-2.8c0,0,0-0.1,0-0.1l3.9-0.1L108.1,11
			z M103.1,11.3c0,0,0,0.1,0,0.1l-4,0.3l2.5-3c0,0,0-0.1,0.1-0.2l4-0.1L103.1,11.3z M98.1,11.6c0,0,0,0.1,0,0.1L94,12l2.6-3.2
			c0,0,0-0.1,0.1-0.2l4-0.1L98.1,11.6z M93.1,11.9c0,0,0,0.1-0.1,0.1L89,12.4L91.7,9c0-0.1,0.1-0.1,0.1-0.2l4-0.1L93.1,11.9z
			 M88.1,12.3c0,0,0,0.1-0.1,0.2L84,12.7l2.8-3.5c0-0.1,0.1-0.1,0.1-0.2l4-0.1L88.1,12.3z M83.1,12.6c0,0.1-0.1,0.1-0.1,0.2L78.9,13
			l2.9-3.7C81.9,9.3,82,9.2,82,9.1L86,9L83.1,12.6z M83,13.8v7l-4.2,0.6V14L83,13.8z M83,21.8v7.3L78.8,30v-7.6L83,21.8z M83,30.2
			v6.7L78.8,38V31L83,30.2z M83,37.9c0,0.1,0,0.1,0.1,0.2l2.6,3.5l-4.1,1.3L78.8,39v0L83,37.9z M83.8,68.9l4.2-2.1v7.9l-4.2,2.5
			V68.9z M83.8,67.8V56.1l4.2-1.7v11.3L83.8,67.8z M83.8,55v-8.3l4.2-1.4v8L83.8,55z M83.8,45.7l2.5-3.3l3.7-1.1l-2,2.5
			C88,43.8,88,43.9,88,44v0.3L83.8,45.7z M88.8,66.4l4.2-2.1v7.6l-4.2,2.5V66.4z M88.8,65.3V54.1l4.2-1.7v10.8L88.8,65.3z M88.8,53
			v-7.9l4.2-1.4v7.6L88.8,53z M88.8,44l2.4-3.2l3.7-1.1l-1.9,2.4C93,42.2,93,42.3,93,42.4v0.2L88.8,44z M93.7,63.9l4.2-2.1v7.2
			l-4.2,2.5V63.9z M93.7,62.8V52.1l4.2-1.7v10.3L93.7,62.8z M93.7,51v-7.5L98,42v7.2L93.7,51z M93.9,42.3l2.3-3l3.7-1.1l-1.8,2.3
			C98,40.6,98,40.7,98,40.8V41L93.9,42.3z M98.7,61.4l4.2-2.1v6.8l-4.2,2.5V61.4z M98.7,60.3V50l4.2-1.7v9.8L98.7,60.3z M98.7,49
			v-7.2l4.2-1.4v6.9L98.7,49z M99,40.7l2.2-2.8l3.7-1.1l-1.8,2.2c-0.1,0.1-0.1,0.1-0.1,0.2v0.1L99,40.7z M103.7,58.9l4.2-2.1v6.5
			l-4.2,2.5V58.9z M103.7,57.7V48l4.2-1.7v9.3L103.7,57.7z M103.7,46.9v-6.8l4.2-1.4v6.5L103.7,46.9z M104,39l2.1-2.6l3.7-1.1
			l-1.7,2.1c-0.1,0.1-0.1,0.1-0.1,0.2v0.1L104,39z M108.7,56.3l4.2-2.1v6.1l-4.2,2.5V56.3z M108.7,55.2V46l4.2-1.7v8.8L108.7,55.2z
			 M108.7,44.9v-6.5l4.2-1.4v6.1L108.7,44.9z M109.1,37.3l2-2.4l3.7-1.1l-1.6,2c-0.1,0.1-0.1,0.1-0.1,0.2L109.1,37.3z M113.7,53.8
			l4.2-2.1v5.7l-4.2,2.5V53.8z M113.7,52.7V44l4.2-1.7v8.3L113.7,52.7z M113.7,42.9v-6.1l4.2-1.4v5.8L113.7,42.9z M114.2,35.6
			l1.8-2.3l3.7-1.1l-1.6,1.9c0,0,0,0.1-0.1,0.2L114.2,35.6z M118.7,51.3l4.2-2.1v5.4l-4.2,2.5V51.3z M118.7,50.2V42l4.2-1.7V48
			L118.7,50.2z M118.7,40.9v-5.7l4.2-1.4v5.4L118.7,40.9z M119.2,33.9l1.7-2.1c0,0,0,0,0,0l3.6-1.1l-1.5,1.8c0,0,0,0.1,0,0.1
			L119.2,33.9z M123.7,48.8l4.2-2.1v5l-4.2,2.5V48.8z M123.7,47.7v-7.7l4.2-1.7v7.3L123.7,47.7z M123.7,38.9v-5.4l4.2-1.4v5.1
			L123.7,38.9z M124.3,32.3l1.5-1.8c0,0,0,0,0,0l3.7-1.1L128,31c0,0,0,0,0,0L124.3,32.3z M128.7,46.3l4.2-2.1v4.6l-4.2,2.5V46.3z
			 M128.7,45.1v-7.2l4.2-1.7V43L128.7,45.1z M128.7,36.8v-5l4.2-1.4v4.7L128.7,36.8z M133.7,24.7L133.7,24.7l4.3-1.1
			c0,0.1,0,0.2,0.1,0.2l1.3,1.5l-4.1,1.2L133.7,24.7z M137.9,13.9v4.2l-4.2,0.9v-4.4L137.9,13.9z M133.7,13.5v-3.1l4.2-0.3v2.8
			L133.7,13.5z M137.9,19.1v3.4l-4.2,1.1V20L137.9,19.1z M142.9,13.2v3.9l-4.2,0.9v-4.1L142.9,13.2z M138.7,12.8v-2.7l4.2-0.3v2.4
			L138.7,12.8z M142.9,18.1v3.1l-4.2,1.1V19L142.9,18.1z M143,8.8C143,8.8,143,8.8,143,8.8l-3.9,0.3l1.6-1.7l3.8-0.1L143,8.8z
			 M138,9.1C138,9.1,138,9.1,138,9.1l-3.9,0.3l1.7-1.8c0,0,0,0,0,0l3.8-0.1L138,9.1z M133,9.4C133,9.4,133,9.5,133,9.4l-4,0.3l1.8-2
			c0,0,0,0,0,0l3.9-0.1L133,9.4z M130.4,6.7l-1.3-1.4h4l1.2,1.3L130.4,6.7z M129.4,6.7l-3.9,0.1l-1.4-1.6h4L129.4,6.7z M124.5,6.9
			L120.6,7l-1.5-1.7h4L124.5,6.9z M119.6,7l-3.9,0.1l-1.6-1.9h4L119.6,7z M114.7,7.2l-4,0.1l-1.7-2h4L114.7,7.2z M109.8,7.3l-4,0.1
			l-1.8-2.1h4L109.8,7.3z M104.9,7.4l-4,0.1L99,5.3h4L104.9,7.4z M100,7.6l-4,0.1l-2-2.4h4c0,0,0,0,0,0L100,7.6z M95.1,7.7l-4,0.1
			L89,5.3h4.1c0,0,0,0,0,0L95.1,7.7z M90.2,7.9l-4,0.1L84,5.3h4.1c0,0,0,0,0,0L90.2,7.9z M85.3,8l-4,0.1L79,5.3h4.1c0,0,0,0,0,0.1
			L85.3,8z M80.3,8.2l-3.8,0.1v-3h1.5c0,0,0,0.1,0,0.1L80.3,8.2z M81.1,9.2l-3,3.7c0,0.1-0.1,0.1-0.1,0.2l-1.4,0.1V9.3L81.1,9.2z
			 M78,14.1v7.4l-1.4,0.2v-7.5L78,14.1z M78,22.5v7.6l-1.4,0.3v-7.7L78,22.5z M78,31.2v7l-1.4,0.4v-7.1L78,31.2z M78,39.2
			c0,0.1,0,0.1,0.1,0.2l2.7,3.6l-4.2,1.3v-4.7L78,39.2z M80.2,44.2L78.1,47c0,0.1-0.1,0.1-0.1,0.2v0.4l-1.4,0.5v-2.8L80.2,44.2z
			 M78,48.7v8.7l-1.4,0.6v-8.8L78,48.7z M78,58.4v12.3l-1.4,0.7V59L78,58.4z M78,71.8v8.6l-1.4,0.8v-8.8L78,71.8z M78.2,81.6
			l2.8,3.8V87l-4.4,2.8v-7.4L78.2,81.6z M123.7,55.5v-0.3l4.2-2.5v0c0,0.1,0,0.2,0.1,0.2l2,2.4v0.1l-4.2,2.7c0-0.1,0-0.1-0.1-0.2
			L123.7,55.5z M128.7,52.7v-0.3l4.2-2.5V50c0,0.1,0,0.2,0.1,0.2l1.9,2.2l-4.2,2.7c0,0,0,0,0,0L128.7,52.7z M133.7,49.8v-0.4
			l4.2-2.5v0.1c0,0.1,0,0.2,0.1,0.2l1.7,2l-4.2,2.7L133.7,49.8z M134.5,28.9l1.2-1.4c0,0,0-0.1,0.1-0.1l3.7-1.1l-1.2,1.4L134.5,28.9
			z M138.7,41.2l4.2-2.1V43l-4.2,2.5V41.2z M138.7,40.1v-6.2l4.2-1.7V38L138.7,40.1z M138.7,32.8v-4.3l4.2-1.4v4L138.7,32.8z
			 M139.6,27.2l1-1.1c0-0.1,0.1-0.1,0.1-0.2l3.7-1.1l-1.1,1.2L139.6,27.2z M144,6.3l-3.8,0.1l-1-1.1h3.9v0L144,6.3z M139.2,6.4
			l-3.9,0.1l-1.2-1.3h4L139.2,6.4z M137.9,2.2v2.1h-4.2V2.1c0,0,0-0.1,0-0.1h4.3C138,2.1,137.9,2.1,137.9,2.2z M132.9,2.1v2.2h-4.2
			V2L132.9,2.1C133,2,132.9,2,132.9,2.1z M128,4.3h-4.2V2h4.2V4.3z M123,4.3h-4.2V2h4.2V4.3z M118,4.3h-4.2V2h4.2V4.3z M113,4.3
			h-4.2V2h4.2V4.3z M108,4.3h-4.2V2h4.2V4.3z M103,4.3h-4.2V2h4.2V4.3z M98,4.3h-4.2V2H98V4.3z M93,4.3h-4.2V2H93V4.3z M88,4.3h-4.2
			V2H88V4.3z M83,4.3h-4.2V2H83V4.3z M73.7,4.1h2.1v88l-2.1,1.1V4.1z M76.6,91.1l4.4-2.8v1L76.6,92V91.1z M81.8,87.7l4.2-2.7v1
			l-4.2,2.6V87.7z M86.7,84.6l4.2-2.7V83l-4.2,2.6V84.6z M91.6,81.4l4.2-2.7V80l-4.2,2.6V81.4z M96.5,78.3l4.2-2.7v1.2l-4.2,2.6
			V78.3z M101.4,75.2l4.2-2.7v1.3l-4.2,2.6V75.2z M106.3,72l4.2-2.7v1.3c0,0,0,0,0,0.1l-4.2,2.6V72z M111.2,68.9l4.2-2.7v1.3
			c0,0,0,0.1,0,0.1l-4.2,2.6V68.9z M116.1,65.7l4.2-2.7v1.3c0,0.1,0,0.1,0,0.2l-4.2,2.6V65.7z M121,62.6l4.2-2.7v1.3
			c0,0.1,0,0.1,0.1,0.2l-4.2,2.7V62.6z M125.9,59.4l4.2-2.7v1.3c0,0.1,0,0.2,0.1,0.2l-4.3,2.7V59.4z M130.8,56.3l4.2-2.7v1.3
			c0,0.1,0.1,0.2,0.1,0.3l-4.3,2.7V56.3z M135.7,53.1l4.2-2.7v1.3c0,0.1,0.1,0.3,0.2,0.3l-4.3,2.7V53.1z M138.7,47v-0.4l4.2-2.5v0.1
			c0,0.1,0,0.2,0.1,0.2l0,0v0.1l1.4,1.6l-4.1,2.6L138.7,47z M143.1,2.1c-0.1,0.1-0.1,0.2-0.1,0.3v1.9h-4.2V2.2c0-0.1,0-0.2-0.1-0.2
			h4.5V2.1z M8,2C8,2.1,8,2.1,8,2.2v2.1H3.7V2H8z M1.9,47.3L6,49.9v1.7L1.9,49V47.3z M72.8,93.9L73,94c0.1,0,0.2,0.1,0.3,0.1
			l-0.1,0.1L72.8,93.9z M140.6,51.7V50l4.2-2.7v1.3c0,0.1,0,0.2,0.1,0.3V49L140.6,51.7z"/>
	</g>
</g>
</svg>
