<?xml version="1.0" encoding="utf-8"?>
<!-- Generator: Adobe Illustrator 19.0.0, SVG Export Plug-In . SVG Version: 6.00 Build 0)  -->
<svg version="1.1" id="Layer_1" xmlns="http://www.w3.org/2000/svg" xmlns:xlink="http://www.w3.org/1999/xlink" x="0px" y="0px"
	 width="142.1px" height="97.9px" viewBox="0 0 142.1 97.9" style="enable-background:new 0 0 142.1 97.9;" xml:space="preserve">
<style type="text/css">
	.st0{fill:#A57C52;}
	.st1{opacity:0.3;fill:url(#XMLID_330_);}
	.st2{fill:#8C6239;}
	.st3{opacity:0.3;fill:url(#XMLID_331_);}
	.st4{opacity:0.3;fill:url(#XMLID_357_);}
	.st5{fill:#C59C6D;}
	.st6{opacity:0.5;fill:url(#XMLID_368_);}
	.st7{fill:#44B7D4;}
	.st8{opacity:0.5;fill:url(#XMLID_370_);}
	.st9{fill:#2AA4CA;}
	.st10{opacity:0.5;fill:url(#XMLID_371_);}
	.st11{fill:#333333;}
	.st12{fill:#4D4D4D;}
	.st13{opacity:0.7;}
	.st14{fill:#FFFFFF;}
</style>
<g id="XMLID_1431_">
	<path id="XMLID_450_" class="st0" d="M9.1,37.5l57.2-8.6c0,0,1.1,0.9,1.3,2.7c0.2,1.8,1.3,2.7,1.1,4.9c-0.2,2.2,0,2.2,0,2.2
		l-42.1,9.3l-17.7-8L9.1,37.5z"/>
	<linearGradient id="XMLID_330_" gradientUnits="userSpaceOnUse" x1="10.101" y1="17.8678" x2="74.1378" y2="56.367">
		<stop  offset="0" style="stop-color:#231F20;stop-opacity:0"/>
		<stop  offset="0.5" style="stop-color:#231F20"/>
		<stop  offset="1" style="stop-color:#231F20;stop-opacity:0"/>
	</linearGradient>
	<path id="XMLID_449_" class="st1" d="M9.1,37.5l57.2-8.6c0,0,1.1,0.9,1.3,2.7c0.2,1.8,1.3,2.7,1.1,4.9c-0.2,2.2,0,2.2,0,2.2
		l-42.1,9.3l-17.7-8L9.1,37.5z"/>
</g>
<g id="XMLID_1427_">
	<path id="XMLID_443_" class="st2" d="M77.2,28.7c0,0-1.8,1.3-1.8,4.4s0,6,0,6l58.1,13.3V36.9L77.2,28.7z"/>
	<linearGradient id="XMLID_331_" gradientUnits="userSpaceOnUse" x1="70.8171" y1="17.7765" x2="146.0297" y2="62.9947">
		<stop  offset="0" style="stop-color:#231F20;stop-opacity:0"/>
		<stop  offset="0.5" style="stop-color:#231F20"/>
		<stop  offset="1" style="stop-color:#231F20;stop-opacity:0"/>
	</linearGradient>
	<path id="XMLID_442_" class="st3" d="M77.2,28.7c0,0-1.8,1.3-1.8,4.4s0,6,0,6l58.1,13.3V36.9L77.2,28.7z"/>
</g>
<g id="XMLID_1423_">
	<polygon id="XMLID_440_" class="st0" points="74.6,66.7 74.6,96 91.7,83.4 91.7,59.1 	"/>
	<linearGradient id="XMLID_357_" gradientUnits="userSpaceOnUse" x1="68.5557" y1="68.723" x2="97.4046" y2="86.0671">
		<stop  offset="0" style="stop-color:#231F20;stop-opacity:0"/>
		<stop  offset="0.5" style="stop-color:#231F20"/>
		<stop  offset="1" style="stop-color:#231F20;stop-opacity:0"/>
	</linearGradient>
	<polygon id="XMLID_439_" class="st4" points="74.6,66.7 74.6,96 91.7,83.4 91.7,59.1 	"/>
</g>
<g id="XMLID_1419_">
	<polygon id="XMLID_437_" class="st5" points="7,39.5 7,54.2 68.9,95.5 68.9,66.2 	"/>
	<linearGradient id="XMLID_368_" gradientUnits="userSpaceOnUse" x1="12.7022" y1="23.7542" x2="66.656" y2="101.6672">
		<stop  offset="0" style="stop-color:#231F20;stop-opacity:0"/>
		<stop  offset="0.3537" style="stop-color:#231F20"/>
		<stop  offset="1" style="stop-color:#231F20;stop-opacity:0"/>
	</linearGradient>
	<polygon id="XMLID_394_" class="st6" points="7,39.5 7,54.2 68.9,95.5 68.9,66.2 	"/>
</g>
<g id="XMLID_1415_">
	<polygon id="XMLID_388_" class="st7" points="6.8,15.4 62.8,3.2 70.6,4.7 70.6,17.2 	"/>
	<linearGradient id="XMLID_370_" gradientUnits="userSpaceOnUse" x1="6.7589" y1="10.2057" x2="70.5919" y2="10.2057">
		<stop  offset="0" style="stop-color:#FFFFFF;stop-opacity:0"/>
		<stop  offset="0.5" style="stop-color:#FFFFFF"/>
		<stop  offset="1" style="stop-color:#FFFFFF;stop-opacity:0"/>
	</linearGradient>
	<polygon id="XMLID_385_" class="st8" points="6.8,15.4 62.8,3.2 70.6,4.7 70.6,17.2 	"/>
</g>
<g id="XMLID_1411_">
	<polygon id="XMLID_380_" class="st9" points="72.6,4.9 72.6,17.5 136.4,15.4 80.1,2.9 	"/>
	<linearGradient id="XMLID_371_" gradientUnits="userSpaceOnUse" x1="72.5919" y1="10.2057" x2="136.4259" y2="10.2057">
		<stop  offset="0" style="stop-color:#FFFFFF;stop-opacity:0"/>
		<stop  offset="0.5" style="stop-color:#FFFFFF"/>
		<stop  offset="1" style="stop-color:#FFFFFF;stop-opacity:0"/>
	</linearGradient>
	<polygon id="XMLID_376_" class="st10" points="72.6,4.9 72.6,17.5 136.4,15.4 80.1,2.9 	"/>
</g>
<g id="XMLID_1398_">
	<g id="XMLID_445_">
		<path id="XMLID_446_" class="st11" d="M71.6,20.7v75.2l3-2V24.4l61.5-4.5v34.8l1.7-1.5V17.4L71.6,20.7z M6.8,39.2l2,0.7V20h-2
			V39.2z"/>
	</g>
</g>
<g id="XMLID_1358_">
	<g id="XMLID_708_">
		<path id="XMLID_709_" class="st12" d="M4.4,53.5l2.3,0.7V20l62,4.3L68.4,95l3.2,1.5V20.7L4.4,17.5V53.5z M133.4,53.9l2.7,0.8V19.9
			l-2.7,0.5V53.9z M135.8,15.4l-5.2,0.2l0.1-0.1l-5.8-2.7l-0.3,0.7l4.8,2.2L117.9,16l0.1-0.2L99.2,7l-0.3,0.7l17.8,8.3l-12.9,0.4
			l0.1-0.3L76.9,3.7l3.2-0.9l-8.7-1.5l-8.7,1.8l3.1,0.6L39,16.2l0.1,0.2L26.2,16L44,7.7L43.7,7L25,15.8l0.1,0.2l-11.6-0.3l6.2-2.9
			l-0.3-0.7l-7,3.3l0.1,0.3l-5.6-0.1L1.1,17l70.5,3.7l69.5-3.8L135.8,15.4z M70.6,17.2l-4.1-0.1l4.1-2.2V17.2z M70.6,14.4l-0.1-0.3
			l-5.3,2.7l0.1,0.2l-10.3-0.3l15.6-7.3V14.4z M70.6,9.3l-0.2-0.5l-16.9,7.9l0,0.1l-13.3-0.3L66.8,4.2L66.7,4l3.9,0.8V9.3z
			 M72.6,17.5V15l4.4,2.3L72.6,17.5z M77.5,17.4l0.2-0.5l-4.8-2.5L72.6,15V9.6L88.4,17L77.5,17.4z M89.3,17l0.1-0.3L72.6,8.8V4.9
			l3.7-1l-0.1,0.3l26.8,12.3L89.3,17z"/>
	</g>
</g>
<g id="XMLID_369_" class="st13">
	<g id="XMLID_1717_">
		<path id="XMLID_1718_" class="st14" d="M140.9,16.2L99.3,7.1L99.2,7l0,0L71.6,1c-0.1,0-0.1,0-0.2,0l-8.7,1.9l-0.1,0l0,0l-43.2,9.3
			l0-0.1L19,12.3L6,15.1l-0.5,0l0,0.1L1.8,16c-0.2,0-1.2,0.6-1.2,0.8c0,0.2,1.1,0.8,1.3,0.8l2.5,0.1v35.9c0,0.1,0.1,0.2,0.2,0.3
			l4.9,3.1c0,0.2,0.2,0.4,0.4,0.4c0.1,0,0.1,0,0.1,0l3.5,2.2v0c0,0.2,0.2,0.4,0.4,0.4c0.1,0,0.1,0,0.2,0l3.4,2.2v0.1
			c0,0.2,0.2,0.4,0.4,0.4c0.1,0,0.2,0,0.2-0.1l3.5,2.3v0.1c0,0.2,0.2,0.4,0.4,0.4c0.1,0,0.2,0,0.2-0.1l3.2,2.1v0.3
			c0,0.2,0.2,0.4,0.4,0.4c0.2,0,0.3-0.1,0.3-0.2l4.3,2.8v0.4c0,0.2,0.2,0.4,0.4,0.4c0.2,0,0.4-0.2,0.4-0.3l4.3,2.7v0.6
			c0,0.2,0.2,0.4,0.4,0.4c0.2,0,0.4-0.2,0.4-0.4v-0.1l4.3,2.8v0.6c0,0.2,0.2,0.4,0.4,0.4c0.2,0,0.4-0.2,0.4-0.4v-0.1l4.2,2.7v0.1
			c0,0.2,0.2,0.4,0.4,0.4c0.1,0,0.2,0,0.2-0.1l5.5,3.5v0.6c0,0.2,0.2,0.4,0.4,0.4c0.2,0,0.4-0.2,0.4-0.4v-0.1l5.2,3.4v0.6
			c0,0.2,0.2,0.4,0.4,0.4c0.2,0,0.4-0.2,0.4-0.4v-0.1l5.3,3.4v0.3c0,0.2,0.2,0.4,0.4,0.4c0.1,0,0.3-0.1,0.3-0.2l4.2,2.7v0.4h0.5
			l2.4,1.5c0,0,0,0,0,0v0.2H72v-0.2l14.5-9.4c0.1,0,0.1,0.1,0.2,0.1c0.2,0,0.4-0.2,0.4-0.4v-0.1l4.8-3.1c0.1-0.1,0.2-0.2,0.2-0.3V59
			c0-0.1-0.1-0.2-0.2-0.3c-0.1-0.1-0.2-0.1-0.4,0l-16.5,7.2V39.3l58.1,13c0,0,0.1,0,0.1,0c0,0,0,0,0,0V54c0,0.2,0.1,0.3,0.3,0.4
			l2,0.5c0,0,0.1,0,0.1,0c0.1,0,0.1,0,0.2-0.1l2-1.3c0.1-0.1,0.2-0.2,0.2-0.3V17.5h-0.3l2.5-0.1c0.2,0,1.2,0,1.2-0.2
			C141.4,17,139.7,15.9,140.9,16.2z M91.3,59.6v23.6l-4.2,2.7V61.5c0,0,0,0,0-0.1L91.3,59.6z M133.2,15.2l-2.8,0.1l-2.8-1.3
			L133.2,15.2z M124.5,13.3L124.5,13.3l4.2,2l-10.9,0.3l-15.5-7.2L124.5,13.3z M99,7.8l17.1,8l-12.2,0.4L77.5,4l2.4-0.4l0,0L99,7.8z
			 M73.1,14.4V9.8l14.6,6.8l-9.9,0.3l0,0L73.1,14.4z M76.3,17l-3.2,0.1v-1.8L76.3,17z M73.1,9V4.8l3.1-0.5l26,11.9l-12.9,0.4L73.1,9
			z M71.9,1.8L78,3.2l-6.1,1V1.8z M71.1,1.8v2.4l-6.4-1L71.1,1.8z M65.2,16.9L65.2,16.9l-9.9-0.3l15-7v4.6L65.2,16.9z M70.3,15.1v2
			L66.7,17L70.3,15.1z M53.6,16.6l-12.9-0.4l26-11.9l3.6,0.6v4L53.6,16.6z M62.7,3.6l2.7,0.4L39,16.1l-12.2-0.4l17.2-8l0-0.1
			L62.7,3.6z M19.6,12.8l21.5-4.6l-15.9,7.4l-10.9-0.3L19.6,12.8z M16.3,13.6l-3.8,1.8l-3.9-0.1L16.3,13.6z M1.2,16.8l4.4-1l7.1,0.2
			l0,0l0,0l12.6,0.4l0,0l0,0l28.5,0.9l0,0l0,0l16.5,0.5v2.3L1.2,16.8z M6.4,54.3l-1.3-0.8V20l1.3,0.1V54.3z M9.4,56.2l-2.3-1.4h0V40
			l2.3,1V56.2z M7.2,39.1v-19l1.2,0.1v19.4L7.2,39.1z M9.4,40.1L9.2,40v-2.3l2.2-0.3v2.4L9.4,40.1z M9.8,27.6
			C9.8,27.6,9.8,27.6,9.8,27.6c0.1,0,0.2,0,0.3-0.1c0.1-0.1,0.1-0.2,0.1-0.3c0-3.1,2.5-5.6,5.6-5.6c0.2,0,0.4-0.2,0.4-0.4v-0.5
			l42,3.1v0.3c0,0.2,0.2,0.4,0.4,0.4c3,0,5.7,1.5,7.3,3.8L9.2,36.9v-9.4L9.8,27.6z M9.2,26.8v-6.5l6.3,0.5v0.2
			c-3.2,0.2-5.8,2.7-6,5.9L9.2,26.8z M68.2,33c-0.2-4.3-3.2-8-7.3-9l7.4,0.5L68.2,33L68.2,33z M68.3,33.8v1.4l-2.2,0.4v-2.5l1.4-0.2
			c0,0.2,0,0.3,0,0.5c0,0.2,0.2,0.4,0.4,0.4H68.3z M66.9,30.4l-0.9,0.1v-1.5l0.3,0C66.6,29.5,66.8,30,66.9,30.4z M65.3,29.2v1.5
			L63,31.1v-1.5L65.3,29.2z M62.3,29.7v1.6l-2.2,0.4V30L62.3,29.7z M59.3,30.1v1.6l-3.1,0.5v-1.7L59.3,30.1z M55.5,30.7v1.7
			l-3.4,0.6v-1.7L55.5,30.7z M51.3,31.3v1.7L48,33.6v-1.8L51.3,31.3z M47.3,31.9v1.8l-3.2,0.5v-1.9L47.3,31.9z M43.3,32.5v1.9
			l-4.1,0.7v-1.9L43.3,32.5z M38.5,33.3v2l-4.3,0.7v-2L38.5,33.3z M33.4,34v2l-4.2,0.7v-2.1L33.4,34z M28.5,34.8v2.1l-4.3,0.7v-2.2
			L28.5,34.8z M23.4,35.5v2.2l-5.3,0.9v-2.3L23.4,35.5z M12.1,37.2l5.3-0.8v2.3l-5.3,0.9L12.1,37.2C12.1,37.3,12.1,37.3,12.1,37.2z
			 M13.5,58.8l-3.3-2.1V41.3l3.3,1.4V58.8z M13.8,42l3.6-0.6v2.1L13.8,42z M17.4,61.3l-3.2-2V43l3.2,1.4V61.3z M12.2,41.5l-1.7-0.8
			l56.6-9.5l0.2,1L12.2,41.5z M65.3,33.3v2.5L63,36.2v-2.6L65.3,33.3z M62.3,33.8v2.6l-2.2,0.4v-2.6L62.3,33.8z M59.3,34.3v2.7
			l-3.1,0.6v-2.7L59.3,34.3z M55.5,34.9v2.8l-3.4,0.7v-2.8L55.5,34.9z M51.3,35.6v2.9L48,39.1v-2.9L51.3,35.6z M47.3,36.3v3
			l-3.2,0.6v-3L47.3,36.3z M43.3,37v3.1l-4.1,0.8v-3.2L43.3,37z M38.5,37.8V41l-4.3,0.8v-3.3L38.5,37.8z M33.4,38.7V42l-4.2,0.8
			v-3.4L33.4,38.7z M28.5,39.5v3.4l-4.3,0.8v-3.6L28.5,39.5z M18.1,41.2l5.3-0.9v3.6l-3.5,0.7l-1.8-0.8V41.2z M21.5,63.9l-3.4-2.2
			V44.6l3.4,1.4V63.9z M25.3,66.4l-3.1-2v-18l3.1,1.3V66.4z M24.1,46.4C24.1,46.4,24.1,46.4,24.1,46.4L24.1,46.4l4.3-0.9v1.6
			l-1.8,0.4L24.1,46.4z M30.4,50v19.6l-4.3-2.8V48.1L30.4,50C30.4,49.9,30.4,50,30.4,50z M35.4,52.2v20.6l-4.2-2.7V50.2l4.3,1.8
			C35.4,52.1,35.4,52.1,35.4,52.2z M40.4,54.3V76l-4.3-2.8V52.4L40.4,54.3C40.4,54.2,40.4,54.3,40.4,54.3z M45.3,56.5v22.7l-4.2-2.7
			v-22l4.2,1.8C45.4,56.4,45.3,56.4,45.3,56.5z M51.4,83.1l-5.3-3.4v-23l5.3,2.3V83.1z M57.4,86.9l-5.2-3.4V59.2l5.2,2.2V86.9z
			 M63.4,90.8l-5.3-3.4V61.8l5.3,2.3V90.8z M68.3,93.9l-4.1-2.6V64.4l4.1,1.8V93.9z M68.3,65.3L27.8,48l40.5-8.6V65.3z M33.5,46
			l-4.2,0.9v-1.5l4.2-0.8v1.3C33.4,45.9,33.4,46,33.5,46z M38.5,44.9l-4.3,0.9v-1.4l4.3-0.8v1.2C38.5,44.8,38.5,44.9,38.5,44.9z
			 M43.4,43.9l-4.2,0.9c0,0,0,0,0,0v-1.3l4.1-0.8v1.1C43.3,43.8,43.3,43.8,43.4,43.9z M44.1,43.8C44.1,43.7,44.1,43.7,44.1,43.8
			l0-1.3l3.2-0.6v1.2L44.1,43.8z M51.3,42.2L48,42.9v-1.2l3.3-0.6L51.3,42.2C51.3,42.2,51.3,42.2,51.3,42.2z M55.5,41.3L52.1,42V41
			l3.4-0.7L55.5,41.3C55.5,41.3,55.5,41.3,55.5,41.3z M59.4,40.5l-3.1,0.7v-1l3.1-0.6L59.4,40.5C59.3,40.5,59.3,40.5,59.4,40.5z
			 M62.3,39.9l-2.2,0.5v-0.9l2.2-0.4L62.3,39.9C62.3,39.8,62.3,39.9,62.3,39.9z M63,39.7v-0.9l2.3-0.4v0.8L63,39.7z M68.3,38.6
			l-2.2,0.5v-0.8l2.2-0.4V38.6z M68.3,37l-45.4,8.8l-0.5,0l-1.4-0.7l0.2-0.1L68.3,36L68.3,37z M71.3,95.8L69,94.4V24.7l2.2,0.2V95.8
			z M71.3,24.1l-12.5-0.9c-0.1,0-0.1,0-0.2,0c0,0-0.1,0-0.1,0L5.2,19.2v-1.4l66.1,3V24.1z M71.6,20.2l-0.5,0V4.9L71.5,5
			c0,0,0,0,0.1,0c0,0,0,0,0.1,0l0.7-0.1v4.5l0,0.1l0,0v10.6L71.6,20.2z M74.4,66.3C74.4,66.3,74.4,66.3,74.4,66.3v27.9L72,95.7V24.9
			l2.3-0.2V66.3z M86.4,61.8v24.6L81,89.9V64.1c0,0,0,0,0,0L86.4,61.8z M80.3,64.5v25.9l-5.2,3.4v-27L80.3,64.5z M76.3,38.8
			l-1.2-0.3v-0.8l1.2,0.2V38.8z M126.9,21.6c3.1,0,5.6,2.5,5.6,5.6c0,0.2,0.2,0.4,0.4,0.4h0.5v8.8l-55.7-8.1
			c1.6-2.3,4.3-3.8,7.3-3.8c0.2,0,0.4-0.2,0.4-0.4v-0.3l41.2-3.1v0.5C126.5,21.5,126.6,21.6,126.9,21.6z M77.1,29.3
			c0-0.1,0.1-0.1,0.1-0.2l2.3,0.3c0,0,0,0.1,0,0.1v1.4l-2.4-0.4L77.1,29.3C77.1,29.3,77.1,29.3,77.1,29.3z M133.3,40.7l-0.1,1
			l-56.8-9.5l0.1-1L133.3,40.7z M80.2,29.5l2.1,0.3v1.5L80.2,31L80.2,29.5C80.2,29.5,80.2,29.5,80.2,29.5z M83,31.5v-1.6l2.3,0.3
			v1.6L83,31.5z M86.1,32v-1.6l3.3,0.5v1.7L86.1,32z M90.2,32.7V31l3.2,0.5v1.8L90.2,32.7z M94.1,33.3v-1.8l3.2,0.5v1.9L94.1,33.3z
			 M98.1,34v-1.9l4.4,0.6v2L98.1,34z M103.2,34.9v-2l4.1,0.6v2.1L103.2,34.9z M108.1,35.7v-2.1l4.4,0.6v2.2L108.1,35.7z M113.2,36.6
			v-2.3l5.1,0.7v2.4l0.8,0.1v-2.4l5.2,0.7v2.5l0.8,0.1V36l5.4,0.8c0,0.1,0,0.1,0,0.2v2.4l0.8,0.1V37c0,0,0,0,0-0.1l2.2,0.3v2.6
			l0.4,0.1l0,0.1L113.2,36.6z M133.3,26.9L133.3,26.9c-0.3-3.2-2.9-5.8-6.1-6v-0.2l6.1-0.5V26.9z M76.7,28.4c-0.1,0-0.1,0.1-0.1,0.2
			c-0.8,1.3-1.2,2.8-1.3,4.5h-0.2v-8.4l7.5-0.6C80.1,24.7,78,26.2,76.7,28.4z M75.6,33.8c0.2,0,0.4-0.2,0.4-0.4c0-0.2,0-0.3,0-0.5
			l0.3,0v2.5l-1.1-0.2l-0.2,0v-1.4H75.6z M133.3,47.2l-0.1,1L75.2,37v-1L133.3,47.2z M79.4,39.5L77.1,39v-0.9l2.4,0.5V39.5z
			 M82.3,40.2l-2.1-0.5v-1l2.1,0.4V40.2z M85.3,40.9L83,40.3v-1.1l2.3,0.4V40.9z M89.4,41.8L86.1,41v-1.2l3.3,0.6V41.8z M93.3,42.6
			l-3.2-0.7v-1.3l3.2,0.6V42.6z M97.3,43.5l-3.2-0.7v-1.4l3.2,0.6V43.5z M102.5,44.7l-4.4-1v-1.5l4.4,0.9V44.7z M107.3,45.8
			l-4.1-0.9v-1.7l4.1,0.8V45.8z M112.5,46.9l-4.4-1c0,0,0,0,0,0v-1.8l4.4,0.9V46.9z M118.3,48.2l-5.1-1.1v-2l5.1,1V48.2z
			 M124.3,49.5l-5.2-1.2v-2.1l5.2,1V49.5z M130.4,50.9l-5.4-1.2v-2.3l5.4,1V50.9z M133.3,51.6l-2.2-0.5v-2.5l2.2,0.4V51.6z
			 M133.8,46.5l-56.7-11v-2.5l2.4,0.4V36l0.8,0.1v-2.6l2.1,0.4v2.6l0.8,0.1v-2.6l2.3,0.4v2.7l0.8,0.1v-2.7l3.3,0.6v2.8l0.8,0.1v-2.8
			l3.2,0.5v2.9l0.8,0.1v-2.9l3.2,0.5v3l0.8,0.1v-3l4.4,0.7v3.1l0.8,0.1v-3.1l4.1,0.7v3.2l0.8,0.1v-3.2l4.4,0.7v3.3l0.8,0.1v-3.3
			l5.1,0.9v3.4l0.8,0.1v-3.5l5.2,0.9v3.6l0.8,0.1v-3.6l5.4,0.9v3.7l0.8,0.1v-3.7l2.2,0.4v3.8l0.5,0.1L133.8,46.5z M135.3,54
			l-1.3-0.3v-6.8l0-0.3l0,0v-6.3l0-0.2l0,0V20.2l1.3-0.1V54z M137.3,53.1l-1.2,0.8V20.1l1.2-0.1V53.1z M137.3,19.2L85,23.1
			c0,0-0.1,0-0.1,0c-0.1,0-0.1,0-0.2,0L72,24.1v-3.2l65.3-3.3V19.2z M73.1,20.1v-2.3l16.1-0.5l0,0l0,0l28.5-0.9l0,0l0,0l12.6-0.4
			l0,0l0,0l4.8-0.1c0.1,0,0.3-0.1,0.3-0.2l5,1.1L73.1,20.1z M8,51.8c0.1,0,0.1-0.1,0.1-0.3c0-0.2,0-0.3-0.1-0.3
			c-0.1,0-0.1,0.1-0.1,0.3C7.9,51.7,7.9,51.8,8,51.8z M89.9,77.6c-0.2,0-0.4,0.4-0.4,0.8c0,0.5,0.2,0.8,0.4,0.8
			c0.2,0,0.4-0.4,0.4-0.8C90.3,77.9,90.1,77.6,89.9,77.6z M89.8,68.1c0.2,0,0.5-0.4,0.5-0.8c0-0.5-0.2-0.8-0.5-0.8
			c-0.3,0-0.5,0.4-0.5,0.8C89.3,67.8,89.5,68.1,89.8,68.1z M7.8,44.8c0.1,0,0.1-0.1,0.1-0.3c0-0.2-0.1-0.3-0.1-0.3
			c-0.1,0-0.1,0.1-0.1,0.3C7.7,44.6,7.8,44.8,7.8,44.8z M54.7,79.2c0.2,0,0.4-0.4,0.4-0.8c0-0.5-0.2-0.8-0.4-0.8s-0.4,0.4-0.4,0.8
			C54.3,78.8,54.4,79.2,54.7,79.2z M54.8,68.1c0.3,0,0.5-0.4,0.5-0.8c0-0.5-0.2-0.8-0.5-0.8c-0.2,0-0.5,0.4-0.5,0.8
			C54.3,67.8,54.5,68.1,54.8,68.1z M48.8,65.5c0.2,0,0.4-0.3,0.4-0.8s-0.2-0.8-0.4-0.8c-0.2,0-0.4,0.3-0.4,0.8S48.5,65.5,48.8,65.5z
			 M60.9,80.7c-0.2,0-0.4,0.4-0.4,0.9c0,0.5,0.2,0.9,0.4,0.9c0.2,0,0.4-0.4,0.4-0.9C61.3,81.1,61.1,80.7,60.9,80.7z M48.7,74.7
			c-0.2,0-0.4,0.3-0.4,0.8c0,0.4,0.2,0.8,0.4,0.8c0.2,0,0.4-0.3,0.4-0.8C49.1,75,48.9,74.7,48.7,74.7z M60.9,71
			c0.3,0,0.5-0.4,0.5-0.9c0-0.5-0.2-0.9-0.5-0.9c-0.3,0-0.5,0.4-0.5,0.9C60.4,70.6,60.6,71,60.9,71z M43.3,63c0.2,0,0.4-0.3,0.4-0.7
			s-0.2-0.7-0.4-0.7c-0.2,0-0.4,0.3-0.4,0.7S43.1,63,43.3,63z M83.7,82.4c0.2,0,0.4-0.4,0.4-0.9c0-0.5-0.2-0.9-0.4-0.9
			c-0.2,0-0.4,0.4-0.4,0.9C83.2,82,83.4,82.4,83.7,82.4z M77.8,83.8c-0.3,0-0.5,0.4-0.5,1c0,0.5,0.2,1,0.5,1c0.3,0,0.5-0.4,0.5-1
			C78.3,84.2,78,83.8,77.8,83.8z M66.4,83.8c-0.3,0-0.5,0.4-0.5,1c0,0.5,0.2,1,0.5,1c0.3,0,0.5-0.4,0.5-1
			C66.8,84.2,66.6,83.8,66.4,83.8z M77.8,73.9c0.3,0,0.5-0.4,0.5-1c0-0.5-0.2-1-0.5-1c-0.3,0-0.5,0.4-0.5,1
			C77.2,73.4,77.5,73.9,77.8,73.9z M43.3,72c-0.2,0-0.3,0.3-0.3,0.7c0,0.4,0.1,0.7,0.3,0.7c0.2,0,0.3-0.3,0.3-0.7
			C43.6,72.3,43.4,72,43.3,72z M66.4,73.9c0.3,0,0.5-0.4,0.5-1c0-0.5-0.2-1-0.5-1c-0.3,0-0.5,0.4-0.5,1
			C65.8,73.4,66.1,73.9,66.4,73.9z M83.9,71c0.3,0,0.5-0.4,0.5-0.9c0-0.5-0.2-0.9-0.5-0.9c-0.3,0-0.5,0.4-0.5,0.9
			C83.4,70.6,83.6,71,83.9,71z M28.3,63.2c-0.1,0-0.2,0.2-0.2,0.5c0,0.3,0.1,0.5,0.2,0.5c0.1,0,0.2-0.2,0.2-0.5
			C28.5,63.4,28.4,63.2,28.3,63.2z M15.6,56.3c0.1,0,0.2-0.2,0.2-0.4c0-0.2-0.1-0.4-0.2-0.4c-0.1,0-0.2,0.2-0.2,0.4
			C15.5,56.1,15.5,56.3,15.6,56.3z M19.5,58.8c0,0.2,0.1,0.4,0.2,0.4c0.1,0,0.2-0.2,0.2-0.4c0-0.2-0.1-0.4-0.2-0.4
			C19.6,58.3,19.5,58.5,19.5,58.8z M38.2,60.7c0.2,0,0.3-0.3,0.3-0.7c0-0.4-0.2-0.7-0.3-0.7c-0.2,0-0.3,0.3-0.3,0.7
			C37.9,60.4,38,60.7,38.2,60.7z M15.7,49.3c0.1,0,0.2-0.2,0.2-0.4c0-0.2-0.1-0.4-0.2-0.4c-0.1,0-0.2,0.2-0.2,0.4
			C15.5,49.1,15.6,49.3,15.7,49.3z M23.6,61.7c0,0.3,0.1,0.5,0.2,0.5c0.1,0,0.2-0.2,0.2-0.5c0-0.3-0.1-0.5-0.2-0.5
			C23.7,61.2,23.6,61.4,23.6,61.7z M11.7,47.1c0.1,0,0.2-0.2,0.2-0.4c0-0.2-0.1-0.4-0.2-0.4c-0.1,0-0.2,0.2-0.2,0.4
			C11.5,46.9,11.6,47.1,11.7,47.1z M19.5,51.4c0.1,0,0.2-0.2,0.2-0.5c0-0.3-0.1-0.5-0.2-0.5c-0.1,0-0.2,0.2-0.2,0.5
			C19.3,51.2,19.4,51.4,19.5,51.4z M23.6,53.4c0.1,0,0.2-0.2,0.2-0.5c0-0.3-0.1-0.5-0.2-0.5c-0.1,0-0.2,0.2-0.2,0.5
			C23.3,53.2,23.4,53.4,23.6,53.4z M38.4,69.5c-0.2,0-0.3,0.3-0.3,0.7c0,0.4,0.1,0.7,0.3,0.7c0.2,0,0.3-0.3,0.3-0.7
			C38.7,69.8,38.5,69.5,38.4,69.5z M33.2,66.2c-0.2,0-0.3,0.3-0.3,0.6c0,0.3,0.1,0.6,0.3,0.6c0.1,0,0.3-0.3,0.3-0.6
			C33.5,66.5,33.3,66.2,33.2,66.2z M33.2,58.6c0.2,0,0.3-0.3,0.3-0.6c0-0.3-0.1-0.6-0.3-0.6c-0.2,0-0.3,0.3-0.3,0.6
			C32.9,58.3,33.1,58.6,33.2,58.6z M11.8,53.6c-0.1,0-0.1,0.2-0.1,0.3c0,0.2,0.1,0.3,0.1,0.3s0.1-0.2,0.1-0.3
			C11.9,53.8,11.9,53.6,11.8,53.6z M28.3,55.6c0.2,0,0.3-0.3,0.3-0.6c0-0.3-0.1-0.6-0.3-0.6S28,54.7,28,55
			C28,55.3,28.1,55.6,28.3,55.6z"/>
	</g>
</g>
<g id="XMLID_329_">
	<path id="XMLID_377_" class="st14" d="M71.4,1.7l69.1,15.1h-3.1V53l-65.9,43L5.1,52.9V16.8H1.9L71.4,1.7 M71.4,0
		c-0.1,0-0.2,0-0.4,0L1.5,15.1c-0.9,0.2-1.5,1-1.4,1.9c0.1,0.9,0.8,1.6,1.7,1.6h1.4v34.4c0,0.6,0.3,1.1,0.8,1.5l66.5,43.2
		c0.3,0.2,0.6,0.3,1,0.3c0.3,0,0.7-0.1,1-0.3l65.9-43c0.5-0.3,0.8-0.9,0.8-1.5V18.6h1.3c0.9,0,1.6-0.7,1.7-1.6
		c0.1-0.9-0.5-1.7-1.4-1.9L71.8,0C71.7,0,71.5,0,71.4,0L71.4,0z"/>
</g>
</svg>
