<?xml version="1.0" encoding="utf-8"?>
<!-- Generator: Adobe Illustrator 19.0.0, SVG Export Plug-In . SVG Version: 6.00 Build 0)  -->
<svg version="1.1" id="Layer_1" xmlns="http://www.w3.org/2000/svg" xmlns:xlink="http://www.w3.org/1999/xlink" x="0px" y="0px"
	 width="146.9px" height="92px" viewBox="0 0 146.9 92" style="enable-background:new 0 0 146.9 92;" xml:space="preserve">
<style type="text/css">
	.st0{fill:#215DA8;}
	.st1{fill:#2351A2;}
	.st2{fill:#333333;}
	.st3{fill:#666666;}
	.st4{fill:#999999;}
	.st5{opacity:0.7;}
	.st6{fill:#FFFFFF;}
</style>
<g id="XMLID_18_">
	<g id="XMLID_902_">
		<polygon id="XMLID_908_" class="st0" points="2.9,39 73.4,76.5 73.2,1.5 2.9,1.5 		"/>
		<polygon id="XMLID_907_" class="st1" points="73.4,76.7 143.6,40.2 143.6,1.4 73.2,1.4 		"/>
		<polygon id="XMLID_906_" class="st2" points="73.3,91 73.4,80.6 145.4,40.5 145.4,44.7 73.6,91 		"/>
		<polygon id="XMLID_905_" class="st3" points="73.3,91 1.3,44.9 1.3,39.7 73.4,80.6 73.6,91 		"/>
		<polygon id="XMLID_904_" class="st4" points="1.9,39.9 3.2,39.7 73.6,77 143.6,40.2 145.4,40.5 73.4,80.6 		"/>
		<polygon id="XMLID_903_" class="st2" points="73.6,77 143.6,40.2 145.4,40.5 94.9,69 		"/>
	</g>
	<g id="XMLID_32_" class="st5">
		<g id="XMLID_1044_">
			<path id="XMLID_1045_" class="st6" d="M145.4,40.2l-1.6,0v-0.5h0.1V1.5c0-0.2-0.2-0.4-0.4-0.4L73.4,1v0l-0.1,0v0h0h0c0,0,0,0,0,0
				c0,0,0,0,0,0L3.3,1.1c-0.2,0-0.4,0.2-0.4,0.4v37.8l-1.6,0.1c-0.2,0-0.4,0.2-0.4,0.4v5.2C1,45,1,45.1,1.1,45.2l72,46.1
				c0.1,0,0.1,0.1,0.2,0.1h0.3c0.1,0,0.1,0,0.2-0.1L145.6,45c0.1-0.1,0.2-0.2,0.2-0.3v-4.1C145.8,40.3,145.6,40.2,145.4,40.2z
				 M138.8,1.9l4.3,0v1.3h-2.4V1.9H140v1.3h-1.2V1.9z M134.8,1.9l3.3,0v1.4h-3.3V1.9z M132.7,1.9l1.3,0v1.4h-1.3V1.9z M128.9,1.8
				l3.1,0v1.4h-3.1V1.8z M128.9,3.7h3.1v41.6h0.8V3.7h1.3v40.4h0.8V3.7h3.3v38.6h0.8V3.7h1.2v37.6h0.8V3.7h2.4v36.5c0,0,0,0-0.1,0
				l-14.2,7.4V3.7z M126.8,1.8l1.3,0v1.4h-1.3V1.8z M126.8,3.7h1.3v44h0.6l-1.9,1V3.7z M122.7,1.8l3.4,0v1.4h-3.4V1.8z M120.9,1.8
				l1.1,0v1.4h-1.1V1.8z M120.9,3.7h1.1v46.9h0.8V3.7h3.4v45.1h0.6l-5.8,3V3.7z M115.8,1.8l4.3,0v1.4h-4.3V1.8z M108.8,1.8l6.2,0
				v1.4h-1.3V1.9H113v1.3h-4.2V1.8z M106.8,1.8l1.2,0v1.4h-1.2V1.8z M106.8,3.7h1.2v54.4h0.8V3.7h4.2v51.8h0.8V3.7h1.3v50.7h0.8V3.7
				h4.3v48.2h0.6l-13.9,7.3V3.7z M101.7,1.8l4.4,0v1.4h-4.4V1.8z M101.7,3.7h4.4v55.6h0.5l-4.9,2.6V3.7z M101.1,62.2l-1.2,0.7V3.7
				h1.1v58.5H101.1z M94.7,1.8l6.2,0v1.4h-1.1V1.8h-0.8v1.4h-4.4V1.8z M92.7,1.8l1.3,0v1.4h-1.3V1.8z M92.7,3.7H94v61.7h0.8V3.7h4.4
				v59.5l-6.4,3.4V3.7z M86.9,1.8l5.1,0v1.4h-5.1V1.8z M86.9,3.7h5.1v62.9h0.6l-5.7,3V3.7z M84.7,1.8l1.4,0v1.5h-1.4V1.8z M84.7,3.7
				h1.4v66h0.5l-1.9,1V3.7z M78.9,1.8l5.1,0v1.5h-5.1V1.8z M78.9,3.7H84V71h0.3l-5.4,2.8V3.7z M76.7,1.7l1.4,0v1.5h-1.4V1.7z
				 M76.7,3.7h1.4v70.4h0.2L76.7,75V3.7z M73.7,1.7l2.2,0v1.5h-2.2V1.7z M73.7,3.7H76v71.6l-2.2,1.1l0,0V3.7z M70.9,1.7l2.1,0v1.5
				h-2.1V1.7z M70.9,3.7H73v72.7l-2.1-1.1V3.7z M68.7,1.8l1.4,0v1.5h-1.4V1.8z M68.7,3.7h1.4v71.1l-1.4-0.7V3.7z M62.9,1.8l5.1,0
				v1.5h-5.1V1.8z M62.9,3.7H68v70L62.9,71V3.7z M60.7,1.8l1.4,0v1.5h-1.4V1.8z M60.7,69.8v-66h1.4v66.8L60.7,69.8L60.7,69.8z
				 M54.9,1.8l5.1,0v1.5h-5.1V1.8z M54.9,66.7V3.7H60v65.7L54.9,66.7L54.9,66.7z M52.8,1.8l1.3,0v1.4h-1.3V1.8z M52.8,65.5V3.7h1.3
				v62.6l-1.6-0.8H52.8z M45.7,1.8l6.4,0v1.4h-4.4V1.8H47v1.4h-1.3V1.8z M52.1,3.7v61.5l-4.4-2.3V3.7H52.1z M45.7,3.7H47v58.7
				l-1.3-0.7V3.7z M40.7,1.8l4.2,0v1.4h-4.2V1.8z M40.7,3.7h4.2v57.6l-4.2-2.2V3.7z M38.8,1.8l1.2,0v1.4h-1.2V1.8z M38.8,3.7H40v55
				l-1.2-0.6V3.7z M31.8,1.8l6.2,0v1.4h-4.2V1.9h-0.8v1.3h-1.3V1.8z M38,3.7v54l-4.2-2.2V3.7H38z M31.8,3.7h1.3v51.3l-1.3-0.7V3.7z
				 M26.7,1.8l4.3,0v1.4h-4.3V1.8z M26.7,3.7H31V54l-4.3-2.3V3.7z M24.7,1.8l1.3,0v1.4h-1.3V1.8z M24.7,3.7H26v47.5l-1.3-0.7V3.7z
				 M20.8,1.8l3.2,0v1.4h-3.2V1.8z M20.8,3.7h3.2v46.4l-3.2-1.7V3.7z M18.7,1.8l1.3,0v1.4h-1.3V1.8z M18.7,3.7H20v44.3l-1.3-0.7V3.7
				z M14.8,1.8l3.1,0v1.4h-3.1V1.8z M14.8,3.7H18V47l-3.1-1.7V3.7z M12.8,1.9l1.3,0v1.4h-1.3V1.9z M12.8,44.1V3.7h1.3v41.2l-1.5-0.8
				H12.8z M8.8,1.9l3.3,0v1.4H8.8V1.9z M8.8,3.7H12v40.1l-3.3-1.7V3.7z M3.6,1.9l4.4,0v1.4H6.8V1.9H6.1v1.3H3.6V1.9z M8,3.7v37.9
				L6.8,41V3.7H8z M3.6,3.7h2.4v36.9l-2.4-1.3V3.7z M73,90.4L1.7,44.7v-4.1L73,80.9c0,0,0.1,0,0.1,0V90.4z M73.3,80.2L73.3,80.2
				L2.3,40l1,0L47,63.3v0H47l26,13.9c0.1,0,0.1,0,0.2,0l0.7,0c0.1,0,0.1,0,0.2,0l69.2-36.3l0.8,0L73.3,80.2z M145.1,44.5L73.8,90.4
				v-9.6l71.3-39.5V44.5z M16.1,12.1c-0.2,0-0.3,0.3-0.3,0.6c0,0.3,0.1,0.6,0.3,0.6c0.2,0,0.3-0.3,0.3-0.6
				C16.3,12.4,16.2,12.1,16.1,12.1z M89.4,54.5c-0.2,0-0.4,0.4-0.4,0.9c0,0.5,0.2,0.9,0.4,0.9c0.2,0,0.4-0.4,0.4-0.9
				C89.8,54.9,89.6,54.5,89.4,54.5z M89.4,17.1c-0.2,0-0.4,0.4-0.4,0.9c0,0.5,0.2,0.9,0.4,0.9c0.2,0,0.4-0.4,0.4-0.9
				C89.8,17.5,89.6,17.1,89.4,17.1z M10.3,12.2c0.1,0,0.3-0.2,0.3-0.5c0-0.3-0.1-0.5-0.3-0.5c-0.1,0-0.3,0.2-0.3,0.5
				C10.1,11.9,10.2,12.2,10.3,12.2z M10.4,34c-0.1,0-0.3,0.2-0.3,0.5c0,0.3,0.1,0.5,0.3,0.5c0.1,0,0.3-0.2,0.3-0.5
				C10.7,34.3,10.6,34,10.4,34z M97.3,16.6c-0.2,0-0.4,0.4-0.4,0.8c0,0.4,0.2,0.8,0.4,0.8c0.2,0,0.4-0.4,0.4-0.8
				C97.7,17,97.5,16.6,97.3,16.6z M22.3,13.1c-0.2,0-0.3,0.3-0.3,0.6s0.1,0.6,0.3,0.6c0.2,0,0.3-0.3,0.3-0.6S22.5,13.1,22.3,13.1z
				 M22.3,39.7c-0.2,0-0.3,0.3-0.3,0.6c0,0.3,0.1,0.6,0.3,0.6c0.2,0,0.3-0.3,0.3-0.6C22.6,40,22.5,39.7,22.3,39.7z M81.4,17.6
				c-0.3,0-0.5,0.4-0.5,0.9c0,0.5,0.2,0.9,0.5,0.9c0.3,0,0.5-0.4,0.5-0.9C81.8,18,81.6,17.6,81.4,17.6z M16.1,37.1
				c-0.2,0-0.3,0.3-0.3,0.6c0,0.3,0.1,0.6,0.3,0.6c0.2,0,0.3-0.3,0.3-0.6C16.3,37.3,16.2,37.1,16.1,37.1z M97.3,51.3
				c-0.2,0-0.4,0.4-0.4,0.8c0,0.4,0.2,0.8,0.4,0.8c0.2,0,0.4-0.4,0.4-0.8C97.7,51.6,97.5,51.3,97.3,51.3z M81.4,57.9
				c-0.3,0-0.5,0.4-0.5,0.9s0.2,0.9,0.5,0.9c0.3,0,0.5-0.4,0.5-0.9S81.6,57.9,81.4,57.9z M130.7,37.1c-0.2,0-0.3,0.3-0.3,0.6
				c0,0.3,0.1,0.6,0.3,0.6c0.2,0,0.3-0.3,0.3-0.6C131,37.3,130.8,37.1,130.7,37.1z M130.7,12.1c-0.2,0-0.3,0.3-0.3,0.6
				c0,0.3,0.1,0.6,0.3,0.6c0.2,0,0.3-0.3,0.3-0.6C131,12.4,130.8,12.1,130.7,12.1z M4.3,11.6c0.1,0,0.3-0.2,0.3-0.5
				c0-0.3-0.1-0.5-0.3-0.5c-0.1,0-0.3,0.2-0.3,0.5C4.1,11.3,4.2,11.6,4.3,11.6z M136.3,34c-0.1,0-0.3,0.2-0.3,0.5
				c0,0.3,0.1,0.5,0.3,0.5c0.1,0,0.3-0.2,0.3-0.5C136.6,34.3,136.4,34,136.3,34z M4.4,31.9c-0.1,0-0.3,0.2-0.3,0.5
				c0,0.3,0.1,0.5,0.3,0.5c0.1,0,0.3-0.2,0.3-0.5C4.7,32.2,4.6,31.9,4.4,31.9z M136.4,11.1c-0.1,0-0.3,0.2-0.3,0.5
				c0,0.3,0.1,0.5,0.3,0.5c0.1,0,0.3-0.2,0.3-0.5C136.7,11.4,136.5,11.1,136.4,11.1z M142.4,10.5c-0.1,0-0.3,0.2-0.3,0.5
				c0,0.3,0.1,0.5,0.3,0.5c0.1,0,0.3-0.2,0.3-0.5C142.6,10.8,142.5,10.5,142.4,10.5z M142.3,31.9c-0.1,0-0.3,0.2-0.3,0.5
				c0,0.3,0.1,0.5,0.3,0.5c0.1,0,0.3-0.2,0.3-0.5C142.5,32.2,142.4,31.9,142.3,31.9z M111.2,45.4c-0.2,0-0.3,0.3-0.3,0.7
				c0,0.4,0.2,0.7,0.3,0.7c0.2,0,0.3-0.3,0.3-0.7C111.5,45.7,111.3,45.4,111.2,45.4z M35.6,16.3c0.2,0,0.3-0.3,0.3-0.7
				c0-0.4-0.2-0.7-0.3-0.7c-0.2,0-0.3,0.3-0.3,0.7C35.2,16,35.4,16.3,35.6,16.3z M42.7,15.9c-0.2,0-0.4,0.3-0.4,0.7
				c0,0.4,0.2,0.8,0.4,0.8c0.2,0,0.4-0.3,0.4-0.8C43.1,16.2,42.9,15.9,42.7,15.9z M49.5,18.2c0.2,0,0.4-0.4,0.4-0.8
				c0-0.4-0.2-0.8-0.4-0.8c-0.2,0-0.4,0.4-0.4,0.8C49.1,17.9,49.3,18.2,49.5,18.2z M35.6,46.8c0.2,0,0.3-0.3,0.3-0.7
				c0-0.4-0.2-0.7-0.3-0.7c-0.2,0-0.3,0.3-0.3,0.7C35.2,46.5,35.4,46.8,35.6,46.8z M42.7,48.4c-0.2,0-0.4,0.3-0.4,0.8
				c0,0.4,0.2,0.8,0.4,0.8c0.2,0,0.4-0.3,0.4-0.8C43.1,48.7,42.9,48.4,42.7,48.4z M65.4,17.6c-0.3,0-0.5,0.4-0.5,0.9
				c0,0.5,0.2,0.9,0.5,0.9c0.3,0,0.5-0.4,0.5-0.9C65.8,18,65.6,17.6,65.4,17.6z M49.5,52.9c0.2,0,0.4-0.4,0.4-0.8
				c0-0.4-0.2-0.8-0.4-0.8c-0.2,0-0.4,0.4-0.4,0.8C49.1,52.5,49.3,52.9,49.5,52.9z M57.4,54.5c-0.2,0-0.4,0.4-0.4,0.9
				c0,0.5,0.2,0.9,0.4,0.9c0.2,0,0.4-0.4,0.4-0.9C57.8,54.9,57.6,54.5,57.4,54.5z M57.4,17.1c-0.2,0-0.4,0.4-0.4,0.9
				c0,0.5,0.2,0.9,0.4,0.9c0.2,0,0.4-0.4,0.4-0.9C57.8,17.5,57.6,17.1,57.4,17.1z M117.9,42.4c-0.2,0-0.3,0.3-0.3,0.6
				c0,0.4,0.1,0.6,0.3,0.6c0.2,0,0.3-0.3,0.3-0.6C118.3,42.7,118.1,42.4,117.9,42.4z M65.4,57.9c-0.3,0-0.5,0.4-0.5,0.9
				s0.2,0.9,0.5,0.9c0.3,0,0.5-0.4,0.5-0.9S65.6,57.9,65.4,57.9z M28.8,13.8c-0.2,0-0.3,0.3-0.3,0.6s0.1,0.6,0.3,0.6
				c0.2,0,0.3-0.3,0.3-0.6S29,13.8,28.8,13.8z M111.2,14.9c-0.2,0-0.3,0.3-0.3,0.7c0,0.4,0.2,0.7,0.3,0.7c0.2,0,0.3-0.3,0.3-0.7
				C111.5,15.3,111.3,14.9,111.2,14.9z M124.4,13.1c-0.2,0-0.3,0.3-0.3,0.6s0.1,0.6,0.3,0.6c0.2,0,0.3-0.3,0.3-0.6
				S124.6,13.1,124.4,13.1z M104,15.9c-0.2,0-0.4,0.3-0.4,0.7c0,0.4,0.2,0.8,0.4,0.8c0.2,0,0.4-0.3,0.4-0.8
				C104.4,16.2,104.2,15.9,104,15.9z M124.4,39.7c-0.2,0-0.3,0.3-0.3,0.6c0,0.3,0.1,0.6,0.3,0.6c0.2,0,0.3-0.3,0.3-0.6
				C124.7,40,124.6,39.7,124.4,39.7z M28.8,42.4c-0.2,0-0.3,0.3-0.3,0.6c0,0.4,0.1,0.6,0.3,0.6c0.2,0,0.3-0.3,0.3-0.6
				C29.1,42.7,29,42.4,28.8,42.4z M104,48.4c-0.2,0-0.4,0.3-0.4,0.8c0,0.4,0.2,0.8,0.4,0.8c0.2,0,0.4-0.3,0.4-0.8
				C104.4,48.7,104.2,48.4,104,48.4z M117.9,13.8c-0.2,0-0.3,0.3-0.3,0.6s0.1,0.6,0.3,0.6c0.2,0,0.3-0.3,0.3-0.6
				S118.1,13.8,117.9,13.8z"/>
		</g>
	</g>
	<path id="XMLID_19_" class="st6" d="M142.9,1.8v38.8l2.1,0l0.1,3.9L73.4,90.3L1.8,44.7v-4.8h1.9V1.8H142.9 M142.9,0H3.6
		c-1,0-1.8,0.8-1.8,1.8v36.4H1.8c-1,0-1.8,0.8-1.8,1.8v4.8c0,0.6,0.3,1.2,0.8,1.5l71.7,45.6c0.3,0.2,0.6,0.3,0.9,0.3
		c0.3,0,0.7-0.1,0.9-0.3L146,46c0.5-0.3,0.8-0.9,0.8-1.5l-0.1-3.9c0-0.9-0.8-1.7-1.7-1.7l-0.4,0v-37C144.7,0.8,143.9,0,142.9,0
		L142.9,0z"/>
</g>
</svg>
