<?xml version="1.0" encoding="utf-8"?>
<!-- Generator: Adobe Illustrator 19.0.0, SVG Export Plug-In . SVG Version: 6.00 Build 0)  -->
<svg version="1.1" id="Layer_1" xmlns="http://www.w3.org/2000/svg" xmlns:xlink="http://www.w3.org/1999/xlink" x="0px" y="0px"
	 width="144.8px" height="91.9px" viewBox="0 0 144.8 91.9" style="enable-background:new 0 0 144.8 91.9;" xml:space="preserve">
<style type="text/css">
	.st0{fill:#1F4DA0;}
	.st1{fill:#22459C;}
	.st2{opacity:0.7;}
	.st3{fill:#FFFFFF;}
</style>
<g id="XMLID_249_">
	<polygon id="XMLID_2210_" class="st0" points="69.3,24.2 69.3,26.3 2.6,14.3 2.6,13 	"/>
	<polygon id="XMLID_2209_" class="st0" points="68.2,61.3 68.2,63.3 3,33.7 3,32.3 	"/>
	<polygon id="XMLID_2208_" class="st1" points="77,24.3 142.3,13 142.3,14.4 75.9,26.2 70.4,26.2 70.8,24.7 	"/>
	<polygon id="XMLID_2207_" class="st1" points="76.7,61.3 142.3,32.2 142.3,33.6 76.6,63.4 70.7,63.3 70.8,62.1 	"/>
	<g id="XMLID_2164_">
		<g id="XMLID_361_">
			<path id="XMLID_362_" class="st1" d="M143.3,45.4c0,0,0-41.8,0-42.3c0-0.5-0.3-1.5-1.3-1.5c-1,0-1.4,1-1.4,1.5
				c0,0.5,0,44.1,0,44.1s0.8,0,1.8-0.7C143.4,45.8,143.3,45.4,143.3,45.4z M138.3,2.9c0-0.5-0.3-1.5-1.3-1.5c-1,0-1.4,1-1.4,1.5
				c0,0.5,0,47.6,0,47.6s0.8,0,1.8-0.7c0.9-0.6,0.8-1.1,0.8-1.1S138.3,3.4,138.3,2.9z M133.4,3.1c0-0.5-0.3-1.6-1.4-1.6
				c-1.1,0-1.4,1.1-1.4,1.6c0,0.5,0,50.5,0,50.5s0.9,0,1.9-0.7c1-0.7,0.9-1.2,0.9-1.2S133.4,3.6,133.4,3.1z M128.6,3.1
				c0-0.5-0.3-1.7-1.5-1.7c-1.1,0-1.5,1.2-1.5,1.7c0,0.5,0,53.5,0,53.5s0.9,0,2-0.8c1.1-0.7,0.9-1.2,0.9-1.2S128.6,3.7,128.6,3.1z
				 M123.5,3.4c0-0.6-0.4-1.8-1.6-1.8c-1.2,0-1.6,1.3-1.6,1.8s0,56.7,0,56.7s1,0,2.2-0.8c1.1-0.8,1-1.3,1-1.3S123.5,4,123.5,3.4z
				 M118.6,3.3c0-0.6-0.3-1.7-1.5-1.7c-1.2,0-1.6,1.2-1.6,1.7c0,0.5,0,59.7,0,59.7s1,0,2.1-0.8c1.1-0.8,1-1.3,1-1.3
				S118.6,3.9,118.6,3.3z M113.2,3.5c0-0.7-0.4-2-1.8-2c-1.4,0-1.8,1.4-1.8,2c0,0.6,0,63.4,0,63.4s1.1,0,2.5-0.9
				c1.3-0.9,1.1-1.5,1.1-1.5S113.2,4.2,113.2,3.5z M107.2,3.7c0-0.7-0.4-2.2-1.9-2.2c-1.4,0-2,1.5-2,2.2c0,0.7,0,67.1,0,67.1
				s1.2,0,2.6-1c1.4-0.9,1.2-1.6,1.2-1.6S107.2,4.4,107.2,3.7z M100.7,3.9c0-0.7-0.5-2.3-2-2.3c-1.5,0-2.1,1.6-2.1,2.3
				c0,0.7,0,71.4,0,71.4s1.3,0,2.8-1c1.4-1,1.3-1.7,1.3-1.7S100.7,4.7,100.7,3.9z M93.6,4c0-0.8-0.5-2.4-2.1-2.4
				c-1.6,0-2.2,1.7-2.2,2.4c0,0.7,0,76,0,76s1.3,0,3-1.1c1.5-1.1,1.4-1.8,1.4-1.8S93.6,4.8,93.6,4z M86.3,4c0-0.8-0.5-2.6-2.2-2.6
				c-1.7,0-2.4,1.8-2.4,2.6c0,0.8,0,80.8,0,80.8s1.4,0,3.2-1.2c1.6-1.1,1.5-1.9,1.5-1.9S86.3,4.8,86.3,4z M78.5,4.3
				c0-0.9-0.5-2.8-2.4-2.8c-1.8,0-2.5,1.9-2.5,2.8c0,0.8,0,86,0,86s1.5,0,3.4-1.2c1.7-1.2,1.5-2,1.5-2S78.5,5.2,78.5,4.3z"/>
		</g>
	</g>
	<g id="XMLID_2121_">
		<g id="XMLID_341_">
			<path id="XMLID_342_" class="st0" d="M2.9,1.6c-1,0-1.3,1-1.3,1.5c0,0.5,0,42.3,0,42.3s-0.1,0.5,0.8,1.1c1,0.7,1.8,0.7,1.8,0.7
				s0-43.6,0-44.1C4.3,2.6,3.9,1.6,2.9,1.6z M8,1.4c-1,0-1.3,1-1.3,1.5c0,0.5,0,45.8,0,45.8s-0.1,0.5,0.8,1.1c1,0.7,1.8,0.7,1.8,0.7
				s0-47.1,0-47.6C9.3,2.4,9,1.4,8,1.4z M12.9,1.5c-1.1,0-1.4,1.1-1.4,1.6c0,0.5,0,48.6,0,48.6s-0.1,0.5,0.9,1.2
				c1,0.7,1.9,0.7,1.9,0.7s0-50,0-50.5C14.3,2.6,13.9,1.5,12.9,1.5z M17.7,1.4c-1.1,0-1.5,1.1-1.5,1.7c0,0.6,0,51.5,0,51.5
				s-0.1,0.5,0.9,1.2c1.1,0.8,2,0.8,2,0.8s0-53,0-53.5C19.3,2.6,18.9,1.4,17.7,1.4z M22.9,1.6c-1.2,0-1.6,1.2-1.6,1.8
				c0,0.6,0,54.6,0,54.6s-0.1,0.5,1,1.3c1.2,0.8,2.2,0.8,2.2,0.8s0-56.2,0-56.7S24.1,1.6,22.9,1.6z M27.8,1.6
				c-1.2,0-1.5,1.2-1.5,1.7c0,0.6,0,57.7,0,57.7s-0.1,0.5,1,1.3c1.2,0.8,2.1,0.8,2.1,0.8s0-59.2,0-59.7C29.4,2.8,28.9,1.6,27.8,1.6z
				 M33.4,1.5c-1.4,0-1.8,1.4-1.8,2c0,0.7,0,61,0,61s-0.1,0.6,1.1,1.5c1.3,0.9,2.5,0.9,2.5,0.9s0-62.8,0-63.4
				C35.3,2.9,34.8,1.5,33.4,1.5z M39.6,1.6c-1.4,0-1.9,1.5-1.9,2.2c0,0.7,0,64.5,0,64.5s-0.1,0.7,1.2,1.6c1.4,1,2.6,1,2.6,1
				s0-66.5,0-67.1C41.5,3.1,41,1.6,39.6,1.6z M46.2,1.6c-1.5,0-2,1.6-2,2.3c0,0.7,0,68.7,0,68.7s-0.2,0.7,1.3,1.7
				c1.5,1.1,2.8,1,2.8,1s0-70.7,0-71.4C48.3,3.2,47.7,1.6,46.2,1.6z M53.4,1.5c-1.6,0-2.1,1.7-2.1,2.4c0,0.8,0,73.1,0,73.1
				s-0.2,0.7,1.4,1.8c1.6,1.1,3,1.1,3,1.1s0-75.2,0-76C55.6,3.3,55,1.5,53.4,1.5z M60.9,1.4c-1.7,0-2.2,1.8-2.2,2.6
				c0,0.8,0,77.7,0,77.7s-0.2,0.8,1.5,1.9c1.7,1.2,3.2,1.2,3.2,1.2s0-80,0-80.8C63.2,3.2,62.6,1.4,60.9,1.4z M68.8,1.5
				c-1.8,0-2.4,1.9-2.4,2.8c0,0.9,0,82.7,0,82.7s-0.2,0.8,1.5,2c1.8,1.3,3.4,1.2,3.4,1.2s0-85.1,0-86C71.3,3.5,70.6,1.5,68.8,1.5z"
				/>
		</g>
	</g>
	<g id="XMLID_253_" class="st2">
		<g id="XMLID_1553_">
			<path id="XMLID_1554_" class="st3" d="M143.9,3.1c0-0.7-0.5-1.9-1.9-1.9c-1.4,0-1.9,1.2-1.9,1.9v10.1l-1.2,0.2l0-10.5
				c0-0.7-0.5-1.9-1.9-1.9c-1.4,0-1.9,1.2-1.9,1.9V14l-1.2,0.2l0-11.1c0-0.8-0.5-2-1.9-2c-1.4,0-1.9,1.3-1.9,2v11.8l-1.2,0.2l0-11.9
				c0-0.8-0.5-2.1-1.8-2.1c-1.3,0-1.9,1.3-1.9,2.1v12.5l-1.3,0.2l0-12.4c0-0.8-0.5-2.2-1.9-2.2c-1.4,0-2,1.4-2,2.2v13.1l-1.1,0.2
				l0-13.3c0-0.8-0.5-2.1-1.9-2.1c-1.4,0-2,1.4-2,2.1v14l-1.2,0.2l0-13.9c0-0.9-0.6-2.4-2.3-2.4c-1.7,0-2.4,1.6-2.4,2.4v14.7
				l-1.2,0.2l0-14.7c0-1-0.6-2.5-2.3-2.5c-1.7,0-2.4,1.7-2.4,2.5v15.5l-2.2,0.4l0-15.7c0-1-0.6-2.7-2.4-2.7c-1.7,0-2.5,1.7-2.5,2.7
				v16.5l-2.2,0.4l0-16.7c0-1.1-0.6-2.8-2.3-2.8c-1.7,0-2.4,1.8-2.4,2.8v17.5l-2.2,0.4l0-17.9c0-1.2-0.8-3-2.8-3c-2.1,0-3,1.9-3,3
				v18.8l-2.3,0.4l0-18.9c0-1.2-0.8-3.1-2.8-3.1c-2,0-2.9,2-2.9,3.1v19.9h-1.4V4.3c0-1.1-0.8-3.1-2.9-3.1c-2,0-2.8,1.9-2.8,3.1
				l0,18.9l-2.3-0.4V4c0-1-0.9-3-3-3C58.8,1,58,2.8,58,4l0,17.9l-2.2-0.4V4c0-1-0.7-2.8-2.4-2.8c-1.7,0-2.3,1.7-2.3,2.8l0,16.7
				l-2.2-0.4V3.9c0-0.9-0.7-2.7-2.5-2.7c-1.7,0-2.4,1.6-2.4,2.7l0,15.7l-2.2-0.4V3.7c0-0.9-0.7-2.5-2.4-2.5c-1.7,0-2.3,1.6-2.3,2.5
				l0,14.7l-1.2-0.2V3.5c0-0.8-0.7-2.4-2.4-2.4c-1.7,0-2.3,1.5-2.3,2.4l0,13.9l-1.2-0.2v-14c0-0.7-0.6-2.1-2-2.1
				c-1.4,0-1.9,1.3-1.9,2.1l0,13.3l-1.1-0.2V3.4c0-0.8-0.6-2.2-2-2.2c-1.4,0-1.9,1.3-1.9,2.2l0,12.4l-1.3-0.2V3.1
				c0-0.7-0.6-2.1-1.9-2.1c-1.3,0-1.8,1.3-1.8,2.1L16,15l-1.2-0.2V3.1c0-0.7-0.6-2-1.9-2c-1.4,0-1.9,1.2-1.9,2l0,11.1L9.8,14V2.9
				C9.8,2.2,9.2,1,7.9,1C6.5,1,6,2.2,6,2.9l0,10.5l-1.2-0.2V3.1c0-0.7-0.6-1.9-1.9-1.9C1.5,1.2,1,2.3,1,3.1l0,42.2
				c0,0.1-0.1,0.7,1.1,1.5c1.2,0.7,2.1,0.7,2.3,0.7h0c0.2,0,0.4-0.2,0.4-0.4V34.8L6,35.3l0,13.3c0,0.1-0.1,0.7,1.1,1.5
				c1.2,0.7,2.1,0.7,2.3,0.7h0c0.2,0,0.4-0.2,0.4-0.4V37.1l1.2,0.5l0,13.9c0,0.1-0.1,0.8,1.1,1.6c1.2,0.8,2.2,0.8,2.3,0.8h0
				c0.2,0,0.4-0.2,0.4-0.4V39.3l1.2,0.6l0,14.6c0,0.1-0.1,0.8,1.1,1.6c1.2,0.8,2.1,0.8,2.3,0.8h0c0.2,0,0.4-0.2,0.4-0.4v-15l1.3,0.6
				l0,15.7c0,0.1-0.1,0.8,1.2,1.7c1.2,0.8,2.3,0.9,2.4,0.9h0c0.2,0,0.4-0.2,0.4-0.4V44l1.1,0.5l0,16.4c0,0.1-0.1,0.8,1.1,1.7
				c1.2,0.8,2.2,0.8,2.3,0.8h0c0.2,0,0.4-0.2,0.4-0.4V46.2l1.2,0.5l0,17.6c0,0.1-0.1,0.9,1.4,1.9c1.5,1,2.8,1,2.9,1h0
				c0.2,0,0.4-0.2,0.4-0.4V49l1.2,0.5l0,18.7c0,0.2-0.1,1,1.4,2c1.5,1,2.8,1,3,1h0c0.2,0,0.4-0.2,0.4-0.4V51.7l2.2,1l0,19.8
				c0,0.2-0.1,1,1.4,2.1c1.5,1.1,2.9,1.1,3,1.1h0c0.2,0,0.4-0.2,0.4-0.4V54.9l2.2,1l0,21c0,0.2-0.1,1,1.4,2.2c1.5,1.1,2.8,1.2,3,1.2
				h0c0.2,0,0.3-0.2,0.3-0.4V58.1l2.2,1l0,22.5c0,0.2-0.1,1.1,1.7,2.3c1.9,1.2,3.5,1.2,3.6,1.2h0c0.2,0,0.4-0.2,0.4-0.4v-23l2.3,1.1
				l0,24.1c0,0.1-0.2,1.1,1.7,2.4c1.8,1.3,3.4,1.3,3.6,1.3h0c0.2,0,0.4-0.2,0.4-0.4V63.8h1.4v26.4c0,0.2,0.2,0.4,0.4,0.4h0
				c0.2,0,1.7,0,3.6-1.3c1.9-1.3,1.7-2.3,1.7-2.4l0-24.1l2.3-1.1v23c0,0.2,0.2,0.4,0.4,0.4h0c0.2,0,1.8,0,3.6-1.2
				c1.9-1.2,1.8-2.1,1.7-2.3l0-22.5l2.2-1V80c0,0.2,0.2,0.4,0.3,0.4h0c0.1,0,1.4,0,3-1.2c1.6-1.1,1.5-2,1.4-2.2l0-21l2.2-1v20.4
				c0,0.2,0.2,0.4,0.4,0.4h0c0.1,0,1.5,0,3-1.1c1.6-1.1,1.5-1.9,1.4-2.1l0-19.8l2.2-1v19.1c0,0.2,0.2,0.4,0.4,0.4h0c0.1,0,1.4,0,3-1
				c1.6-1,1.5-1.8,1.4-2l0-18.7l1.2-0.5v17.9c0,0.2,0.2,0.4,0.4,0.4h0c0.1,0,1.4,0,2.9-1c1.6-1,1.5-1.7,1.4-1.9l0-17.6l1.2-0.5v16.8
				c0,0.2,0.2,0.4,0.4,0.4h0c0.1,0,1.1,0,2.3-0.8c1.2-0.9,1.2-1.5,1.1-1.7l0-16.4L120,44v16.1c0,0.2,0.2,0.4,0.4,0.4h0
				c0.1,0,1.2,0,2.4-0.9c1.3-0.9,1.2-1.6,1.2-1.7l0-15.7l1.3-0.6v15c0,0.2,0.2,0.4,0.4,0.4h0c0.1,0,1.1,0,2.3-0.8
				c1.2-0.8,1.1-1.5,1.1-1.6l0-14.6l1.2-0.6v14.2c0,0.2,0.2,0.4,0.4,0.4h0c0.1,0,1.1,0,2.3-0.8c1.2-0.8,1.1-1.4,1.1-1.6l0-13.9
				l1.2-0.5v13.4c0,0.2,0.2,0.4,0.4,0.4h0c0.1,0,1.1,0,2.3-0.7c1.2-0.8,1.1-1.4,1.1-1.5l0-13.3l1.2-0.5v12.4c0,0.2,0.2,0.4,0.4,0.4
				h0c0.1,0,1.1,0,2.3-0.7c1.2-0.8,1.1-1.4,1.1-1.5L143.9,3.1z M4.8,15.1L6,15.3l0,18l-1.2-0.5V15.1z M6,14.2l0,0.4l-1.2-0.2V14
				L6,14.2z M4,46.7c-0.3-0.1-0.8-0.2-1.4-0.6c-0.7-0.5-0.8-0.7-0.8-0.8V3.1c0,0,0-1.1,1-1.1C3.8,1.9,4,2.9,4,3.1V46.7z M4.8,34
				v-0.3L6,34.2l0,0.4L4.8,34z M9,50.1c-0.3-0.1-0.8-0.2-1.4-0.6c-0.7-0.5-0.8-0.7-0.8-0.8V2.9c0,0,0-1.1,1-1.1C8.8,1.8,9,2.7,9,2.9
				V50.1z M9.8,16l1.2,0.2l0,19.3L9.8,35V16z M11,15l0,0.5l-1.2-0.2v-0.5L11,15z M9.8,36.3v-0.4l1.2,0.5l0,0.4L9.8,36.3z M14,53.1
				c-0.3-0.1-0.8-0.2-1.4-0.6c-0.8-0.5-0.8-0.8-0.8-0.9V3.1c0,0,0-1.2,1.1-1.2c0.9,0,1.1,0.9,1.1,1.2V53.1z M14.8,16.9l1.2,0.2
				l0,20.6l-1.2-0.5V16.9z M16,15.8l0,0.6l-1.2-0.2v-0.5L16,15.8z M14.8,38.5V38l1.2,0.5l0,0.5L14.8,38.5z M19,56.2
				c-0.3-0.1-0.9-0.2-1.5-0.6c-0.8-0.5-0.8-0.9-0.8-0.9V3.1c0-0.3,0.2-1.3,1.1-1.3c0.9,0,1.2,1,1.2,1.3V56.2z M19.7,17.8L21,18
				l0,21.9l-1.3-0.6V17.8z M21,16.6l0,0.6L19.7,17v-0.6L21,16.6z M19.7,40.8v-0.6l1.3,0.6l0,0.6L19.7,40.8z M24.2,59.7
				c-0.4-0.1-0.9-0.2-1.6-0.7c-0.8-0.6-0.8-1-0.8-1V3.4C21.7,3,22,2,22.9,2c0.9,0,1.3,1.1,1.3,1.4V59.7z M24.9,18.7l1.1,0.2l0,23.3
				l-1.1-0.5V18.7z M26,17.4l0,0.7l-1.1-0.2v-0.7L26,17.4z M24.9,43.2v-0.7L26,43l0,0.7L24.9,43.2z M29.1,62.6
				c-0.3-0.1-0.9-0.2-1.5-0.7c-0.8-0.6-0.8-0.9-0.8-1V3.3C26.8,3,27,2,27.9,2c0.9,0,1.2,1,1.2,1.4V62.6z M41.8,21.7l2.2,0.4l0,28
				l-2.2-1V21.7z M44,20.4l0,1L41.8,21v-1L44,20.4z M35.8,20.7l1.2,0.2L37,47l-1.2-0.5V20.7z M37,19.2l0,0.9l-1.2-0.2V19L37,19.2z
				 M29.8,19.6l1.2,0.2l0,24.6l-1.2-0.5V19.6z M31,18.2l0,0.8l-1.2-0.2V18L31,18.2z M29.8,45.4v-0.8l1.2,0.5l0,0.8L29.8,45.4z
				 M35,66.5c-0.4-0.1-1.2-0.3-2.1-0.8c-1.1-0.7-1.1-1.1-1.1-1.2v-61c0-0.4,0.3-1.7,1.5-1.7c1.2,0,1.6,1.2,1.6,1.7V66.5z M35.8,48.2
				v-0.8l1.2,0.5l0,0.9L35.8,48.2z M41,70.4c-0.4-0.1-1.2-0.3-2.1-0.9c-1.1-0.7-1.1-1.2-1.1-1.3V49.2l0.1-0.1l-0.1,0v-1.5l0.1-0.1
				l-0.1,0V3.7c0-0.5,0.3-1.8,1.6-1.8c1.3,0,1.7,1.3,1.7,1.8V70.4z M41.8,50.9v-0.9l2.2,1l0,1L41.8,50.9z M63.8,25.7l2.3,0.4l0,33.8
				l-2.3-1V25.7z M66.1,24l0,1.4l-2.3-0.4v-1.3L66.1,24z M55.9,24.2l2.2,0.4l0,31.6l-2.2-1V24.2z M58,22.6l0,1.2l-2.2-0.4v-1.2
				L58,22.6z M48.9,23l2.2,0.4l0,29.8l-2.2-1V23z M51.1,21.5l0,1.1l-2.2-0.4v-1.1L51.1,21.5z M48.1,74.9c-0.5-0.1-1.3-0.3-2.2-0.9
				c-1.2-0.8-1.1-1.3-1.1-1.4V3.9c0-0.5,0.3-1.9,1.6-1.9c1.3,0,1.7,1.4,1.7,1.9V74.9z M48.9,54.1v-1.1l2.2,1l0,1.1L48.9,54.1z
				 M55.1,79.5c-0.5-0.1-1.3-0.3-2.2-1c-1.2-0.9-1.1-1.4-1.1-1.5V4c0-0.5,0.3-2.1,1.6-2.1c1.3,0,1.7,1.5,1.7,2.1V79.5z M55.9,57.3
				v-1.2l2.2,1l0,1.2L55.9,57.3z M63,84.4c-0.5-0.1-1.6-0.3-2.8-1.1c-1.5-0.9-1.4-1.5-1.4-1.6V4c0-0.6,0.4-2.2,2-2.2
				C62.5,1.8,63,3.4,63,4V84.4z M63.8,61v-1.3l2.3,1l0,1.3L63.8,61z M71,89.9c-0.5-0.1-1.6-0.3-2.8-1.1c-1.4-1-1.4-1.7-1.4-1.7V4.3
				c0-0.6,0.4-2.4,2-2.4c1.6,0,2.1,1.8,2.1,2.4V89.9z M73.1,24.9v1h-1.4v-1H73.1z M73.1,26.7v34.6h-1.4V26.7H73.1z M71.8,63.1v-1
				h1.4v1H71.8z M76.7,88.7c-1.2,0.8-2.2,1.1-2.8,1.1V4.3c0-0.6,0.5-2.4,2.1-2.4c1.6,0,2,1.8,2,2.4V87C78.1,87,78.1,87.7,76.7,88.7z
				 M93.8,23.4l2.2-0.4v29.2l-2.2,1L93.8,23.4z M96.1,21.1v1.1l-2.2,0.4l0-1.1L96.1,21.1z M86.9,24.6l2.2-0.4v31.1l-2.2,1L86.9,24.6
				z M89.1,22.3v1.2l-2.2,0.4l0-1.2L89.1,22.3z M78.8,26.1l2.3-0.4v33.2l-2.3,1L78.8,26.1z M81.1,23.6v1.3l-2.3,0.4l0-1.4L81.1,23.6
				z M78.8,62l0-1.3l2.3-1V61L78.8,62z M84.7,83.3c-1.2,0.8-2.2,1-2.8,1.1V4c0-0.6,0.5-2.2,2.1-2.2c1.7,0,2,1.7,2,2.2v77.7
				C86.1,81.8,86.1,82.4,84.7,83.3z M86.9,58.3l0-1.2l2.2-1v1.2L86.9,58.3z M92,78.5c-1,0.7-1.8,0.9-2.2,1V4c0-0.5,0.4-2.1,1.7-2.1
				c1.3,0,1.6,1.5,1.6,2.1V77C93.1,77.1,93.2,77.7,92,78.5z M93.8,55.1l0-1.1l2.2-1v1.1L93.8,55.1z M99,74c-0.9,0.6-1.7,0.9-2.2,0.9
				v-71c0-0.5,0.4-1.9,1.7-1.9c1.3,0,1.6,1.4,1.6,1.9v68.7C100.1,72.6,100.2,73.2,99,74z M113.9,19.8l1.2-0.2v24.3l-1.2,0.5
				L113.9,19.8z M115.1,18v0.8l-1.2,0.2l0-0.8L115.1,18z M107.9,20.9l1.2-0.2v25.8l-1.2,0.5L107.9,20.9z M109.1,19v0.9l-1.2,0.2
				l0-0.9L109.1,19z M100.9,22.1l2.2-0.4v27.4l-2.2,1L100.9,22.1z M103.1,20v1l-2.2,0.4l0-1L103.1,20z M100.9,51.9l0-1l2.2-1v0.9
				L100.9,51.9z M106,69.6c-0.9,0.6-1.7,0.8-2.1,0.9V3.7c0-0.5,0.4-1.8,1.7-1.8c1.3,0,1.6,1.3,1.6,1.8v43.6l-0.1,0l0.1,0.1V49
				l-0.1,0l0.1,0.1v19.1C107.1,68.3,107.2,68.8,106,69.6z M107.9,48.7l0-0.9l1.2-0.5v0.8L107.9,48.7z M112,65.7
				c-0.9,0.5-1.6,0.7-2.1,0.8v-63c0-0.4,0.4-1.7,1.6-1.7c1.2,0,1.5,1.2,1.5,1.7v61C113.1,64.6,113.1,65,112,65.7z M113.9,46l0-0.8
				l1.2-0.5v0.8L113.9,46z M118.1,61c0,0.1,0,0.4-0.8,1c-0.6,0.4-1.2,0.6-1.5,0.7V3.3c0-0.4,0.3-1.4,1.2-1.4c0.9,0,1.1,1,1.1,1.4V61
				z M118.9,18.9l1.1-0.2v23l-1.1,0.5L118.9,18.9z M120,17.2v0.7l-1.1,0.2l0-0.7L120,17.2z M118.9,43.7l0-0.7l1.1-0.5v0.7
				L118.9,43.7z M123.2,58c0,0.1,0,0.4-0.8,1c-0.7,0.5-1.2,0.6-1.6,0.7V3.4C120.7,3,121,2,122,2c1,0,1.2,1.1,1.2,1.4V58z M123.9,18
				l1.3-0.2v21.6l-1.3,0.6L123.9,18z M125.2,16.4V17l-1.3,0.2l0-0.6L125.2,16.4z M123.9,41.4l0-0.6l1.3-0.6v0.6L123.9,41.4z
				 M128.2,54.6c0,0,0,0.4-0.8,0.9c-0.6,0.4-1.1,0.6-1.5,0.6V3.1c0-0.3,0.3-1.3,1.2-1.3c0.9,0,1.1,1,1.1,1.3V54.6z M128.9,17.1
				l1.2-0.2v20.3l-1.2,0.5L128.9,17.1z M130.1,15.6v0.5l-1.2,0.2l0-0.6L130.1,15.6z M128.9,39.1l0-0.5l1.2-0.5v0.5L128.9,39.1z
				 M133.1,51.6c0,0,0,0.4-0.8,0.9c-0.6,0.4-1.1,0.5-1.4,0.6v-50c0-0.3,0.3-1.2,1.1-1.2c1,0,1.1,1.2,1.1,1.2V51.6z M133.9,16.2
				l1.2-0.2v19l-1.2,0.5L133.9,16.2z M135.1,14.8v0.5l-1.2,0.2l0-0.5L135.1,14.8z M133.9,36.8l0-0.4l1.2-0.5v0.4L133.9,36.8z
				 M138.9,15.3l1.2-0.2v17.7l-1.2,0.5L138.9,15.3z M140.1,14v0.4l-1.2,0.2l0-0.4L140.1,14z M138.1,48.7c0,0,0,0.3-0.8,0.8
				c-0.5,0.3-1,0.5-1.4,0.6V2.9c0-0.2,0.2-1.1,1.1-1.1c1,0,1,1.1,1,1.1V48.7z M138.9,34.5l0-0.4l1.2-0.5V34L138.9,34.5z M143,45.4
				c0,0,0,0.3-0.8,0.8c-0.5,0.3-1,0.5-1.4,0.6V3.1c0-0.2,0.2-1.1,1.1-1.1c1,0,1,1.1,1,1.1V45.4z"/>
		</g>
	</g>
	<path id="XMLID_250_" class="st3" d="M84.1,1.8c1.7,0,2.2,1.2,2.2,2h3.1c0-0.8,0.6-1.9,2.2-1.9c1.6,0,2.1,1,2.1,1.9h3v0
		c0-0.7,0.6-1.8,2.1-1.8c1.5,0,2,1.1,2,1.8v0h2.7V3.6c0-0.7,0.5-1.7,2-1.7c1.4,0,1.9,1,1.9,1.7v0.2h2.4V3.4c0-0.6,0.5-1.5,1.8-1.5
		c1.4,0,1.8,0.9,1.8,1.5v0.4h2.3V3.2c0-0.5,0.4-1.2,1.6-1.2c1.2,0,1.5,0.7,1.5,1.2v0.6h1.7V3.2c0-0.5,0.4-1.3,1.6-1.3
		c1.2,0,1.6,0.7,1.6,1.3v0.5h2.1V3c0-0.5,0.4-1.2,1.5-1.2c1.1,0,1.5,0.6,1.5,1.2v0.8h2V2.9c0-0.5,0.4-1.1,1.4-1.1
		c1.1,0,1.4,0.6,1.4,1.1v0.9h2.3v-1c0-0.5,0.4-1,1.4-1c1,0,1.3,0.5,1.3,1v1h1.6c0.3,0,0.5,0,0.8,0.1V2.9c0-0.5,0.4-1,1.4-1
		c1,0,1,0.5,1,1c0,0.5,0,42.5,0,42.5L78.5,87c0,0-3.1,3.2-6.1,3.2c-4,0-6-2.7-6-2.7l-64.7-42c0,0,0.1-42,0.1-42.5c0-0.5,0.1-1,1.1-1
		c1,0,1.4,0.5,1.4,1v0.9c0.1,0,0.1,0,0.2,0h2.3v-1c0-0.5,0.3-1,1.3-1c1,0,1.4,0.5,1.4,1v1h2.2V2.9c0-0.5,0.3-1.1,1.4-1.1
		c1.1,0,1.4,0.6,1.4,1.1v0.9h2V3c0-0.5,0.3-1.2,1.5-1.2c1.1,0,1.5,0.7,1.5,1.2v0.8h2.1V3.2C21.4,2.7,21.8,2,23,2
		c1.2,0,1.6,0.8,1.6,1.3v0.5h1.7V3.2c0-0.6,0.3-1.2,1.5-1.2c1.2,0,1.6,0.7,1.6,1.2v0.6h2.3V3.4c0-0.7,0.4-1.5,1.8-1.5
		c1.4,0,1.8,0.9,1.8,1.5v0.4h2.4V3.6c0-0.7,0.4-1.7,1.9-1.7c1.4,0,2,1,2,1.7v0.2h2.7v0c0-0.7,0.5-1.8,2-1.8c1.5,0,2.1,1.1,2.1,1.8v0
		h3c0-0.8,0.5-1.9,2.1-1.9c1.6,0,2.2,1.1,2.2,1.9h3.1c0-0.9,0.6-2,2.2-2c1.7,0,2.3,1.2,2.4,2h3.2c0.1-1,0.8-1.9,2.4-1.9
		c1.6,0,2.3,1,2.5,1.9h2.4c0.2-0.9,0.9-1.9,2.5-1.9c1.6,0,2.2,0.9,2.4,1.9h3.2C81.8,3,82.4,1.8,84.1,1.8 M84.1,0c-1.7,0-3,0.9-3.6,2
		h-0.7c-0.7-1.2-2-1.9-3.6-1.9c-1.6,0-2.9,0.7-3.7,1.9h0c-0.7-1.2-2-1.9-3.7-1.9c-1.6,0-2.9,0.7-3.6,1.9h-0.7c-0.6-1.1-1.9-2-3.6-2
		c-1.8,0-3,0.9-3.6,2h-0.5c-0.6-1.1-1.8-1.9-3.5-1.9C51.7,0.2,50.6,1,50,2h-0.4c-0.6-1-1.8-1.8-3.3-1.8C44.6,0.2,43.5,1,43,2h0
		c-0.6-1-1.7-1.9-3.3-1.9c-1.4,0-2.5,0.6-3.1,1.5C36,0.8,35,0.1,33.5,0.1c-1.3,0-2.3,0.6-2.9,1.3c-0.5-0.7-1.5-1.3-2.7-1.3
		c-1.1,0-1.9,0.4-2.4,0.9C24.9,0.6,24,0.2,23,0.2c-1.2,0-2,0.4-2.5,1C19.9,0.5,19,0,17.8,0c-1.1,0-1.9,0.4-2.5,1
		c-0.5-0.6-1.3-0.9-2.4-0.9c-1.1,0-1.9,0.4-2.4,1C10,0.4,9.2,0,8.1,0C6.8,0,5.9,0.5,5.5,1.2C5,0.6,4.1,0.2,3,0.2
		c-1.8,0-2.8,1.1-2.8,2.7C0.1,3.4,0,45,0,45.4c0,0.6,0.3,1.1,0.8,1.5l64.5,41.9c0.7,0.8,3.1,3.1,7.2,3.1c3.3,0,6.4-2.8,7.2-3.5
		L144,46.9c0.5-0.3,0.8-0.9,0.8-1.5c0,0,0-42,0-42.5c0-0.4,0-1-0.4-1.6c-0.3-0.5-1-1.1-2.3-1.1c-1.1,0-1.9,0.4-2.4,1
		c-0.5-0.7-1.3-1.2-2.5-1.2c-1.2,0-2,0.4-2.5,1.1c-0.5-0.6-1.3-1-2.5-1c-1.1,0-1.9,0.4-2.4,0.9c-0.5-0.6-1.3-1-2.5-1
		c-1.2,0-2.1,0.5-2.7,1.2c-0.5-0.6-1.4-1-2.5-1c-1.1,0-1.9,0.4-2.4,0.9c-0.5-0.5-1.3-0.9-2.4-0.9c-1.3,0-2.2,0.5-2.7,1.3
		c-0.6-0.8-1.5-1.3-2.9-1.3c-1.5,0-2.5,0.7-3.1,1.6c-0.6-0.9-1.6-1.5-3.1-1.5c-1.6,0-2.7,0.8-3.3,1.9h0c-0.6-1-1.7-1.8-3.3-1.8
		C97.2,0.2,96,1,95.4,2H95c-0.6-1.1-1.7-1.9-3.4-1.9c-1.7,0-2.9,0.8-3.5,1.9h-0.5C87.1,0.9,85.9,0,84.1,0L84.1,0z"/>
</g>
</svg>
