<?xml version="1.0" encoding="utf-8"?>
<!-- Generator: Adobe Illustrator 19.0.0, SVG Export Plug-In . SVG Version: 6.00 Build 0)  -->
<svg version="1.1" id="Layer_1" xmlns="http://www.w3.org/2000/svg" xmlns:xlink="http://www.w3.org/1999/xlink" x="0px" y="0px"
	 width="144.8px" height="91.9px" viewBox="0 0 144.8 91.9" style="enable-background:new 0 0 144.8 91.9;" xml:space="preserve">
<style type="text/css">
	.st0{fill:#FFFFFF;}
</style>
<g id="XMLID_20_">
	<g id="XMLID_1747_">
		<path id="XMLID_1748_" class="st0" d="M144.8,2.9c0-0.4,0-1-0.4-1.6c-0.3-0.5-1-1.1-2.3-1.1c-1.1,0-1.9,0.4-2.4,1
			c-0.5-0.7-1.3-1.2-2.5-1.2c-1.2,0-2,0.4-2.5,1.1c-0.5-0.6-1.3-1-2.5-1c-1.1,0-1.9,0.4-2.4,0.9c-0.5-0.6-1.3-1-2.5-1
			c-1.2,0-2.1,0.5-2.7,1.2c-0.5-0.6-1.4-1-2.5-1c-1.1,0-1.9,0.4-2.4,0.9c-0.5-0.5-1.3-0.9-2.4-0.9c-1.3,0-2.2,0.5-2.7,1.3
			c-0.6-0.8-1.5-1.3-2.9-1.3c-1.5,0-2.5,0.7-3.1,1.6c-0.6-0.9-1.6-1.5-3.1-1.5c-1.6,0-2.7,0.8-3.3,1.9h0c-0.6-1-1.7-1.8-3.3-1.8
			C97.2,0.2,96,1,95.4,2H95c-0.6-1.1-1.7-1.9-3.4-1.9c-1.7,0-2.9,0.8-3.5,1.9h-0.5c-0.6-1.1-1.7-2-3.6-2c-1.7,0-3,0.9-3.6,2h-0.7
			c-0.7-1.2-2-1.9-3.6-1.9c-1.6,0-2.9,0.7-3.7,1.9h0c-0.7-1.2-2-1.9-3.7-1.9c-1.6,0-2.9,0.7-3.6,1.9h-0.7c-0.6-1.1-1.9-2-3.6-2
			c-1.8,0-3,0.9-3.6,2h-0.5c-0.6-1.1-1.8-1.9-3.5-1.9C51.7,0.2,50.6,1,50,2h-0.4c-0.6-1-1.8-1.8-3.3-1.8C44.6,0.2,43.5,1,43,2h0
			c-0.6-1-1.7-1.9-3.3-1.9c-1.4,0-2.5,0.6-3.1,1.5C36,0.8,35,0.1,33.5,0.1c-1.3,0-2.3,0.6-2.9,1.3c-0.5-0.7-1.5-1.3-2.7-1.3
			c-1.1,0-1.9,0.4-2.4,0.9C24.9,0.6,24,0.2,23,0.2c-1.2,0-2,0.4-2.5,1C19.9,0.5,19,0,17.8,0c-1.1,0-1.9,0.4-2.5,1
			c-0.5-0.6-1.3-0.9-2.4-0.9c-1.1,0-1.9,0.4-2.4,1C10,0.4,9.2,0,8.1,0C6.8,0,5.9,0.5,5.5,1.2C5,0.6,4.1,0.2,3,0.2
			c-1.8,0-2.8,1.1-2.8,2.7C0.1,3.4,0,45,0,45.4c0,0.6,0.3,1.1,0.8,1.5l64.5,41.9c0.7,0.8,3.1,3.1,7.2,3.1c3.3,0,6.4-2.8,7.2-3.5
			L144,46.9c0.5-0.3,0.8-0.9,0.8-1.5C144.8,45.4,144.8,3.4,144.8,2.9z M131.3,53c-0.1,0-0.2,0.1-0.3,0.1v-50c0-0.3,0.3-1.2,1.1-1.2
			c1,0,1.1,1.2,1.1,1.2v48.6c0,0,0,0.1-0.1,0.2L131.3,53z M126.8,55.9c-0.3,0.2-0.7,0.3-0.9,0.3V3.1c0-0.3,0.3-1.3,1.2-1.3
			c0.9,0,1.1,1,1.1,1.3v51.5c0,0,0,0.3-0.5,0.7L126.8,55.9z M120.9,59.7c-0.1,0-0.1,0-0.2,0V3.4C120.7,3,121,2,122,2
			c1,0,1.2,1.1,1.2,1.4V58c0,0,0,0.1-0.1,0.3L120.9,59.7z M117.3,62c-0.6,0.4-1.2,0.6-1.5,0.7V3.3c0-0.4,0.3-1.4,1.2-1.4
			c0.9,0,1.1,1,1.1,1.4V61C118.2,61,118.2,61.4,117.3,62L117.3,62z M110.5,66.4c-0.2,0.1-0.5,0.1-0.6,0.1v-63c0-0.4,0.4-1.7,1.6-1.7
			c1.2,0,1.5,1.2,1.5,1.7v61c0,0,0,0.1-0.1,0.3L110.5,66.4z M104.4,70.3c-0.2,0.1-0.4,0.1-0.5,0.1V3.7c0-0.5,0.4-1.8,1.7-1.8
			c1.3,0,1.6,1.3,1.6,1.8v43.6l-0.1,0l0.1,0.1V49l-0.1,0l0.1,0.1v19.1c0,0,0,0.2-0.1,0.3L104.4,70.3z M97.6,74.7
			c-0.3,0.1-0.6,0.2-0.8,0.2v-71c0-0.4,0.3-1.4,1.1-1.8C98,2.1,98.1,2,98.2,2c0,0,0.1,0,0.1,0c0.1,0,0.1,0,0.2,0
			c1.3,0,1.6,1.4,1.6,1.9v68.7c0,0,0,0.3-0.3,0.7L97.6,74.7z M90.2,79.4c-0.2,0.1-0.3,0.1-0.5,0.1V4c0-0.5,0.4-2.1,1.7-2.1
			c1.3,0,1.6,1.5,1.6,2.1V77c0,0,0,0.3-0.3,0.7L90.2,79.4z M82.9,84.2c-0.4,0.1-0.7,0.2-1,0.2V4c0-0.6,0.5-2.2,2.1-2.2
			c1.7,0,2,1.7,2,2.2v77.7c0,0,0,0.2-0.2,0.5L82.9,84.2z M74.3,89.8c-0.1,0-0.3,0.1-0.4,0.1V4.3c0-0.6,0.5-2.4,2.1-2.4
			c1.6,0,2,1.8,2,2.4V87c0,0,0,0.3-0.2,0.6C77.1,88.3,75.7,89.3,74.3,89.8z M38.4,69.2c-0.7-0.6-0.7-0.9-0.7-1V49.2l0.1-0.1l-0.1,0
			v-1.5l0.1-0.1l-0.1,0V3.7c0-0.3,0.2-1.1,0.7-1.5C38.7,2.1,38.9,2,39.1,2c0,0,0,0,0.1,0c0.1,0,0.1,0,0.2,0C40.6,2,41,3.3,41,3.7
			v66.7c-0.3-0.1-0.9-0.2-1.6-0.5L38.4,69.2z M32.3,65.3c-0.5-0.4-0.5-0.7-0.5-0.8v-61c0-0.4,0.3-1.7,1.5-1.7c1.2,0,1.6,1.2,1.6,1.7
			v63c-0.4-0.1-0.9-0.2-1.5-0.5L32.3,65.3z M22.1,58.6c-0.4-0.4-0.4-0.6-0.4-0.6V3.4C21.7,3,22,2,22.9,2c0.9,0,1.3,1.1,1.3,1.4v56.3
			c-0.2,0-0.5-0.1-0.8-0.2L22.1,58.6z M12,52.1c-0.2-0.3-0.3-0.4-0.3-0.4V3.1c0,0,0-1.2,1.1-1.2c0.9,0,1.1,0.9,1.1,1.2v50
			c-0.2,0-0.5-0.1-0.8-0.3L12,52.1z M35.8,47.3l1.2,0.5l0,0.9l-1.2-0.5V47.3z M35.8,46.5V20.7l1.2,0.2L37,47L35.8,46.5z M37,20.1
			l-1.2-0.2V19l1.2,0.2L37,20.1z M31,44.4l-1.2-0.5V19.6l1.2,0.2L31,44.4z M29.8,44.7l1.2,0.5l0,0.8l-1.2-0.5V44.7z M31,19l-1.2-0.2
			V18l1.2,0.2L31,19z M29.1,3.3v59.3c-0.3-0.1-0.9-0.2-1.5-0.7c-0.8-0.6-0.8-0.9-0.8-1V3.3C26.8,3,27,2,27.9,2
			C28.8,2,29.1,3,29.1,3.3z M26,42.2l-1.1-0.5v-23l1.1,0.2L26,42.2z M24.9,42.5L26,43l0,0.7l-1.1-0.5V42.5z M26,18.1l-1.1-0.2v-0.7
			l1.1,0.2L26,18.1z M21,39.9l-1.3-0.6V17.8L21,18L21,39.9z M19.7,40.2l1.3,0.6l0,0.6l-1.3-0.6V40.2z M21,17.2L19.7,17v-0.6l1.3,0.2
			L21,17.2z M19,3.1v53.1c-0.3-0.1-0.9-0.2-1.5-0.6c-0.8-0.5-0.8-0.9-0.8-0.9V3.1c0-0.3,0.2-1.3,1.1-1.3C18.7,1.8,19,2.8,19,3.1z
			 M16,37.7l-1.2-0.5V16.9l1.2,0.2L16,37.7z M14.8,38l1.2,0.5l0,0.5l-1.2-0.6V38z M16,16.3l-1.2-0.2v-0.5l1.2,0.2L16,16.3z M11,35.5
			L9.8,35V16l1.2,0.2L11,35.5z M9.8,35.8l1.2,0.5l0,0.4l-1.2-0.5V35.8z M11,15.4l-1.2-0.2v-0.5L11,15L11,15.4z M6,33.3l-1.2-0.5
			V15.1L6,15.3L6,33.3z M4.8,33.6L6,34.2l0,0.4L4.8,34V33.6z M6,14.6l-1.2-0.2V14L6,14.2L6,14.6z M1.9,45.5
			C1.9,45.4,1.9,45.4,1.9,45.5l0-38.6c0-2.2,0-3.7,0-3.9c0-0.3,0.2-1,1-1C3.8,1.9,4,2.9,4,3.1v43.7c-0.1,0-0.2,0-0.3-0.1L1.9,45.5z
			 M4.8,47.2V34.8L6,35.3l0,12.8l-1.3-0.8C4.8,47.3,4.8,47.2,4.8,47.2z M6.9,48.7V2.9c0,0,0-1.1,1-1.1C8.8,1.8,9,2.7,9,2.9v47.2
			c0,0,0,0,0,0L6.9,48.7z M9.8,50.5V37.1l1.2,0.5l0,13.8l-1.2-0.8C9.8,50.6,9.8,50.5,9.8,50.5z M14.8,53.5V39.3l1.2,0.6l0,14.6
			c0,0,0,0.1,0,0.1l-1.3-0.9C14.7,53.7,14.8,53.6,14.8,53.5z M19.7,56.6v-15l1.3,0.6l0,15.7l-1.5-1C19.7,56.9,19.7,56.8,19.7,56.6z
			 M24.9,60.1V44l1.1,0.5l0,16.4c0,0,0,0.1,0,0.2l-1.2-0.8C24.9,60.3,24.9,60.2,24.9,60.1z M29.8,63.1V46.2l1.2,0.5l0,17.6l-1.5-1
			C29.7,63.4,29.8,63.3,29.8,63.1z M35.8,66.9V49l1.2,0.5l0,18.7c0,0,0,0.1,0,0.1l-1.5-1C35.7,67.3,35.8,67.1,35.8,66.9z M51.1,53.2
			l-2.2-1V23l2.2,0.4L51.1,53.2z M48.9,53.1l2.2,1l0,1.1l-2.2-1V53.1z M51.8,77V4c0-0.5,0.3-2.1,1.6-2.1c1.3,0,1.7,1.5,1.7,2.1v75.5
			c-0.5-0.1-1.3-0.3-2.2-1C51.7,77.7,51.8,77.1,51.8,77z M58,56.3l-2.2-1V24.2l2.2,0.4L58,56.3z M55.9,56.1l2.2,1l0,1.2l-2.2-1V56.1
			z M58,23.9l-2.2-0.4v-1.2l2.2,0.4L58,23.9z M51.1,22.6l-2.2-0.4v-1.1l2.2,0.4L51.1,22.6z M48.1,3.9v71c-0.5-0.1-1.3-0.3-2.2-0.9
			c-1.2-0.8-1.1-1.3-1.1-1.4V3.9c0-0.5,0.3-1.9,1.6-1.9C47.7,2,48.1,3.4,48.1,3.9z M44,50.1l-2.2-1V21.7l2.2,0.4L44,50.1z
			 M41.8,49.9l2.2,1l0,1l-2.2-1V49.9z M44,21.4L41.8,21v-1l2.2,0.4L44,21.4z M41.8,70.8V51.7l2.2,1l0,19.8c0,0.1,0,0.2,0,0.4
			l-2.6-1.7C41.6,71.2,41.8,71,41.8,70.8z M48.5,75.7L48.5,75.7c0.2,0,0.4-0.2,0.4-0.4V54.9l2.2,1l0,21c0,0.1,0,0.2,0,0.5l-2.7-1.8
			C48.4,75.7,48.5,75.7,48.5,75.7z M55.9,80V58.1l2.2,1l0,22.5c0,0,0,0.2,0,0.3l-2.5-1.6C55.7,80.3,55.9,80.2,55.9,80z M58.8,81.7V4
			c0-0.6,0.4-2.2,2-2.2C62.5,1.8,63,3.4,63,4v80.4c-0.5-0.1-1.6-0.3-2.8-1.1C58.8,82.4,58.8,81.8,58.8,81.7z M96.1,52.2l-2.2,1
			l0-29.8l2.2-0.4V52.2z M93.8,54l2.2-1v1.1l-2.2,1L93.8,54z M96.1,22.2l-2.2,0.4l0-1.1l2.2-0.4V22.2z M86.9,24.6l2.2-0.4v31.1
			l-2.2,1L86.9,24.6z M86.9,57.1l2.2-1v1.2l-2.2,1L86.9,57.1z M89.1,23.5l-2.2,0.4l0-1.2l2.2-0.4V23.5z M78.8,26.1l2.3-0.4v33.2
			l-2.3,1L78.8,26.1z M81.1,24.9l-2.3,0.4l0-1.4l2.3-0.4V24.9z M73.1,61.3h-1.4V26.7h1.4V61.3z M73.1,26h-1.4v-1h1.4V26z M63.8,25.7
			l2.3,0.4l0,33.8l-2.3-1V25.7z M66.9,87V4.3c0-0.6,0.4-2.4,2-2.4c1.6,0,2.1,1.8,2.1,2.4v85.6c-0.5-0.1-1.6-0.3-2.8-1.1
			C66.8,87.7,66.9,87,66.9,87z M66.1,25.3l-2.3-0.4v-1.3l2.3,0.4L66.1,25.3z M63.8,59.6l2.3,1l0,1.3L63.8,61V59.6z M71.8,62.1h1.4v1
			h-1.4V62.1z M78.8,60.7l2.3-1V61L78.8,62L78.8,60.7z M86.9,59.1l2.2-1V80c0,0.1,0,0.1,0.1,0.2l-2.2,1.4L86.9,59.1z M93.8,77l0-21
			l2.2-1v20.4c0,0.1,0.1,0.2,0.1,0.3l-2.3,1.5C93.8,77,93.8,77,93.8,77z M138.9,15.3l1.2-0.2v17.7l-1.2,0.5L138.9,15.3z M138.9,34.2
			l1.2-0.5V34l-1.2,0.5L138.9,34.2z M140.1,14.3l-1.2,0.2l0-0.4l1.2-0.2V14.3z M133.9,16.2l1.2-0.2v19l-1.2,0.5L133.9,16.2z
			 M133.9,36.3l1.2-0.5v0.4l-1.2,0.5L133.9,36.3z M135.1,15.2l-1.2,0.2l0-0.5l1.2-0.2V15.2z M130.1,37.2l-1.2,0.5l0-20.6l1.2-0.2
			V37.2z M128.9,38.6l1.2-0.5v0.5l-1.2,0.6L128.9,38.6z M130.1,16.1l-1.2,0.2l0-0.6l1.2-0.2V16.1z M125.2,39.4l-1.3,0.6l0-21.9
			l1.3-0.2V39.4z M123.9,40.8l1.3-0.6v0.6l-1.3,0.6L123.9,40.8z M125.2,17l-1.3,0.2l0-0.6l1.3-0.2V17z M120,41.7l-1.1,0.5l0-23.3
			l1.1-0.2V41.7z M118.9,43l1.1-0.5v0.7l-1.1,0.5L118.9,43z M120,17.9l-1.1,0.2l0-0.7l1.1-0.2V17.9z M113.9,19.8l1.2-0.2v24.3
			l-1.2,0.5L113.9,19.8z M113.9,45.2l1.2-0.5v0.8l-1.2,0.5L113.9,45.2z M115.1,18.8l-1.2,0.2l0-0.8l1.2-0.2V18.8z M107.9,20.9
			l1.2-0.2v25.8l-1.2,0.5L107.9,20.9z M107.9,47.8l1.2-0.5v0.8l-1.2,0.5L107.9,47.8z M109.1,19.9l-1.2,0.2l0-0.9l1.2-0.2V19.9z
			 M103.1,49.1l-2.2,1l0-28l2.2-0.4V49.1z M100.9,50.9l2.2-1v0.9l-2.2,1L100.9,50.9z M103.1,21l-2.2,0.4l0-1l2.2-0.4V21z
			 M100.9,72.5l0-19.8l2.2-1v19.1c0,0.1,0,0.2,0.1,0.2L100.9,72.5C100.9,72.5,100.9,72.5,100.9,72.5z M107.9,49.5l1.2-0.5v17.9
			c0,0.1,0.1,0.2,0.1,0.3l-1.3,0.8L107.9,49.5z M113.9,46.8l1.2-0.5v16.8c0,0.1,0.1,0.2,0.1,0.3l-1.3,0.9L113.9,46.8z M118.9,60.9
			l0-16.4L120,44v16.1c0,0,0,0.1,0,0.1L118.9,60.9C118.9,60.9,118.9,60.9,118.9,60.9z M123.9,42.2l1.3-0.6v15c0,0.1,0,0.2,0.1,0.3
			l-1.4,0.9L123.9,42.2z M128.9,39.9l1.2-0.6v14.2c0,0.1,0,0.1,0.1,0.2l-1.3,0.8L128.9,39.9z M133.9,37.6l1.2-0.5v13.4c0,0,0,0,0,0
			l-1.2,0.8L133.9,37.6z M135.9,50V2.9c0-0.2,0.2-1.1,1.1-1.1c1,0,1,1.1,1,1.1v45.7L135.9,50z M138.9,35.3l1.2-0.5v12.4
			c0,0.1,0,0.1,0,0.1l-1.2,0.8L138.9,35.3z M140.9,46.7V3.1c0-0.2,0.2-1.1,1.1-1.1c1,0,1,1.1,1,1.1v42.3c0,0,0,0,0,0l-2,1.3
			C141,46.7,141,46.7,140.9,46.7z M140,3.8c0,0,0.1,0,0.1,0v9.4l-1.2,0.2l0-9.6H140z M135.1,3.8V14l-1.2,0.2l0-10.4H135.1z
			 M130.1,3.8v11l-1.2,0.2l0-11.2H130.1z M125.2,3.8v11.9l-1.3,0.2l0-12.1H125.2z M120,3.8v12.7l-1.1,0.2l0-12.9H120z M115.1,3.8
			v13.5l-1.2,0.2l0-13.7H115.1z M109.1,3.8v14.5l-1.2,0.2l0-14.7H109.1z M103.1,3.8v15.5l-2.2,0.4l0-15.7c0,0,0-0.1,0-0.1H103.1z
			 M96.1,3.8c0,0,0,0.1,0,0.1v16.5l-2.2,0.4l0-16.7c0-0.1,0-0.1,0-0.2H96.1z M89.1,3.8c0,0.1,0,0.2,0,0.2v17.5l-2.2,0.4l0-17.9
			c0-0.1,0-0.1,0-0.2H89.1z M81.1,3.8c0,0.1,0,0.2,0,0.2v18.8l-2.3,0.4l0-18.9c0-0.2,0-0.3,0-0.5H81.1z M73.2,3.8
			c0,0.2-0.1,0.4-0.1,0.5v19.9h-1.4V4.3c0-0.2,0-0.3-0.1-0.5H73.2z M66.2,3.8c0,0.2,0,0.4,0,0.5l0,18.9l-2.3-0.4V4
			c0-0.1,0-0.1,0-0.2H66.2z M58,3.8c0,0.1,0,0.2,0,0.2l0,17.9l-2.2-0.4V4c0-0.1,0-0.1,0-0.2H58z M51.1,3.8c0,0.1,0,0.2,0,0.2l0,16.7
			l-2.2-0.4V3.9c0,0,0-0.1,0-0.1H51.1z M44,3.8c0,0,0,0.1,0,0.1l0,15.7l-2.2-0.4V3.8H44z M37,3.8l0,14.7l-1.2-0.2V3.8H37z M31,3.8
			l0,13.7l-1.2-0.2V3.8H31z M26,3.8l0,12.9l-1.1-0.2V3.8H26z M21,3.8l0,12.1l-1.3-0.2V3.8H21z M16,3.8L16,15l-1.2-0.2v-11H16z
			 M11,3.8l0,10.4L9.8,14V3.8H11z M6,3.8l0,9.6l-1.2-0.2V3.8H6z M62.9,85.1c0.3,0,0.4,0,0.5,0h0c0.2,0,0.4-0.2,0.4-0.4v-23l2.3,1.1
			l0,24.1c0,0,0,0.1,0,0.3L62.9,85.1z M71.8,90.1V63.8h1.4v26.2c-0.2,0-0.5,0.1-0.7,0.1C72.2,90.1,72,90.1,71.8,90.1z M78.8,86.8
			l0-24l2.3-1.1v23c0,0.2,0.1,0.3,0.3,0.3L78.8,86.8z"/>
	</g>
</g>
</svg>
