<?xml version="1.0" encoding="utf-8"?>
<!-- Generator: Adobe Illustrator 19.0.0, SVG Export Plug-In . SVG Version: 6.00 Build 0)  -->
<svg version="1.1" id="Layer_1" xmlns="http://www.w3.org/2000/svg" xmlns:xlink="http://www.w3.org/1999/xlink" x="0px" y="0px"
	 width="146.7px" height="96.8px" viewBox="0 0 146.7 96.8" style="enable-background:new 0 0 146.7 96.8;" xml:space="preserve">
<style type="text/css">
	.st0{fill:#FFFFFF;}
</style>
<g id="XMLID_19_">
	<g id="XMLID_143_">
		<g id="XMLID_6169_">
			<path id="XMLID_6170_" class="st0" d="M68.4,86.7c0.1,0.1,0.3,0.1,0.4,0.1c0.1,0,0.2,0,0.4-0.1c0.2-0.1,0.4-0.4,0.4-0.7V3.8
				c0-0.4-0.3-0.8-0.8-0.8L5.6,3C5.4,3,5.2,3.1,5,3.2C4.9,3.3,4.8,3.5,4.8,3.7v41.9c0,0.3,0.1,0.5,0.3,0.6L68.4,86.7z M6,45.9
				l0.4-0.3l0.4,0.8L6,45.9z M7.3,46.7l0.2-0.1l-0.7-1.3l1-0.7L9,46.9l-0.6,0.4l0.1,0.1L7.3,46.7z M17.3,33.3l-1.4,1.1l-1.5-2.3
				l1.3-1.1L17.3,33.3z M14.4,28.1l1.4-1.2l1.5,2.2l-1.4,1.1L14.4,28.1z M16.2,30.7l1.4-1.1l1.6,2.4L17.7,33L16.2,30.7z M18,29.2
				l1.5-1.2l1.7,2.4l-1.6,1.2L18,29.2z M19.5,32.3l1.7,2.5l-1.6,1.1L18,33.4L19.5,32.3z M19.9,32l1.6-1.2l1.8,2.5l-1.7,1.2L19.9,32z
				 M21.9,30.5l1.7-1.3l1.9,2.6l-1.8,1.2L21.9,30.5z M23.6,33.8l1.9,2.7l-1.8,1.1l-1.8-2.7L23.6,33.8z M24.1,33.5l1.8-1.2l2,2.7
				L26,36.2L24.1,33.5z M41.8,37.1l-2.7,1.4l-2.6-3.3l2.5-1.5L41.8,37.1z M39.5,33.6l2.7-1.6l3,3.4l-2.9,1.5L39.5,33.6z M36.2,34.9
				l-2.5-3l2.4-1.5l2.6,3.1L36.2,34.9z M35.8,35.2l-2.3,1.4l-2.3-3l2.2-1.4L35.8,35.2z M30.8,33.1l-2.2-2.8l2.1-1.4l2.3,2.8
				L30.8,33.1z M30.4,33.4l-2,1.3l-2.1-2.8l1.9-1.3L30.4,33.4z M28.2,35.4l2.2,2.9l-2,1.2l-2.1-2.9L28.2,35.4z M28.6,35.1l2.1-1.3
				l2.3,3L30.8,38L28.6,35.1z M33.3,37.2l2.5,3.2l-2.3,1.2l-2.3-3.1L33.3,37.2z M33.7,36.9l2.3-1.4l2.6,3.2l-2.5,1.3L33.7,36.9z
				 M39,39.2l2.8,3.5l-2.7,1.3l-2.6-3.4L39,39.2z M39.5,38.9l2.7-1.4l3,3.5l-2.9,1.4L39.5,38.9z M45.5,41.5l3.2,3.8l-3.1,1.3l-3-3.7
				L45.5,41.5z M42.6,37.3l2.9-1.5l3.2,3.6l-3.1,1.5L42.6,37.3z M42.6,31.8l2.9-1.7l3.2,3.4l-3.1,1.6L42.6,31.8z M42.3,31.4
				l-2.8-3.2l2.7-1.7l3,3.2L42.3,31.4z M41.8,31.6l-2.7,1.6l-2.6-3.1l2.5-1.6L41.8,31.6z M36.2,29.7l-2.5-2.9l2.4-1.6l2.6,2.9
				L36.2,29.7z M35.8,30l-2.3,1.5l-2.3-2.9l2.2-1.5L35.8,30z M30.8,28.2l-2.2-2.7l2.1-1.5l2.3,2.7L30.8,28.2z M30.4,28.5l-2.1,1.4
				l-2-2.6l1.9-1.4L30.4,28.5z M27.9,30.2L26,31.5l-1.9-2.6l1.8-1.4L27.9,30.2z M23.8,28.5l-1.8-2.4l1.7-1.4l1.9,2.5L23.8,28.5z
				 M23.4,28.8l-1.7,1.3l-1.7-2.4l1.6-1.3L23.4,28.8z M19.6,27.3L18,25l1.5-1.3l1.7,2.3L19.6,27.3z M19.2,27.6l-1.5,1.2l-1.5-2.2
				l1.4-1.2L19.2,27.6z M15.9,26.2l-1.5-2.1l1.4-1.2l1.5,2.1L15.9,26.2z M15.5,26.5l-1.4,1.1l-1.4-2.1l1.3-1.2L15.5,26.5z
				 M15.5,30.6l-1.3,1.1l-1.4-2.2l1.3-1.1L15.5,30.6z M15.5,34.7l-1.3,1l-1.4-2.3l1.3-1L15.5,34.7z M15.8,35.1l1.5,2.4l-1.4,1
				l-1.5-2.4L15.8,35.1z M16.2,34.8l1.4-1.1l1.6,2.5l-1.5,1L16.2,34.8z M19.5,36.6l1.7,2.6l-1.6,1L18,37.6L19.5,36.6z M19.9,36.3
				l1.6-1.1l1.8,2.6l-1.7,1.1L19.9,36.3z M23.6,38.3l1.9,2.8l-1.8,1l-1.8-2.8L23.6,38.3z M24.1,38l1.8-1.1l2,2.9L26,40.8L24.1,38z
				 M28.2,40.1l2.2,3l-2,1.1l-2.1-3L28.2,40.1z M28.6,39.9l2-1.2l2.3,3.1l-2.2,1.1L28.6,39.9z M33.3,42.2l2.5,3.3l-2.3,1.1l-2.3-3.3
				L33.3,42.2z M33.7,42l2.3-1.2l2.6,3.4l-2.5,1.2L33.7,42z M39,44.5l2.8,3.6l-2.7,1.1l-2.6-3.6L39,44.5z M39.5,44.3l2.7-1.3l3,3.7
				l-2.9,1.2L39.5,44.3z M45.5,47.2l3.2,4l-3.1,1.1l-3-3.9L45.5,47.2z M46,47l3.1-1.3l3.5,4.1L49.2,51L46,47z M46,41.2l3.1-1.5
				l3.5,3.9l-3.3,1.4L46,41.2z M46,35.5l3.1-1.6l3.4,3.7l-3.3,1.6L46,35.5z M46,29.8l3.1-1.8l3.4,3.5l-3.3,1.8L46,29.8z M46,24.1
				l3.1-2l3.4,3.3l-3.4,1.9L46,24.1z M48.7,27.7l-3.1,1.8l-3-3.2l2.9-1.8L48.7,27.7z M42.3,25.9l-2.8-3l2.7-1.9l3,3L42.3,25.9z
				 M41.8,26.1l-2.7,1.7l-2.6-2.9l2.5-1.7L41.8,26.1z M36.2,24.5l-2.4-2.8l2.4-1.8l2.6,2.8L36.2,24.5z M35.8,24.8l-2.4,1.6l-2.3-2.7
				l2.2-1.6L35.8,24.8z M30.8,23.3l-2.2-2.6l2.1-1.7l2.3,2.6L30.8,23.3z M30.4,23.6l-2.1,1.5l-2-2.5l2-1.6L30.4,23.6z M27.9,25.5
				L26,26.9l-1.9-2.5l1.8-1.5L27.9,25.5z M23.7,24l-1.8-2.3l1.7-1.5l1.9,2.4L23.7,24z M23.4,24.3l-1.7,1.4l-1.7-2.3l1.6-1.4
				L23.4,24.3z M19.6,23L18,20.8l1.5-1.4l1.7,2.2L19.6,23z M19.2,23.3l-1.5,1.3l-1.5-2.1l1.5-1.3L19.2,23.3z M15.9,22.1l-1.4-2
				l1.4-1.3l1.5,2L15.9,22.1z M15.5,22.4l-1.4,1.2l-1.4-2l1.3-1.2L15.5,22.4z M12.5,21.2l-1.3-1.9l1.2-1.2l1.4,1.9L12.5,21.2z
				 M13.8,24l-1.3,1.2l-1.3-2l1.2-1.2L13.8,24z M13.8,28L12.5,29L11.2,27l1.2-1.1L13.8,28z M13.8,32l-1.3,1l-1.3-2.1l1.2-1L13.8,32z
				 M13.8,35.9l-1.3,0.9l-1.3-2.2l1.2-1L13.8,35.9z M13.8,39.9l-1.2,0.9l-1.3-2.3l1.2-0.9L13.8,39.9z M12.8,37.3l1.3-0.9l1.5,2.4
				l-1.3,0.9L12.8,37.3z M15.8,39.2l1.6,2.5l-1.4,0.9l-1.5-2.5L15.8,39.2z M16.2,38.9l1.4-1l1.6,2.6l-1.5,0.9L16.2,38.9z M19.5,40.9
				l1.7,2.7l-1.6,0.9L18,41.8L19.5,40.9z M19.9,40.6l1.6-1l1.8,2.8l-1.7,1L19.9,40.6z M23.6,42.8l1.9,2.9l-1.8,0.9l-1.8-2.9
				L23.6,42.8z M24.1,42.5l1.8-1l2.1,3l-1.9,1L24.1,42.5z M28.2,44.9l2.2,3.2l-2,1l-2.1-3.1L28.2,44.9z M28.6,44.6l2-1.1l2.3,3.2
				l-2.2,1L28.6,44.6z M33.3,47.2l2.5,3.5l-2.3,1l-2.3-3.4L33.3,47.2z M33.7,47l2.3-1.1l2.6,3.5l-2.5,1L33.7,47z M39,49.9l2.8,3.8
				l-2.6,1l-2.7-3.7L39,49.9z M39.5,49.7l2.7-1.1l3,3.9l-2.8,1L39.5,49.7z M45.5,52.8l3.2,4.2l-3,0.9l-3-4.1L45.5,52.8z M46,52.7
				l3.1-1.1l3.5,4.3l-3.3,1L46,52.7z M52.8,56.2l3.7,4.6L53,61.8l-3.5-4.5L52.8,56.2z M49.5,51.4l3.3-1.2l3.7,4.4L53,55.7L49.5,51.4
				z M49.5,45.5l3.3-1.4l3.7,4.2L53,49.6L49.5,45.5z M49.5,39.6l3.3-1.6l3.7,4L53,43.5L49.5,39.6z M49.5,33.7l3.4-1.8l3.7,3.8
				L53,37.4L49.5,33.7z M49.5,27.8l3.4-2l3.7,3.6L53,31.3L49.5,27.8z M49.5,21.9l3.4-2.1l3.7,3.4L53,25.2L49.5,21.9z M49.2,21.5
				L46,18.4l3.1-2.2l3.4,3.1L49.2,21.5z M48.7,21.8l-3.1,2l-3-3l2.9-2L48.7,21.8z M42.3,20.4l-2.8-2.8l2.7-2l3,2.9L42.3,20.4z
				 M41.8,20.6l-2.7,1.9l-2.6-2.8l2.5-1.9L41.8,20.6z M36.2,19.3l-2.4-2.6l2.4-1.9l2.6,2.6L36.2,19.3z M35.8,19.6l-2.4,1.8l-2.3-2.6
				l2.2-1.8L35.8,19.6z M30.8,18.4L28.6,16l2.1-1.8l2.3,2.4L30.8,18.4z M30.4,18.7l-2.1,1.7l-2-2.4l2-1.7L30.4,18.7z M27.9,20.7
				l-2,1.6l-1.9-2.4l1.8-1.6L27.9,20.7z M23.7,19.5l-1.8-2.2l1.7-1.6l1.9,2.2L23.7,19.5z M23.4,19.8l-1.7,1.5l-1.7-2.2l1.6-1.5
				L23.4,19.8z M19.6,18.7L18,16.6l1.6-1.5l1.7,2.1L19.6,18.7z M19.2,19l-1.5,1.4l-1.5-2l1.5-1.4L19.2,19z M15.9,18L14.4,16l1.4-1.4
				l1.5,1.9L15.9,18z M15.5,18.3l-1.4,1.3l-1.4-1.9l1.3-1.3L15.5,18.3z M12.5,17.3l-1.3-1.8l1.2-1.3l1.4,1.8L12.5,17.3z M12.1,17.7
				l-1.2,1.2l-1.2-1.8l1.2-1.3L12.1,17.7z M12.1,21.6l-1.2,1.2l-1.2-1.9l1.2-1.2L12.1,21.6z M12.1,25.5l-1.2,1.1l-1.2-1.9l1.2-1.1
				L12.1,25.5z M12.1,29.4l-1.2,1l-1.3-2l1.1-1L12.1,29.4z M12.1,33.3l-1.2,0.9l-1.3-2.1l1.1-1L12.1,33.3z M12.1,37.2L10.9,38
				l-1.3-2.2l1.1-0.9L12.1,37.2z M12.1,41.1l-1.2,0.8l-1.3-2.3l1.1-0.8L12.1,41.1z M12.4,41.5l1.4,2.4l-1.2,0.8l-1.3-2.4L12.4,41.5z
				 M12.8,41.2l1.3-0.9l1.5,2.5l-1.3,0.8L12.8,41.2z M15.8,43.3l1.6,2.6l-1.4,0.8l-1.5-2.6L15.8,43.3z M16.2,43l1.4-0.9l1.6,2.6
				l-1.5,0.9L16.2,43z M19.5,45.2l1.7,2.8l-1.6,0.8L18,46L19.5,45.2z M19.9,44.9l1.6-0.9l1.8,2.9l-1.7,0.9L19.9,44.9z M23.6,47.3
				l1.9,3l-1.8,0.8l-1.9-3L23.6,47.3z M24.1,47.1l1.8-0.9l2.1,3.1L26,50.1L24.1,47.1z M28.2,49.6l2.2,3.3l-2,0.8l-2.1-3.2L28.2,49.6
				z M28.6,49.4l2-1l2.3,3.4l-2.1,0.9L28.6,49.4z M33.3,52.3l2.5,3.6l-2.3,0.8l-2.3-3.5L33.3,52.3z M33.8,52.1l2.3-1l2.6,3.7
				l-2.5,0.9L33.8,52.1z M39,55.2l2.8,3.9L39.2,60l-2.7-3.9L39,55.2z M39.5,55l2.6-1l3,4L42.3,59L39.5,55z M45.5,58.5l3.2,4.3
				l-3,0.8l-3-4.2L45.5,58.5z M46,58.4l3.1-0.9l3.5,4.5l-3.3,0.8L46,58.4z M52.8,62.3l3.7,4.8L53,67.9l-3.5-4.7L52.8,62.3z
				 M53.4,62.2l3.6-0.9l4,5L57.1,67L53.4,62.2z M53.4,56.1l3.6-1.1l4,4.8l-3.9,1L53.4,56.1z M53.4,50l3.6-1.3l4,4.5l-3.9,1.2
				L53.4,50z M53.4,43.9l3.6-1.5l4,4.3l-3.9,1.4L53.4,43.9z M53.4,37.8l3.6-1.7l4,4.1l-3.9,1.6L53.4,37.8z M53.3,31.7l3.6-1.9l4,3.9
				l-3.9,1.8L53.3,31.7z M53.3,25.6l3.6-2.1l4,3.6l-3.9,2.1L53.3,25.6z M53.3,19.4l3.7-2.3l4,3.4l-3.9,2.3L53.3,19.4z M53.3,13.3
				l3.7-2.5l4,3.2L57,16.5L53.3,13.3z M56.6,16.8L53,19.1L49.5,16l3.4-2.3L56.6,16.8z M49.1,15.6L46,12.7l3.2-2.3l3.4,2.9L49.1,15.6
				z M48.7,15.9l-3.1,2.2l-3-2.9l2.9-2.2L48.7,15.9z M42.2,14.8l-2.8-2.7l2.7-2.2l3,2.7L42.2,14.8z M41.8,15.1l-2.7,2l-2.6-2.6
				l2.6-2L41.8,15.1z M36.2,14.1l-2.4-2.5l2.4-2l2.6,2.5L36.2,14.1z M35.8,14.5l-2.4,1.9l-2.3-2.5l2.2-1.9L35.8,14.5z M30.8,13.5
				l-2.1-2.3l2.1-1.9l2.3,2.3L30.8,13.5z M30.4,13.9l-2.1,1.8l-2-2.3l2-1.8L30.4,13.9z M27.9,16l-2,1.7L24,15.4l1.9-1.7L27.9,16z
				 M23.7,15l-1.8-2.1l1.8-1.7l1.9,2.1L23.7,15z M23.4,15.3l-1.7,1.6l-1.7-2.1l1.7-1.6L23.4,15.3z M19.6,14.4l-1.6-2l1.6-1.6l1.7,2
				L19.6,14.4z M19.2,14.8l-1.5,1.5l-1.5-2l1.5-1.5L19.2,14.8z M15.9,13.9L14.4,12l1.4-1.5l1.5,1.9L15.9,13.9z M15.5,14.2l-1.4,1.4
				l-1.4-1.8l1.3-1.4L15.5,14.2z M12.5,13.4l-1.3-1.7l1.3-1.4l1.3,1.7L12.5,13.4z M12.1,13.8l-1.2,1.3l-1.2-1.7l1.2-1.3L12.1,13.8z
				 M9.4,13l-1.2-1.6L9.3,10l1.2,1.6L9.4,13z M10.5,15.5l-1.2,1.2L8.2,15l1.1-1.3L10.5,15.5z M10.5,19.3l-1.2,1.2l-1.2-1.8l1.1-1.2
				L10.5,19.3z M10.5,23.1l-1.1,1.1l-1.2-1.8l1.1-1.1L10.5,23.1z M10.5,26.9l-1.1,1L8.2,26l1.1-1L10.5,26.9z M10.5,30.7l-1.1,1
				l-1.2-2l1.1-1L10.5,30.7z M10.5,34.5l-1.1,0.9l-1.2-2.1l1.1-0.9L10.5,34.5z M10.5,38.3l-1.1,0.8L8.2,37l1.1-0.8L10.5,38.3z
				 M10.5,42.2l-1.1,0.8l-1.2-2.2l1.1-0.8L10.5,42.2z M10.5,46l-1.1,0.7l-1.2-2.3l1-0.7L10.5,46z M9.7,43.4l1.1-0.8l1.3,2.4L11,45.7
				L9.7,43.4z M12.4,45.4l1.4,2.5l-1.2,0.7l-1.4-2.5L12.4,45.4z M12.8,45.1l1.2-0.8l1.5,2.6l-1.3,0.8L12.8,45.1z M15.8,47.3l1.6,2.7
				l-1.4,0.7l-1.5-2.7L15.8,47.3z M16.2,47.1l1.4-0.8l1.6,2.7l-1.5,0.8L16.2,47.1z M19.5,49.5l1.7,2.9l-1.6,0.7L18,50.2L19.5,49.5z
				 M19.9,49.2l1.6-0.8l1.8,3l-1.7,0.8L19.9,49.2z M23.6,51.8l2,3.1l-1.8,0.7l-1.9-3.1L23.6,51.8z M24.1,51.6l1.8-0.8l2.1,3.2
				L26,54.7L24.1,51.6z M28.2,54.4l2.2,3.4l-2,0.7l-2.1-3.4L28.2,54.4z M28.6,54.2l2-0.8l2.3,3.5l-2.1,0.8L28.6,54.2z M33.3,57.3
				l2.5,3.7l-2.3,0.7l-2.3-3.7L33.3,57.3z M33.8,57.1l2.3-0.8l2.6,3.8l-2.4,0.8L33.8,57.1z M39,60.5l2.8,4.1l-2.6,0.7l-2.7-4
				L39,60.5z M39.5,60.4l2.6-0.8l3,4.2l-2.8,0.7L39.5,60.4z M45.5,64.2l3.2,4.5l-3,0.6l-3-4.4L45.5,64.2z M46,64.1l3-0.8l3.5,4.7
				l-3.3,0.7L46,64.1z M52.8,68.4l3.7,5L53,74l-3.5-4.9L52.8,68.4z M53.4,68.3l3.5-0.7l4,5.2l-3.8,0.6L53.4,68.3z M61.3,73.2
				l4.4,5.6l-4.1,0.4l-4.1-5.4L61.3,73.2z M57.5,67.5l3.8-0.8l4.4,5.4l-4.2,0.6L57.5,67.5z M57.5,61.1l3.9-1l4.4,5.1l-4.2,0.8
				L57.5,61.1z M57.5,54.8l3.9-1.2l4.4,4.9l-4.2,1.1L57.5,54.8z M57.5,48.5l3.9-1.4l4.3,4.7L61.5,53L57.5,48.5z M57.4,42.2l3.9-1.6
				l4.3,4.4l-4.2,1.5L57.4,42.2z M57.4,35.8l3.9-1.8l4.3,4.2l-4.2,1.8L57.4,35.8z M57.4,29.5l3.9-2.1l4.3,3.9l-4.2,2L57.4,29.5z
				 M57.4,23.2l3.9-2.3l4.3,3.7l-4.3,2.2L57.4,23.2z M57.4,16.9l4-2.5l4.3,3.5l-4.3,2.5L57.4,16.9z M57.4,10.5l4-2.7l4.3,3.2
				l-4.3,2.7L57.4,10.5z M57,10.2l-3.7-3L57,4.5l4,3L57,10.2z M56.6,10.5L53,13l-3.4-2.9l3.4-2.5L56.6,10.5z M49.1,9.7L46,7l3.2-2.5
				l3.4,2.7L49.1,9.7z M48.7,10l-3.1,2.3l-3-2.7l2.9-2.3L48.7,10z M42.2,9.3l-2.8-2.5l2.8-2.3L45.2,7L42.2,9.3z M41.8,9.6l-2.7,2.2
				l-2.6-2.5l2.6-2.2L41.8,9.6z M36.2,9l-2.4-2.3l2.4-2.2l2.6,2.3L36.2,9z M35.8,9.3l-2.4,2L31.1,9l2.3-2L35.8,9.3z M30.8,8.6
				l-2.1-2.2l2.1-2L33,6.6L30.8,8.6z M30.4,9l-2.1,1.9l-2-2.2l2-1.9L30.4,9z M27.9,11.2l-2,1.8L24,10.8l1.9-1.8L27.9,11.2z
				 M23.7,10.5l-1.8-2l1.8-1.8l1.9,2L23.7,10.5z M23.4,10.8l-1.7,1.7l-1.7-2l1.7-1.7L23.4,10.8z M19.6,10.1L18,8.2l1.6-1.7l1.7,1.9
				L19.6,10.1z M19.2,10.5L17.7,12l-1.5-1.9l1.5-1.6L19.2,10.5z M15.9,9.8L14.4,8l1.4-1.6l1.5,1.8L15.9,9.8z M15.5,10.2l-1.4,1.5
				l-1.4-1.7l1.3-1.5L15.5,10.2z M12.5,9.5l-1.3-1.6l1.3-1.5L13.8,8L12.5,9.5z M12.1,9.9l-1.2,1.4L9.7,9.6l1.2-1.4L12.1,9.9z
				 M9.4,9.2L8.2,7.7l1.1-1.4l1.2,1.5L9.4,9.2z M9,9.6l-1.1,1.3L6.8,9.4l1.1-1.3L9,9.6z M9,13.3l-1.1,1.2L6.8,13l1.1-1.2L9,13.3z
				 M9,17.1l-1.1,1.2l-1.1-1.7l1.1-1.2L9,17.1z M9,20.8l-1.1,1.1l-1.1-1.7l1-1.1L9,20.8z M9,24.5l-1.1,1l-1.1-1.8l1-1L9,24.5z
				 M9,28.3l-1.1,1l-1.1-1.9l1-1L9,28.3z M9,32l-1.1,0.9l-1.1-2l1-0.9L9,32z M9,35.7L8,36.6l-1.2-2l1-0.9L9,35.7z M9,39.5l-1,0.8
				l-1.2-2.1l1-0.8L9,39.5z M9,43.2l-1,0.7l-1.2-2.2l1-0.7L9,43.2z M8.8,47.7l0.5-0.3l0.5,0.9L8.8,47.7z M10.2,48.6l0.2-0.1
				l-0.8-1.4l1.1-0.7l1.3,2.5l-0.7,0.4l0.1,0.1L10.2,48.6z M11.8,49.6l0.5-0.3l0.6,1L11.8,49.6z M13.4,50.7l0.2-0.1l-0.8-1.5
				l1.2-0.7l1.5,2.6l-0.8,0.4l0.1,0.1L13.4,50.7z M15.1,51.7l0.6-0.3l0.6,1.1L15.1,51.7z M16.9,52.9l0.2-0.1l-0.9-1.6l1.4-0.7
				l1.7,2.8l-0.9,0.4l0.1,0.2L16.9,52.9z M18.8,54.1l0.7-0.3l0.7,1.3L18.8,54.1z M20.8,55.3l0.2-0.1l-1-1.7l1.6-0.7l1.8,3.1l-1,0.4
				l0.1,0.2L20.8,55.3z M22.8,56.6l0.8-0.3l0.8,1.4L22.8,56.6z M25,58.1l0.2-0.1l-1.1-1.8l1.8-0.7l2.1,3.3l-1.1,0.4l0.1,0.2L25,58.1
				z M27.2,59.5l0.9-0.3l1,1.6L27.2,59.5z M29.7,61.1l0.2-0.1l-1.2-2l2-0.7l2.3,3.6l-1.2,0.4l0.1,0.2L29.7,61.1z M32.2,62.7l1.1-0.3
				l1.1,1.8L32.2,62.7z M35,64.4l0.2-0.1l-1.4-2.2l2.3-0.7l2.6,4l-1.4,0.3l0.1,0.2L35,64.4z M37.7,66.2l1.3-0.3l1.3,2L37.7,66.2z
				 M40.9,68.2l0.2-0.1l-1.6-2.4l2.6-0.7l3,4.4l-1.6,0.3l0,0.2L40.9,68.2z M44,70.2l1.5-0.3l1.5,2.2L44,70.2z M47.6,72.5l0.2-0.1
				L46,69.8l3-0.6l3.5,4.9l-1.8,0.3l0,0.2L47.6,72.5z M51.1,74.8l1.8-0.3l1.8,2.6L51.1,74.8z M55.2,77.4l0.2-0.1l-2.1-2.9l3.5-0.5
				l4,5.4l-2.1,0.2l0,0.2L55.2,77.4z M59.2,80l2.1-0.2l2.2,2.9L59.2,80z M68.8,86.1l-4.7-3l0.2-0.1l-2.4-3.2l4.2-0.4l2.5,3.3
				l0.2-0.2V86.1z M68.8,82.1l-2.2-2.8l2.2-0.2V82.1z M68.8,78.8l0-0.2l-2.5,0.2l-4.4-5.7l4.2-0.6l2.5,3.1l0.2-0.2V78.8z M68.8,75.1
				l-2.2-2.7l2.2-0.3V75.1z M68.8,71.9l0-0.2L66.3,72l-4.4-5.4l4.2-0.8l2.5,3l0.2-0.2V71.9z M68.8,68.2l-2.2-2.6l2.2-0.4V68.2z
				 M68.8,64.9l0-0.2l-2.5,0.5L61.9,60l4.2-1.1l2.5,2.8l0.2-0.2V64.9z M68.8,61.2l-2.2-2.4l2.2-0.6V61.2z M68.8,58l-0.1-0.2
				l-2.5,0.6l-4.4-4.9l4.2-1.3l2.5,2.7l0.2-0.2V58z M68.8,54.3L66.6,52l2.2-0.7V54.3z M68.8,51l-0.1-0.2l-2.5,0.8l-4.4-4.7l4.2-1.5
				l2.5,2.6l0.2-0.2V51z M68.8,47.4l-2.2-2.2l2.2-0.8V47.4z M68.8,44.1l-0.1-0.2l-2.5,0.9l-4.4-4.4l4.2-1.8l2.5,2.4l0.2-0.2V44.1z
				 M68.8,40.4l-2.2-2.1l2.2-0.9V40.4z M68.8,37.2l-0.1-0.2l-2.5,1l-4.4-4.2l4.3-2l2.5,2.3l0.2-0.2V37.2z M68.8,33.5l-2.2-2l2.2-1
				V33.5z M68.8,30.2L68.7,30l-2.5,1.2l-4.3-4l4.3-2.2l2.5,2.1l0.2-0.2V30.2z M68.8,26.6l-2.2-1.9l2.2-1.2V26.6z M68.8,23.3L68.7,23
				l-2.5,1.3l-4.3-3.7l4.3-2.5l2.5,2l0.2-0.2V23.3z M68.8,19.6l-2.2-1.8l2.2-1.3V19.6z M68.8,16.3l-0.1-0.2l-2.5,1.4l-4.3-3.5
				l4.3-2.7l2.5,1.9l0.2-0.2V16.3z M68.8,12.7l-2.2-1.6l2.2-1.4V12.7z M68.8,9.4l-0.1-0.2l-2.5,1.6l-4.3-3.2l4.3-3l2.5,1.7l0.1-0.2
				V9.4z M66.9,3.8l1.9,0v2l-2.2-1.5L67,4L66.9,3.8z M66.4,3.8l-0.3,0.2l-0.3-0.2L66.4,3.8z M57.6,3.7l7.8,0L65.3,4l0.4,0.3
				l-4.3,2.9l-4-3l0.3-0.3L57.6,3.7z M57.2,3.7L57,3.9l-0.2-0.1L57.2,3.7z M49.7,3.7l6.8,0l-0.2,0.2l0.3,0.2l-3.7,2.7l-3.4-2.7
				l0.3-0.2L49.7,3.7z M49.3,3.7l-0.1,0.1L49,3.7L49.3,3.7z M42.7,3.7l5.9,0l-0.2,0.2l0.3,0.2l-3.2,2.5l-3-2.5l0.2-0.2L42.7,3.7z
				 M42.3,3.7L42.3,3.7h-0.2H42.3z M36.6,3.7l5.2,0l-0.2,0.2l0.2,0.2l-2.7,2.3l-2.6-2.4l0.2-0.2L36.6,3.7z M36.2,3.7L36.2,3.7
				L36.2,3.7L36.2,3.7z M31.1,3.7l4.6,0l-0.2,0.2l0.2,0.2l-2.4,2.2l-2.3-2.2l0.2-0.2L31.1,3.7z M30.8,3.7L30.8,3.7L30.8,3.7
				L30.8,3.7z M30.4,3.7l-0.2,0.2l0.2,0.2l-2.1,2l-2-2l0.2-0.2l-0.2-0.2L30.4,3.7z M27.9,6.5l-2,1.9l-1.9-2l1.9-1.9L27.9,6.5z
				 M25.6,3.7l-0.2,0.2l0.2,0.2L23.7,6l-1.8-1.9l0.1-0.1l-0.2-0.2L25.6,3.7z M23.4,6.3l-1.8,1.8l-1.7-1.9l1.7-1.8L23.4,6.3z
				 M21.3,3.7l-0.2,0.2l0.1,0.1l-1.7,1.8L18,4l0.1-0.1l-0.2-0.2L21.3,3.7z M19.2,6.2l-1.6,1.7l-1.5-1.8l1.5-1.7L19.2,6.2z M17.4,3.7
				l-0.2,0.2L17.3,4l-1.5,1.7L14.4,4l0.1-0.1l-0.2-0.2L17.4,3.7z M15.5,6.1l-1.4,1.6L12.8,6l1.3-1.6L15.5,6.1z M13.9,3.7l-0.2,0.2
				L13.8,4l-1.3,1.6L11.2,4l0.1-0.1l-0.2-0.2L13.9,3.7z M12.1,6l-1.3,1.5L9.7,5.9l1.2-1.5L12.1,6z M10.6,3.7l-0.2,0.2L10.5,4
				L9.3,5.5L8.2,4l0.1-0.1L8.1,3.7L10.6,3.7z M9,5.9L7.9,7.3L6.8,5.8l1.1-1.4L9,5.9z M5.6,3.7l2.1,0L7.5,3.9L7.6,4L6.5,5.4L5.7,4.3
				L5.6,4.3V3.7z M5.6,5l0.6,0.8L5.6,6.6V5z M5.6,7.2L5.6,7.2l0.9-1l1.1,1.5L6.5,9L5.7,7.8L5.6,7.9V7.2z M5.6,8.5l0.6,0.9l-0.6,0.8
				V8.5z M5.6,10.7L5.6,10.7l0.9-0.9l1.1,1.5l-1.1,1.2l-0.8-1.2l-0.1,0.1V10.7z M5.6,12.1l0.6,0.9l-0.6,0.7V12.1z M5.6,14.2
				L5.6,14.2l0.9-0.9L7.6,15l-1,1.2l-0.8-1.3l-0.1,0.1V14.2z M5.6,15.6l0.6,0.9l-0.6,0.7V15.6z M5.6,17.8L5.6,17.8L6.5,17l1.1,1.7
				l-1,1.1l-0.9-1.3l-0.1,0.1V17.8z M5.6,19.1l0.6,1l-0.6,0.7V19.1z M5.6,21.3L5.6,21.3l0.9-0.8l1.1,1.7l-1,1l-0.9-1.4L5.6,22V21.3z
				 M5.6,22.7l0.6,1l-0.6,0.6V22.7z M5.6,24.9L5.6,24.9l0.9-0.7l1.1,1.8l-1,1l-0.9-1.4l-0.1,0.1V24.9z M5.6,26.2l0.6,1l-0.6,0.6
				V26.2z M5.6,28.4L5.6,28.4l0.9-0.7l1.1,1.9l-1,0.9L5.7,29l-0.1,0.1V28.4z M5.6,29.8l0.6,1l-0.6,0.6V29.8z M5.6,31.9L5.6,31.9
				l0.9-0.6l1.1,2l-1,0.9l-0.9-1.6l-0.1,0.1V31.9z M5.6,33.3l0.6,1.1l-0.6,0.5V33.3z M5.6,35.5L5.6,35.5l0.9-0.6l1.1,2l-1,0.8
				l-0.9-1.6l-0.1,0.1V35.5z M5.6,36.9L6.2,38l-0.6,0.5V36.9z M5.6,39L5.6,39l0.9-0.6l1.2,2.1l-1,0.7l-0.9-1.7l-0.1,0.1V39z
				 M5.6,40.4l0.6,1.1L5.6,42V40.4z M5.6,42.6L5.6,42.6L6.4,42l1.2,2.2l-1,0.7l-0.9-1.7l-0.1,0.1V42.6z M5.6,44l0.6,1.2l-0.6,0.4
				l0.1,0.1l-0.1,0V44z M77.4,86.8c0.1,0.1,0.2,0.1,0.4,0.1c0.1,0,0.3,0,0.4-0.1l63.2-40.5c0.2-0.1,0.3-0.4,0.3-0.6V3.7
				c0-0.2-0.1-0.4-0.2-0.5C141.3,3.1,141.2,3,141,3L77.7,3C77.3,3,77,3.3,77,3.8v82.3C77,86.4,77.1,86.6,77.4,86.8z M83,82.7
				l2.2-2.9l2.1,0.2L83,82.7z M115.7,33.1l-2.2-1.4l2.3-2.8l2.1,1.4L115.7,33.1z M118.3,30.6l1.9,1.3l-2.1,2.8l-2-1.3L118.3,30.6z
				 M115.4,33.5l-2.3,3l-2.3-1.4l2.5-3L115.4,33.5z M110.3,34.9l-2.5-1.5l2.6-3.1l2.4,1.5L110.3,34.9z M110,35.3l-2.6,3.3l-2.7-1.4
				l2.8-3.3L110,35.3z M104.2,36.9l-2.9-1.5l3-3.4l2.7,1.6L104.2,36.9z M104.3,37.5l2.7,1.4l-2.8,3.5l-2.9-1.4L104.3,37.5z
				 M107.5,39.2l2.5,1.3l-2.6,3.4l-2.7-1.3L107.5,39.2z M107.8,38.8l2.6-3.2l2.3,1.4l-2.5,3.2L107.8,38.8z M113.2,37.2l2.2,1.3
				l-2.3,3.1l-2.3-1.2L113.2,37.2z M113.5,36.8l2.3-3l2.1,1.3l-2.2,2.9L113.5,36.8z M118.3,35.4l1.9,1.2l-2.1,2.9l-2-1.2L118.3,35.4
				z M118.6,35l2-2.7l1.8,1.2l-1.9,2.7L118.6,35z M120.9,31.8l1.9-2.6l1.7,1.3l-1.8,2.5L120.9,31.8z M122.9,33.8l1.7,1.2l-1.8,2.7
				l-1.8-1.1L122.9,33.8z M123.2,33.3l1.8-2.5l1.6,1.2l-1.7,2.5L123.2,33.3z M125.3,30.4L127,28l1.5,1.2l-1.6,2.4L125.3,30.4z
				 M127,32.3l1.5,1.1l-1.6,2.5l-1.6-1.1L127,32.3z M127.3,31.9l1.6-2.4l1.4,1.1l-1.6,2.3L127.3,31.9z M129.2,29.1l1.5-2.2l1.4,1.2
				l-1.5,2.2L129.2,29.1z M130.7,31l1.3,1.1l-1.5,2.3l-1.4-1.1L130.7,31z M131,30.6l1.5-2.2l1.3,1.1l-1.4,2.2L131,30.6z M132.4,27.6
				l-1.4-1.1l1.4-2.1l1.3,1.2L132.4,27.6z M130.6,26.2l-1.4-1.2l1.5-2.1l1.4,1.2L130.6,26.2z M130.3,26.6l-1.5,2.2l-1.5-1.2l1.6-2.3
				L130.3,26.6z M126.9,27.3l-1.6-1.3l1.7-2.3l1.5,1.3L126.9,27.3z M126.6,27.7l-1.7,2.4l-1.7-1.3l1.8-2.4L126.6,27.7z M122.8,28.5
				l-1.8-1.3l1.9-2.5l1.7,1.4L122.8,28.5z M122.5,28.9l-1.9,2.6l-1.9-1.3l2-2.6L122.5,28.9z M118.2,29.9l-2.1-1.4l2.2-2.7l1.9,1.4
				L118.2,29.9z M115.7,28.2l-2.2-1.5l2.3-2.7l2.1,1.5L115.7,28.2z M115.4,28.6l-2.3,2.9l-2.3-1.5l2.4-2.9L115.4,28.6z M110.3,29.7
				l-2.5-1.6l2.6-2.9l2.4,1.6L110.3,29.7z M110,30.1l-2.6,3.1l-2.7-1.6l2.8-3.1L110,30.1z M104.2,31.4l-2.9-1.7l3-3.2l2.7,1.7
				L104.2,31.4z M103.9,31.8l-3,3.4l-3.1-1.6l3.2-3.4L103.9,31.8z M101,35.8l2.9,1.5l-3,3.6l-3.1-1.5L101,35.8z M101,41.5l2.9,1.4
				l-3,3.7l-3.1-1.3L101,41.5z M101,47.2l2.9,1.2l-3,3.9l-3.1-1.1L101,47.2z M101.4,46.8l3-3.7l2.7,1.3l-2.8,3.6L101.4,46.8z
				 M107.5,44.5l2.5,1.2l-2.6,3.6l-2.7-1.1L107.5,44.5z M107.8,44.1l2.6-3.4l2.3,1.2l-2.5,3.3L107.8,44.1z M113.2,42.2l2.2,1.1
				l-2.3,3.3l-2.3-1.1L113.2,42.2z M113.5,41.8l2.3-3.1l2,1.2l-2.2,3.1L113.5,41.8z M118.3,40.1l1.9,1.1l-2.1,3l-2-1.1L118.3,40.1z
				 M118.6,39.7l2-2.9l1.8,1.1l-1.9,2.8L118.6,39.7z M122.9,38.3l1.7,1.1l-1.8,2.8l-1.8-1L122.9,38.3z M123.2,37.9l1.8-2.6l1.6,1.1
				l-1.7,2.6L123.2,37.9z M127,36.6l1.5,1l-1.6,2.6l-1.6-1L127,36.6z M127.3,36.2l1.6-2.5l1.4,1.1l-1.6,2.4L127.3,36.2z M130.7,35.1
				l1.3,1l-1.5,2.4l-1.4-1L130.7,35.1z M131,34.7l1.5-2.3l1.3,1l-1.4,2.3L131,34.7z M134.1,33.7l1.2,1l-1.3,2.2l-1.3-0.9L134.1,33.7
				z M134,33l-1.3-1l1.4-2.2l1.2,1L134,33z M134,29l-1.3-1.1l1.4-2.1l1.2,1.1L134,29z M134,25.1l-1.3-1.2l1.4-2l1.2,1.2L134,25.1z
				 M134,21.2l-1.3-1.2l1.4-1.9l1.2,1.2L134,21.2z M133.7,21.6l-1.4,2l-1.4-1.2l1.4-2L133.7,21.6z M130.6,22.1l-1.4-1.3l1.5-2
				l1.4,1.3L130.6,22.1z M130.3,22.5l-1.5,2.1l-1.5-1.3l1.6-2.2L130.3,22.5z M126.9,23l-1.6-1.4l1.7-2.2l1.5,1.4L126.9,23z
				 M126.6,23.4l-1.7,2.3l-1.7-1.4L125,22L126.6,23.4z M122.8,24l-1.8-1.5l1.9-2.4l1.7,1.5L122.8,24z M122.5,24.4l-1.9,2.5l-1.9-1.4
				l2-2.5L122.5,24.4z M118.2,25.2l-2.1-1.5l2.1-2.5l2,1.6L118.2,25.2z M115.7,23.3l-2.2-1.6l2.3-2.6l2.1,1.7L115.7,23.3z
				 M115.4,23.7l-2.3,2.7l-2.4-1.6l2.4-2.7L115.4,23.7z M110.3,24.5l-2.5-1.7l2.6-2.8l2.4,1.8L110.3,24.5z M110,24.9l-2.6,2.9
				l-2.7-1.7l2.8-3L110,24.9z M104.2,25.9l-2.9-1.8l3-3l2.7,1.9L104.2,25.9z M103.9,26.2l-3,3.2l-3.1-1.8l3.2-3.3L103.9,26.2z
				 M97.3,27.4L94,25.5l3.4-3.3l3.1,2L97.3,27.4z M97.4,28l3.1,1.8l-3.2,3.5L94,31.5L97.4,28z M97.4,33.9l3.1,1.6l-3.2,3.6L94,37.6
				L97.4,33.9z M97.5,39.8l3.1,1.5l-3.2,3.8L94,43.7L97.5,39.8z M97.5,45.7l3.1,1.3l-3.2,4L94,49.8L97.5,45.7z M97.5,51.5l3.1,1.1
				l-3.2,4.2l-3.3-1L97.5,51.5z M101,52.8l2.8,1l-3,4.1l-3-0.9L101,52.8z M101.4,52.4l3-3.9l2.7,1.1l-2.8,3.8L101.4,52.4z
				 M107.5,49.9l2.5,1l-2.7,3.7l-2.6-1L107.5,49.9z M107.8,49.4l2.6-3.5l2.3,1.1l-2.5,3.5L107.8,49.4z M113.2,47.2l2.2,1l-2.3,3.4
				l-2.3-1L113.2,47.2z M113.5,46.8l2.3-3.2l2,1.1l-2.2,3.2L113.5,46.8z M118.3,44.9l1.9,1l-2.1,3.1l-2-1L118.3,44.9z M118.6,44.5
				l2.1-3l1.8,1l-2,2.9L118.6,44.5z M122.9,42.8l1.7,1l-1.8,2.9l-1.8-0.9L122.9,42.8z M123.2,42.4l1.8-2.8l1.6,1l-1.7,2.7
				L123.2,42.4z M127,40.9l1.5,0.9l-1.7,2.7l-1.6-0.9L127,40.9z M127.3,40.5l1.6-2.6l1.4,1l-1.6,2.5L127.3,40.5z M130.7,39.2
				l1.3,0.9l-1.5,2.5l-1.4-0.9L130.7,39.2z M131,38.7l1.5-2.4l1.3,0.9l-1.4,2.3L131,38.7z M134.1,37.6l1.2,0.9l-1.3,2.3l-1.2-0.9
				L134.1,37.6z M134.4,37.2l1.3-2.2l1.1,0.9l-1.3,2.2L134.4,37.2z M135.6,34.2l-1.2-0.9l1.3-2.1l1.1,1L135.6,34.2z M135.6,30.4
				l-1.2-1l1.3-2l1.1,1L135.6,30.4z M135.6,26.6l-1.2-1.1l1.3-2l1.2,1.1L135.6,26.6z M135.6,22.7l-1.2-1.2l1.3-1.9l1.2,1.2
				L135.6,22.7z M135.6,18.9l-1.2-1.2l1.3-1.8l1.2,1.3L135.6,18.9z M134,17.3l-1.3-1.3l1.4-1.8l1.2,1.3L134,17.3z M133.7,17.7
				l-1.4,1.9l-1.4-1.3l1.4-1.9L133.7,17.7z M130.6,18l-1.5-1.4l1.5-1.9l1.4,1.4L130.6,18z M130.3,18.4l-1.5,2l-1.5-1.4l1.6-2.1
				L130.3,18.4z M126.9,18.7l-1.6-1.5l1.7-2.1l1.6,1.5L126.9,18.7z M126.6,19.1l-1.7,2.2l-1.7-1.5l1.8-2.2L126.6,19.1z M122.8,19.5
				l-1.8-1.6l1.9-2.2l1.7,1.6L122.8,19.5z M122.5,19.9l-1.9,2.4l-2-1.6l2-2.4L122.5,19.9z M118.2,20.4l-2.1-1.7l2.1-2.4l2,1.7
				L118.2,20.4z M115.7,18.4l-2.2-1.8l2.3-2.4l2.1,1.8L115.7,18.4z M115.4,18.8l-2.3,2.6l-2.4-1.8l2.4-2.6L115.4,18.8z M110.3,19.3
				l-2.5-1.9l2.6-2.6l2.4,1.9L110.3,19.3z M110,19.7l-2.6,2.8l-2.7-1.9l2.8-2.8L110,19.7z M104.3,20.4l-2.9-2l3-2.9l2.7,2
				L104.3,20.4z M103.9,20.7l-3,3l-3.1-2l3.2-3.1L103.9,20.7z M97.4,21.5L94,19.4l3.4-3.1l3.1,2.2L97.4,21.5z M97,21.9l-3.4,3.3
				l-3.6-2.1l3.7-3.4L97,21.9z M93.6,25.8l3.4,2l-3.5,3.5l-3.6-1.9L93.6,25.8z M93.6,31.9l3.4,1.8l-3.5,3.7l-3.6-1.7L93.6,31.9z
				 M93.6,38l3.3,1.6l-3.5,3.9L89.9,42L93.6,38z M93.6,44.1l3.3,1.4l-3.5,4.1l-3.6-1.3L93.6,44.1z M93.7,50.2l3.3,1.2l-3.5,4.3
				l-3.6-1.1L93.7,50.2z M93.7,56.2l3.3,1l-3.5,4.5l-3.5-0.9L93.7,56.2z M93.7,62.3l3.3,0.8l-3.5,4.7l-3.5-0.7L93.7,62.3z M94,61.9
				l3.5-4.5l3.1,0.9l-3.3,4.4L94,61.9z M101,58.5l2.8,0.9l-3,4.2l-3-0.8L101,58.5z M101.4,58.1l3-4l2.6,1l-2.8,4L101.4,58.1z
				 M107.5,55.2l2.5,0.9l-2.7,3.9l-2.6-0.8L107.5,55.2z M107.8,54.8l2.6-3.7l2.3,1l-2.5,3.6L107.8,54.8z M113.2,52.3l2.2,0.9
				l-2.3,3.5l-2.3-0.8L113.2,52.3z M113.5,51.8l2.3-3.4l2,1l-2.2,3.3L113.5,51.8z M118.3,49.6l1.9,0.9l-2.1,3.2l-2-0.8L118.3,49.6z
				 M118.6,49.2l2.1-3.1l1.8,0.9l-2,3.1L118.6,49.2z M122.9,47.3l1.7,0.9l-1.9,3l-1.8-0.8L122.9,47.3z M123.2,46.9L125,44l1.6,0.9
				l-1.7,2.8L123.2,46.9z M127,45.2l1.5,0.9l-1.7,2.8l-1.6-0.8L127,45.2z M127.3,44.7l1.6-2.6l1.4,0.9l-1.6,2.6L127.3,44.7z
				 M130.7,43.3l1.3,0.8l-1.5,2.6l-1.4-0.8L130.7,43.3z M131,42.8l1.5-2.5l1.3,0.9l-1.4,2.4L131,42.8z M134.1,41.5l1.2,0.8l-1.3,2.4
				l-1.2-0.8L134.1,41.5z M134.4,41.1l1.3-2.3l1.1,0.8l-1.3,2.3L134.4,41.1z M137.3,39.9l1.1,0.8l-1.2,2.2l-1.1-0.8L137.3,39.9z
				 M137.1,39.2l-1.1-0.8l1.3-2.2l1.1,0.8L137.1,39.2z M137.1,35.4l-1.1-0.9l1.3-2.1l1.1,0.9L137.1,35.4z M137.1,31.7l-1.1-1l1.2-2
				l1.1,1L137.1,31.7z M137.1,27.9l-1.1-1l1.2-1.9l1.1,1L137.1,27.9z M137.1,24.2l-1.1-1.1l1.2-1.9l1.1,1.1L137.1,24.2z M137.1,20.4
				l-1.2-1.2l1.2-1.8l1.1,1.2L137.1,20.4z M137.1,16.7l-1.2-1.2l1.2-1.7l1.1,1.3L137.1,16.7z M137.2,13l-1.2-1.3l1.2-1.6l1.1,1.3
				L137.2,13z M136.9,13.4l-1.2,1.7l-1.2-1.3l1.3-1.7L136.9,13.4z M134,13.4l-1.3-1.4l1.3-1.7l1.3,1.4L134,13.4z M133.7,13.8
				l-1.4,1.8l-1.4-1.4l1.4-1.8L133.7,13.8z M130.6,13.9l-1.5-1.5l1.5-1.9l1.4,1.5L130.6,13.9z M130.3,14.3l-1.5,2l-1.5-1.5l1.6-2
				L130.3,14.3z M126.9,14.4l-1.6-1.6l1.7-2l1.6,1.6L126.9,14.4z M126.6,14.8l-1.7,2.1l-1.7-1.6l1.8-2.1L126.6,14.8z M122.8,15
				l-1.8-1.7l1.9-2.1l1.8,1.7L122.8,15z M122.5,15.4l-1.9,2.3l-2-1.7l2-2.3L122.5,15.4z M118.2,15.6l-2.1-1.8l2.1-2.3l2,1.8
				L118.2,15.6z M115.7,13.5l-2.2-1.9l2.3-2.3l2.1,1.9L115.7,13.5z M115.4,13.9l-2.3,2.5l-2.4-1.9l2.4-2.5L115.4,13.9z M110.3,14.1
				l-2.5-2l2.6-2.5l2.4,2L110.3,14.1z M110,14.5l-2.6,2.6l-2.7-2l2.8-2.7L110,14.5z M104.3,14.8l-2.9-2.2l3-2.7l2.7,2.2L104.3,14.8z
				 M103.9,15.2l-3,2.9l-3.1-2.2L101,13L103.9,15.2z M97.4,15.6L94,13.3l3.4-2.9l3.2,2.3L97.4,15.6z M97,16l-3.4,3.1l-3.6-2.3
				l3.7-3.2L97,16z M89.5,16.5L85.5,14l4-3.2l3.7,2.5L89.5,16.5z M89.5,17.1l3.7,2.3l-3.7,3.4l-3.9-2.3L89.5,17.1z M89.5,23.4
				l3.6,2.1l-3.7,3.6l-3.9-2.1L89.5,23.4z M89.5,29.7l3.6,1.9l-3.7,3.8l-3.9-1.8L89.5,29.7z M89.5,36.1l3.6,1.7l-3.7,4l-3.9-1.6
				L89.5,36.1z M89.6,42.4l3.6,1.5l-3.7,4.2l-3.9-1.4L89.6,42.4z M89.6,48.7l3.6,1.3l-3.7,4.4l-3.9-1.2L89.6,48.7z M89.6,55l3.6,1.1
				l-3.8,4.6l-3.9-1L89.6,55z M89.6,61.3l3.6,0.9L89.4,67l-3.8-0.8L89.6,61.3z M89.6,67.6l3.5,0.7l-3.8,5l-3.8-0.6L89.6,67.6z
				 M93.7,68.4l3.3,0.7L93.5,74l-3.5-0.5L93.7,68.4z M94,68l3.5-4.7l3,0.8l-3.3,4.5L94,68z M101.1,64.2l2.8,0.7l-3,4.4l-3-0.6
				L101.1,64.2z M101.4,63.8l3-4.2l2.6,0.8l-2.8,4.1L101.4,63.8z M107.5,60.5l2.5,0.8l-2.7,4l-2.6-0.7L107.5,60.5z M107.8,60.1
				l2.6-3.8l2.3,0.8l-2.5,3.8L107.8,60.1z M113.2,57.3l2.1,0.8l-2.3,3.7l-2.3-0.7L113.2,57.3z M113.5,56.9l2.3-3.5l2,0.8l-2.2,3.4
				L113.5,56.9z M118.3,54.4l1.9,0.8l-2.1,3.4l-2-0.7L118.3,54.4z M118.6,54l2.1-3.2l1.8,0.8l-2,3.2L118.6,54z M122.9,51.8l1.7,0.8
				l-1.9,3.1l-1.8-0.7L122.9,51.8z M123.2,51.4l1.8-3l1.6,0.8l-1.8,2.9L123.2,51.4z M127,49.5l1.5,0.8l-1.7,2.9l-1.6-0.7L127,49.5z
				 M127.3,49l1.6-2.7l1.4,0.8l-1.6,2.7L127.3,49z M130.8,47.3l1.3,0.8l-1.5,2.7l-1.4-0.7L130.8,47.3z M131,46.9l1.5-2.6l1.2,0.8
				l-1.4,2.5L131,46.9z M134.2,45.4l1.2,0.7l-1.4,2.5l-1.2-0.7L134.2,45.4z M134.4,45l1.3-2.4l1.1,0.8l-1.3,2.3L134.4,45z
				 M137.3,43.6l1,0.7l-1.2,2.3L136,46L137.3,43.6z M137.5,43.2l1.2-2.2l1,0.7l-1.2,2.2L137.5,43.2z M138.5,40.3l-1-0.8l1.2-2.1
				l1,0.8L138.5,40.3z M138.6,36.6l-1.1-0.8l1.2-2.1l1,0.9L138.6,36.6z M138.6,32.9l-1.1-0.9l1.2-2l1,0.9L138.6,32.9z M138.6,29.2
				l-1.1-1l1.2-1.9l1,1L138.6,29.2z M138.6,25.6l-1.1-1l1.2-1.8l1,1L138.6,25.6z M138.6,21.9l-1.1-1.1l1.2-1.8l1,1.1L138.6,21.9z
				 M138.6,18.2l-1.1-1.2l1.2-1.7l1.1,1.2L138.6,18.2z M138.6,14.6l-1.1-1.2l1.2-1.6l1.1,1.2L138.6,14.6z M138.6,10.9l-1.1-1.3
				l1.1-1.5l1.1,1.3L138.6,10.9z M137.2,9.2L136,7.8l1.2-1.5l1.1,1.4L137.2,9.2z M136.9,9.6l-1.2,1.6l-1.2-1.4l1.3-1.6L136.9,9.6z
				 M134.1,9.5L132.7,8l1.3-1.7l1.3,1.5L134.1,9.5z M133.7,9.9l-1.4,1.7l-1.4-1.5l1.4-1.7L133.7,9.9z M130.7,9.8l-1.5-1.6l1.5-1.8
				l1.4,1.6L130.7,9.8z M130.3,10.2l-1.5,1.9l-1.6-1.6l1.6-1.9L130.3,10.2z M126.9,10.1l-1.7-1.7l1.7-1.9l1.6,1.7L126.9,10.1z
				 M126.6,10.5l-1.7,2l-1.7-1.7l1.8-2L126.6,10.5z M122.8,10.5l-1.9-1.8l1.9-2l1.8,1.8L122.8,10.5z M122.5,10.8l-1.9,2.1l-2-1.8
				l2-2.1L122.5,10.8z M118.2,10.9L116.1,9l2.1-2.2l2,1.9L118.2,10.9z M115.8,8.6l-2.2-2l2.3-2.2l2.1,2L115.8,8.6z M115.4,9
				l-2.3,2.3l-2.4-2l2.4-2.3L115.4,9z M110.4,9l-2.6-2.2l2.6-2.3l2.4,2.2L110.4,9z M110,9.3l-2.6,2.5l-2.7-2.2l2.8-2.5L110,9.3z
				 M104.3,9.3L101.3,7l2.9-2.5l2.8,2.3L104.3,9.3z M103.9,9.7l-3,2.7L97.8,10l3.2-2.7L103.9,9.7z M97.4,9.7L94,7.2l3.4-2.7l3.2,2.5
				L97.4,9.7z M97,10.1L93.6,13l-3.7-2.5l3.7-3L97,10.1z M89.5,10.2l-4-2.7l4-3l3.7,2.7L89.5,10.2z M89.1,10.5l-4,3.2L80.8,11
				l4.3-3.2L89.1,10.5z M85.1,14.3l4,2.5l-4,3.4l-4.3-2.5L85.1,14.3z M85.1,20.9l3.9,2.3l-4,3.7l-4.3-2.2L85.1,20.9z M85.1,27.4
				l3.9,2.1l-4,3.9l-4.2-2L85.1,27.4z M85.2,34l3.9,1.8l-4,4.1l-4.2-1.8L85.2,34z M85.2,40.5l3.9,1.6l-4,4.3L80.8,45L85.2,40.5z
				 M85.2,47.1l3.9,1.4L85,53l-4.2-1.3L85.2,47.1z M85.2,53.6l3.9,1.2l-4,4.8l-4.2-1.1L85.2,53.6z M85.2,60.2l3.9,1l-4.1,5l-4.2-0.8
				L85.2,60.2z M85.2,66.7l3.8,0.8L85,72.7l-4.2-0.6L85.2,66.7z M85.2,73.2l3.8,0.6L85,79.3l-4.1-0.4L85.2,73.2z M87.7,79.7l0-0.2
				l-2.1-0.2l4-5.4l3.5,0.5l-2.1,2.9l0.2,0.1L87.7,79.7z M91.9,77l1.8-2.6l1.8,0.3L91.9,77z M95.8,74.5l0-0.2L94,74l3.5-4.9l3,0.6
				l-1.8,2.6l0.2,0.1L95.8,74.5z M99.5,72.1l1.5-2.2l1.5,0.3L99.5,72.1z M102.9,70l0-0.2l-1.6-0.3l3-4.4l2.6,0.7l-1.6,2.4l0.2,0.1
				L102.9,70z M106.2,67.9l1.3-2l1.3,0.3L106.2,67.9z M109.1,66l0.1-0.2l-1.4-0.3l2.6-4l2.3,0.7l-1.4,2.2l0.2,0.1L109.1,66z
				 M112.1,64.1l1.1-1.8l1.1,0.3L112.1,64.1z M114.7,62.4l0.1-0.2l-1.2-0.4l2.3-3.6l2,0.7l-1.2,2l0.2,0.1L114.7,62.4z M117.4,60.7
				l1-1.6l0.9,0.3L117.4,60.7z M119.6,59.3l0.1-0.2l-1.1-0.4l2.1-3.3l1.8,0.7l-1.1,1.8l0.2,0.1L119.6,59.3z M122.1,57.7l0.8-1.4
				l0.8,0.3L122.1,57.7z M124.1,56.4l0.1-0.2l-1-0.4l1.8-3.1l1.6,0.7l-1,1.7l0.2,0.1L124.1,56.4z M126.3,55l0.7-1.3l0.7,0.3
				L126.3,55z M128.1,53.9l0.1-0.2l-0.9-0.4l1.7-2.8l1.4,0.7l-0.9,1.6l0.2,0.1L128.1,53.9z M130.1,52.5l0.6-1.1l0.6,0.3L130.1,52.5z
				 M131.7,51.5l0.1-0.1L131,51l1.5-2.6l1.2,0.7l-0.8,1.5l0.2,0.1L131.7,51.5z M133.6,50.3l0.6-1l0.5,0.3L133.6,50.3z M135,49.4
				l0.1-0.1l-0.7-0.4l1.3-2.5l1.1,0.7l-0.8,1.4l0.2,0.1L135,49.4z M136.8,48.3l0.5-0.9l0.5,0.3L136.8,48.3z M138.1,47.5l0.1-0.1
				l-0.6-0.4l1.2-2.3l1,0.7l-0.7,1.3l0.2,0.1L138.1,47.5z M139.7,46.4l0.4-0.8l0.4,0.3L139.7,46.4z M141,45.6L141,45.6L141,45.6
				l-0.6-0.5L141,44V45.6z M141,43.2l-0.1-0.1l-0.9,1.7l-1-0.7l1.2-2.2l0.8,0.6l0-0.1V43.2z M141,42l-0.6-0.4l0.6-1.1V42z M141,39.7
				l-0.1-0.1l-0.9,1.7l-1-0.7l1.2-2.1l0.8,0.6L141,39V39.7z M141,38.5l-0.6-0.5l0.6-1.1V38.5z M141,36.1l-0.1-0.1l-0.9,1.6l-1-0.8
				l1.1-2l0.8,0.7l0.1-0.1V36.1z M141,34.9l-0.6-0.5l0.6-1.1V34.9z M141,32.6l-0.1-0.1l-0.9,1.6l-1-0.9l1.1-2l0.8,0.7l0.1-0.1V32.6z
				 M141,31.4l-0.6-0.6l0.6-1V31.4z M141,29.1l-0.1-0.1l-0.9,1.5l-1-0.9l1.1-1.9l0.8,0.8l0.1-0.1V29.1z M141,27.8l-0.6-0.6l0.6-1
				V27.8z M141,25.5l-0.1-0.1l-0.9,1.4l-1-1l1.1-1.8l0.8,0.8l0.1-0.1V25.5z M141,24.3l-0.6-0.6l0.6-1V24.3z M141,22l-0.1-0.1
				l-0.9,1.4l-1-1l1.1-1.7l0.8,0.9l0.1-0.1V22z M141,20.8l-0.6-0.7l0.6-1V20.8z M141,18.5l-0.1-0.1l-0.9,1.3l-1-1.1l1.1-1.7l0.8,0.9
				l0.1-0.1V18.5z M141,17.2l-0.6-0.7l0.6-0.9V17.2z M141,14.9l-0.1-0.1l-0.8,1.3l-1-1.2l1.1-1.6l0.8,1l0.1-0.1V14.9z M141,13.7
				l-0.6-0.7l0.6-0.9V13.7z M141,11.4l-0.1-0.1l-0.8,1.2l-1.1-1.2l1.1-1.5l0.8,1l0.1-0.1V11.4z M141,10.1l-0.6-0.8l0.6-0.9V10.1z
				 M141,7.9l-0.1-0.1L140,9l-1.1-1.3l1.1-1.5l0.8,1.1l0.1-0.1V7.9z M141,6.6l-0.6-0.8L141,5V6.6z M141,3.7v0.6l-0.1-0.1L140,5.4
				L138.9,4l0.1-0.1l-0.2-0.2L141,3.7z M139.7,5.8l-1.1,1.5l-1.1-1.4l1.1-1.5L139.7,5.8z M138.4,3.7l-0.2,0.2l0.1,0.1l-1.1,1.5
				L136,4l0.1-0.1l-0.2-0.2L138.4,3.7z M136.9,5.9l-1.2,1.6L134.4,6l1.3-1.6L136.9,5.9z M135.4,3.7l-0.2,0.2l0.1,0.1l-1.3,1.6
				L132.7,4l0.1-0.1l-0.2-0.2L135.4,3.7z M133.7,6l-1.3,1.7L131,6.1l1.4-1.7L133.7,6z M132.2,3.7L132,3.9l0.1,0.1l-1.4,1.7L129.2,4
				l0.1-0.1l-0.2-0.2L132.2,3.7z M130.3,6.1l-1.5,1.8l-1.6-1.7l1.6-1.8L130.3,6.1z M128.6,3.7l-0.2,0.2l0.1,0.1l-1.6,1.8l-1.7-1.8
				l0.1-0.1l-0.2-0.2L128.6,3.7z M126.6,6.2l-1.7,1.9l-1.8-1.8l1.8-1.9L126.6,6.2z M124.6,3.7l-0.2,0.2l0.1,0.1L122.8,6l-1.9-1.9
				l0.2-0.2l-0.2-0.2L124.6,3.7z M122.5,6.3l-1.9,2l-2-1.9l2-2L122.5,6.3z M116.1,3.7l4.1,0l-0.2,0.2l0.2,0.2l-2,2l-2.1-2l0.2-0.2
				L116.1,3.7z M115.8,3.7L115.8,3.7L115.8,3.7L115.8,3.7z M110.8,3.7l4.6,0l-0.2,0.2l0.2,0.2l-2.3,2.2l-2.4-2.2l0.2-0.2L110.8,3.7z
				 M110.4,3.7L110.4,3.7L110.4,3.7L110.4,3.7z M104.7,3.7l5.2,0l-0.2,0.2l0.2,0.2l-2.6,2.4l-2.7-2.3l0.2-0.2L104.7,3.7z M104.4,3.7
				L104.4,3.7h-0.2H104.4z M97.9,3.7l5.9,0l-0.2,0.2l0.2,0.2l-3,2.5l-3.2-2.5l0.3-0.2L97.9,3.7z M97.5,3.7l-0.1,0.1l-0.1-0.1
				L97.5,3.7z M90.1,3.7l6.8,0l-0.2,0.2L97,4.2l-3.4,2.7l-3.7-2.7l0.3-0.2L90.1,3.7z M89.7,3.7l-0.2,0.1l-0.2-0.1L89.7,3.7z
				 M81.1,3.8l7.8,0l-0.1,0.2l0.3,0.3l-4,3l-4.3-2.9L81.2,4L81.1,3.8z M80.6,3.8l-0.3,0.2l-0.3-0.2L80.6,3.8z M77.7,3.8l1.9,0
				L79.5,4l0.4,0.3l-2.2,1.5V3.8z M77.7,6.1l0.1,0.2l2.5-1.7l4.3,3l-4.3,3.2l-2.5-1.6l-0.1,0.2V6.1z M77.7,9.7l2.2,1.4l-2.2,1.6V9.7
				z M77.7,13l0.2,0.2l2.5-1.9l4.3,2.7l-4.3,3.5l-2.5-1.4l-0.1,0.2V13z M77.7,16.6l2.2,1.3l-2.2,1.8V16.6z M77.7,20l0.2,0.2l2.5-2
				l4.3,2.5l-4.3,3.7L77.9,23l-0.1,0.2V20z M77.7,23.5l2.2,1.2l-2.2,1.9V23.5z M77.7,26.9l0.2,0.2l2.5-2.1l4.3,2.2l-4.3,4L77.8,30
				l-0.1,0.2V26.9z M77.7,30.5l2.2,1l-2.2,2V30.5z M77.7,33.8l0.2,0.2l2.5-2.3l4.3,2L80.3,38l-2.5-1l-0.1,0.2V33.8z M77.7,37.4
				l2.2,0.9l-2.2,2.1V37.4z M77.7,40.8l0.2,0.2l2.5-2.4l4.2,1.8l-4.4,4.4l-2.5-0.9l-0.1,0.2V40.8z M77.7,44.4l2.2,0.8l-2.2,2.2V44.4
				z M77.7,47.7l0.2,0.2l2.5-2.6l4.2,1.5l-4.4,4.7l-2.5-0.8L77.7,51V47.7z M77.7,51.3l2.2,0.7l-2.2,2.3V51.3z M77.7,54.7l0.2,0.2
				l2.5-2.7l4.2,1.3l-4.4,4.9l-2.5-0.6L77.7,58V54.7z M77.7,58.2l2.2,0.6l-2.2,2.4V58.2z M77.7,61.6l0.2,0.2l2.5-2.8l4.2,1.1
				l-4.4,5.2l-2.5-0.5l0,0.2V61.6z M77.7,65.2l2.2,0.4l-2.2,2.6V65.2z M77.7,68.6l0.2,0.2l2.5-3l4.2,0.8L80.3,72l-2.5-0.4l0,0.2
				V68.6z M77.7,72.1l2.2,0.3l-2.2,2.7V72.1z M77.7,75.5l0.2,0.2l2.5-3.1l4.2,0.6l-4.4,5.7l-2.5-0.2l0,0.2V75.5z M77.7,79.1l2.2,0.2
				l-2.2,2.8V79.1z M77.7,82.5l0.2,0.2l2.5-3.3l4.2,0.4l-2.4,3.2l0.2,0.1l-4.7,3V82.5z M145,4h-1.3c0,0,0,0,0,0V1.8
				c0-0.4-0.3-0.8-0.8-0.8H75.6c-0.4,0-0.8,0.3-0.8,0.8V7c0,0-0.1,0-0.1,0h-3.1c0,0,0,0,0,0V1.8c0-0.4-0.3-0.8-0.8-0.8H3.5
				C3.1,1,2.8,1.3,2.8,1.8v45.1c0,0.3,0.1,0.5,0.3,0.6l67.4,43.2c0.1,0.1,0.3,0.1,0.4,0.1c0,0,0.1,0,0.1,0l0,3.3
				c0,0.3,0.1,0.5,0.3,0.6l1.5,1c0.1,0.1,0.3,0.1,0.4,0.1s0.3,0,0.4-0.1l1.6-1c0.2-0.1,0.3-0.4,0.3-0.6l0-3.3c0,0,0.1,0,0.1,0
				c0.1,0,0.3,0,0.4-0.1L143,47.7c0.1,0.2,0.2,0.3,0.3,0.4c0.1,0.1,0.2,0.1,0.4,0.1c0.1,0,0.3,0,0.4-0.1l1.3-0.8
				c0.2-0.1,0.4-0.4,0.4-0.6V4.8C145.7,4.4,145.4,4,145,4z M70.9,90L3.5,46.8V1.8h67.4V90z M73,94.9L71.7,94l0-86.4H73V94.9z
				 M73.8,94.7v-87h1l0,86.4L73.8,94.7z M142.9,46.8L75.6,90V1.8h67.3V46.8z M145,46.7l-1.3,0.8V4.8h1.3V46.7z"/>
		</g>
	</g>
	<path id="XMLID_20_" class="st0" d="M142.9,1.8v3h2.1v41.9l-1.3,0.8l-0.8-0.7v0L75.6,90v-2.7l-0.5,0.3l0,6.4l-1.9,1l-1.8-1l0-6.5
		l-0.6-0.3V90L3.5,46.9v0l-0.8,0.6l-1-0.8V4.8h1.8v-3h67.4v5.9h4.8V1.8H142.9 M142.9,0H75.6c-1,0-1.8,0.8-1.8,1.8v4.2h-1.3V1.8
		c0-1-0.8-1.8-1.8-1.8H3.5c-1,0-1.7,0.8-1.7,1.8V3h0C0.8,3,0,3.8,0,4.8v41.9c0,0.5,0.2,1,0.7,1.4l1,0.8c0.3,0.3,0.7,0.4,1.1,0.4
		c0.3,0,0.6-0.1,0.9-0.2l66.1,42.3l0,2.7c0,0.6,0.3,1.2,0.9,1.5l1.8,1c0.3,0.1,0.6,0.2,0.8,0.2c0.3,0,0.6-0.1,0.8-0.2l1.9-1
		c0.6-0.3,0.9-0.9,0.9-1.6l0-2.8L142.8,49c0.3,0.2,0.6,0.2,0.9,0.2c0.3,0,0.6-0.1,0.9-0.3l1.3-0.8c0.5-0.3,0.8-0.9,0.8-1.5V4.8
		c0-1-0.8-1.8-1.8-1.8h-0.3V1.8C144.7,0.8,143.9,0,142.9,0L142.9,0z"/>
</g>
</svg>
