<?xml version="1.0" encoding="utf-8"?>
<!-- Generator: Adobe Illustrator 19.0.0, SVG Export Plug-In . SVG Version: 6.00 Build 0)  -->
<svg version="1.1" id="Layer_1" xmlns="http://www.w3.org/2000/svg" xmlns:xlink="http://www.w3.org/1999/xlink" x="0px" y="0px"
	 width="137.3px" height="95.9px" viewBox="0 0 137.3 95.9" style="enable-background:new 0 0 137.3 95.9;" xml:space="preserve">
<style type="text/css">
	.st0{fill:#EFBC5C;}
	.st1{fill:#E9C365;}
	.st2{opacity:0.7;}
	.st3{fill:#FFFFFF;}
</style>
<g id="XMLID_328_">
	<g id="XMLID_757_">
		<g id="XMLID_1184_">
			<g id="XMLID_973_">
				<path id="XMLID_974_" class="st0" d="M3.5,52.1h1.9V9.5H3.5V52.1z M133.6,9.5v42.7h2V9.5H133.6z M128.5,10.5
					c0.2-0.1,0.4-0.2,0.4-0.3c0-0.1-0.2-0.2-0.4-0.2V9.5c0.4-0.2,0.7-0.7,0.7-1.3c0-0.8-0.4-1.4-1-1.4c-0.6,0-1,0.6-1,1.4
					c0,0.5,0.2,0.9,0.5,1.1v0.7c-0.1,0.1-0.2,0.1-0.2,0.2c0,0.1,0.1,0.1,0.2,0.2v5.4l-3,0.4v-5.7c0.2-0.1,0.2-0.1,0.2-0.2
					s-0.1-0.2-0.2-0.2V9.5c0.3-0.3,0.5-0.7,0.5-1.2c0-0.8-0.5-1.4-1.1-1.4c-0.6,0-1.1,0.6-1.1,1.4c0,0.6,0.3,1.2,0.8,1.4v0.5
					c-0.3,0.1-0.5,0.2-0.5,0.3s0.2,0.2,0.5,0.3v5.7l-4.1,0.5v-6c0.3-0.1,0.5-0.2,0.5-0.3c0-0.1-0.2-0.2-0.5-0.3V9.7
					c0.5-0.2,0.8-0.8,0.8-1.4c0-0.8-0.5-1.5-1.2-1.5c-0.7,0-1.2,0.7-1.2,1.5c0,0.5,0.2,0.9,0.5,1.2v0.9c-0.1,0.1-0.2,0.1-0.2,0.2
					c0,0.1,0.1,0.1,0.2,0.2V17l-4.5,0.6V11c0.2-0.1,0.4-0.2,0.4-0.3c0-0.1-0.2-0.2-0.4-0.2V9.8c0.4-0.3,0.6-0.8,0.6-1.4
					c0-0.9-0.6-1.6-1.3-1.6c-0.7,0-1.3,0.7-1.3,1.6c0,0.7,0.3,1.2,0.8,1.4v0.7c-0.3,0.1-0.6,0.2-0.6,0.3s0.2,0.2,0.6,0.3v6.6
					l-4.5,0.6v-7c0.2-0.1,0.3-0.2,0.3-0.3c0-0.1-0.1-0.2-0.3-0.2v-1c0.4-0.3,0.6-0.8,0.6-1.3c0-0.9-0.6-1.6-1.4-1.6
					c-0.8,0-1.5,0.7-1.5,1.7c0,0.6,0.3,1.2,0.8,1.5v0.8c-0.3,0.1-0.6,0.2-0.6,0.3c0,0.1,0.2,0.2,0.6,0.3v7.1l-6,0.8v-7.6
					c0.4-0.1,0.7-0.2,0.7-0.4c0-0.1-0.3-0.3-0.7-0.3v-0.8c0.6-0.3,0.9-0.9,0.9-1.6c0-1-0.7-1.7-1.6-1.7c-0.9,0-1.6,0.8-1.6,1.8
					c0,0.6,0.3,1.2,0.8,1.5v1c-0.3,0.1-0.6,0.2-0.6,0.3s0.2,0.2,0.6,0.3v7.8l-7,0.9v-8.5c0.5-0.1,0.8-0.2,0.8-0.4
					c0-0.2-0.3-0.3-0.8-0.3v-0.8c0.6-0.3,1.1-1,1.1-1.7c0-1-0.8-1.8-1.8-1.8c-1,0-1.8,0.8-1.8,1.9c0,0.7,0.4,1.4,1,1.7v0.9
					c-0.6,0.1-1,0.2-1,0.4c0,0.2,0.4,0.3,1,0.3v8.7l-7.8,1v-8.7c0.6-0.1,1-0.3,1-0.4c0-0.2-0.4-0.3-1-0.4v-1.3
					c0.7-0.3,1.2-1,1.2-1.8c0-1.1-0.9-2-2.1-2c-1.2,0-2.1,0.9-2.1,2c0,0.7,0.4,1.3,1,1.7v1.5c-0.5,0.1-0.9,0.3-0.9,0.4
					c0,0.2,0.3,0.3,0.9,0.3v8.9l-10.4,1.3v-9.7h-2.2v80.8h2.2v-9.1l10.4-6.1v7.4h2v-8.5l7.8-4.6v6.9h1.5v-7.8l7-4.1V75h1.5v-7.4
					l6-3.5v6.1h1.5v-7l4.5-2.6v5.3h1.2v-6l4.5-2.6v4.9h1.1v-5.6l4.1-2.4V59l0.9-0.1v-5.2l3-1.7v4.8h0.9v-5.3l4.6-2.7v-1.1l-4.6,2.6
					v-3l0.3-0.2c0.1,1,0.7,1.5,1.3,1.5c0.2,0,0.4-0.1,0.7-0.2c0.9-0.5,1.6-1.9,1.6-3.3c0-1.2-0.5-2-1.3-2c-0.2,0-0.4,0-0.6,0.1
					c-0.9,0.4-1.5,1.7-1.6,3c0,0,0,0-0.1,0l-0.2,0.1v-2.6l4.6-2.2v-1.1l-4.6,2.2V23.8l4.7-1.1v-1.1l-4.7,1v-2.3l0.4-0.1c0,0,0,0,0,0
					c0.1,1.1,0.8,1.9,1.6,1.9c0,0,0,0,0,0c0.1,0,0.2,0,0.3,0c0.9-0.2,1.7-1.4,1.7-2.8c0-1.4-0.8-2.5-1.8-2.4
					c-0.9,0.1-1.7,1.3-1.7,2.6c0,0-0.1,0-0.1,0l-0.3,0v-2.7l4.7-0.7v-1.1l-4.7,0.6V10.5z M80.9,71.4l-0.4,0.2
					c-0.3-1.1-1.2-1.7-2.4-1.7c-0.7,0-1.4,0.2-2.1,0.6c-2.5,1.3-4.6,4.2-4.6,6.5c0,1.6,1,2.6,2.5,2.6c0.8,0,1.6-0.3,2.5-0.7
					c2.4-1.3,4.3-4.1,4.3-6.4c0,0,0-0.1,0-0.1c0,0,0.1,0,0.1,0l0.1-0.1v5l-10.4,5.9V72l10.4-5.1V71.4z M79.9,72.5
					c0,1.9-1.8,4.5-3.9,5.7c-0.7,0.4-1.5,0.6-2.1,0.6c-1.1,0-1.7-0.7-1.7-1.9c0-2,1.9-4.7,4.2-5.8c0.6-0.3,1.3-0.5,1.8-0.5
					C79.3,70.7,79.9,71.4,79.9,72.5z M80.9,65.1l-10.4,4.9V37.2l10.4-2.4V65.1z M80.9,27.1c-0.5-1.8-2.2-3-4.4-2.7
					c-2.6,0.4-4.7,2.8-4.7,5.3c0,2.2,1.6,3.8,3.8,3.8c0.3,0,0.7,0,1-0.1c2.1-0.4,3.8-2.1,4.2-4.1v3.6l-10.4,2.3V25.1l10.4-1.5V27.1z
					 M80.3,28.3c-0.1,2-1.7,4-3.8,4.4c-0.3,0.1-0.6,0.1-0.9,0.1c-1.8,0-3.1-1.3-3.1-3.1c0-2.1,1.9-4.2,4.1-4.5c0.2,0,0.4,0,0.6,0
					c1.7,0,2.9,1.1,3.1,2.7c-0.1,0.1-0.1,0.2-0.1,0.3C80.3,28.2,80.3,28.2,80.3,28.3z M90.8,71.7l-7.8,4.5v-4.9l0.1-0.1
					c0.1,1.4,1,2.2,2.2,2.2c0.6,0,1.3-0.2,2-0.6c1.7-0.9,3-2.8,3.5-4.5V71.7z M83.8,70.9c0-1.9,1.6-4.2,3.5-5.1
					c0.5-0.2,1-0.4,1.4-0.4c1,0,1.5,0.7,1.5,1.8c0,1.8-1.5,4-3.3,5c-0.6,0.3-1.1,0.5-1.6,0.5C84.4,72.7,83.8,72,83.8,70.9z
					 M90.8,66.1c-0.3-0.9-1.1-1.4-2.1-1.4c-0.5,0-1.1,0.2-1.7,0.5c-1.9,1-3.5,3.2-3.8,5.2l-0.2,0.1V66l7.8-3.8V66.1z M90.8,60.5
					l-7.8,3.7V34.3l7.8-1.8V60.5z M90.8,30.8l-7.8,1.7v-4.4l0.3,0c0.2,1.8,1.5,3,3.3,3c0.3,0,0.5,0,0.8-0.1c1.6-0.3,2.9-1.5,3.5-3
					V30.8z M83.9,27.7c0-1.8,1.5-3.5,3.4-3.8c0.2,0,0.3,0,0.4,0c1.5,0,2.6,1.1,2.6,2.6c0,1.7-1.4,3.4-3.2,3.8
					c-0.2,0-0.4,0.1-0.6,0.1C85,30.3,83.9,29.2,83.9,27.7z M90.8,25.1c-0.6-1.3-1.9-2.2-3.6-2c-2.1,0.3-3.8,2.1-4,4.1c0,0,0,0-0.1,0
					l-0.2,0v-3.9l7.8-1.1V25.1z M99.3,66.8l-7,4v-4.5l0.4-0.2c0.2,1.1,0.9,1.8,2,1.8c0.5,0,1-0.2,1.6-0.5c1.4-0.8,2.5-2.3,2.9-3.8
					V66.8z M93.4,65.4c0-1.7,1.3-3.8,2.9-4.6c0.4-0.2,0.7-0.3,1.1-0.3c0.8,0,1.3,0.6,1.3,1.7c0,1.6-1.2,3.6-2.8,4.5
					c-0.4,0.2-0.9,0.4-1.2,0.4C93.9,67.1,93.4,66.5,93.4,65.4z M99.3,61.1c-0.3-0.8-1-1.3-1.9-1.3c-0.4,0-0.9,0.1-1.4,0.4
					c-1.8,0.9-3.2,3.1-3.3,5.1l-0.4,0.2v-4l7-3.4V61.1z M99.3,56.4l-7,3.3V32.2l7-1.6V56.4z M99.3,29l-7,1.5v-4l0.4-0.1
					c0.2,1.6,1.3,2.8,2.9,2.8c0.2,0,0.4,0,0.6-0.1c1.4-0.3,2.6-1.5,3-2.9V29z M93.4,26.1c0-1.6,1.3-3.2,2.8-3.4c0.1,0,0.2,0,0.3,0
					c1.3,0,2.2,1,2.2,2.4c0,1.6-1.2,3.1-2.6,3.4c-0.2,0-0.3,0-0.5,0C94.3,28.5,93.4,27.5,93.4,26.1z M99.3,23.9
					c-0.5-1.3-1.7-2.2-3.2-2c-1.8,0.2-3.2,1.9-3.4,3.8l-0.4,0.1V22l7-1V23.9z M106.8,62.6l-6,3.4v-4.1l0,0c0.2,1,0.9,1.6,1.8,1.6
					c0.4,0,0.9-0.1,1.3-0.4c1.4-0.8,2.6-2.7,2.7-4.4c0,0,0,0,0,0l0.1,0V62.6z M101.5,61C101.5,61,101.5,61,101.5,61
					c0-1.6,1.1-3.3,2.4-4c0.3-0.1,0.6-0.2,0.8-0.2c0.7,0,1.2,0.6,1.2,1.6c0,1.5-1.1,3.3-2.4,4c-0.3,0.2-0.7,0.3-1,0.3
					c-0.7,0-1-0.5-1.1-1.3C101.6,61.3,101.6,61.1,101.5,61z M106.8,57.8l-0.1,0.1c-0.2-1.1-0.9-1.8-1.9-1.8c-0.4,0-0.8,0.1-1.2,0.3
					c-1.5,0.7-2.7,2.6-2.8,4.3v-3.4l6-2.9V57.8z M106.8,52.9l-6,2.8V30.2l6-1.4V52.9z M106.8,27.4l-6,1.3v-3.5
					c0.2,1.5,1.2,2.5,2.6,2.5c0.2,0,0.3,0,0.5-0.1c1.5-0.3,2.7-1.8,2.8-3.6l0.1,0V27.4z M101.5,24.7c0-1.5,1.1-2.9,2.4-3.1
					c0.1,0,0.2,0,0.3,0c1.1,0,1.9,0.9,1.9,2.2c0,1.5-1,2.8-2.2,3.1c-0.1,0-0.3,0-0.4,0C102.3,26.9,101.5,26,101.5,24.7z M106.8,23.3
					l-0.1,0c-0.2-1.6-1.4-2.7-2.9-2.5c-1.5,0.2-2.8,1.7-3,3.4v-3.4l6-0.8V23.3z M112.8,59.2l-4.5,2.6v-2.4c0.3,0.3,0.6,0.4,1.1,0.4
					c0.4,0,0.7-0.1,1.1-0.3c1.1-0.6,2-2,2.3-3.4V59.2z M108.6,57.3c-0.1-0.1-0.1-0.2-0.2-0.2c0.2-1.3,1-2.8,2.1-3.3
					c0.2-0.1,0.5-0.2,0.7-0.2c0.6,0,1,0.6,1,1.5c0,1.4-0.9,3-2,3.7c-0.3,0.2-0.5,0.2-0.8,0.2c-0.5,0-0.9-0.5-1-1.2l0.1,0
					C108.6,57.7,108.7,57.5,108.6,57.3z M112.8,54.3c-0.2-0.9-0.8-1.4-1.7-1.4c-0.3,0-0.7,0.1-1,0.3c-0.7,0.4-1.4,1.1-1.8,1.9v-1.4
					l4.5-2.2V54.3z M112.8,50.1l-4.5,2.1V28.5l4.5-1V50.1z M112.8,26.1l-4.5,1v-1.9c0.4,0.7,1.1,1.1,1.8,1.1c0.1,0,0.3,0,0.4,0
					c1-0.2,1.8-1,2.2-2.1V26.1z M108.5,23.4c0-1.4,0.9-2.7,2-2.9c0.1,0,0.1,0,0.2,0c0.9,0,1.6,0.9,1.6,2.1c0,1.4-0.9,2.6-1.9,2.8
					C109.4,25.6,108.5,24.7,108.5,23.4z M112.8,21.2c-0.4-1-1.3-1.6-2.3-1.4c-0.9,0.1-1.7,0.8-2.2,1.7v-1.7l4.5-0.6V21.2z
					 M118.4,55.9l-4.5,2.6v-3.4c0.2,0.8,0.8,1.3,1.5,1.3c0.3,0,0.6-0.1,1-0.3c1-0.5,1.7-1.8,2-3V55.9z M114.7,54
					c0-0.1-0.1-0.1-0.2-0.2c0.1-1.3,0.9-2.6,1.8-3.1c0.2-0.1,0.4-0.1,0.5-0.1c0.5,0,0.9,0.6,0.9,1.4c0,1.3-0.8,2.8-1.8,3.3
					c-0.2,0.1-0.4,0.2-0.6,0.2c-0.5,0-0.8-0.4-0.8-1.1C114.8,54.4,114.8,54.2,114.7,54z M118.4,51.2c-0.2-0.8-0.8-1.3-1.5-1.3
					c-0.3,0-0.6,0.1-0.9,0.2c-1,0.5-1.8,1.8-2.1,3.1v-2.3l4.5-2.2V51.2z M118.4,47.4l-4.5,2.1V27.2l4.5-1V47.4z M118.4,24.8l-4.5,1
					v-2.6c0.3,1.1,1,1.8,2,1.8c0.1,0,0.2,0,0.4,0c1-0.2,1.8-1.2,2.1-2.4V24.8z M114.6,22.1c0.1-1.2,0.8-2.3,1.7-2.4
					c0.1,0,0.1,0,0.2,0c0.8,0,1.4,0.8,1.4,2c0,1.3-0.7,2.4-1.6,2.6c-0.1,0-0.2,0-0.2,0c-0.7,0-1.3-0.7-1.3-1.7
					c0.1-0.1,0.1-0.2,0.1-0.3C114.7,22.2,114.6,22.2,114.6,22.1z M118.4,20.8c-0.3-1.2-1.2-2-2.3-1.8c-1.1,0.1-1.9,1.2-2.2,2.4V19
					l4.5-0.6V20.8z M123.7,52.9l-4.1,2.3v-2.6c0.3,0.7,0.8,1.1,1.4,1.1c0.3,0,0.6-0.1,0.8-0.2c1-0.6,1.9-2.2,1.9-3.6V52.9z
					 M120.2,51.6c0,0,0-0.1,0-0.1c0-0.1,0-0.1,0-0.2c0.1-1.2,0.8-2.4,1.6-2.8c0.1-0.1,0.3-0.1,0.4-0.1c0.5,0,0.8,0.5,0.8,1.4
					c0,1.2-0.7,2.6-1.5,3.1c-0.2,0.1-0.3,0.1-0.5,0.1C120.5,53,120.2,52.5,120.2,51.6z M123.7,48.9L123.7,48.9
					c-0.3-0.7-0.8-1.2-1.5-1.2c-0.2,0-0.5,0.1-0.7,0.2c-0.8,0.4-1.5,1.5-1.9,2.6v-2.3l4.1-2V48.9z M123.7,44.9l-4.1,1.9v-21l4.1-0.9
					V44.9z M123.7,23.7l-4.1,0.9v-1.9c0.3,0.8,0.9,1.3,1.7,1.3c0.1,0,0.2,0,0.3,0c1-0.2,1.9-1.4,2-2.8l0.1,0V23.7z M120.1,21.3
					c0-1.2,0.7-2.2,1.5-2.3c0,0,0.1,0,0.1,0c0.7,0,1.2,0.8,1.2,1.8c0,1.2-0.7,2.3-1.4,2.4c-0.1,0-0.1,0-0.2,0
					c-0.6,0-1.1-0.7-1.2-1.7C120.1,21.5,120.1,21.4,120.1,21.3C120.1,21.4,120.1,21.3,120.1,21.3z M123.7,20.4l-0.1,0
					c-0.2-1.4-1-2.3-2.1-2.2c-0.8,0.1-1.5,0.8-1.9,1.8v-1.9l4.1-0.6V20.4z M127.6,50.7l-3,1.7v-1.7c0.3,0.3,0.6,0.4,0.9,0.4h0
					c0.2,0,0.5-0.1,0.7-0.2c0.6-0.3,1-0.9,1.3-1.7V50.7z M124.9,48.7C124.9,48.6,124.9,48.6,124.9,48.7c0.1-1.1,0.6-2.1,1.3-2.4
					c0.1-0.1,0.2-0.1,0.3-0.1c0.4,0,0.7,0.5,0.7,1.3c0,1.1-0.6,2.4-1.3,2.8c-0.1,0.1-0.3,0.1-0.4,0.1c-0.4,0-0.7-0.5-0.7-1.3
					C125,49,125,48.8,124.9,48.7z M127.6,46c-0.3-0.4-0.6-0.6-1-0.6c-0.2,0-0.4,0.1-0.7,0.2c-0.5,0.3-1,0.8-1.3,1.4v-1.4l3-1.5V46z
					 M127.6,43l-3,1.4V24.7l3-0.7V43z M127.6,22.9l-3,0.6v-1.1c0.3,0.4,0.8,0.7,1.3,0.7c0.1,0,0.2,0,0.3,0c0.6-0.1,1.1-0.6,1.5-1.3
					V22.9z M124.8,20.5c0-1.1,0.6-2,1.3-2.1c0,0,0.1,0,0.1,0c0.6,0,1,0.8,1,1.7c0,1.1-0.6,2.1-1.2,2.2c0,0-0.1,0-0.1,0
					c-0.5,0-1-0.7-1-1.5C124.9,20.7,124.9,20.6,124.8,20.5C124.9,20.5,124.9,20.5,124.8,20.5z M127.6,18.5c-0.4-0.6-0.9-1-1.6-0.9
					c-0.6,0.1-1.1,0.5-1.4,1.1v-1.2l3-0.4V18.5z M130.7,43.9c0.1,0,0.2-0.1,0.3-0.1c0.3,0,0.6,0.5,0.6,1.2c0,1.1-0.5,2.3-1.2,2.6
					c-0.1,0.1-0.2,0.1-0.3,0.1c-0.3,0-0.6-0.5-0.6-1.2C129.5,45.5,130.1,44.2,130.7,43.9z M130.8,17.7c0.5,0,0.9,0.7,0.9,1.6
					c0,1.1-0.6,2-1.1,2.1c-0.5,0.1-1-0.7-1-1.6C129.6,18.6,130.2,17.8,130.8,17.7z"/>
			</g>
		</g>
		<g id="XMLID_774_">
			<g id="XMLID_1327_">
				<path id="XMLID_1328_" class="st1" d="M132.7,52.1h0.8V9.5h-0.8V52.1z M69.8,10V8.5c1.1-0.6,1.8-1.7,1.8-3C71.6,3.5,70,2,68.1,2
					c-1.9,0-3.5,1.6-3.5,3.5c0,1.3,0.7,2.5,1.8,3V10c0,1.3-3.1,2.7-3.1,2.7v0.6h2.4V23l-9.7-1.2v-8.9c0.5-0.1,0.9-0.2,0.9-0.3
					c0-0.2-0.3-0.3-0.9-0.4v-1.5c0.6-0.3,1-1,1-1.7c0-1.1-0.9-2-2.1-2c-1.1,0-2.1,0.9-2.1,2c0,0.8,0.5,1.5,1.2,1.8V12
					c-0.6,0.1-1,0.2-1,0.4c0,0.2,0.4,0.3,1,0.4v8.7l-7.8-1v-8.7c0.6,0,1-0.2,1-0.3c0-0.2-0.4-0.3-1-0.4v-0.9c0.6-0.3,1-0.9,1-1.7
					c0-1-0.8-1.9-1.8-1.9c-1,0-1.8,0.8-1.8,1.8c0,0.8,0.5,1.4,1.1,1.7v0.8c-0.5,0.1-0.8,0.2-0.8,0.3c0,0.2,0.3,0.3,0.8,0.4v8.5
					l-7-0.9v-7.8c0.3-0.1,0.6-0.2,0.6-0.3s-0.2-0.2-0.6-0.3v-1c0.5-0.3,0.8-0.8,0.8-1.5c0-1-0.7-1.8-1.6-1.8c-0.9,0-1.6,0.8-1.6,1.7
					c0,0.7,0.4,1.3,0.9,1.6V11c-0.4,0-0.7,0.2-0.7,0.3c0,0.1,0.3,0.3,0.7,0.4v7.6l-6-0.8v-7.1c0.3,0,0.6-0.1,0.6-0.3
					c0-0.1-0.2-0.2-0.6-0.3V10c0.5-0.3,0.8-0.8,0.8-1.5c0-0.9-0.7-1.7-1.5-1.7c-0.8,0-1.4,0.7-1.4,1.6c0,0.5,0.2,1,0.6,1.3v1
					c-0.2,0.1-0.3,0.1-0.3,0.2c0,0.1,0.1,0.2,0.3,0.3v7l-4.5-0.6v-6.6c0.3,0,0.6-0.1,0.6-0.3s-0.2-0.2-0.6-0.3V9.9
					c0.5-0.2,0.8-0.8,0.8-1.4c0-0.9-0.6-1.6-1.3-1.6c-0.7,0-1.3,0.7-1.3,1.6c0,0.6,0.3,1.1,0.6,1.4v0.8c-0.2,0.1-0.4,0.1-0.4,0.2
					c0,0.1,0.2,0.2,0.4,0.3v6.6L18.6,17v-6.2c0.1,0,0.2-0.1,0.2-0.2c0-0.1-0.1-0.1-0.2-0.2V9.5c0.3-0.3,0.5-0.7,0.5-1.2
					c0-0.8-0.5-1.5-1.2-1.5c-0.7,0-1.2,0.7-1.2,1.5c0,0.7,0.3,1.2,0.8,1.4v0.6c-0.3,0-0.5,0.1-0.5,0.3c0,0.1,0.2,0.2,0.5,0.3v6
					l-4.1-0.5v-5.7c0.3,0,0.5-0.1,0.5-0.3s-0.2-0.2-0.5-0.3V9.6c0.4-0.2,0.8-0.7,0.8-1.4c0-0.8-0.5-1.4-1.1-1.4
					c-0.6,0-1.1,0.6-1.1,1.4c0,0.5,0.2,1,0.5,1.2v0.7c-0.2,0-0.2,0.1-0.2,0.2s0.1,0.2,0.2,0.2v5.7l-3-0.4v-5.4
					c0.1,0,0.2-0.1,0.2-0.2c0-0.1-0.1-0.1-0.2-0.2V9.4c0.3-0.2,0.5-0.6,0.5-1.1c0-0.8-0.5-1.4-1-1.4c-0.6,0-1,0.6-1,1.4
					c0,0.6,0.3,1.1,0.7,1.3V10c-0.2,0-0.4,0.1-0.4,0.2c0,0.1,0.2,0.2,0.4,0.3v5.3L4,15.2V9.5h1.8L4.7,7.9H4.6
					c0.8-0.4,1.3-1.2,1.3-2.1c0-1.3-1.1-2.4-2.4-2.4c-1.3,0-2.4,1.1-2.4,2.4c0,0.9,0.5,1.7,1.3,2.1H1.7v1.5H1.5v42.7H4V22.8l4.6,1.1
					v18.8L4,40.5v1.1l4.6,2.2v2.6l-0.2-0.1c0,0,0,0-0.1,0c-0.1-1.3-0.8-2.6-1.6-3c-0.2-0.1-0.4-0.1-0.6-0.1c-0.8,0-1.3,0.8-1.3,2
					c0,1.3,0.7,2.8,1.6,3.3c0.2,0.1,0.4,0.2,0.7,0.2c0.6,0,1.2-0.5,1.3-1.5l0.3,0.2v3L4,47.6v1.1l4.6,2.7v5.3h0.9v-4.8l3,1.7v5.2
					l0.9,0.1v-4.8l4.1,2.4v5.6h1.1v-4.9l4.5,2.6v6h1.2v-5.3l4.5,2.6v7h1.5V64l6,3.5V75h1.5v-6.6l7,4.1v7.8h1.5v-6.9l7.8,4.6v8.5h2
					v-7.4l9.7,5.6v8.4l0.8,0.6v0.6h0.8l0.8,0.6l0.1-0.6h0.6V13.5h-0.4v-0.1l4.5,0v-0.6C72.9,12.8,69.8,11.3,69.8,10z M7,47.8
					c-0.1,0-0.2,0-0.3-0.1c-0.6-0.4-1.2-1.6-1.2-2.6c0-0.7,0.2-1.2,0.6-1.2c0.1,0,0.2,0,0.3,0.1c0.7,0.3,1.2,1.6,1.2,2.6
					C7.5,47.3,7.3,47.8,7,47.8z M8.6,19.6l-0.3,0c0,0-0.1,0-0.1,0c-0.1-1.4-0.8-2.5-1.7-2.6c-1-0.1-1.8,0.9-1.8,2.4
					c0,1.4,0.7,2.6,1.7,2.8c0.1,0,0.2,0,0.3,0h0c0.8,0,1.5-0.8,1.6-1.9c0,0,0,0,0,0l0.4,0.1v2.3l-4.6-1v-5.4l4.6,0.7V19.6z
					 M7.4,19.8c0,1-0.4,1.7-1,1.6c-0.5-0.1-1.1-1-1.1-2.1c0-0.9,0.4-1.6,0.9-1.6C6.9,17.8,7.4,18.6,7.4,19.8z M12.5,52.4l-3-1.7
					v-1.4c0.3,0.7,0.8,1.4,1.3,1.7c0.2,0.1,0.5,0.2,0.7,0.2h0c0.3,0,0.7-0.1,0.9-0.4V52.4z M12.2,49.1c0,0.8-0.3,1.3-0.7,1.3
					c-0.1,0-0.2,0-0.4-0.1c-0.7-0.4-1.3-1.7-1.3-2.8c0-0.8,0.3-1.3,0.7-1.3c0.1,0,0.2,0,0.3,0.1c0.6,0.3,1.2,1.3,1.4,2.3
					c0,0,0,0-0.1,0.1C12,48.8,12.1,49,12.2,49.1z M12.5,47c-0.3-0.6-0.8-1.2-1.3-1.4c-0.2-0.1-0.4-0.2-0.7-0.2c-0.4,0-0.8,0.2-1,0.6
					v-1.8l3,1.5V47z M12.5,44.5l-3-1.4V24l3,0.7V44.5z M12.5,23.5l-3-0.6v-1.1c0.3,0.7,0.9,1.2,1.5,1.3c0.1,0,0.2,0,0.3,0h0
					c0.5,0,0.9-0.3,1.3-0.7V23.5z M12.2,20.8c-0.1,0.9-0.5,1.5-1,1.5c0,0-0.1,0-0.1,0c-0.7-0.1-1.2-1.2-1.2-2.2c0-1,0.4-1.7,1-1.7
					c0,0,0.1,0,0.1,0c0.7,0.1,1.2,1.1,1.3,2.1c0,0,0,0.1,0,0.1C12.2,20.6,12.2,20.7,12.2,20.8z M12.5,18.7c-0.3-0.6-0.8-1-1.4-1.1
					c-0.7-0.1-1.2,0.3-1.6,0.9V17l3,0.4V18.7z M17.5,55.3l-4.1-2.3v-3c0,1.5,0.9,3,1.9,3.6c0.3,0.2,0.6,0.2,0.8,0.2
					c0.6,0,1.1-0.3,1.4-1.1V55.3z M14.1,49.8c0-0.8,0.3-1.4,0.8-1.4c0.1,0,0.3,0,0.4,0.1c0.8,0.4,1.5,1.6,1.6,2.8c0,0.1,0,0.1,0,0.2
					c0,0,0,0.1,0,0.1c0,0.8-0.3,1.4-0.8,1.4c-0.1,0-0.3,0-0.5-0.1C14.8,52.4,14.1,51,14.1,49.8z M17.5,50.5c-0.3-1.1-1-2.2-1.9-2.6
					c-0.3-0.1-0.5-0.2-0.7-0.2c-0.7,0-1.2,0.5-1.4,1.3l-0.1,0v-2.8l4.1,2V50.5z M17.5,46.8l-4.1-1.9v-20l4.1,0.9V46.8z M17.5,24.6
					l-4.1-0.9v-2.6l0.1,0c0.1,1.4,1,2.6,2,2.8c0.1,0,0.2,0,0.3,0c0.7,0,1.3-0.5,1.7-1.3V24.6z M17,21.6c0,1-0.5,1.7-1.2,1.7
					c-0.1,0-0.1,0-0.2,0c-0.8-0.2-1.4-1.3-1.4-2.4c0-1,0.5-1.8,1.2-1.8c0,0,0.1,0,0.1,0c0.8,0.1,1.4,1.2,1.5,2.3c0,0,0,0,0,0.1
					C17,21.4,17,21.5,17,21.6z M17.5,20c-0.4-1-1.1-1.7-1.9-1.8c-1.1-0.2-2,0.8-2.1,2.2l-0.1,0v-2.8l4.1,0.6V20z M23.1,58.5
					l-4.5-2.6v-2.9c0.3,1.3,1.1,2.5,2,3c0.3,0.2,0.7,0.3,1,0.3c0.7,0,1.3-0.5,1.5-1.3V58.5z M22.4,54.5c-0.1,0.6-0.4,1.1-0.8,1.1
					c-0.2,0-0.4-0.1-0.6-0.2c-1-0.5-1.8-2-1.8-3.3c0-0.9,0.3-1.4,0.9-1.4c0.2,0,0.3,0,0.5,0.1c0.9,0.5,1.7,1.8,1.8,3.1
					c-0.1,0-0.1,0.1-0.2,0.2C22.2,54.2,22.3,54.4,22.4,54.5z M23.1,53.2c-0.3-1.3-1.1-2.6-2.1-3.1c-0.3-0.1-0.6-0.2-0.9-0.2
					c-0.7,0-1.3,0.5-1.5,1.3v-2.5l4.5,2.2V53.2z M23.1,49.5l-4.5-2.1V26.1l4.5,1V49.5z M23.1,25.8l-4.5-1v-2.3
					c0.3,1.2,1.1,2.2,2.1,2.4c0.1,0,0.3,0,0.4,0c1,0,1.7-0.7,2-1.8V25.8z M22.5,22.6c-0.1,1-0.6,1.7-1.3,1.7c0,0,0,0,0,0
					c-0.1,0-0.1,0-0.2,0c-0.9-0.2-1.6-1.4-1.6-2.6c0-1.1,0.6-2,1.4-2c0.1,0,0.1,0,0.2,0c0.9,0.1,1.6,1.2,1.7,2.4
					c0,0-0.1,0.1-0.1,0.2C22.4,22.4,22.4,22.5,22.5,22.6z M23.1,21.4c-0.3-1.3-1.2-2.3-2.2-2.4c-1.1-0.2-2,0.6-2.3,1.8v-2.4l4.5,0.6
					V21.4z M28.8,61.7l-4.5-2.6V56c0.3,1.4,1.2,2.8,2.3,3.4c0.4,0.2,0.8,0.3,1.1,0.3c0.4,0,0.8-0.1,1.1-0.4V61.7z M28.6,57.8
					L28.6,57.8c0,0.8-0.3,1.2-0.9,1.2c-0.2,0-0.5-0.1-0.8-0.2c-1.1-0.6-2-2.3-2-3.7c0-0.9,0.4-1.5,1-1.5c0.2,0,0.4,0.1,0.7,0.2
					c1,0.5,1.9,2,2.1,3.3c-0.1,0-0.2,0.1-0.2,0.2C28.4,57.5,28.4,57.7,28.6,57.8z M28.8,55c-0.5-0.8-1.1-1.5-1.8-1.9
					c-0.3-0.2-0.7-0.3-1-0.3c-0.8,0-1.4,0.6-1.7,1.4v-2.9l4.5,2.2V55z M28.8,52.2l-4.5-2.1V27.5l4.5,1V52.2z M28.8,27l-4.5-1v-2
					c0.4,1.1,1.2,1.9,2.2,2.1c0.1,0,0.3,0,0.4,0c0.8,0,1.4-0.4,1.8-1.1V27z M24.7,22.6c0-1.2,0.7-2.1,1.6-2.1c0.1,0,0.1,0,0.2,0
					c1.1,0.2,2,1.5,2,2.9c0,1.3-0.8,2.3-1.9,2.1C25.6,25.2,24.7,24,24.7,22.6z M28.8,21.4c-0.5-0.9-1.3-1.5-2.2-1.7
					c-1-0.1-1.9,0.5-2.3,1.4v-2l4.5,0.6V21.4z M36.3,66l-6-3.4v-3.9l0.1,0c0,0,0,0,0,0c0.1,1.7,1.3,3.6,2.7,4.4
					c0.5,0.3,0.9,0.4,1.3,0.4c0.9,0,1.6-0.6,1.8-1.6l0,0V66z M35.5,61.4c-0.1,0.8-0.5,1.3-1.1,1.3c-0.3,0-0.6-0.1-1-0.3
					c-1.3-0.7-2.4-2.5-2.4-4c0-1,0.4-1.6,1.2-1.6c0.3,0,0.5,0.1,0.8,0.2c1.3,0.6,2.4,2.4,2.5,3.9c0,0,0,0,0,0.1
					C35.4,61.1,35.5,61.3,35.5,61.4z M36.3,60.7c-0.2-1.7-1.4-3.6-2.8-4.3c-0.4-0.2-0.8-0.3-1.2-0.3c-1,0-1.7,0.7-1.9,1.8l-0.1-0.1
					v-3.5l6,2.9V60.7z M36.3,55.7l-6-2.8V28.8l6,1.4V55.7z M36.3,28.7l-6-1.3V24l0.1,0c0.1,1.7,1.3,3.3,2.8,3.6
					c0.2,0,0.4,0.1,0.5,0.1c1.3,0,2.4-1.1,2.6-2.5V28.7z M31.1,23.8c0-1.3,0.8-2.2,1.9-2.2c0.1,0,0.2,0,0.3,0
					c1.3,0.2,2.4,1.6,2.4,3.1c0,1.3-0.8,2.2-1.9,2.2c-0.1,0-0.2,0-0.4,0C32.1,26.6,31.1,25.2,31.1,23.8z M36.3,24.2
					c-0.2-1.7-1.4-3.2-3-3.4c-1.5-0.2-2.7,0.9-2.9,2.5l-0.1,0V20l6,0.8V24.2z M44.8,70.8l-7-4v-3.3c0.4,1.5,1.6,3.1,2.9,3.8
					c0.6,0.3,1.1,0.5,1.6,0.5c1.1,0,1.8-0.7,2-1.8l0.5,0.2V70.8z M38.3,62.2c0-1,0.5-1.7,1.3-1.7c0.3,0,0.7,0.1,1.1,0.3
					c1.6,0.8,2.9,2.9,2.9,4.6c0,1-0.5,1.7-1.3,1.7c-0.4,0-0.8-0.1-1.2-0.4C39.6,65.9,38.3,63.9,38.3,62.2z M44.8,65.5l-0.4-0.2
					c-0.1-1.9-1.5-4.2-3.3-5.1c-0.5-0.2-1-0.4-1.4-0.4c-0.9,0-1.6,0.5-1.9,1.3V58l7,3.4V65.5z M44.8,59.8l-7-3.3V30.6l7,1.6V59.8z
					 M44.8,30.5l-7-1.5v-2.7c0.4,1.4,1.6,2.6,3,2.9c0.2,0,0.4,0.1,0.6,0.1c1.6,0,2.7-1.2,2.9-2.8l0.4,0.1V30.5z M38.3,25
					c0-1.4,0.9-2.4,2.2-2.4c0.1,0,0.2,0,0.3,0c1.5,0.2,2.8,1.8,2.8,3.4c0,1.4-0.9,2.4-2.2,2.4c-0.2,0-0.3,0-0.5,0
					C39.5,28.1,38.3,26.6,38.3,25z M44.8,25.7l-0.4-0.1c-0.2-1.9-1.6-3.5-3.4-3.8c-1.5-0.2-2.7,0.6-3.2,2v-2.8l7,1V25.7z M54.1,76.1
					l-7.8-4.5v-3.4c0.5,1.8,1.8,3.6,3.5,4.5c0.7,0.4,1.4,0.6,2,0.6c1.3,0,2.1-0.9,2.2-2.2l0.1,0.1V76.1z M46.9,67.1
					c0-1.1,0.6-1.8,1.5-1.8c0.4,0,0.9,0.1,1.4,0.4c1.9,0.9,3.5,3.3,3.5,5.1c0,1.1-0.6,1.8-1.5,1.8c-0.5,0-1-0.2-1.6-0.5
					C48.3,71.2,46.9,68.9,46.9,67.1z M54.1,70.4l-0.2-0.1c-0.3-2-1.9-4.2-3.8-5.2c-0.6-0.3-1.2-0.5-1.7-0.5c-1,0-1.8,0.5-2.1,1.4
					v-3.9l7.8,3.8V70.4z M54.1,64.2l-7.8-3.7V32.5l7.8,1.8V64.2z M54.1,32.5l-7.8-1.7v-2.9c0.6,1.5,1.9,2.7,3.5,3
					C50,31,50.3,31,50.6,31c1.8,0,3.1-1.3,3.3-3l0.3,0V32.5z M46.8,26.5c0-1.5,1.1-2.6,2.6-2.6c0.1,0,0.3,0,0.4,0
					c1.8,0.3,3.4,2,3.4,3.8c0,1.5-1.1,2.6-2.6,2.6c-0.2,0-0.4,0-0.6-0.1C48.2,29.9,46.8,28.2,46.8,26.5z M54.1,27.3l-0.2,0
					c0,0,0,0-0.1,0c-0.2-2-1.9-3.8-4-4.1c-1.7-0.2-3,0.6-3.6,2v-2.8l7.8,1.1V27.3z M65.8,82.8l-9.7-5.5v-5l0.1,0.1c0,0,0.1,0,0.1,0
					c0,0,0,0.1,0,0.1c0,2.2,1.9,5,4.3,6.4c0.9,0.5,1.7,0.7,2.5,0.7c1.5,0,2.5-1,2.5-2.6c0-2.3-2.1-5.3-4.6-6.5
					c-0.8-0.4-1.5-0.6-2.1-0.6c-1.2,0-2.1,0.7-2.4,1.7l-0.4-0.2V67l9.7,4.7V82.8z M57.1,72.5c0-1.2,0.6-1.9,1.8-1.9
					c0.5,0,1.2,0.2,1.8,0.5c2.3,1.1,4.2,3.8,4.2,5.8c0,1.2-0.6,1.9-1.7,1.9c-0.6,0-1.3-0.2-2.1-0.6C58.9,77,57.1,74.5,57.1,72.5z
					 M65.8,69.7l-9.7-4.6V34.8l9.7,2.2V69.7z M65.8,35l-9.7-2.1v-3.6c0.5,2,2.2,3.6,4.2,4.1c0.3,0.1,0.7,0.1,1,0.1
					c2.2,0,3.8-1.6,3.8-3.8c0-2.5-2.1-4.9-4.7-5.3c-2.2-0.3-3.9,0.8-4.4,2.7v-3.4l9.7,1.4V35z M56.7,27.9c0.2-1.6,1.4-2.7,3.1-2.7
					c0.2,0,0.4,0,0.6,0c2.2,0.3,4.1,2.4,4.1,4.5c0,1.8-1.3,3.1-3.1,3.1c-0.3,0-0.6,0-0.9-0.1c-2.1-0.4-3.8-2.4-3.8-4.4
					c0,0,0.1-0.1,0.1-0.1C56.8,28,56.8,27.9,56.7,27.9z M135.7,9.5l-1.2-1.4H134c1-0.3,1.6-1.2,1.6-2.3c0-1.3-1.1-2.4-2.4-2.4
					c-1.3,0-2.4,1.1-2.4,2.4c0,1.1,0.7,2,1.7,2.3l-1.1,1.3H135.7z"/>
			</g>
		</g>
		<g id="XMLID_758_">
			<g id="XMLID_569_">
				<path id="XMLID_570_" class="st1" d="M67.4,3c-0.9,0-1.7,0.7-1.7,1.7s0.7,1.7,1.7,1.7c0.9,0,1.7-0.7,1.7-1.7S68.4,3,67.4,3z
					 M3,4.5c-0.4,0-0.8,0.3-0.8,0.8C2.3,5.6,2.6,6,3,6c0.4,0,0.8-0.3,0.8-0.8C3.8,4.8,3.4,4.5,3,4.5z M133,4.5
					c-0.4,0-0.8,0.3-0.8,0.8c0,0.4,0.3,0.8,0.8,0.8c0.4,0,0.8-0.3,0.8-0.8C133.8,4.8,133.4,4.5,133,4.5z"/>
			</g>
		</g>
	</g>
	<g id="XMLID_380_" class="st2">
		<g id="XMLID_690_">
			<path id="XMLID_691_" class="st3" d="M73,12.4c-1.2-0.6-2.9-1.7-2.9-2.4V9.2c1.3-0.7,2.2-2.1,2.2-3.7c0-2.3-1.9-4.3-4.3-4.3
				s-4.3,1.9-4.3,4.3c0,1.6,0.9,3,2.2,3.7V10c0,0.7-1.7,1.8-2.9,2.4c-0.1,0.1-0.2,0.2-0.2,0.4v0.6c0,0.2,0.2,0.4,0.4,0.4h1.5v79.3
				c0,0.1,0.1,0.2,0.2,0.3l2.9,1.8c0.1,0,0.1,0.1,0.2,0.1c0.1,0,0.1,0,0.2-0.1l3.1-1.8c0.1-0.1,0.2-0.2,0.2-0.3V13.8l1.3,0
				c0.2,0,0.4-0.2,0.4-0.4v-0.6C73.2,12.6,73.1,12.5,73,12.4z M64.6,5.5c0-1.9,1.6-3.5,3.5-3.5c1.9,0,3.5,1.6,3.5,3.5
				C71.6,7.4,70,9,68.1,9C66.2,9,64.6,7.4,64.6,5.5z M68.1,94.5L68.1,94.5L68.1,94.5L68.1,94.5z M70.8,92.9l-2.2,1.3V14h-0.8v80.4
				l-2.3-1.4v-79h5.2V92.9z M71.2,13c-0.1,0-0.2,0-0.3,0.1h-5.4v0c-0.1-0.1-0.2-0.2-0.3-0.2h-1.5v0c0.8-0.4,3.1-1.7,3.1-3V9.5
				c0.4,0.1,0.9,0.2,1.3,0.2c0.5,0,0.9-0.1,1.3-0.2V10c0,1.3,2.2,2.6,3.1,3L71.2,13z M5.1,22.8c-0.2,0-0.4,0.2-0.4,0.4v17.5
				c0,0.2,0.2,0.4,0.4,0.4c0.2,0,0.4-0.2,0.4-0.4V23.2C5.5,23,5.4,22.8,5.1,22.8z M6.2,8.9C5.7,8.7,5,8.3,4.9,8
				c0.8-0.4,1.4-1.3,1.4-2.3C6.2,4.2,5.1,3,3.6,3C2.2,3,1,4.2,1,5.7c0,0.9,0.5,1.8,1.2,2.2c-0.1,0.3-0.7,0.7-1.3,1l0,0
				C0.8,8.9,0.7,9,0.6,9.1c-0.1,0.1-0.1,0.2,0,0.3l0.1,0.2C0.8,9.8,0.9,9.9,1,9.9L1.8,10v41.7c0,0.1,0.1,0.2,0.2,0.3l1.4,1
				C3.3,53,3.4,53,3.5,53c0.1,0,0.1,0,0.2,0l1.6-0.9c0.1-0.1,0.2-0.2,0.2-0.3v-2c0-0.2-0.2-0.4-0.4-0.4c-0.2,0-0.4,0.2-0.4,0.4v1.8
				l-1.2,0.7l-1-0.7V9.9h2.3v5.3c0,0.2,0.2,0.4,0.4,0.4c0.2,0,0.4-0.2,0.4-0.4V9.9l0.5,0c0.2,0,0.4-0.2,0.4-0.4V9.3
				C6.4,9.1,6.3,9,6.2,8.9z M1.7,5.7c0-1,0.8-1.9,1.9-1.9c1,0,1.9,0.8,1.9,1.9c0,0.6-0.3,1.1-0.7,1.5C4.7,7,4.6,6.9,4.4,6.9
				C4.2,6.9,4,7.1,4,7.3v0.2c-0.1,0-0.3,0.1-0.4,0.1c-0.2,0-0.4,0-0.6-0.1V7.3c0-0.2-0.2-0.4-0.4-0.4C2.5,6.9,2.4,7,2.3,7
				C2,6.7,1.7,6.2,1.7,5.7z M5,9.2L5,9.2L2.1,9.1v0.1l-0.2,0c0.4-0.3,0.8-0.6,1-1c0.2,0.1,0.5,0.1,0.7,0.1c0.2,0,0.4,0,0.6-0.1
				C4.3,8.6,4.7,8.9,5,9.2C5.1,9.2,5,9.2,5,9.2z M136.5,9.1c-0.1-0.1-0.2-0.2-0.3-0.2l0,0c-0.6-0.3-1.2-0.8-1.3-1
				c0.7-0.5,1.2-1.3,1.2-2.2c0-1.5-1.2-2.6-2.6-2.6c-1.5,0-2.6,1.2-2.6,2.6c0,1,0.6,1.9,1.4,2.3c-0.2,0.3-0.7,0.7-1.4,1
				c-0.1,0.1-0.2,0.2-0.2,0.3v0.2c0,0.2,0.2,0.4,0.4,0.4l0.5,0v5.3c0,0.2,0.2,0.4,0.4,0.4c0.2,0,0.4-0.2,0.4-0.4V9.9h2.3v41.6
				l-1,0.7l-1.2-0.7v-1.8c0-0.2-0.2-0.4-0.4-0.4c-0.2,0-0.4,0.2-0.4,0.4v2c0,0.1,0.1,0.3,0.2,0.3l1.6,0.9c0.1,0,0.1,0,0.2,0
				c0.1,0,0.2,0,0.2-0.1l1.4-1c0.1-0.1,0.2-0.2,0.2-0.3V10l0.7-0.1c0.1,0,0.3-0.1,0.3-0.2l0.1-0.2C136.6,9.3,136.6,9.2,136.5,9.1z
				 M131.7,5.7c0-1,0.8-1.9,1.9-1.9c1,0,1.9,0.8,1.9,1.9c0,0.6-0.2,1-0.6,1.4c-0.1-0.1-0.2-0.1-0.3-0.1c-0.2,0-0.4,0.2-0.4,0.4v0.1
				c-0.2,0.1-0.4,0.1-0.6,0.1c-0.1,0-0.3,0-0.4-0.1V7.3c0-0.2-0.2-0.4-0.4-0.4c-0.1,0-0.3,0.1-0.3,0.2C132,6.8,131.7,6.3,131.7,5.7z
				 M135.1,9.2V9.1h-2.9v0.1c0,0,0,0-0.1,0c0.4-0.2,0.7-0.6,0.9-0.9c0.2,0,0.4,0.1,0.6,0.1c0.3,0,0.5,0,0.7-0.1c0.2,0.4,0.6,0.8,1,1
				L135.1,9.2z M132,41.1c0.2,0,0.4-0.2,0.4-0.4V23.2c0-0.2-0.2-0.4-0.4-0.4c-0.2,0-0.4,0.2-0.4,0.4v17.5
				C131.6,40.9,131.8,41.1,132,41.1z"/>
		</g>
	</g>
	<path id="XMLID_329_" class="st3" d="M68.1,1.8c1.9,0,3.5,1.6,3.5,3.5c0,1-0.4,1.9-1.1,2.5l10.1,0c0.3-0.4,0.8-0.7,1.4-0.7
		c0.6,0,1.1,0.3,1.4,0.7l6.8,0c0.2-0.5,0.7-0.9,1.3-0.9c0.6,0,1.1,0.4,1.3,0.9l6.1,0c0.2-0.5,0.6-0.8,1.1-0.8c0.5,0,0.9,0.3,1.1,0.8
		l5.2,0c0.2-0.5,0.5-0.8,1-0.8c0.5,0,0.8,0.4,1,0.9l4,0c0.1-0.5,0.5-0.9,0.9-0.9c0.4,0,0.8,0.4,0.9,0.9l4.2,0
		c0.1-0.5,0.4-0.9,0.8-0.9c0.4,0,0.7,0.4,0.8,0.9l3.4,0c0.1-0.5,0.3-0.9,0.7-0.9c0.4,0,0.6,0.4,0.7,0.9l2.8,0c0-0.5,0.3-0.9,0.6-0.9
		c0.3,0,0.6,0.4,0.6,0.9l4.2,0V7.4c-0.8-0.2-1.3-0.9-1.3-1.8c0-1,0.8-1.8,1.9-1.8c1,0,1.9,0.7,1.9,1.8c0,0.9-0.6,1.6-1.4,1.8v0.4
		l0.5,0l0.9,1.2l0,0.3h-0.8v42L68.3,94.1L2.4,51.3v-42H1.8V9.1l0.8-1.3h0.6V7.5C2.4,7.3,1.8,6.5,1.8,5.6c0-1,0.8-1.8,1.9-1.8
		c1,0,1.9,0.7,1.9,1.8c0,0.8-0.6,1.5-1.3,1.8v0.4l4.2,0C8.5,7.3,8.7,7,9.1,7c0.3,0,0.6,0.3,0.6,0.8l2.8,0C12.6,7.3,12.8,7,13.2,7
		c0.3,0,0.6,0.3,0.7,0.8l3.4,0C17.4,7.3,17.7,7,18,7c0.4,0,0.7,0.3,0.8,0.8l4.3,0C23.2,7.3,23.5,7,23.9,7c0.4,0,0.7,0.3,0.9,0.8l4,0
		C29,7.3,29.4,7,29.8,7c0.4,0,0.8,0.3,1,0.8l5.2,0C36.2,7.3,36.6,7,37.1,7c0.5,0,0.9,0.3,1.1,0.8l6.1,0c0.2-0.5,0.7-0.9,1.3-0.9
		c0.6,0,1.1,0.4,1.3,0.9l6.8,0c0.3-0.4,0.8-0.7,1.4-0.7c0.6,0,1.1,0.3,1.4,0.7l9.2,0c-0.7-0.6-1.1-1.5-1.1-2.5
		C64.6,3.3,66.2,1.8,68.1,1.8 M68.1,0c-2.9,0-5.3,2.4-5.3,5.3c0,0.3,0,0.5,0.1,0.8l-5.7,0c-0.6-0.4-1.3-0.7-2.1-0.7
		c-0.8,0-1.5,0.2-2.1,0.7l-5.3,0c-0.6-0.6-1.4-0.9-2.2-0.9c-0.8,0-1.6,0.3-2.2,0.9l-4.4,0c-0.5-0.5-1.2-0.8-2-0.8
		c-0.7,0-1.4,0.3-2,0.8l-3.4,0c-0.5-0.5-1.2-0.8-1.9-0.8c-0.7,0-1.4,0.3-1.9,0.8l-2.1,0c-0.5-0.5-1.1-0.8-1.8-0.8
		c-0.7,0-1.3,0.3-1.8,0.8l-2.3,0c-0.5-0.5-1.1-0.8-1.8-0.8c-0.7,0-1.3,0.3-1.8,0.8h-1.3c-0.4-0.5-1.1-0.8-1.7-0.8
		c-0.7,0-1.3,0.3-1.7,0.8l-0.7,0c-0.4-0.5-1-0.8-1.7-0.8c-0.7,0-1.3,0.3-1.7,0.8l-0.1,0c0-0.1,0-0.3,0-0.4c0-2-1.6-3.5-3.6-3.5
		C1.6,2.1,0,3.7,0,5.6c0,0.7,0.2,1.4,0.6,2L0.3,8.1C0.1,8.4,0,8.7,0,9.1v0.2c0,0.6,0.3,1.1,0.7,1.4v40.6c0,0.6,0.3,1.1,0.8,1.5
		l65.9,42.8c0.3,0.2,0.6,0.3,1,0.3c0.3,0,0.7-0.1,0.9-0.3l66.4-42.7c0.5-0.3,0.8-0.9,0.8-1.5V10.9c0.5-0.3,0.8-0.9,0.8-1.5l0-0.3
		c0-0.4-0.1-0.8-0.4-1.1l-0.3-0.3c0.4-0.6,0.6-1.3,0.6-2c0-2-1.6-3.5-3.6-3.5c-2,0-3.6,1.6-3.6,3.5c0,0.2,0,0.3,0,0.5l0,0
		c-0.4-0.6-1.1-0.9-1.8-0.9c-0.7,0-1.3,0.3-1.8,0.9l-0.5,0c-0.4-0.6-1.1-0.9-1.8-0.9c-0.7,0-1.4,0.3-1.8,0.9l-1.2,0
		c-0.5-0.5-1.1-0.9-1.8-0.9c-0.7,0-1.4,0.3-1.8,0.9l-2.2,0c-0.5-0.5-1.2-0.9-1.9-0.9c-0.7,0-1.4,0.3-1.9,0.9l-2,0
		c-0.5-0.5-1.2-0.9-2-0.9c-0.7,0-1.4,0.3-2,0.8l-3.3,0c-0.5-0.5-1.3-0.8-2-0.8c-0.8,0-1.5,0.3-2,0.8l-4.3,0
		c-0.6-0.6-1.4-0.9-2.2-0.9c-0.8,0-1.6,0.3-2.2,0.9l-5.2,0c-0.6-0.5-1.3-0.7-2.1-0.7c-0.8,0-1.5,0.3-2.1,0.7l-6.7,0
		c0-0.3,0.1-0.5,0.1-0.8C73.4,2.4,71,0,68.1,0L68.1,0z"/>
</g>
</svg>
