<?xml version="1.0" encoding="utf-8"?>
<!-- Generator: Adobe Illustrator 19.0.0, SVG Export Plug-In . SVG Version: 6.00 Build 0)  -->
<svg version="1.1" id="Layer_1" xmlns="http://www.w3.org/2000/svg" xmlns:xlink="http://www.w3.org/1999/xlink" x="0px" y="0px"
	 width="142.1px" height="97.9px" viewBox="0 0 142.1 97.9" style="enable-background:new 0 0 142.1 97.9;" xml:space="preserve">
<style type="text/css">
	.st0{fill:#FFFFFF;}
</style>
<g id="XMLID_328_">
	<g id="XMLID_357_">
		<g id="XMLID_1501_">
			<path id="XMLID_1502_" class="st0" d="M140.8,16.3L99.2,7.1L99,7.1l0,0L71.4,1.1c-0.1,0-0.1,0-0.2,0l-8.7,1.9l-0.1,0l0,0
				l-43.2,9.3l0-0.1l-0.3,0.2l-13,2.8l-0.5,0l0,0.1l-3.8,0.8c-0.2,0-1.2,0.6-1.2,0.8c0,0.2,1.1,0.8,1.3,0.8l2.5,0.1v35.9
				c0,0.1,0.1,0.2,0.2,0.3l4.9,3.1c0,0.2,0.2,0.4,0.4,0.4c0.1,0,0.1,0,0.1,0l3.5,2.2v0c0,0.2,0.2,0.4,0.4,0.4c0.1,0,0.1,0,0.2,0
				l3.4,2.2v0.1c0,0.2,0.2,0.4,0.4,0.4c0.1,0,0.2,0,0.2-0.1l3.5,2.3V65c0,0.2,0.2,0.4,0.4,0.4c0.1,0,0.2,0,0.2-0.1l3.2,2.1v0.3
				c0,0.2,0.2,0.4,0.4,0.4c0.2,0,0.3-0.1,0.3-0.2l4.3,2.8V71c0,0.2,0.2,0.4,0.4,0.4c0.2,0,0.4-0.2,0.4-0.3l4.3,2.7v0.6
				c0,0.2,0.2,0.4,0.4,0.4c0.2,0,0.4-0.2,0.4-0.4v-0.1l4.3,2.8v0.6c0,0.2,0.2,0.4,0.4,0.4c0.2,0,0.4-0.2,0.4-0.4v-0.1l4.2,2.7v0.1
				c0,0.2,0.2,0.4,0.4,0.4c0.1,0,0.2,0,0.2-0.1l5.5,3.5v0.6c0,0.2,0.2,0.4,0.4,0.4c0.2,0,0.4-0.2,0.4-0.4v-0.1l5.2,3.4v0.6
				c0,0.2,0.2,0.4,0.4,0.4c0.2,0,0.4-0.2,0.4-0.4v-0.1l5.3,3.4v0.3c0,0.2,0.2,0.4,0.4,0.4c0.1,0,0.3-0.1,0.3-0.2l4.2,2.7v0.4h0.5
				l2.4,1.5c0,0,0,0,0,0v0.2h0.8v-0.2l14.5-9.4c0.1,0,0.1,0.1,0.2,0.1c0.2,0,0.4-0.2,0.4-0.4v-0.1l4.8-3.1c0.1-0.1,0.2-0.2,0.2-0.3
				V59.1c0-0.1-0.1-0.2-0.2-0.3c-0.1-0.1-0.2-0.1-0.4,0L74.9,66V39.4l58.1,13c0,0,0.1,0,0.1,0c0,0,0,0,0,0V54c0,0.2,0.1,0.3,0.3,0.4
				l2,0.5c0,0,0.1,0,0.1,0c0.1,0,0.1,0,0.2-0.1l2-1.3c0.1-0.1,0.2-0.2,0.2-0.3V17.6h-0.3l2.5-0.1c0.2,0,1.2,0,1.2-0.2
				C141.3,17.1,139.5,15.9,140.8,16.3z M91.2,59.6v23.6L86.9,86V61.6c0,0,0,0,0-0.1L91.2,59.6z M133,15.3l-2.8,0.1l-2.8-1.3
				L133,15.3z M124.3,13.4L124.3,13.4l4.2,2l-10.9,0.3l-15.5-7.2L124.3,13.4z M98.8,7.8l17.1,8l-12.2,0.4L77.4,4.1l2.4-0.4l0,0
				L98.8,7.8z M72.9,14.5V9.9l14.6,6.8L77.5,17l0,0L72.9,14.5z M76.1,17l-3.2,0.1v-1.8L76.1,17z M72.9,9V4.8L76,4.3l26,11.9
				l-12.9,0.4L72.9,9z M71.7,1.9l6.1,1.3l-6.1,1V1.9z M71,1.9v2.4l-6.4-1L71,1.9z M65,17L65,17l-9.9-0.3l15-7v4.6L65,17z M70.1,15.1
				v2L66.5,17L70.1,15.1z M53.5,16.6l-12.9-0.4l26-11.9l3.6,0.6v4L53.5,16.6z M62.5,3.7l2.7,0.4L38.9,16.2l-12.2-0.4l17.2-8l0-0.1
				L62.5,3.7z M19.5,12.9l21.5-4.6L25,15.7l-10.9-0.3L19.5,12.9z M16.2,13.6l-3.8,1.8l-3.9-0.1L16.2,13.6z M1,16.8l4.4-1l7.1,0.2
				l0,0l0,0l12.6,0.4l0,0l0,0l28.5,0.9l0,0l0,0l16.5,0.5v2.3L1,16.8z M6.3,54.4L5,53.5V20l1.3,0.1V54.4z M9.3,56.3L7,54.8h0V40
				l2.3,1V56.3z M7,39.2v-19l1.2,0.1v19.4L7,39.2z M9.2,40.1L9,40v-2.3l2.2-0.3v2.4L9.2,40.1z M9.6,27.7C9.6,27.7,9.7,27.7,9.6,27.7
				c0.1,0,0.2,0,0.3-0.1c0.1-0.1,0.1-0.2,0.1-0.3c0-3.1,2.5-5.6,5.6-5.6c0.2,0,0.4-0.2,0.4-0.4v-0.5l42,3.1v0.3
				c0,0.2,0.2,0.4,0.4,0.4c3,0,5.7,1.5,7.3,3.8L9,37v-9.4L9.6,27.7z M9,26.8v-6.5l6.3,0.5V21c-3.2,0.2-5.8,2.7-6,5.9L9,26.8z
				 M68.1,33.1c-0.2-4.3-3.2-8-7.3-9l7.4,0.5L68.1,33.1L68.1,33.1z M68.1,33.8v1.4l-2.2,0.4v-2.5l1.4-0.2c0,0.2,0,0.3,0,0.5
				c0,0.2,0.2,0.4,0.4,0.4H68.1z M66.8,30.5l-0.9,0.1v-1.5l0.3,0C66.4,29.5,66.6,30,66.8,30.5z M65.2,29.2v1.5l-2.3,0.4v-1.5
				L65.2,29.2z M62.1,29.7v1.6l-2.2,0.4V30L62.1,29.7z M59.2,30.2v1.6l-3.1,0.5v-1.7L59.2,30.2z M55.3,30.7v1.7L51.9,33v-1.7
				L55.3,30.7z M51.1,31.4v1.7l-3.3,0.5v-1.8L51.1,31.4z M47.1,32v1.8l-3.2,0.5v-1.9L47.1,32z M43.1,32.6v1.9L39,35.1v-1.9
				L43.1,32.6z M38.3,33.3v2L34,36v-2L38.3,33.3z M33.3,34.1v2l-4.2,0.7v-2.1L33.3,34.1z M28.3,34.8v2.1L24,37.7v-2.2L28.3,34.8z
				 M23.2,35.6v2.2l-5.3,0.9v-2.3L23.2,35.6z M11.9,37.3l5.3-0.8v2.3l-5.3,0.9L11.9,37.3C11.9,37.3,11.9,37.3,11.9,37.3z M13.3,58.8
				L10,56.8V41.3l3.3,1.4V58.8z M13.6,42l3.6-0.6v2.1L13.6,42z M17.2,61.3l-3.2-2V43l3.2,1.4V61.3z M12,41.5l-1.7-0.8L67,31.2l0.2,1
				L12,41.5z M65.2,33.3v2.5l-2.3,0.4v-2.6L65.2,33.3z M62.1,33.8v2.6l-2.2,0.4v-2.6L62.1,33.8z M59.2,34.3V37l-3.1,0.6v-2.7
				L59.2,34.3z M55.3,35v2.8l-3.4,0.7v-2.8L55.3,35z M51.1,35.7v2.9l-3.3,0.6v-2.9L51.1,35.7z M47.1,36.4v3L43.9,40v-3L47.1,36.4z
				 M43.1,37v3.1L39,40.9v-3.2L43.1,37z M38.3,37.9V41L34,41.9v-3.3L38.3,37.9z M33.3,38.7V42l-4.2,0.8v-3.4L33.3,38.7z M28.3,39.5
				V43L24,43.8v-3.6L28.3,39.5z M17.9,41.3l5.3-0.9V44l-3.5,0.7l-1.8-0.8V41.3z M21.3,64l-3.4-2.2V44.7l3.4,1.4V64z M25.1,66.4
				l-3.1-2v-18l3.1,1.3V66.4z M24,46.5C24,46.4,24,46.4,24,46.5L24,46.5l4.3-0.9v1.6l-1.8,0.4L24,46.5z M30.2,50v19.6l-4.3-2.8V48.1
				L30.2,50C30.2,50,30.2,50,30.2,50z M35.2,52.2v20.6l-4.2-2.7V50.3l4.3,1.8C35.2,52.1,35.2,52.2,35.2,52.2z M40.2,54.4v21.7
				l-4.3-2.8V52.4L40.2,54.4C40.3,54.3,40.2,54.3,40.2,54.4z M45.2,56.6v22.7L41,76.6v-22l4.2,1.8C45.2,56.4,45.2,56.5,45.2,56.6z
				 M51.3,83.1l-5.3-3.4v-23l5.3,2.3V83.1z M57.2,87L52,83.6V59.3l5.2,2.2V87z M63.2,90.8L58,87.4V61.9l5.3,2.3V90.8z M68.1,93.9
				L64,91.3V64.4l4.1,1.8V93.9z M68.1,65.4L27.7,48l40.5-8.6V65.4z M33.3,46.1L29.1,47v-1.5l4.2-0.8v1.3C33.3,46,33.3,46,33.3,46.1z
				 M38.3,45L34,45.9v-1.4l4.3-0.8v1.2C38.3,44.9,38.3,44.9,38.3,45z M43.2,43.9L39,44.8c0,0,0,0,0,0v-1.3l4.1-0.8v1.1
				C43.1,43.8,43.2,43.9,43.2,43.9z M43.9,43.8C43.9,43.8,43.9,43.8,43.9,43.8l0-1.3l3.2-0.6v1.2L43.9,43.8z M51.1,42.3L47.9,43
				v-1.2l3.3-0.6L51.1,42.3C51.1,42.3,51.1,42.3,51.1,42.3z M55.3,41.4l-3.4,0.7V41l3.4-0.7L55.3,41.4
				C55.3,41.3,55.3,41.3,55.3,41.4z M59.2,40.5l-3.1,0.7v-1l3.1-0.6L59.2,40.5C59.2,40.5,59.2,40.5,59.2,40.5z M62.1,39.9l-2.2,0.5
				v-0.9l2.2-0.4L62.1,39.9C62.1,39.9,62.1,39.9,62.1,39.9z M62.9,39.7v-0.9l2.3-0.4v0.8L62.9,39.7z M68.1,38.6l-2.2,0.5v-0.8
				l2.2-0.4V38.6z M68.1,37.1l-45.4,8.8l-0.5,0l-1.4-0.7l0.2-0.1L68.2,36L68.1,37.1z M71.1,95.8l-2.2-1.4V24.7l2.2,0.2V95.8z
				 M71.1,24.1l-12.5-0.9c-0.1,0-0.1,0-0.2,0c0,0-0.1,0-0.1,0L5,19.3v-1.4l66.1,3V24.1z M71.4,20.2l-0.5,0V5L71.3,5c0,0,0,0,0.1,0
				c0,0,0,0,0.1,0l0.7-0.1v4.5l0,0.1l0,0v10.6L71.4,20.2z M74.2,66.3C74.2,66.3,74.2,66.3,74.2,66.3v27.9l-2.3,1.5V24.9l2.3-0.2
				V66.3z M86.2,61.8v24.6l-5.3,3.5V64.2c0,0,0,0,0,0L86.2,61.8z M80.1,64.5v25.9l-5.2,3.4v-27L80.1,64.5z M76.1,38.9l-1.2-0.3v-0.8
				l1.2,0.2V38.9z M126.7,21.7c3.1,0,5.6,2.5,5.6,5.6c0,0.2,0.2,0.4,0.4,0.4h0.5v8.8l-55.7-8.1c1.6-2.3,4.3-3.8,7.3-3.8
				c0.2,0,0.4-0.2,0.4-0.4v-0.3l41.2-3.1v0.5C126.3,21.5,126.5,21.7,126.7,21.7z M76.9,29.3c0-0.1,0.1-0.1,0.1-0.2l2.3,0.3
				c0,0,0,0.1,0,0.1v1.4l-2.4-0.4L76.9,29.3C76.9,29.3,76.9,29.3,76.9,29.3z M133.1,40.7l-0.1,1l-56.8-9.5l0.1-1L133.1,40.7z
				 M80,29.6l2.1,0.3v1.5L80,31.1L80,29.6C80,29.6,80,29.6,80,29.6z M82.9,31.5V30l2.3,0.3v1.6L82.9,31.5z M85.9,32v-1.6l3.3,0.5
				v1.7L85.9,32z M90,32.7V31l3.2,0.5v1.8L90,32.7z M93.9,33.4v-1.8l3.2,0.5v1.9L93.9,33.4z M97.9,34.1v-1.9l4.4,0.6v2L97.9,34.1z
				 M103.1,34.9v-2l4.1,0.6v2.1L103.1,34.9z M107.9,35.7v-2.1l4.4,0.6v2.2L107.9,35.7z M113,36.6v-2.3l5.1,0.7v2.4l0.8,0.1v-2.4
				l5.2,0.7v2.5l0.8,0.1V36l5.4,0.8c0,0.1,0,0.1,0,0.2v2.4l0.8,0.1V37c0,0,0,0,0-0.1l2.2,0.3v2.6l0.4,0.1l0,0.1L113,36.6z
				 M133.1,26.9L133.1,26.9c-0.3-3.2-2.9-5.8-6.1-6v-0.2l6.1-0.5V26.9z M76.5,28.4c-0.1,0-0.1,0.1-0.1,0.2c-0.8,1.3-1.2,2.8-1.3,4.5
				h-0.2v-8.4l7.5-0.6C79.9,24.7,77.8,26.3,76.5,28.4z M75.5,33.8c0.2,0,0.4-0.2,0.4-0.4c0-0.2,0-0.3,0-0.5l0.3,0v2.5l-1.1-0.2
				l-0.2,0v-1.4H75.5z M133.1,47.2l-0.1,1L75,37v-1L133.1,47.2z M79.3,39.6L76.9,39v-0.9l2.4,0.5V39.6z M82.1,40.2L80,39.7v-1
				l2.1,0.4V40.2z M85.2,40.9l-2.3-0.5v-1.1l2.3,0.4V40.9z M89.3,41.8l-3.3-0.7v-1.2l3.3,0.6V41.8z M93.2,42.7L90,42v-1.3l3.2,0.6
				V42.7z M97.2,43.6l-3.2-0.7v-1.4l3.2,0.6V43.6z M102.3,44.7l-4.4-1v-1.5l4.4,0.9V44.7z M107.1,45.8l-4.1-0.9v-1.7l4.1,0.8V45.8z
				 M112.3,47l-4.4-1c0,0,0,0,0,0v-1.8l4.4,0.9V47z M118.2,48.3l-5.1-1.1v-2l5.1,1V48.3z M124.1,49.6l-5.2-1.2v-2.1l5.2,1V49.6z
				 M130.2,51l-5.4-1.2v-2.3l5.4,1V51z M133.1,51.6l-2.2-0.5v-2.5l2.2,0.4V51.6z M133.6,46.6l-56.7-11v-2.5l2.4,0.4V36l0.8,0.1v-2.6
				l2.1,0.4v2.6l0.8,0.1v-2.6l2.3,0.4v2.7l0.8,0.1v-2.7l3.3,0.6v2.8l0.8,0.1v-2.8l3.2,0.5v2.9l0.8,0.1V36l3.2,0.5v3l0.8,0.1v-3
				l4.4,0.7v3.1l0.8,0.1v-3.1l4.1,0.7v3.2l0.8,0.1v-3.2l4.4,0.7v3.3l0.8,0.1v-3.3l5.1,0.9v3.4l0.8,0.1v-3.5l5.2,0.9v3.6l0.8,0.1
				v-3.6l5.4,0.9v3.7l0.8,0.1v-3.7l2.2,0.4v3.8l0.5,0.1L133.6,46.6z M135.2,54.1l-1.3-0.3v-6.8l0-0.3l0,0v-6.3l0-0.2l0,0V20.3
				l1.3-0.1V54.1z M137.1,53.1l-1.2,0.8V20.1l1.2-0.1V53.1z M137.1,19.3l-52.4,3.9c0,0-0.1,0-0.1,0c-0.1,0-0.1,0-0.2,0l-12.7,0.9
				v-3.2l65.3-3.3V19.3z M72.9,20.1v-2.3L89,17.4l0,0l0,0l28.5-0.9l0,0l0,0l12.6-0.4l0,0l0,0l4.8-0.1c0.1,0,0.3-0.1,0.3-0.2l5,1.1
				L72.9,20.1z M89.7,77.6c-0.2,0-0.4,0.4-0.4,0.8c0,0.5,0.2,0.8,0.4,0.8c0.2,0,0.4-0.4,0.4-0.8C90.1,78,89.9,77.6,89.7,77.6z
				 M7.7,44.8c0.1,0,0.1-0.1,0.1-0.3c0-0.2-0.1-0.3-0.1-0.3c-0.1,0-0.1,0.1-0.1,0.3C7.5,44.7,7.6,44.8,7.7,44.8z M7.8,51.8
				c0.1,0,0.1-0.1,0.1-0.3c0-0.2,0-0.3-0.1-0.3c-0.1,0-0.1,0.1-0.1,0.3C7.7,51.7,7.8,51.8,7.8,51.8z M89.6,68.2
				c0.2,0,0.5-0.4,0.5-0.8c0-0.5-0.2-0.8-0.5-0.8c-0.3,0-0.5,0.4-0.5,0.8C89.1,67.8,89.3,68.2,89.6,68.2z M60.7,71
				c0.3,0,0.5-0.4,0.5-0.9c0-0.5-0.2-0.9-0.5-0.9c-0.3,0-0.5,0.4-0.5,0.9C60.2,70.6,60.4,71,60.7,71z M60.7,80.7
				c-0.2,0-0.4,0.4-0.4,0.9c0,0.5,0.2,0.9,0.4,0.9c0.2,0,0.4-0.4,0.4-0.9C61.1,81.1,60.9,80.7,60.7,80.7z M43.1,72
				c-0.2,0-0.3,0.3-0.3,0.7c0,0.4,0.1,0.7,0.3,0.7c0.2,0,0.3-0.3,0.3-0.7C43.4,72.4,43.3,72,43.1,72z M54.5,79.3
				c0.2,0,0.4-0.4,0.4-0.8c0-0.5-0.2-0.8-0.4-0.8c-0.2,0-0.4,0.4-0.4,0.8C54.1,78.9,54.3,79.3,54.5,79.3z M48.6,65.5
				c0.2,0,0.4-0.3,0.4-0.8S48.8,64,48.6,64c-0.2,0-0.4,0.3-0.4,0.8S48.4,65.5,48.6,65.5z M43.1,63.1c0.2,0,0.4-0.3,0.4-0.7
				c0-0.4-0.2-0.7-0.4-0.7c-0.2,0-0.4,0.3-0.4,0.7C42.7,62.7,42.9,63.1,43.1,63.1z M48.5,74.7c-0.2,0-0.4,0.3-0.4,0.8
				c0,0.4,0.2,0.8,0.4,0.8c0.2,0,0.4-0.3,0.4-0.8C48.9,75.1,48.7,74.7,48.5,74.7z M54.6,68.2c0.3,0,0.5-0.4,0.5-0.8
				c0-0.5-0.2-0.8-0.5-0.8c-0.2,0-0.5,0.4-0.5,0.8C54.2,67.8,54.4,68.2,54.6,68.2z M77.6,83.8c-0.3,0-0.5,0.4-0.5,1
				c0,0.5,0.2,1,0.5,1s0.5-0.4,0.5-1C78.1,84.3,77.9,83.8,77.6,83.8z M66.2,83.8c-0.3,0-0.5,0.4-0.5,1c0,0.5,0.2,1,0.5,1
				c0.3,0,0.5-0.4,0.5-1C66.7,84.3,66.5,83.8,66.2,83.8z M83.5,82.5c0.2,0,0.4-0.4,0.4-0.9c0-0.5-0.2-0.9-0.4-0.9
				c-0.2,0-0.4,0.4-0.4,0.9C83.1,82.1,83.3,82.5,83.5,82.5z M77.6,73.9c0.3,0,0.5-0.4,0.5-1s-0.2-1-0.5-1c-0.3,0-0.5,0.4-0.5,1
				S77.3,73.9,77.6,73.9z M66.2,73.9c0.3,0,0.5-0.4,0.5-1s-0.2-1-0.5-1c-0.3,0-0.5,0.4-0.5,1S65.9,73.9,66.2,73.9z M83.7,71
				c0.3,0,0.5-0.4,0.5-0.9c0-0.5-0.2-0.9-0.5-0.9c-0.3,0-0.5,0.4-0.5,0.9C83.2,70.6,83.4,71,83.7,71z M23.4,61.7
				c0,0.3,0.1,0.5,0.2,0.5c0.1,0,0.2-0.2,0.2-0.5c0-0.3-0.1-0.5-0.2-0.5C23.5,61.2,23.4,61.4,23.4,61.7z M19.4,58.8
				c0,0.2,0.1,0.4,0.2,0.4c0.1,0,0.2-0.2,0.2-0.4c0-0.2-0.1-0.4-0.2-0.4C19.4,58.4,19.4,58.6,19.4,58.8z M11.6,53.7
				c-0.1,0-0.1,0.2-0.1,0.3c0,0.2,0.1,0.3,0.1,0.3s0.1-0.2,0.1-0.3C11.8,53.8,11.7,53.7,11.6,53.7z M15.5,56.4
				c0.1,0,0.2-0.2,0.2-0.4c0-0.2-0.1-0.4-0.2-0.4c-0.1,0-0.2,0.2-0.2,0.4C15.3,56.2,15.4,56.4,15.5,56.4z M19.4,51.5
				c0.1,0,0.2-0.2,0.2-0.5c0-0.3-0.1-0.5-0.2-0.5c-0.1,0-0.2,0.2-0.2,0.5C19.2,51.3,19.3,51.5,19.4,51.5z M15.5,49.3
				c0.1,0,0.2-0.2,0.2-0.4c0-0.2-0.1-0.4-0.2-0.4c-0.1,0-0.2,0.2-0.2,0.4C15.4,49.2,15.4,49.3,15.5,49.3z M38.1,60.8
				c0.2,0,0.3-0.3,0.3-0.7c0-0.4-0.2-0.7-0.3-0.7c-0.2,0-0.3,0.3-0.3,0.7C37.7,60.5,37.9,60.8,38.1,60.8z M11.5,47.1
				c0.1,0,0.2-0.2,0.2-0.4c0-0.2-0.1-0.4-0.2-0.4c-0.1,0-0.2,0.2-0.2,0.4C11.4,47,11.4,47.1,11.5,47.1z M33.1,58.6
				c0.2,0,0.3-0.3,0.3-0.6c0-0.3-0.1-0.6-0.3-0.6c-0.2,0-0.3,0.3-0.3,0.6C32.7,58.4,32.9,58.6,33.1,58.6z M38.2,69.5
				c-0.2,0-0.3,0.3-0.3,0.7c0,0.4,0.1,0.7,0.3,0.7c0.2,0,0.3-0.3,0.3-0.7C38.5,69.8,38.4,69.5,38.2,69.5z M33,66.2
				c-0.2,0-0.3,0.3-0.3,0.6c0,0.3,0.1,0.6,0.3,0.6c0.1,0,0.3-0.3,0.3-0.6C33.3,66.5,33.2,66.2,33,66.2z M23.4,53.5
				c0.1,0,0.2-0.2,0.2-0.5c0-0.3-0.1-0.5-0.2-0.5c-0.1,0-0.2,0.2-0.2,0.5C23.2,53.3,23.3,53.5,23.4,53.5z M28.1,55.6
				c0.2,0,0.3-0.3,0.3-0.6c0-0.3-0.1-0.6-0.3-0.6s-0.3,0.3-0.3,0.6C27.8,55.4,28,55.6,28.1,55.6z M28.1,63.2c-0.1,0-0.2,0.2-0.2,0.5
				c0,0.3,0.1,0.5,0.2,0.5c0.1,0,0.2-0.2,0.2-0.5C28.4,63.5,28.2,63.2,28.1,63.2z"/>
		</g>
	</g>
	<path id="XMLID_329_" class="st0" d="M71.3,1.8l69.1,15.1h-3.1v36.2l-65.9,43L4.9,53V16.8H1.8L71.3,1.8 M71.3,0c-0.1,0-0.2,0-0.4,0
		L1.4,15.1c-0.9,0.2-1.5,1-1.4,1.9c0.1,0.9,0.8,1.6,1.7,1.6h1.4V53c0,0.6,0.3,1.1,0.8,1.5l66.5,43.2c0.3,0.2,0.6,0.3,1,0.3
		c0.3,0,0.7-0.1,1-0.3l65.9-43c0.5-0.3,0.8-0.9,0.8-1.5V18.6h1.3c0.9,0,1.6-0.7,1.7-1.6c0.1-0.9-0.5-1.7-1.4-1.9L71.6,0
		C71.5,0,71.4,0,71.3,0L71.3,0z"/>
</g>
</svg>
