<?xml version="1.0" encoding="utf-8"?>
<!-- Generator: Adobe Illustrator 19.0.0, SVG Export Plug-In . SVG Version: 6.00 Build 0)  -->
<svg version="1.1" id="Layer_1" xmlns="http://www.w3.org/2000/svg" xmlns:xlink="http://www.w3.org/1999/xlink" x="0px" y="0px"
	 width="146.8px" height="95.9px" viewBox="0 0 146.8 95.9" style="enable-background:new 0 0 146.8 95.9;" xml:space="preserve">
<style type="text/css">
	.st0{fill:#179544;}
	.st1{fill:#139149;}
	.st2{opacity:0.7;}
	.st3{fill:#FFFFFF;}
</style>
<g id="XMLID_253_">
	<g id="XMLID_678_">
		<g id="XMLID_1720_">
			<path id="XMLID_1721_" class="st0" d="M73.5,92v-7.9l0.4-0.6l-0.4-0.2v-9.8l0.1-0.3l-0.1-0.1V59.5l0.1-0.2l-0.1,0v-9.9l0.1-0.2
				l-0.1,0v-3.7l0-0.2l0,0v-5.8l0-0.1l0,0v-7.3l0,0l0.2-1l-0.2,0v-7.9l0.1,0l0.1-1l-0.2,0V4.1h-2.6v0.1h-2.2V0.4
				c0-0.2-0.2-0.4-0.4-0.4c-0.2,0-0.4,0.2-0.4,0.4v3.9h-4.2V0.5c0-0.2-0.2-0.4-0.4-0.4c-0.2,0-0.4,0.2-0.4,0.4v3.7h-4.2V0.7
				c0-0.2-0.2-0.4-0.4-0.4c-0.2,0-0.4,0.2-0.4,0.4v3.6h-4.2V0.8c0-0.2-0.2-0.4-0.4-0.4c-0.2,0-0.4,0.2-0.4,0.4v3.4h-4.2V1
				c0-0.2-0.2-0.4-0.4-0.4c-0.2,0-0.4,0.2-0.4,0.4v3.3h-4.2V1.1c0-0.2-0.2-0.4-0.4-0.4c-0.2,0-0.4,0.2-0.4,0.4v3.1h-4.2v-3
				c0-0.2-0.2-0.4-0.4-0.4c-0.2,0-0.4,0.2-0.4,0.4v3h-4.2V1.5c0-0.2-0.2-0.4-0.4-0.4c-0.2,0-0.4,0.2-0.4,0.4v2.8h-4.2V1.6
				c0-0.2-0.2-0.4-0.4-0.4c-0.2,0-0.4,0.2-0.4,0.4v2.7h-4.2V1.8c0-0.2-0.2-0.4-0.4-0.4c-0.2,0-0.4,0.2-0.4,0.4v2.5h-4.2V1.9
				c0-0.2-0.2-0.4-0.4-0.4c-0.2,0-0.4,0.2-0.4,0.4v2.4h-4.2V2.1c0-0.2-0.2-0.4-0.4-0.4c-0.2,0-0.4,0.2-0.4,0.4v2.2H8.7V2.2
				c0-0.2-0.2-0.4-0.4-0.4C8.1,1.8,8,2,8,2.2v2.1H3.7V2.4C3.7,2.2,3.6,2,3.3,2C3.1,2,3,2.2,3,2.4v2.3l-1.9,2C1,6.8,1,7.1,1.1,7.2
				l1.9,2v12.9l-1.8,2c-0.1,0.1-0.1,0.4,0,0.5l1.8,2v17.5l-1.8,2c-0.1,0.1-0.1,0.2-0.1,0.2v2.2c0,0.2,0.2,0.4,0.4,0.4
				c0.2,0,0.4-0.2,0.4-0.4v-1.4L6,49.9v1.9c0,0.2,0.2,0.4,0.4,0.4c0.2,0,0.4-0.2,0.4-0.4v-1.4l4.2,2.7v1.9c0,0.2,0.2,0.4,0.4,0.4
				c0.2,0,0.4-0.2,0.4-0.4v-1.4l4.2,2.7v1.9c0,0.2,0.2,0.4,0.4,0.4c0.2,0,0.4-0.2,0.4-0.4v-1.4l4.2,2.7v1.8c0,0.2,0.2,0.4,0.4,0.4
				c0.2,0,0.4-0.2,0.4-0.4v-1.4l4.2,2.7v1.8c0,0.2,0.2,0.4,0.4,0.4c0.2,0,0.4-0.2,0.4-0.4V63l4.2,2.7v1.8c0,0.2,0.2,0.4,0.4,0.4
				c0.2,0,0.4-0.2,0.4-0.4v-1.4l4.2,2.7v1.8c0,0.2,0.2,0.4,0.4,0.4c0.2,0,0.4-0.2,0.4-0.4v-1.4l4.2,2.7v1.8c0,0.2,0.2,0.4,0.4,0.4
				c0.2,0,0.4-0.2,0.4-0.4v-1.4l4.2,2.7v1.8c0,0.2,0.2,0.4,0.4,0.4c0.2,0,0.4-0.2,0.4-0.4v-1.4l4.2,2.7v1.8c0,0.2,0.2,0.4,0.4,0.4
				c0.2,0,0.4-0.2,0.4-0.4v-1.4l4.2,2.7v1.8c0,0.2,0.2,0.4,0.4,0.4c0.2,0,0.4-0.2,0.4-0.4v-1.4l4.2,2.7v1.8c0,0.2,0.2,0.4,0.4,0.4
				c0.2,0,0.4-0.2,0.4-0.4V85l4.2,2.7v1.8c0,0.2,0.2,0.4,0.4,0.4c0.2,0,0.4-0.2,0.4-0.4v-1.4l5.2,3.3v0.6l2.5,1.3l0.1-0.9l0.2-0.3
				L73.5,92z M63.6,77.5v-8.3l4.2,2.1V80L63.6,77.5z M58.7,74.7v-7.9l4.2,2.1v8.2L58.7,74.7z M11.7,52.4l1.9-2.2
				c0.1-0.1,0.1-0.2,0.1-0.2v-0.1l4.2,2.5v0.4l-2,2.4L11.7,52.4z M6.9,49.3l1.7-2c0.1-0.1,0.1-0.2,0.1-0.2V47l4.2,2.5v0.4L11.1,52
				L6.9,49.3z M8,28.5v4.3L3.7,31v-4L8,28.5z M8.7,23.5L8.7,23.5l4.2,1.1v0.1l-1.5,1.8l-4.1-1.2l1.2-1.5C8.7,23.7,8.7,23.6,8.7,23.5
				z M8,10.1v3.6l-4.2-0.5V9.8L8,10.1z M8.6,9.1L7,7.4l3.8,0.1c0,0,0,0,0,0l1.7,1.8L8.6,9.1C8.6,9.1,8.6,9.1,8.6,9.1z M12.5,5.3
				l-1.2,1.3L7.4,6.4l1.1-1.2H12.5z M17.5,5.3l-1.3,1.4l-3.9-0.1l1.2-1.3H17.5z M22.5,5.3l-1.4,1.6l-3.9-0.1l1.3-1.4H22.5z
				 M27.5,5.3L26.1,7l-3.9-0.1l1.4-1.6H27.5z M32.6,5.3L31,7.1L27,7l1.5-1.7H32.6z M37.6,5.3l-1.7,2l-4-0.1l1.6-1.9H37.6z M42.6,5.3
				l-1.8,2.1l-4-0.1l1.7-2H42.6z M47.6,5.3l-1.9,2.3l-4-0.1l1.8-2.2H47.6z M70.8,13.2l-2.2-0.1c0-0.1,0-0.1-0.1-0.2l-3-3.7l5.3,0.2
				V13.2z M67.9,47.3l-4.2-1.4v-0.3c0-0.1,0-0.2-0.1-0.2l-2-2.7l3.7,1.1L67.9,47.3L67.9,47.3z M8.7,34.1l4.2,1.7v6.7l-4.2-2.1V34.1z
				 M8,40l-4.2-2.1v-5.8L8,33.8V40z M13,30.2v4.6l-4.2-1.7v-4.3L13,30.2z M13.7,24.8L13.7,24.8l4.2,1.1V26l-1.6,1.9l-4.1-1.2
				l1.4-1.6C13.7,25,13.7,24.9,13.7,24.8z M8.7,14.8l4.2,0.5v3.6l-4.2-0.9V14.8z M8,17.9l-4.2-0.9v-2.9L8,14.7V17.9z M13,10.4v4
				l-4.2-0.5v-3.7L13,10.4z M13.6,9.4l-1.7-1.9l3.9,0.1c0,0,0,0,0,0l1.8,2L13.6,9.4C13.6,9.4,13.6,9.4,13.6,9.4z M59.8,9
				c0,0.1,0,0.2,0.1,0.2l2.8,3.5l-4.1-0.3c0-0.1,0-0.1-0.1-0.2l-2.8-3.4L59.8,9z M18,31.8v5l-4.2-1.7v-4.7L18,31.8z M18.7,26.1
				L18.7,26.1l4.2,1.1v0.1l-1.7,2.1l-4.1-1.2l1.5-1.8C18.7,26.3,18.7,26.2,18.7,26.1z M18,10.7V15l-4.2-0.5v-4L18,10.7z M18.7,10.8
				l4.2,0.3v4.6l-4.2-0.5V10.8z M27.9,11.4v4.9l-4.2-0.5v-4.6L27.9,11.4z M32.9,11.7V17l-4.2-0.5v-5L32.9,11.7z M37.9,12.1v5.5
				l-4.2-0.5v-5.3L37.9,12.1z M42.9,12.4v5.9l-4.2-0.5v-5.6L42.9,12.4z M47.9,12.7v6.2l-4.2-0.5v-5.9L47.9,12.7z M52.9,13v6.5
				L48.7,19v-6.2L52.9,13z M57.9,13.4v6.8l-4.2-0.5v-6.5L57.9,13.4z M33.7,36c0-0.1,0-0.1-0.1-0.2l-1.7-2.1l3.7,1.1l2,2.4L33.7,36z
				 M28.6,34.3c0,0,0-0.1,0-0.1l-1.6-2l3.7,1.1l1.8,2.3L28.6,34.3z M23.6,32.6C23.6,32.6,23.6,32.6,23.6,32.6L22,30.7l3.7,1.1
				c0,0,0,0,0,0l1.7,2L23.6,32.6z M23.7,27.4L23.7,27.4l4.2,1.1v0.1l-1.8,2.3L22,29.7l1.6-2C23.7,27.6,23.7,27.5,23.7,27.4z
				 M46.4,37.1l2.2-2.9c0-0.1,0.1-0.1,0.1-0.2l4.2,1.1v0.1l-2.4,3.2L46.4,37.1z M41.5,35.6l2.1-2.7c0-0.1,0.1-0.1,0.1-0.2v0l4.2,1.1
				v0.1l-2.3,3L41.5,35.6z M36.6,34.1l2-2.5c0.1-0.1,0.1-0.1,0.1-0.2v0l4.2,1.1v0.1l-2.2,2.8L36.6,34.1z M31.8,32.6l1.8-2.4
				c0.1-0.1,0.1-0.1,0.1-0.2v0l4.2,1.1v0.1l-2.1,2.7L31.8,32.6z M26.9,31.1l1.7-2.2c0.1-0.1,0.1-0.1,0.1-0.2v0l4.2,1.1v0.1L31,32.4
				L26.9,31.1z M42.9,31.4l-4.2-1.1v-5.2l4.2,0.9V31.4z M43.7,26.1l4.2,0.9v5.7l-4.2-1.1V26.1z M37.9,30.1L33.7,29v-4.9l4.2,0.9
				V30.1z M32.9,28.8l-4.2-1.1v-4.6l4.2,0.9V28.8z M48.7,32.9v-5.8l4.2,0.9v6L48.7,32.9z M48.7,26.1V20l4.2,0.5V27L48.7,26.1z
				 M47.9,26l-4.2-0.9v-5.7l4.2,0.5V26z M42.9,25l-4.2-0.9v-5.4l4.2,0.5V25z M37.9,23.9l-4.2-0.9v-5l4.2,0.5V23.9z M32.9,22.9
				l-4.2-0.9v-4.7l4.2,0.5V22.9z M27.9,21.9l-4.2-0.9v-4.3l4.2,0.5V21.9z M27.9,23v4.5l-4.2-1.1v-4.3L27.9,23z M38.6,37.4l-1.7-2.2
				l3.7,1.1l2.1,2.6l-3.9-1.3v0C38.7,37.5,38.6,37.4,38.6,37.4z M43.6,39l-1.8-2.3l3.7,1.1l2.2,2.8l-4-1.3v-0.1
				C43.7,39.1,43.6,39,43.6,39z M48.6,40.6l-1.9-2.4l3.7,1.1l2.3,3l-4.1-1.3v-0.1C48.7,40.7,48.6,40.6,48.6,40.6z M53.6,42.2
				l-1.9-2.5l3.7,1.1l2.4,3.1l-4.1-1.4v-0.2C53.7,42.3,53.6,42.2,53.6,42.2z M51.3,38.5l2.3-3.1c0-0.1,0.1-0.1,0.1-0.2l4.2,1.1v0.1
				l-2.5,3.4L51.3,38.5z M53.7,34.2v-6.1l4.2,0.9v6.3L53.7,34.2z M53.7,27.1v-6.5l4.2,0.5V28L53.7,27.1z M22.9,16.7v4.3l-4.2-0.9v-4
				L22.9,16.7z M22.9,22v4.2l-4.2-1.1v-4L22.9,22z M20.8,30.3C20.8,30.4,20.8,30.4,20.8,30.3l1.5,1.9L18.6,31l-1.5-1.8L20.8,30.3z
				 M18.7,32.1l4.2,1.4v5.4l-4.2-1.7V32.1z M23.7,33.7l4.2,1.4v5.7l-4.2-1.7V33.7z M28.7,35.4l4.2,1.4v6.1l-4.2-1.7V35.4z M33.7,37
				l4.2,1.4v6.4l-4.2-1.7V37z M38.7,38.7l4.2,1.4v6.8l-4.2-1.7V38.7z M43.7,40.3l4.2,1.4v7.2l-4.2-1.7V40.3z M48.7,42l4.2,1.4v7.5
				l-4.2-1.7V42z M53.7,43.7l4.2,1.4V53l-4.2-1.7V43.7z M58.7,45.3l4.2,1.4V55l-4.2-1.7V45.3z M58.7,44.3V44c0-0.1,0-0.2-0.1-0.2
				l-2-2.6l3.7,1.1l2.5,3.3L58.7,44.3z M56.2,40l2.4-3.3c0-0.1,0.1-0.1,0.1-0.2l4.2,1.1v0.1l-2.6,3.5L56.2,40z M58.7,35.5v-6.4
				l4.2,0.9v6.6L58.7,35.5z M58.7,28.1v-6.8l4.2,0.5V29L58.7,28.1z M58.7,20.3v-6.9l4.2,0.3v7.1L58.7,20.3z M54.9,8.8
				c0,0.1,0,0.1,0.1,0.2l2.7,3.3l-4.1-0.3c0,0,0-0.1-0.1-0.1l-2.6-3.2L54.9,8.8z M50,8.7c0,0.1,0,0.1,0.1,0.2l2.6,3.2l-4-0.3
				c0,0,0-0.1,0-0.1L46,8.6L50,8.7z M45.1,8.5c0,0.1,0,0.1,0.1,0.2l2.5,3l-4-0.3c0,0,0-0.1,0-0.1l-2.4-2.9L45.1,8.5z M40.2,8.4
				c0,0,0,0.1,0,0.1l2.4,2.8l-4-0.3c0,0,0-0.1,0-0.1l-2.3-2.7L40.2,8.4z M35.3,8.3c0,0,0,0.1,0,0.1l2.3,2.7l-4-0.3c0,0,0-0.1,0-0.1
				l-2.2-2.6L35.3,8.3z M30.4,8.1C30.5,8.1,30.5,8.2,30.4,8.1l2.2,2.6l-4-0.3c0,0,0,0,0-0.1L26.5,8L30.4,8.1z M25.6,8
				C25.6,8,25.6,8,25.6,8l2.1,2.4l-4-0.3c0,0,0,0,0-0.1l-1.9-2.2L25.6,8z M20.7,7.8C20.7,7.8,20.7,7.9,20.7,7.8l1.9,2.2l-4-0.3
				c0,0,0,0,0,0l-1.8-2L20.7,7.8z M13.7,15.5L18,16v3.9l-4.2-0.9V15.5z M18,21v3.9l-4.2-1.1v-3.7L18,21z M15.9,28.8c0,0,0,0.1,0,0.1
				l1.3,1.6l-3.7-1.2l-1.4-1.6L15.9,28.8z M13.7,36.2l4.2,1.7v7.2l-4.2-2.1V36.2z M18.7,38.2l4.2,1.7v7.7l-4.2-2.1V38.2z M23.7,40.2
				l4.2,1.7v8.2L23.7,48V40.2z M28.7,42.2l4.2,1.7v8.7l-4.2-2.1V42.2z M33.7,44.2l4.2,1.7v9.2L33.7,53V44.2z M38.7,46.3l4.2,1.7v9.7
				l-4.2-2.1V46.3z M43.7,48.3l4.2,1.7v10.2l-4.2-2.1V48.3z M48.7,50.3l4.2,1.7v10.7l-4.2-2.1V50.3z M53.7,52.3l4.2,1.7v11.2
				l-4.2-2.1V52.3z M58.7,54.4l4.2,1.7v11.7l-4.2-2.1V54.4z M63.6,56.4l4.2,1.7v12.2l-4.2-2.1V56.4z M63.6,55.3V47l4.2,1.4V57
				L63.6,55.3z M61,41.5l2.5-3.4c0-0.1,0.1-0.1,0.1-0.2l4.2,1.1V39l-2.7,3.7L61,41.5z M63.6,36.8v-6.7l4.2,0.9v6.9L63.6,36.8z
				 M63.6,29.1v-7.2l4.2,0.5V30L63.6,29.1z M63.6,20.9v-7.2l4.2,0.3v7.4L63.6,20.9z M63.6,12.7c0-0.1,0-0.1-0.1-0.2L60.7,9l4,0.1
				c0,0.1,0,0.2,0.1,0.2l2.9,3.7L63.6,12.7z M61.4,8l2.2-2.7c0,0,0,0,0-0.1h4.1l-2.3,2.9L61.4,8z M60.5,8l-4-0.1l2.1-2.6
				c0,0,0,0,0,0h4.1L60.5,8z M55.5,7.9l-4-0.1l2-2.4c0,0,0,0,0,0h4.1L55.5,7.9z M50.6,7.7l-4-0.1l1.9-2.3c0,0,0,0,0,0h4L50.6,7.7z
				 M3.7,18.1L8,18.9v3.3l-4.2-1.1V18.1z M8.7,19.1l4.2,0.9v3.6l-4.2-1.1V19.1z M10.9,27.3c0,0.1,0,0.1,0.1,0.2l1.1,1.3l-3.7-1.2
				l-1.2-1.4L10.9,27.3z M3.7,39L8,41.2v4.2l-4.2-2.5V39z M8.7,41.5l4.2,2.1v4.6l-4.2-2.5V41.5z M13.7,48.7v-4.6l4.2,2.1v4.9
				L13.7,48.7z M18.7,46.6l4.2,2.1V54l-4.2-2.5V46.6z M23.7,49.1l4.2,2.1v5.7l-4.2-2.5V49.1z M28.7,51.6l4.2,2.1v6l-4.2-2.5V51.6z
				 M33.7,54.1l4.2,2.1v6.4l-4.2-2.5V54.1z M38.7,56.7l4.2,2.1v6.8l-4.2-2.5V56.7z M43.7,59.2l4.2,2.1v7.1L43.7,66V59.2z M48.7,61.7
				l4.2,2.1v7.5l-4.2-2.5V61.7z M53.7,64.2l4.2,2.1v7.9l-4.2-2.5V64.2z M68.6,71.8l2.2,1.1v8.8l-2.2-1.3V71.8z M68.6,70.7V58.4
				l2.2,0.9v12.5L68.6,70.7z M68.6,57.3v-8.7l2.2,0.7v8.8L68.6,57.3z M68.6,47.6v-0.4c0-0.1,0-0.2-0.1-0.2l-2.1-2.8l4.4,1.3v2.8
				L68.6,47.6z M65.9,43l2.6-3.6c0-0.1,0.1-0.1,0.1-0.2l2.2,0.6v4.8L65.9,43z M70.8,38.7l-2.2-0.6v-7l2.2,0.4V38.7z M70.8,30.6
				l-2.2-0.4v-7.5l2.2,0.3V30.6z M68.6,21.6v-7.5l2.2,0.1v7.6L68.6,21.6z M70.8,8.3l-4.5-0.1l2.3-2.8c0,0,0-0.1,0-0.1h2.3V8.3z
				 M3.5,5.3h4l-1,1.1L2.5,6.3L3.5,5.3z M2.2,7.3L6,7.4c0,0,0,0,0,0l1.5,1.7L3.6,8.8L2.2,7.3z M3.6,22.5c0.1-0.1,0.1-0.2,0.1-0.2v0
				L8,23.3v0.1L6.6,25l-4.1-1.2L3.6,22.5z M2.3,24.7L6,25.9c0,0.1,0,0.2,0.1,0.2l0.9,1.1L3.5,26l0,0.1L2.3,24.7z M3.6,44.5
				c0.1-0.1,0.1-0.2,0.1-0.2v-0.2L8,46.5V47l-1.7,1.9l-4.2-2.7L3.6,44.5z M16.6,55.5l2-2.4c0.1-0.1,0.1-0.2,0.1-0.2v-0.1l4.2,2.5
				v0.3l-2.1,2.6c0,0,0,0.1,0,0.1L16.6,55.5L16.6,55.5z M21.5,58.5l2.1-2.6c0.1-0.1,0.1-0.2,0.1-0.2v0l4.2,2.5v0.3l-2.2,2.7
				c-0.1,0.1-0.1,0.1-0.1,0.2l-4.2-2.7V58.5z M26.4,61.8v-0.3l2.2-2.7c0.1-0.1,0.1-0.1,0.1-0.2l4.2,2.5v0.2l-2.3,2.9
				c-0.1,0.1-0.1,0.1-0.1,0.2v0.2L26.4,61.8z M31.3,64.9v-0.5l2.3-2.9c0-0.1,0.1-0.1,0.1-0.2l4.3,2.5V64l-2.4,3
				c-0.1,0.1-0.1,0.1-0.1,0.2v0.3L31.3,64.9z M36.2,68.1v-0.7l2.4-3c0,0,0-0.1,0-0.1l4.3,2.5v0.2L40.4,70c-0.1,0.1-0.1,0.1-0.1,0.2
				v0.5L36.2,68.1z M41.1,71.2v-0.8l2.5-3.2c0,0,0-0.1,0-0.1l4.3,2.5v0.1L45.3,73c-0.1,0.1-0.1,0.1-0.1,0.2v0.6L41.1,71.2z M46,74.4
				v-1l2.6-3.3c0,0,0,0,0-0.1l4.3,2.5v0.1L50.2,76c0,0.1-0.1,0.1-0.1,0.2V77L46,74.4z M50.9,77.5v-1.1l2.7-3.5c0,0,0,0,0,0l4.3,2.5
				v0L55.2,79c0,0.1-0.1,0.1-0.1,0.2v0.9L50.9,77.5z M55.8,80.7v-1.3l2.7-3.6l4.3,2.5L60.1,82c0,0.1-0.1,0.1-0.1,0.2v1.1L55.8,80.7z
				 M60.7,83.8v-1.5l2.8-3.7l4.3,2.5L65,85c0,0.1-0.1,0.1-0.1,0.2v1.3L60.7,83.8z M65.6,87v-1.6l2.9-3.8l2.3,1.4v7.4L65.6,87z"/>
		</g>
	</g>
	<g id="XMLID_329_">
		<g id="XMLID_1635_">
			<path id="XMLID_1636_" class="st1" d="M145.7,7.2c0.1-0.1,0.1-0.4,0-0.5l-1.9-2V2.4c0-0.2-0.2-0.4-0.4-0.4
				c-0.2,0-0.4,0.2-0.4,0.4v1.9h-4.2V2.2c0-0.2-0.2-0.4-0.4-0.4c-0.2,0-0.4,0.2-0.4,0.4v2.1h-4.2V2.1c0-0.2-0.2-0.4-0.4-0.4
				c-0.2,0-0.4,0.2-0.4,0.4v2.2h-4.2V1.9c0-0.2-0.2-0.4-0.4-0.4c-0.2,0-0.4,0.2-0.4,0.4v2.4h-4.2V1.8c0-0.2-0.2-0.4-0.4-0.4
				c-0.2,0-0.4,0.2-0.4,0.4v2.5h-4.2V1.6c0-0.2-0.2-0.4-0.4-0.4c-0.2,0-0.4,0.2-0.4,0.4v2.7h-4.2V1.5c0-0.2-0.2-0.4-0.4-0.4
				c-0.2,0-0.4,0.2-0.4,0.4v2.8h-4.2v-3c0-0.2-0.2-0.4-0.4-0.4c-0.2,0-0.4,0.2-0.4,0.4v3h-4.2V1.1c0-0.2-0.2-0.4-0.4-0.4
				c-0.2,0-0.4,0.2-0.4,0.4v3.1h-4.2V1c0-0.2-0.2-0.4-0.4-0.4c-0.2,0-0.4,0.2-0.4,0.4v3.3h-4.2V0.8c0-0.2-0.2-0.4-0.4-0.4
				c-0.2,0-0.4,0.2-0.4,0.4v3.4h-4.2V0.7c0-0.2-0.2-0.4-0.4-0.4c-0.2,0-0.4,0.2-0.4,0.4v3.6h-4.2V0.5c0-0.2-0.2-0.4-0.4-0.4
				c-0.2,0-0.4,0.2-0.4,0.4v3.7h-4.2V0.4c0-0.2-0.2-0.4-0.4-0.4c-0.2,0-0.4,0.2-0.4,0.4v3.9h-2.3V4.1H73v79.3l-0.1,0.1l0.1,0.2v8.4
				l0.3,1.3l2.5-1.3v-0.5l5.3-3.4v1.4c0,0.2,0.2,0.4,0.4,0.4c0.2,0,0.4-0.2,0.4-0.4v-1.8L86,85v1.4c0,0.2,0.2,0.4,0.4,0.4
				c0.2,0,0.4-0.2,0.4-0.4v-1.8l4.2-2.7v1.4c0,0.2,0.2,0.4,0.4,0.4c0.2,0,0.4-0.2,0.4-0.4v-1.8l4.2-2.7v1.4c0,0.2,0.2,0.4,0.4,0.4
				c0.2,0,0.4-0.2,0.4-0.4v-1.8l4.2-2.7v1.4c0,0.2,0.2,0.4,0.4,0.4c0.2,0,0.4-0.2,0.4-0.4v-1.8l4.2-2.7v1.4c0,0.2,0.2,0.4,0.4,0.4
				c0.2,0,0.4-0.2,0.4-0.4v-1.8l4.2-2.7v1.4c0,0.2,0.2,0.4,0.4,0.4c0.2,0,0.4-0.2,0.4-0.4v-1.8l4.2-2.7v1.4c0,0.2,0.2,0.4,0.4,0.4
				c0.2,0,0.4-0.2,0.4-0.4v-1.8l4.2-2.7v1.4c0,0.2,0.2,0.4,0.4,0.4c0.2,0,0.4-0.2,0.4-0.4v-1.8l4.2-2.7v1.4c0,0.2,0.2,0.4,0.4,0.4
				c0.2,0,0.4-0.2,0.4-0.4v-1.8l4.2-2.7v1.4c0,0.2,0.2,0.4,0.4,0.4c0.2,0,0.4-0.2,0.4-0.4v-1.9l4.2-2.7v1.4c0,0.2,0.2,0.4,0.4,0.4
				c0.2,0,0.4-0.2,0.4-0.4v-1.9l4.2-2.7v1.4c0,0.2,0.2,0.4,0.4,0.4c0.2,0,0.4-0.2,0.4-0.4v-1.9l4.2-2.7v1.4c0,0.2,0.2,0.4,0.4,0.4
				c0.2,0,0.4-0.2,0.4-0.4v-2.2c0-0.1,0-0.2-0.1-0.2l-1.8-2V26.6l1.8-2c0.1-0.1,0.1-0.4,0-0.5l-1.8-2V9.2L145.7,7.2z M144.2,6.3
				l-3.9,0.1l-1-1.1h4L144.2,6.3z M138.1,23.8l1.2,1.5l-4.1,1.2l-1.5-1.8v-0.1l4.2-1.1v0C138,23.6,138.1,23.7,138.1,23.8z
				 M138.1,47.4l1.7,2l-4.2,2.7l-1.8-2.2v-0.4L138,47v0.2C138,47.2,138.1,47.3,138.1,47.4z M130.8,55.1l-2-2.4v-0.4l4.2-2.5V50
				c0,0.1,0,0.2,0.1,0.2l1.9,2.2L130.8,55.1z M113.8,59.8v-6l4.2-2.1v5.7L113.8,59.8z M108.8,62.7v-6.4l4.2-2.1v6.1L108.8,62.7z
				 M103.8,65.6v-6.8l4.2-2.1v6.4L103.8,65.6z M98.8,68.5v-7.1l4.2-2.1V66L98.8,68.5z M93.9,71.3v-7.5l4.2-2.1v7.2L93.9,71.3z
				 M88.9,74.2v-7.9l4.2-2.1v7.5L88.9,74.2z M83.9,77.1v-8.2l4.2-2.1v7.9L83.9,77.1z M78.9,80v-8.6l4.2-2.1v8.3L78.9,80z M103.2,5.3
				l1.8,2.2l-4,0.1l-1.9-2.3H103.2z M108.2,5.3l1.7,2l-4,0.1l-1.8-2.1H108.2z M113.2,5.3l1.6,1.9l-4,0.1l-1.7-2H113.2z M118.2,5.3
				l1.5,1.7l-3.9,0.1l-1.6-1.9H118.2z M123.2,5.3l1.4,1.6L120.7,7l-1.5-1.7H123.2z M128.2,5.3l1.3,1.4l-3.9,0.1l-1.4-1.6H128.2z
				 M133.3,5.3l1.2,1.3l-3.9,0.1l-1.3-1.4H133.3z M138.3,5.3l1.1,1.2l-3.9,0.1l-1.2-1.3H138.3z M138,18.1l-4.2,0.9v-4.4l4.2-0.6
				V18.1z M138.8,13.8l4.2-0.6v3.9l-4.2,0.9V13.8z M133.1,25.1l1.4,1.6l-4.1,1.2l-1.6-1.9v-0.1l4.2-1.1v0
				C133.1,24.9,133.1,25,133.1,25.1z M138,40.4l-4.2,2.1v-6.7l4.2-1.7V40.4z M138.8,33.8l4.2-1.7v5.8l-4.2,2.1V33.8z M82.1,9.1
				l4-0.1l-2.9,3.6c0,0,0,0.1-0.1,0.2L79.1,13L82,9.4C82,9.3,82.1,9.2,82.1,9.1z M91,8.9l-2.8,3.4c0,0,0,0.1-0.1,0.2l-4.1,0.3
				l2.8-3.5C86.9,9.1,87,9.1,87,9L91,8.9z M95.8,8.7l-2.6,3.2c0,0,0,0.1-0.1,0.1l-4.1,0.3L91.8,9c0-0.1,0.1-0.1,0.1-0.2L95.8,8.7z
				 M100.7,8.6l-2.5,3.1c0,0,0,0.1,0,0.1l-4,0.3l2.6-3.2c0-0.1,0.1-0.1,0.1-0.2L100.7,8.6z M105.6,8.4l-2.4,2.9c0,0,0,0.1,0,0.1
				l-4,0.3l2.5-3c0,0,0-0.1,0.1-0.2L105.6,8.4z M110.5,8.3l-2.3,2.7c0,0,0,0.1,0,0.1l-4,0.3l2.4-2.8c0,0,0-0.1,0-0.1L110.5,8.3z
				 M115.4,8.1l-2.2,2.6c0,0,0,0.1,0,0.1l-4,0.3l2.3-2.7c0,0,0-0.1,0-0.1L115.4,8.1z M120.2,8l-2.1,2.4c0,0,0,0,0,0.1l-4,0.3
				l2.1-2.5c0,0,0-0.1,0-0.1L120.2,8z M125.1,7.8l-1.9,2.2c0,0,0,0,0,0.1l-4,0.3l2-2.3c0,0,0-0.1,0-0.1L125.1,7.8z M130,7.7l-1.8,2
				c0,0,0,0,0,0l-4,0.3l1.9-2.2c0,0,0,0,0-0.1L130,7.7z M128.1,26.4l1.5,1.8l-4.1,1.2l-1.7-2.1v-0.1l4.2-1.1v0
				C128.1,26.2,128.1,26.3,128.1,26.4z M78.9,39l4.2-1.1c0,0.1,0,0.2,0.1,0.2l2.5,3.4l-4.1,1.3L78.9,39L78.9,39z M88.1,13.4v6.6
				l-4.2,0.6v-7L88.1,13.4z M93.1,13.1v6.3L88.9,20v-6.6L93.1,13.1z M98.1,12.8v5.9l-4.2,0.6V13L98.1,12.8z M103.1,12.4v5.5
				l-4.2,0.6v-5.8L103.1,12.4z M108.1,12.1v5.1l-4.2,0.6v-5.4L108.1,12.1z M113.1,11.8v4.7l-4.2,0.6v-5L113.1,11.8z M118.1,11.4v4.3
				l-4.2,0.6v-4.6L118.1,11.4z M123.1,11.1V15l-4.2,0.6v-4.3L123.1,11.1z M123.1,27.7l1.6,2l-4.1,1.2l-1.8-2.3v-0.1l4.2-1.1v0
				C123.1,27.5,123.1,27.6,123.1,27.7z M123.1,32.6l-3.8,1.2l1.7-2c0,0,0,0,0,0l3.7-1.1L123.1,32.6
				C123.1,32.6,123.1,32.6,123.1,32.6z M114.3,35.6l1.8-2.3l3.7-1.1l-1.6,2c0,0,0,0.1,0,0.1L114.3,35.6z M109.2,37.3l2-2.4l3.7-1.1
				l-1.7,2.1c0,0.1-0.1,0.1-0.1,0.2L109.2,37.3z M91.4,39.8l-2.5-3.4v-0.1l4.2-1.1c0,0.1,0,0.2,0.1,0.2l2.3,3.1L91.4,39.8z
				 M118.2,29l1.7,2.2l-4.1,1.2l-1.9-2.5v-0.1l4.2-1.1v0C118.1,28.8,118.1,28.9,118.2,29z M110.9,33.9l-2.1-2.7v-0.1l4.2-1.1v0
				c0,0.1,0,0.2,0.1,0.2l1.8,2.4L110.9,33.9z M106,35.3l-2.2-2.8v-0.1l4.2-1.1v0c0,0.1,0,0.2,0.1,0.2l2,2.5L106,35.3z M101.1,36.8
				l-2.3-3v-0.1l4.2-1.1v0c0,0.1,0,0.2,0.1,0.2l2.1,2.7L101.1,36.8z M96.2,38.3l-2.4-3.2V35l4.2-1.1c0,0.1,0,0.2,0.1,0.2l2.2,2.9
				L96.2,38.3z M108.1,30.3l-4.2,1.1V26l4.2-0.9V30.3z M108.8,25l4.2-0.9V29l-4.2,1.1V25z M103.1,31.6l-4.2,1.1V27l4.2-0.9V31.6z
				 M98.1,32.9L93.9,34v-6l4.2-0.9V32.9z M113.8,28.8V24l4.2-0.9v4.6L113.8,28.8z M113.8,22.9v-5.6l4.2-0.6v5.3L113.8,22.9z
				 M113.1,23.1l-4.2,0.9v-5.8l4.2-0.6V23.1z M108.1,24.1l-4.2,0.9v-6.1l4.2-0.6V24.1z M103.1,25.1L98.8,26v-6.4l4.2-0.6V25.1z
				 M98.1,26.1L93.9,27v-6.7l4.2-0.6V26.1z M93.1,27.1L88.9,28v-7l4.2-0.6V27.1z M93.1,28.1v6.1l-4.2,1.1V29L93.1,28.1z M100,38.2
				l-1.9,2.4c-0.1,0.1-0.1,0.1-0.1,0.2v0.1L94,42.3l2.3-3L100,38.2z M101.3,37.8l3.7-1.1l-1.8,2.3c-0.1,0.1-0.1,0.1-0.1,0.2v0.1
				l-4,1.3L101.3,37.8z M106.2,36.3l3.7-1.1l-1.7,2.2c-0.1,0.1-0.1,0.1-0.1,0.2v0l-3.9,1.3L106.2,36.3z M118.8,27.5V23l4.2-0.9v4.3
				L118.8,27.5z M118.8,21.9v-5.3l4.2-0.6v5L118.8,21.9z M88.1,21.1v7L83.9,29v-7.3L88.1,21.1z M88.1,29.1v6.4l-4.2,1.1V30
				L88.1,29.1z M88.1,36.5c0,0.1,0,0.2,0.1,0.2l2.4,3.3l-4.1,1.3l-2.6-3.5v-0.1L88.1,36.5z M85.2,42.7l-2,2.7c0,0.1-0.1,0.1-0.1,0.2
				v0.3l-4.2,1.4v0l2.7-3.5L85.2,42.7z M86.5,42.3l3.7-1.1l-2,2.6c-0.1,0.1-0.1,0.1-0.1,0.2v0.3l-4.2,1.4L86.5,42.3z M91.4,40.8
				l3.7-1.1l-1.9,2.5c-0.1,0.1-0.1,0.1-0.1,0.2v0.2L89,44L91.4,40.8z M93.1,43.7v7.6L88.9,53v-7.9L93.1,43.7z M93.9,43.4l4.2-1.4
				v7.2l-4.2,1.7V43.4z M98.8,41.8l4.2-1.4v6.9l-4.2,1.7V41.8z M103.8,40.1l4.2-1.4v6.5l-4.2,1.7V40.1z M108.8,38.4l4.2-1.4v6.1
				l-4.2,1.7V38.4z M113.8,36.8l4.2-1.4v5.8l-4.2,1.7V36.8z M118.8,35.1l4.2-1.4v5.4l-4.2,1.7V35.1z M123.8,33.5l4.2-1.4v5l-4.2,1.7
				V33.5z M128.8,31.8l4.2-1.4v4.7l-4.2,1.7V31.8z M124.4,32.2l1.5-1.8c0,0,0-0.1,0-0.1l3.7-1.1l-1.5,1.8L124.4,32.2z M123.8,26.2
				V22l4.2-0.9v4L123.8,26.2z M123.8,20.9v-5l4.2-0.6v4.7L123.8,20.9z M123.8,14.9v-3.9l4.2-0.3v3.5L123.8,14.9z M128.8,10.7
				l4.2-0.3v3.1l-4.2,0.6V10.7z M83.1,13.8v7l-4.2,0.6V14L83.1,13.8z M83.1,21.8v7.3L78.9,30v-7.6L83.1,21.8z M83.1,30.1v6.7
				l-4.2,1.1V31L83.1,30.1z M78.1,38.1l-2.3,0.6v-7.1l2.3-0.5V38.1z M75.8,39.7l2.3-0.6c0,0.1,0,0.2,0.1,0.2l2.6,3.6l-5,1.5V39.7z
				 M75.8,45.5l4.5-1.4L78.2,47c0,0.1-0.1,0.1-0.1,0.2v0.4l-2.3,0.8V45.5z M75.8,49.4l2.3-0.8v8.7l-2.3,0.9V49.4z M78.9,48.4
				l4.2-1.4v8.3L78.9,57V48.4z M83.9,46.7l4.2-1.4v8L83.9,55V46.7z M88.1,54.4v11.3l-4.2,2.1V56.1L88.1,54.4z M88.9,54l4.2-1.7v10.8
				l-4.2,2.1V54z M93.9,52l4.2-1.7v10.3l-4.2,2.1V52z M98.8,50l4.2-1.7v9.8l-4.2,2.1V50z M103.8,48l4.2-1.7v9.3l-4.2,2.1V48z
				 M108.8,46l4.2-1.7V53l-4.2,2.1V46z M113.8,43.9l4.2-1.7v8.3l-4.2,2.1V43.9z M118.8,41.9l4.2-1.7V48l-4.2,2.1V41.9z M123.8,39.9
				l4.2-1.7v7.3l-4.2,2.1V39.9z M128.8,37.9l4.2-1.7v6.8l-4.2,2.1V37.9z M133.8,34.8v-4.6l4.2-1.4v4.3L133.8,34.8z M129.5,30.5
				l1.3-1.6c0,0,0-0.1,0-0.1l3.7-1.1l-1.4,1.6L129.5,30.5z M128.8,24.9V21l4.2-0.9v3.7L128.8,24.9z M128.8,19.9v-4.7l4.2-0.6v4.5
				L128.8,19.9z M133.8,13.5v-3.1l4.2-0.3v2.8L133.8,13.5z M133.1,9.5l-4,0.3l1.8-2c0,0,0,0,0,0l3.9-0.1L133.1,9.5
				C133.1,9.4,133.1,9.4,133.1,9.5z M98.2,5.3l1.9,2.3l-4,0.1l-2-2.4L98.2,5.3C98.2,5.3,98.2,5.3,98.2,5.3z M93.2,5.3l2,2.4l-4,0.1
				l-2.1-2.6L93.2,5.3C93.2,5.3,93.2,5.3,93.2,5.3z M88.2,5.3l2.1,2.6l-4,0.1l-2.2-2.7L88.2,5.3C88.2,5.3,88.2,5.3,88.2,5.3z
				 M83.2,5.3L85.4,8l-4,0.1l-2.3-2.9L83.2,5.3C83.2,5.3,83.2,5.3,83.2,5.3z M78.2,12.9c0,0.1-0.1,0.1-0.1,0.2l-2.3,0.2V9.3l5.3-0.2
				L78.2,12.9z M75.8,14.2l2.3-0.1v7.4l-2.3,0.3V14.2z M75.8,22.8l2.3-0.3v7.6l-2.3,0.5V22.8z M75.8,59.3l2.3-0.9v12.3l-2.3,1.1
				V59.3z M78.9,58.1l4.2-1.7v11.8l-4.2,2.1V58.1z M118.8,51.2l4.2-2.1v5.4l-4.2,2.5V51.2z M123.8,48.7l4.2-2.1v5l-4.2,2.5V48.7z
				 M128.8,46.2l4.2-2.1v4.6l-4.2,2.5V46.2z M133.8,48.3v-4.6l4.2-2.1v4.3L133.8,48.3z M138.8,41.2L143,39v3.9l-4.2,2.5V41.2z
				 M143,31l-4.2,1.7v-4.3l4.2-1.4V31z M134.6,28.8l1.1-1.3c0,0,0.1-0.1,0.1-0.2l3.7-1.1l-1.2,1.4L134.6,28.8z M133.8,23.6v-3.6
				l4.2-0.9v3.4L133.8,23.6z M138.8,18.9l4.2-0.9v3.1l-4.2,1.1V18.9z M143,12.2l-4.2,0.6v-2.7l4.2-0.3V12.2z M138.1,9.1l-3.9,0.3
				l1.7-1.8c0,0,0,0,0,0l3.8-0.1L138.1,9.1C138.1,9.1,138.1,9.1,138.1,9.1z M78.2,5.3C78.2,5.3,78.2,5.3,78.2,5.3l2.3,2.9l-4.6,0.1
				v-3H78.2z M75.8,72.9l2.3-1.1v8.6l-2.3,1.3V72.9z M75.8,90.3v-7.4l2.4-1.4l2.9,3.8V87L75.8,90.3z M81.9,86.5v-1.3
				c0-0.1,0-0.2-0.1-0.2l-2.9-3.9l4.3-2.5l2.8,3.7v1.5L81.9,86.5z M86.8,83.3v-1.1c0-0.1,0-0.2-0.1-0.2l-2.8-3.7l4.3-2.5l2.7,3.6
				v1.3L86.8,83.3z M91.7,80.2v-0.9c0-0.1,0-0.2-0.1-0.2l-2.7-3.6v0l4.3-2.5c0,0,0,0,0,0l2.7,3.5v1.1L91.7,80.2z M96.6,77v-0.8
				c0-0.1,0-0.2-0.1-0.2l-2.7-3.5v-0.1l4.3-2.5c0,0,0,0,0,0.1l2.6,3.3v1L96.6,77z M101.5,73.9v-0.6c0-0.1,0-0.2-0.1-0.2l-2.6-3.3
				v-0.1l4.3-2.5c0,0,0,0.1,0,0.1l2.5,3.2v0.8L101.5,73.9z M106.4,70.8v-0.5c0-0.1,0-0.2-0.1-0.2l-2.5-3.2v-0.2l4.3-2.5
				c0,0,0,0.1,0,0.1l2.4,3v0.7L106.4,70.8z M111.3,67.6v-0.3c0-0.1,0-0.2-0.1-0.2l-2.4-3v-0.2l4.3-2.5c0,0.1,0,0.1,0.1,0.2l2.3,2.9
				v0.5L111.3,67.6z M116.2,64.5v-0.2c0-0.1,0-0.2-0.1-0.2l-2.3-2.9V61l4.2-2.5c0,0.1,0,0.2,0.1,0.2l2.2,2.7v0.3L116.2,64.5z
				 M121.1,61.3c0-0.1,0-0.2-0.1-0.2l-2.2-2.7v-0.3l4.2-2.5v0c0,0.1,0,0.2,0.1,0.2l2.1,2.6v0.2L121.1,61.3z M126,58.2
				c0,0,0-0.1,0-0.1l-2.1-2.6v-0.3l4.2-2.5v0.1c0,0.1,0,0.2,0.1,0.2l2,2.4v0L126,58.2z M144.6,46.2l-4.2,2.7l-1.7-1.9v-0.5l4.2-2.5
				v0.2c0,0.1,0,0.2,0.1,0.2L144.6,46.2z M143.3,26L143.3,26l-3.6,1.1l0.9-1.1c0.1-0.1,0.1-0.1,0.1-0.2l3.7-1.1L143.3,26z
				 M144.2,23.7l-4.1,1.2l-1.4-1.6v-0.1l4.2-1.1v0c0,0.1,0,0.2,0.1,0.2L144.2,23.7z M143.2,8.8l-3.9,0.3l1.5-1.7c0,0,0,0,0,0
				l3.8-0.1L143.2,8.8z"/>
		</g>
	</g>
	<g id="XMLID_260_" class="st2">
		<g id="XMLID_345_">
			<path id="XMLID_346_" class="st3" d="M75.8,3.4h-5c-0.4,0-0.8,0.3-0.8,0.8v88c0,0.3,0.2,0.5,0.4,0.7L73,94
				c0.1,0.1,0.2,0.1,0.3,0.1c0.1,0,0.2,0,0.3-0.1l2.5-1.3c0.3-0.1,0.4-0.4,0.4-0.7v-88C76.6,3.7,76.3,3.4,75.8,3.4z M70.8,4.1H73v89
				l-2.1-1.1V4.1z M75.8,92.1l-2.1,1.1v-89h2.1V92.1z"/>
		</g>
	</g>
	<path id="XMLID_257_" class="st3" d="M143.1,2v3.3l2,2.1l-2,2.1v13.2l1.9,2.1l-1.9,2.1v17.8l1.9,2.1V49L73.2,94.1L1.9,49v-2.2
		l1.9-2.1V26.9l-1.9-2.1l1.9-2.1V9.5l-2-2.1l2-2.1V2H143.1 M143.1,0.2H3.7C2.8,0.2,2,1,2,2v2.6L0.5,6.2c-0.6,0.7-0.6,1.7,0,2.4
		L2,10.2V22l-1.4,1.7C0,24.3,0,25.3,0.6,26L2,27.5V44l-1.4,1.6c-0.3,0.3-0.4,0.7-0.4,1.2V49c0,0.6,0.3,1.2,0.8,1.5l71.3,45.1
		c0.3,0.2,0.6,0.3,0.9,0.3c0.3,0,0.6-0.1,0.9-0.3l71.7-45.1c0.5-0.3,0.8-0.9,0.8-1.5v-2.2c0-0.4-0.2-0.8-0.4-1.2l-1.4-1.6V27.5
		l1.4-1.6c0.6-0.7,0.6-1.6,0-2.3l-1.4-1.7V10.2l1.5-1.6c0.6-0.7,0.6-1.7,0-2.4l-1.5-1.6V2C144.8,1,144,0.2,143.1,0.2L143.1,0.2z"/>
</g>
</svg>
