<?xml version="1.0" encoding="utf-8"?>
<!-- Generator: Adobe Illustrator 19.0.0, SVG Export Plug-In . SVG Version: 6.00 Build 0)  -->
<svg version="1.1" id="Layer_1" xmlns="http://www.w3.org/2000/svg" xmlns:xlink="http://www.w3.org/1999/xlink" x="0px" y="0px"
	 width="148.6px" height="99.6px" viewBox="0 0 148.6 99.6" style="enable-background:new 0 0 148.6 99.6;" xml:space="preserve">
<style type="text/css">
	.st0{fill:#FFFFFF;}
</style>
<g id="XMLID_2_">
	<g id="XMLID_2218_">
		<path id="XMLID_2219_" class="st0" d="M148.1,10.5l-11.4-5.4c-0.2-0.1-0.5-0.1-0.8,0l-11,5.3c-0.4,0.2-0.6,0.6-0.5,1
			c0.1,0.4,0.4,0.7,0.9,0.7h0.2l0,0.6H93.2V12h1.1c0.4,0,0.8-0.3,0.9-0.7c0.1-0.4-0.1-0.8-0.5-1L74.6,0.1c-0.3-0.1-0.5-0.1-0.8,0
			l-20,10.3c-0.4,0.2-0.5,0.6-0.5,1c0.1,0.4,0.4,0.7,0.9,0.7h1.1v0.7h-32c-0.1,0-0.1-0.1-0.2-0.1l0-0.5h0.2c0.4,0,0.8-0.3,0.9-0.7
			c0.1-0.4-0.1-0.8-0.5-1l-11-5.3c-0.2-0.1-0.5-0.1-0.8,0L0.5,10.5c-0.4,0.2-0.6,0.6-0.5,1c0.1,0.3,0.4,0.6,0.8,0.7v40.3
			c0,0.3,0.2,0.6,0.4,0.7l72.6,46.3c0.1,0.1,0.3,0.1,0.5,0.1c0,0,0,0,0.1,0c0.2,0,0.4,0,0.5-0.1l72.4-46.3c0.3-0.2,0.4-0.4,0.4-0.7
			V12.2h0.1c0.4,0,0.8-0.3,0.9-0.7C148.7,11.1,148.5,10.7,148.1,10.5z M103.5,22.6v-8.1h4.4v7.7h0.2l-6.5,0.6v-8.3h1.2v8.1H103.5z
			 M87.6,89.3v-5.2l14.3-8.5v4.5L87.6,89.3z M74.5,84.1v-6.3l6.9-3.3h0.1v0l5.3-2.5v5.5L74.5,84.1z M80.8,81.5v5.8l-6.3,3.8v-6.1
			L80.8,81.5z M127.2,11.6h8.7v2.2l-5.4-0.1v-0.4c0-0.2-0.2-0.4-0.4-0.4h-3L127.2,11.6z M135.9,47.5l-5.4-1.1v-2.8l5.4,0.9
			c0,0,0,0,0,0L135.9,47.5L135.9,47.5z M135.9,48.2v2.4l-3.1-0.6l0-2.4L135.9,48.2C135.9,48.2,135.9,48.2,135.9,48.2z M132,49.9
			l-1.5-0.3v-2.4l1.5,0.3L132,49.9z M130.5,42.8v-2.9l1.5,0.2v3L130.5,42.8z M135.9,43.7l-3.2-0.5v-3l3.2,0.5c0,0,0,0,0,0
			L135.9,43.7L135.9,43.7z M135.9,39.9l-5.4-0.8v-2.8l5.4,0.7c0,0,0,0,0,0L135.9,39.9L135.9,39.9z M130.5,35.5v-3l1.5,0.2v3
			L130.5,35.5z M135.9,36.2l-3.2-0.4v-3l3.2,0.4c0,0,0,0,0,0L135.9,36.2L135.9,36.2z M135.9,32.4l-5.4-0.7V29l5.4,0.3L135.9,32.4
			L135.9,32.4z M130.5,28.3v-2.8l1.5,0.1v2.9L130.5,28.3z M135.9,28.6l-3.2-0.2v-2.9l3.2,0.1L135.9,28.6L135.9,28.6z M130.5,24.7
			v-3.1l5.4,0.3V25L130.5,24.7z M130.5,20.9v-3l1.5,0.1v3L130.5,20.9z M132.7,21v-3l3.2,0.1v3L132.7,21z M130.5,17.1v-2.7l5.4,0.1
			v2.9L130.5,17.1z M130.3,50.6c0.1-0.1,0.2-0.1,0.2-0.3l5,1l-42.8,23v-4.7l1.7-0.9c0.1-0.1,0.2-0.2,0.2-0.3v-4.7l1.2-0.6v4.3
			c0,0.1,0.1,0.2,0.2,0.3c0.1,0,0.1,0.1,0.2,0.1c0.1,0,0.1,0,0.2,0l5.1-2.5c0.1-0.1,0.2-0.2,0.2-0.3v-4.5l0,0.1l1.1-0.5v4
			c0,0.1,0.1,0.2,0.2,0.3c0.1,0,0.1,0,0.2,0c0.1,0,0.1,0,0.2,0l5.1-2.9c0.1-0.1,0.2-0.2,0.2-0.3v-4.2l0.2,0.5l1.1-0.5v3.6
			c0,0.1,0.1,0.3,0.2,0.3c0.1,0,0.1,0.1,0.2,0.1c0.1,0,0.1,0,0.2,0l5.9-2.9c0.1-0.1,0.2-0.2,0.2-0.3V54l1.2-0.5v3.2
			c0,0.1,0.1,0.3,0.2,0.3c0.1,0,0.1,0.1,0.2,0.1c0.1,0,0.1,0,0.2,0l5.1-2.7c0.1-0.1,0.2-0.2,0.2-0.3v-3.5l0.2,0.4l1.2-0.5v2.4
			c0,0.1,0.1,0.3,0.2,0.3c0.1,0,0.1,0.1,0.2,0.1c0.1,0,0.1,0,0.2,0L130.3,50.6z M135.9,51.9v2.7l-8.1,4.8v-3.2L135.9,51.9z
			 M127,56.7v3.2l-9.4,5.6v-3.7L127,56.7z M105.6,68.2l11.3-6.1v3.8l-11.2,6.7L105.6,68.2L105.6,68.2z M104.9,68.6V73l-12.2,7.3
			v-5.1L104.9,68.6z M129.7,42.7v1.1l-37.1,15v-2L129.7,42.7z M92.7,55.9V27l1.1-0.1v28.6L92.7,55.9z M94.6,55.2V26.8l1.2-0.1v28.1
			L94.6,55.2z M96.5,54.5V26.5l4.4-0.5v26.8L96.5,54.5z M101.6,52.5V25.9l1.2-0.1v26.3L101.6,52.5z M103.5,25.7l4.5-0.6v25l-4.4,1.7
			V25.7H103.5z M108.7,49.8V25l1.2-0.1v24.5L108.7,49.8z M110.6,49.1V24.8l5.3-0.6v23L110.6,49.1z M116.6,46.8V24.1l1.3-0.2v22.4
			L116.6,46.8z M118.7,46.1V23.8l4.2-0.5v21.2L118.7,46.1z M123.6,44.2v-21L125,23v20.6L123.6,44.2z M125.7,43.4V22.9l4-0.5v19.4
			L125.7,43.4z M129.7,44.6V50l-4,2v-5.9L129.7,44.6z M125,46.5v3l-1.3,0.6V47L125,46.5z M122.9,47.3v6.4l-4.3,2.3v-6.9L122.9,47.3z
			 M117.8,49.4v3.2l-1.2,0.5v-3.3L117.8,49.4z M115.9,50.2v7.2l-5.2,2.5v-7.7L115.9,50.2z M108.6,53.1l1.4-0.6v3.5l-1.4,0.6
			L108.6,53.1L108.6,53.1z M103.4,55.2l4.5-1.8v7.5l-4.4,2.5v-8.2H103.4z M102.8,55.4v3.8l-1.2,0.5v-3.8L102.8,55.4z M100.9,56.2
			v8.5l-4.4,2.1V58L100.9,56.2z M95.8,58.3v4l-1.2,0.6v-4.1L95.8,58.3z M93.8,59.1v9.1l-1.1,0.6v-9.3L93.8,59.1z M129.7,21.7
			l-37.1,4.6v-1.8l37.1-3.6V21.7z M81.5,73.7v-5.2l10.5-4.9v5.2L81.5,73.7z M91.9,69.6v5.1l-4.4,2.4v-5.4L91.9,69.6z M87.6,64.8
			v-5.5l4.4-1.8v5.3L87.6,64.8z M81.5,61v-5.8l10.5-3.8v5.2L81.5,61z M87.6,52.2v-5.6l4.3-1.3v5.4L87.6,52.2z M81.6,47.7v-5.9
			l10.3-2.6v5.4L81.6,47.7z M87.7,39.4V34l4.2-0.8v5.2L87.7,39.4z M81.6,34.5v-5.9L91.9,27v5.5L81.6,34.5z M87.6,26.9v-5.6l4.3-0.4
			v5.3L87.6,26.9z M81.5,21.2v-5.9l10.4-0.4v5.3L81.5,21.2z M91.7,14.2l-17.2,0.7v-3.4h17v2.1C91.5,13.8,91.6,14,91.7,14.2z
			 M80.8,15.3v5.9l-6.3,0.6v-6.3L80.8,15.3z M86.9,21.4V27l-12.4,1.9v-6.3L86.9,21.4z M80.8,28.7v5.9l-6.3,1.2v-6.2L80.8,28.7z
			 M86.9,34.2v5.4l-12.4,3.2v-6.1L86.9,34.2z M80.9,41.9v6l-6.4,2v-6.3L80.9,41.9z M86.9,46.8v5.6l-6,2.2h-0.2v0.1l-6.2,2.2v-6.3
			L86.9,46.8z M80.7,55.5v5.8l-6.2,2.6v-6.2L80.7,55.5z M86.8,59.6v5.6l-12.3,5.7v-6.2L86.8,59.6z M80.7,68.8v5.2L74.5,77v-5.3
			L80.7,68.8z M81.6,81.1l10.3-5.6v5.2l-10.3,6.1V81.1z M102.6,79.7v-4.5l11.2-6.7v3.9L102.6,79.7z M114.6,72v-3.9l9.3-5.5V66
			L114.6,72z M124.7,65.5v-3.3h-0.1l7.4-4.4v3L124.7,65.5z M132.8,60.3v-3l3.8-2.3h0.1v0l2.3-1.4v2.7L132.8,60.3z M139.6,45.7V43
			l6.1-2.6v2.6L139.6,45.7z M145.7,43.7v2.1l-2.5,1.3v-2.3L145.7,43.7z M143.2,40.6V38l2.5-0.9v2.4L143.2,40.6z M139.7,38.5v-2.7
			l6-1.9v2.4L139.7,38.5z M143.2,33.9v-2.6l2.5-0.7v2.5L143.2,33.9z M139.7,31.4v-2.8l6-1.2v2.5L139.7,31.4z M143.2,27.1v-2.6
			l2.5-0.4v2.5L143.2,27.1z M139.7,24.3v-2.9l6-0.7v2.7L139.7,24.3z M143.5,20.2v-2.6l2.2-0.2v2.5L143.5,20.2z M139.6,17.1v-2.6
			l6.1,0v2.2L139.6,17.1z M136.7,13.7v-2.2h9v2.2L136.7,13.7z M138.8,14.5v2.7l-2.1,0.2v-2.8L138.8,14.5z M142.7,17.6v2.7l-6.1,0.7
			v-3L142.7,17.6z M138.9,21.5v3l-2.2,0.4v-3.1L138.9,21.5z M142.4,24.6v2.6l-5.7,1.2v-2.9L142.4,24.6z M138.9,28.8v2.9l-2.2,0.6v-3
			L138.9,28.8z M142.4,31.5v2.7l-5.7,1.8v-3L142.4,31.5z M138.9,36.1v2.7l-2.2,0.8v-2.9L138.9,36.1z M142.4,38.3v2.6l-5.7,2.5v-3
			L142.4,38.3z M138.8,43.3v2.8l-2.1,1v-2.9L138.8,43.3z M142.4,45.2v2.3l-5.7,3.1v-2.7L142.4,45.2z M145.7,46.7v2.2l-9,5.3v-2.7
			L145.7,46.7z M139.8,55.9v-2.6l5.9-3.5V52L139.8,55.9z M144.6,10.8h-7.9V7.1L144.6,10.8z M135.9,10.8h-7.7l7.7-3.7V10.8z
			 M126.3,14.5c0.5,0,0.9-0.4,0.9-0.8l0,0h2.6V20l-4,0.4v-5.9H126.3z M125,20.5l-1.3,0.1v-6.1h1.3V20.5z M122.9,14.5v6.2l-4.3,0.4
			v-6.6H122.9z M117.8,21.2l-1.2,0.1v-6.8h1.2V21.2z M115.9,14.5v6.9l-5.2,0.5v-7.4H115.9z M110,22l-1.4,0.1v-7.6h1.4V22z
			 M100.9,14.5v8.4l-4.4,0.4v-8.8H100.9z M95.8,23.4l-1.2,0.1v-9h1.2V23.4z M93.8,23.6l-1.1,0.1v-9.2h1.1V23.6z M91.6,10.7H74.5V2
			L91.6,10.7z M46,79.8l-11.5-7.4v-3.8L46,75.4V79.8z M4.9,17.5v2.6l-2.2-0.3v-2.5L4.9,17.5z M2.7,16.6v-2.2l6.1,0v2.6L2.7,16.6z
			 M8.7,21.4v2.9l-6-1v-2.7L8.7,21.4z M5.1,24.5v2.6l-2.3-0.5v-2.5L5.1,24.5z M8.7,28.6v2.8l-6-1.6v-2.5L8.7,28.6z M5.1,31.2v2.6
			l-2.3-0.7v-2.5L5.1,31.2z M8.7,35.8v2.7l-6-2.3v-2.4L8.7,35.8z M5.1,37.9v2.6l-2.3-1v-2.4L5.1,37.9z M8.8,43v2.8l-6.1-2.8v-2.6
			L8.8,43z M5.1,44.8V47l-2.3-1.2v-2.1L5.1,44.8z M11.8,51.5v2.6l-9.1-5.4v-2.1L11.8,51.5z M5.8,47.4v-2.3l6,2.8v2.7L5.8,47.4z
			 M9.6,46.1v-2.8l2.2,1v2.9L9.6,46.1z M5.8,40.8v-2.6l6,2.3v3L5.8,40.8z M9.5,38.8v-2.7l2.3,0.7v2.9L9.5,38.8z M5.8,34.1v-2.7
			l6,1.6v3L5.8,34.1z M9.5,31.6v-2.9l2.3,0.5v3L9.5,31.6z M5.8,27.2v-2.6l6,1v2.9L5.8,27.2z M9.5,24.5v-3l2.3,0.3v3.1L9.5,24.5z
			 M5.7,20.3v-2.7l6.2,0.5v3L5.7,20.3z M9.6,17.1v-2.7l2.2,0v2.8L9.6,17.1z M2.7,13.7v-2.2h9.1v2.2L2.7,13.7z M2.7,52.1v-2.4L8,52.8
			v2.6L2.7,52.1z M8.7,55.9v-2.7l6.2,3.7v2.9L8.7,55.9z M21.4,11.6l0,1.1h-3.1c-0.2,0-0.4,0.2-0.4,0.4v0.6l-5.3,0.1v-2.2H21.4z
			 M13,51.3l4.9-1c0,0.1,0.1,0.2,0.2,0.3L23,53c0.1,0,0.1,0,0.2,0c0.1,0,0.1,0,0.2-0.1c0.1-0.1,0.2-0.2,0.2-0.3v-2.2l1.2,0.5v3
			c0,0.1,0.1,0.3,0.2,0.3l5.1,2.7c0.1,0,0.1,0,0.2,0c0.1,0,0.1,0,0.2-0.1c0.1-0.1,0.2-0.2,0.2-0.3v-3.2l1.2,0.5v3.7
			c0,0.1,0.1,0.3,0.2,0.3l6,2.9c0.1,0,0.1,0,0.2,0c0.1,0,0.1,0,0.2-0.1c0.1-0.1,0.2-0.2,0.2-0.3V57l1.3,0.6v3.6
			c0,0.1,0.1,0.2,0.2,0.3l5.1,3c0.1,0,0.1,0,0.2,0c0.1,0,0.1,0,0.2,0c0.1-0.1,0.2-0.2,0.2-0.3v-4.1l1.3,0.5v4.6
			c0,0.1,0.1,0.3,0.2,0.3l5,2.5c0,0,0.1,0,0.2,0c0.1,0,0.1,0,0.2-0.1c0.1-0.1,0.2-0.2,0.2-0.3v-4.5l1.2,0.6v4.7
			c0,0.1,0.1,0.3,0.2,0.3l1.7,0.9v4.7L13,51.3z M42.6,68.1v4.4l-12-7.1v-3.7L42.6,68.1z M29.9,61.3v3.7l-9.3-5.6v-3.1L29.9,61.3z
			 M16.6,49.8l0-2.5l1.3-0.3v2.4L16.6,49.8z M17.9,42.8l-1.3,0.2v-3l1.3-0.2V42.8z M17.9,35.5l-1.3,0.2v-3l1.3-0.2V35.5z M17.9,28.3
			l-1.3,0.1v-2.8l1.3-0.1V28.3z M17.9,20.9l-1.3,0.1v-3l1.3-0.1V20.9z M18.7,50v-5.5l4.2,1.7v5.8L18.7,50z M23.5,49.6v-3l1.2,0.5
			v3.1L23.5,49.6z M25.5,53.7v-6.4l4.4,1.8V56L25.5,53.7z M30.6,52.6v-3.2l1.2,0.5v3.3L30.6,52.6z M32.5,57.4v-7.2l5.4,2.2v7.6
			L32.5,57.4z M38.5,56.1v-3.5l1.3,0.5v3.6L38.5,56.1z M40.5,61v-7.6l4.4,1.8v8.4L40.5,61z M45.7,59.3v-3.8l1.3,0.5h0v3.8L45.7,59.3
			z M47.6,65v-8.7l4.7,1.9H52v9L47.6,65z M52.6,62.3v-4l1.2,0.5v4.1L52.6,62.3z M54.6,68.2v-9.1l1.2,0.5v9.3L54.6,68.2z M18.7,43.8
			v-1.1l37.1,14.1v2L18.7,43.8z M18.7,41.8V22.4l4.2,0.5v20.5L18.7,41.8z M23.5,43.7V23.1l1.2,0.2v20.9L23.5,43.7z M25.5,44.4V23.3
			l4.4,0.6v22.2L25.5,44.4z M30.6,46.3V24l1.2,0.2v22.7L30.6,46.3z M32.5,47.1V24.2l5.3,0.7v24.2L32.5,47.1z M38.4,49.3V25l1.5,0.2
			v24.7L38.4,49.3z M40.6,50.2V25.2l4.3,0.6v26L40.6,50.2z M45.7,52.1V25.9l1.2,0.2v26.5L45.7,52.1z M47.6,52.8L47.6,52.8l0.1-26.7
			l4.4,0.6v27.8L47.6,52.8z M52.6,54.8v-28l1.2,0.2v28.3L52.6,54.8z M54.6,55.5V27l1.2,0.1v28.8L54.6,55.5z M18.7,21.7v-1.2l37.1,4
			v1.9L18.7,21.7z M17.9,14.4v2.7l-5.3,0.2v-2.9L17.9,14.4z M15.9,18v3l-3.3,0.2v-3L15.9,18z M17.9,21.6v3.1L12.6,25v-3.1L17.9,21.6
			z M15.9,25.6v2.9l-3.3,0.2v-2.9L15.9,25.6z M17.9,29v2.7l-5.3,0.6v-3L17.9,29z M15.9,32.8v3l-3.3,0.4v-3L15.9,32.8z M17.9,36.3
			v2.8l-5.3,0.8v-3L17.9,36.3z M15.9,40.2v3l-3.3,0.6v-3L15.9,40.2z M17.9,43.6v2.8l-5.3,1.1v-2.9L17.9,43.6z M15.9,47.5l0,2.4
			l-3.3,0.6v-2.4L15.9,47.5z M19.9,55.8v3.1l-7.3-4.3v-2.7L19.9,55.8z M15.7,60.4v-3l7.3,4.3v3.3L15.7,60.4z M23.7,65.6v-3.3
			l9.9,5.9v3.8L23.7,65.6z M43.4,73v-4.4l16.4,8.9v5.3L43.4,73z M56.5,63.6l3.3,1.5v5.2l-3.2-1.5l-0.1,0.1V63.6z M56.6,62.8
			l-0.1,0.1v-5.5L67,61.8v5.8L56.6,62.8z M59.8,58l-3.3-1.4l0,0.1v-5.3l3.3,1.2V58z M56.5,50.6L56.5,50.6l0-5.4l10.3,3.2v5.9
			L56.5,50.6z M59.8,45.5l-3.3-1l0,0v-5.4l3.3,0.8V45.5z M56.5,38.4v-5.2l10.4,2V41L56.5,38.4z M59.8,33.1l-3.3-0.7V27l3.3,0.5V33.1
			z M56.5,26.2v-5.3l10.4,1v5.9L56.5,26.2z M59.8,20.5l-3.3-0.3v-5.2l3.3,0.1V20.5z M56.4,74.7L56.4,74.7l0.1-5.1l10.4,4.9l0,5.9
			L56.4,74.7z M60.6,77.8l13.2,7.1V91l-13.2-7.9V77.8z M67.6,80.7L67.6,80.7l0.1-5.9l6.1,2.9v6.4L67.6,80.7z M60.6,70.7v-5.2
			l13.2,6.1v5.3L60.6,70.7z M67.8,68v-5.9l6,2.5v6.1L67.8,68z M60.6,58.3v-5.4l13.2,4.7v6.2L60.6,58.3z M67.6,54.6v-5.9l6.2,1.9v6.3
			L67.6,54.6z M60.6,45.7v-5.6l13.2,3.3v6.3L60.6,45.7z M67.6,41.2v-5.8l6.1,1.2v6.1L67.6,41.2z M60.6,33.2v-5.6l13.2,2v6.2
			L60.6,33.2z M67.6,27.9v-6l6.1,0.6v6.3L67.6,27.9z M60.6,20.6v-5.5l13.2,0.5v6.2L60.6,20.6z M56.9,14.2c0.1-0.2,0.2-0.3,0.2-0.5
			v-2.1h16.7v3.3L56.9,14.2z M57,10.7C57,10.7,57,10.7,57,10.7l16.8-8.6v8.6H57z M55.8,14.5v9.3l-1.2-0.1v-9.1H55.8z M53.9,23.6
			l-1.3-0.1v-8.9h1.3V23.6z M51.9,14.5v8.8l-4.3-0.5v-8.4H51.9z M46.9,22.8l-1.3-0.1v-8.2h1.3V22.8z M44.9,14.5v8.1l-4.3-0.5v-7.6
			H44.9z M39.9,22.1l-1.4-0.1v-7.4h1.4V22.1z M37.9,14.5v7.3l-5.4-0.6v-6.7H37.9z M31.8,21.2L30.6,21v-6.5h1.2V21.2z M29.9,14.5V21
			l-4.4-0.5v-6H29.9z M24.8,20.4l-1.2-0.1v-5.8h1.2V20.4z M22.8,20.2l-4.1-0.4v-6.3h2.8l0,0.2c0,0.5,0.4,0.8,0.9,0.8h0.5V20.2z
			 M20.3,10.8h-7.7V7L20.3,10.8z M11.8,10.8H4l7.8-3.7V10.8z M46.7,80.3v-4.4l9,5.4v4.8L46.7,80.3z M56.5,81.7L67,87.9v5.3
			l-10.5-6.7V81.7z M67.7,93.7v-5.4l6,3.6v5.7L67.7,93.7z M74.5,91.9l12.4-7.3v5.2l-12.4,7.9V91.9z"/>
	</g>
</g>
</svg>
