<?xml version="1.0" encoding="UTF-8"?>
<!DOCTYPE svg PUBLIC "-//W3C//DTD SVG 1.1//EN" "http://www.w3.org/Graphics/SVG/1.1/DTD/svg11.dtd">
<!-- Creator: CorelDRAW X6 -->
<svg xmlns="http://www.w3.org/2000/svg" xml:space="preserve" width="38.1mm" height="25.4mm" version="1.1" style="shape-rendering:geometricPrecision; text-rendering:geometricPrecision; image-rendering:optimizeQuality; fill-rule:evenodd; clip-rule:evenodd"
viewBox="0 0 3810 2540"
 xmlns:xlink="http://www.w3.org/1999/xlink">
 <defs>
  <style type="text/css">
   <![CDATA[
    .fil0 {fill:white}
   ]]>
  </style>
 </defs>
 <g id="Слой_x0020_1">
  <metadata id="CorelCorpID_0Corel-Layer"/>
  <path class="fil0" d="M3630 195l1 0m-3433 0l-1 0m1 0l-1 0m3433 0l1 0m-53 1221c-258,164 -516,327 -775,491 -228,145 -456,289 -684,434l0 60c0,22 -11,41 -30,51l-148 83c-6,4 -13,6 -20,7 -13,2 -25,0 -37,-7l-148 -83c-19,-11 -30,-29 -30,-51l0 -60c-228,-145 -456,-289 -684,-434 -258,-164 -516,-327 -775,-491l-73 41c-17,10 -37,10 -55,0l-84 -46c-19,-10 -30,-29 -30,-51l0 -1298c0,-32 26,-58 57,-58l1840 0 0 0 1857 0c31,0 57,26 57,58l0 1298c0,22 -11,41 -30,51l-84 46c-18,10 -37,9 -55,0l-73 -41zm-1803 -1344l129 0 0 196 0 0 0 52 0 226 0 50 0 205 0 0 0 62 0 206 0 61 0 205 0 0 0 61 0 206 0 62 0 205 0 0 0 61 0 206 0 61 0 205 0 0 0 65 -129 -72 0 -2324zm-19 0l0 177 -701 -39 -849 -47 0 -91 849 0 701 0zm0 197l0 39 -284 -21c-139,-10 -278,-20 -416,-30 -143,-10 -286,-21 -428,-31l-7 0 -7 0 -7 0 -7 0 -7 0 -7 0 -7 0 -322 -23 -7 0 -7 0 -3 0 0 -14 813 45 702 39zm0 59l0 177 -284 -36 -416 -53c-146,-19 -292,-37 -438,-56 -137,-18 -275,-35 -412,-53l0 -91c140,10 280,20 419,30 143,10 286,21 428,31 139,10 277,20 416,30l285 21zm0 197l0 39 -487 -70 -213 -31c-198,-29 -396,-57 -594,-86l-220 -32 0 -14 6 1 0 0 5 1 1 0 5 1 2 0 4 1 3 0 3 0 3 0 2 0 4 1 2 0 5 1 1 0 6 1 0 0 6 1 0 0 5 1 1 0 5 1 2 0 4 1 3 0 3 0 3 0 3 0 4 1 2 0 5 1 1 0 5 1 0 0 6 1 0 0 6 1 1 0 5 1 2 0 4 1 3 0 3 0 3 0 3 0 4 1 2 0 5 1 1 0 5 1 0 0 6 1 0 0 6 1 1 0 5 1 2 0 4 1 2 0 3 0 3 0 3 0 4 1 2 0 5 1 1 0 5 1 1 0 6 1 0 0 6 1 1 0 5 1 2 0 4 1 2 0 3 0 3 0 3 0 4 0 2 0 5 1 1 0 5 1 1 0 6 1 0 0 6 1 1 0 5 1 2 0 4 1 2 0 4 0 3 0 3 0 4 0 2 0 4 1 1 0 5 1 1 0 6 1 0 0 6 1 1 0 5 1 2 0 4 1 2 0 4 0 3 0 3 0 4 0 2 0 4 1 1 0 5 1 1 0 6 1c146,19 292,37 438,56l416 53 286 37zm0 59l0 177 -436 -87 -263 -53c-201,-40 -403,-81 -604,-121l-246 -49 0 -90 253 37c198,29 396,57 594,86l213 31 490 71zm0 197l0 39 -317 -69 -382 -83 -815 -177 0 -14 207 42c201,40 403,81 604,121l263 53 440 88zm0 59l0 176 -326 -89 -372 -101 0 0 -851 -232 0 -90 847 184 382 83 321 70zm0 197l0 38 -406 -117 -292 -85 -207 -60 -10 -3 -1 0 -9 -3 -1 0 -8 -2 -2 -1 -8 -2 -3 -1 -7 -2 -3 -1 -6 -2 -4 -1 -6 -2 -5 -1 -5 -1 -5 -2 -4 -1 -6 -2 -4 -1 -7 -2 -3 -1 -7 -2 -2 -1 -8 -2 -2 0 -9 -2 -1 0 -9 -3 0 0 -10 -3 0 0 -9 -3 -1 0 -9 -2 -2 0 -8 -2 -2 -1 -7 -2 -3 -1 -7 -2 -4 -1 -6 -2 -4 -1 -5 -2 -5 -1 -5 -1 -6 -2 -4 -1 -6 -2 -3 -1 -7 -2 -3 -1 -8 -2 -2 -1 -8 -2 -1 0 -9 -3 -1 0 -9 -3 0 0 -10 -3 -1 0 -9 -3 -1 0 -8 -2 -2 -1 -8 -2 -3 -1 -7 -2 -3 -1 -6 -2 -14 -4 -5 -1 -5 -2 -4 -1 -6 -2 -4 -1 -6 -2 -3 -1 -7 -2 -2 -1 -8 -2 -2 0 -8 -2 -1 0 -9 -3 0 0 -10 -3 0 0 -9 -3 -1 0 -18 -5 -2 -1 -7 -2 -3 -1 -7 -2 -4 -1 -6 -2 -4 -1 -5 -2 -5 -1 -5 -1 -5 -2 -4 -1 -6 -2 -3 -1 -7 -2 -3 -1 -18 -5 -1 0 -19 -5 0 0 -10 -3 -1 0 -9 -3 0 -13 810 221 0 0 372 101 331 90zm0 59l0 176 -371 -128 -327 -113 -206 -71c-200,-69 -403,-139 -646,-223l0 -90c213,62 426,123 639,185l207 60 292 85 411 119zm0 197l0 38 -120 -43 -578 -209 -816 -295 0 -13 6 2 2 1 7 2 2 1 8 3 9 3 0 0 9 3 1 0 8 3 2 1 7 2 2 1 6 2 3 1 6 2 4 1 5 2 5 2 4 1 6 2 3 1 6 2 2 1 7 3 2 1 8 3 1 0 9 3 0 0 9 3 1 0 8 3 2 1 8 3 2 1 7 2 3 1 6 2 4 1 5 2 5 2 4 1 6 2 3 1 7 2 3 1 8 3 2 1 9 3 1 0 17 6 2 1 1 0 9 3 2 1 8 3 3 1 7 2 3 1 6 2 4 2 5 2 5 2 4 2 6 2 4 1 7 2 3 1 8 3 2 1 9 3 1 0 10 3 0 0 10 3 1 0 9 3 2 1 8 3 3 1 7 2 4 1 6 2 4 2 5 2 5 2 4 2 6 2 4 1 7 2 3 1 8 3 2 1 9 3 1 0 10 3 0 0 10 3 1 0 9 3 2 1 8 3 3 1 7 3 4 1 6 2 5 2 5 2 5 2 5 2 6 2 4 1 7 3 3 1 8 3 2 1 9 3 1 0 10 3 206 71 327 113 377 130zm0 59l0 175 -169 -71 -528 -220 0 0c-316,-132 -499,-208 -682,-284l-171 -71 0 -89 845 306 578 209 126 46zm0 197l0 38 -268 -116 -429 -186 -423 -184 -394 -171 0 -12 128 53c272,113 543,227 682,284l0 0 528 220 176 74zm0 59l0 175 -268 -131 -429 -210 -423 -207 -430 -211 0 -89 422 183 423 184 429 186 276 120zm0 197l0 37 -108 -54c-196,-99 -393,-199 -589,-298l-429 -217 -388 -197 0 -12 386 189 423 207 429 210 276 135zm0 59l0 174 -696 -391 -297 -167c-185,-104 -371,-208 -556,-312l0 -88 415 210 429 217c196,99 393,199 589,298l116 59zm0 197l0 36 -542 -313 -155 -90 -219 -127c-200,-116 -399,-231 -599,-347l0 -11 3 2 5 3 4 2 4 2 4 3 4 2 5 3 3 2 6 3 2 1 7 4 1 1 8 4 0 0 8 4 0 0 8 4 1 1 7 4 2 1 6 3 3 2 5 3 3 2 5 3 4 2 4 2 5 3 3 2 6 3 2 1 7 4 1 1 7 4 1 0 8 4 0 0 8 4 1 1 7 4 2 1 6 4 2 1 6 3 3 2 5 3 4 2 4 2 5 3 3 2 6 3 2 1 6 4 2 1 7 4 1 1 8 4 0 0 8 4 1 0 7 4 1 1 7 4 2 1 6 3 3 2 5 3 4 2 4 2 5 3 3 2 5 3 3 2 6 3 2 1 7 4 1 1 8 4 0 0 8 4 0 0 8 4 1 1 7 4 2 1 6 3 3 2 5 3 4 2 4 2 4 2 4 2 5 3 3 2 6 3 2 1 7 4 1 1 7 4 1 0 8 4 0 0 8 4 1 1 7 4 2 1 6 4 3 1 5 3 3 2 5 3 4 2 4 2 5 3 3 2 6 3 2 1 6 4 2 1 7 4 1 0 8 4 297 167 706 397zm0 59l0 174 -267 -169 -429 -272 -440 -279 -414 -262 0 -87c208,121 417,241 625,362l219 127 155 90 551 319zm-1681 -2046l63 0 0 1318 -63 -35 0 -1282zm112 0l0 100 0 0c0,5 4,10 9,10l26 1 0 14 -4 0 -7 0 -7 0 -7 0 -1 0c-5,0 -10,4 -10,10l0 110 0 0c0,5 4,9 8,10l7 1 7 1 7 1 7 1 1 0 0 13 -24 -3c-1,0 -1,0 -2,0 -5,0 -10,4 -10,10l0 110 0 0c0,5 3,9 8,10l28 6 0 14 -23 -5c-1,0 -2,0 -2,0 -5,0 -10,4 -10,10l0 110 0 0c0,4 3,8 7,10l28 8 0 13 -2 -1 -10 -3 -10 -3c-1,0 -2,-1 -3,-1 -5,0 -10,4 -10,10l0 110 0 0c0,4 3,8 7,9l9 3 9 3 9 3 2 1 0 13 -23 -8 -13 -5 0 14 0 110 0 7 6 3 29 12 0 12 -21 -9c-1,-1 -3,-1 -4,-1 -5,0 -10,4 -10,10l0 110 0 0c0,4 2,7 5,9l30 15 0 12 -21 -11c-1,-1 -3,-1 -5,-1 -5,0 -10,4 -10,10l0 110 0 0c0,3 2,7 5,9l9 5 9 5 9 5 4 2 0 11 -20 -12c-2,-1 -3,-2 -5,-2 -5,0 -10,4 -10,10l0 110 0 0c0,3 2,6 5,8l31 20 0 12 -63 35 0 -1318 27 0zm1866 0l-129 0 0 196 0 0 0 52 0 226 0 50 0 205 0 0 0 62 0 206 0 61 0 205 0 0 0 61 0 206 0 62 0 205 0 0 0 61 0 206 0 61 0 205 0 0 0 65 129 -72 0 -2324zm19 0l0 177 701 -39 849 -47 0 -91 -849 0 -701 0zm0 197l0 39 284 -21c139,-10 278,-20 416,-30 143,-10 286,-21 428,-31l7 0 7 0 7 0 7 0 7 0 7 0 7 0 322 -23 7 0 7 0 3 0 0 -14 -813 45 -702 39zm0 59l0 177 284 -36 416 -53c146,-19 292,-37 438,-56 137,-18 275,-35 412,-53l0 -91c-140,10 -280,20 -419,30 -143,10 -286,21 -428,31 -139,10 -277,20 -416,30l-285 21zm0 197l0 39 487 -70 213 -31c198,-29 396,-57 594,-86l220 -32 0 -14 -6 1 0 0 -5 1 -1 0 -5 1 -2 0 -4 1 -3 0 -3 0 -3 0 -2 0 -4 1 -2 0 -5 1 -1 0 -6 1 0 0 -6 1 0 0 -5 1 -1 0 -5 1 -2 0 -4 1 -3 0 -3 0 -3 0 -3 0 -4 1 -2 0 -5 1 -1 0 -5 1 0 0 -6 1 0 0 -6 1 -1 0 -5 1 -2 0 -4 1 -3 0 -3 0 -3 0 -3 0 -4 1 -2 0 -5 1 -1 0 -5 1 0 0 -6 1 0 0 -6 1 -1 0 -5 1 -2 0 -4 1 -2 0 -3 0 -3 0 -3 0 -4 1 -2 0 -5 1 -1 0 -5 1 -1 0 -6 1 0 0 -6 1 -1 0 -5 1 -2 0 -4 1 -2 0 -3 0 -3 0 -3 0 -4 0 -2 0 -5 1 -1 0 -5 1 -1 0 -6 1 0 0 -6 1 -1 0 -5 1 -2 0 -4 1 -2 0 -4 0 -3 0 -3 0 -4 0 -2 0 -4 1 -1 0 -5 1 -1 0 -6 1 0 0 -6 1 -1 0 -5 1 -2 0 -4 1 -2 0 -4 0 -3 0 -3 0 -4 0 -2 0 -4 1 -1 0 -5 1 -1 0 -6 1c-146,19 -292,37 -438,56l-416 53 -286 37zm0 59l0 177 436 -87 263 -53c201,-40 403,-81 604,-121l246 -49 0 -90 -253 37c-198,29 -396,57 -594,86l-213 31 -490 71zm0 197l0 39 317 -69 382 -83 815 -177 0 -14 -207 42c-201,40 -403,81 -604,121l-263 53 -440 88zm0 59l0 176 326 -89 372 -101 0 0 851 -232 0 -90 -847 184 -382 83 -321 70zm0 197l0 38 406 -117 292 -85 207 -60 10 -3 1 0 9 -3 1 0 8 -2 2 -1 8 -2 3 -1 7 -2 3 -1 6 -2 4 -1 6 -2 5 -1 5 -1 5 -2 4 -1 6 -2 4 -1 7 -2 3 -1 7 -2 2 -1 8 -2 2 0 9 -2 1 0 9 -3 0 0 10 -3 0 0 9 -3 1 0 9 -2 2 0 8 -2 2 -1 7 -2 3 -1 7 -2 4 -1 6 -2 4 -1 5 -2 5 -1 5 -1 6 -2 4 -1 6 -2 3 -1 7 -2 3 -1 8 -2 2 -1 8 -2 1 0 9 -3 1 0 9 -3 0 0 10 -3 1 0 9 -3 1 0 8 -2 2 -1 8 -2 3 -1 7 -2 3 -1 6 -2 14 -4 5 -1 5 -2 4 -1 6 -2 4 -1 6 -2 3 -1 7 -2 2 -1 8 -2 2 0 8 -2 1 0 9 -3 0 0 10 -3 0 0 9 -3 1 0 18 -5 2 -1 7 -2 3 -1 7 -2 4 -1 6 -2 4 -1 5 -2 5 -1 5 -1 5 -2 4 -1 6 -2 3 -1 7 -2 3 -1 18 -5 1 0 19 -5 0 0 10 -3 1 0 9 -3 0 -13 -810 221 0 0 -372 101 -331 90zm0 59l0 176 371 -128 327 -113 206 -71c200,-69 403,-139 646,-223l0 -90c-213,62 -426,123 -639,185l-207 60 -292 85 -411 119zm0 197l0 38 120 -43 578 -209 816 -295 0 -13 -6 2 -2 1 -7 2 -2 1 -8 3 -9 3 0 0 -9 3 -1 0 -8 3 -2 1 -7 2 -2 1 -6 2 -3 1 -6 2 -4 1 -5 2 -5 2 -4 1 -6 2 -3 1 -6 2 -2 1 -7 3 -2 1 -8 3 -1 0 -9 3 0 0 -9 3 -1 0 -8 3 -2 1 -8 3 -2 1 -7 2 -3 1 -6 2 -4 1 -5 2 -5 2 -4 1 -6 2 -3 1 -7 2 -3 1 -8 3 -2 1 -9 3 -1 0 -17 6 -2 1 -1 0 -9 3 -2 1 -8 3 -3 1 -7 2 -3 1 -6 2 -4 2 -5 2 -5 2 -4 2 -6 2 -4 1 -7 2 -3 1 -8 3 -2 1 -9 3 -1 0 -10 3 0 0 -10 3 -1 0 -9 3 -2 1 -8 3 -3 1 -7 2 -4 1 -6 2 -4 2 -5 2 -5 2 -4 2 -6 2 -4 1 -7 2 -3 1 -8 3 -2 1 -9 3 -1 0 -10 3 0 0 -10 3 -1 0 -9 3 -2 1 -8 3 -3 1 -7 3 -4 1 -6 2 -5 2 -5 2 -5 2 -5 2 -6 2 -4 1 -7 3 -3 1 -8 3 -2 1 -9 3 -1 0 -10 3 -206 71 -327 113 -377 130zm0 59l0 175 169 -71 528 -220 0 0c316,-132 499,-208 682,-284l171 -71 0 -89 -845 306 -578 209 -126 46zm0 197l0 38 268 -116 429 -186 423 -184 394 -171 0 -12 -128 53c-272,113 -543,227 -682,284l0 0 -528 220 -176 74zm0 59l0 175 268 -131 429 -210 423 -207 430 -211 0 -89 -422 183 -423 184 -429 186 -276 120zm0 197l0 37 108 -54c196,-99 393,-199 589,-298l429 -217 388 -197 0 -12 -386 189 -423 207 -429 210 -276 135zm0 59l0 174 696 -391 297 -167c185,-104 371,-208 556,-312l0 -88 -415 210 -429 217c-196,99 -393,199 -589,298l-116 59zm0 197l0 36 542 -313 155 -90 219 -127c200,-116 399,-231 599,-347l0 -11 -3 2 -5 3 -4 2 -4 2 -4 3 -4 2 -5 3 -3 2 -6 3 -2 1 -7 4 -1 1 -8 4 0 0 -8 4 0 0 -8 4 -1 1 -7 4 -2 1 -6 3 -3 2 -5 3 -3 2 -5 3 -4 2 -4 2 -5 3 -3 2 -6 3 -2 1 -7 4 -1 1 -7 4 -1 0 -8 4 0 0 -8 4 -1 1 -7 4 -2 1 -6 4 -2 1 -6 3 -3 2 -5 3 -4 2 -4 2 -5 3 -3 2 -6 3 -2 1 -6 4 -2 1 -7 4 -1 1 -8 4 0 0 -8 4 -1 0 -7 4 -1 1 -7 4 -2 1 -6 3 -3 2 -5 3 -4 2 -4 2 -5 3 -3 2 -5 3 -3 2 -6 3 -2 1 -7 4 -1 1 -8 4 0 0 -8 4 0 0 -8 4 -1 1 -7 4 -2 1 -6 3 -3 2 -5 3 -4 2 -4 2 -4 2 -4 2 -5 3 -3 2 -6 3 -2 1 -7 4 -1 1 -7 4 -1 0 -8 4 0 0 -8 4 -1 1 -7 4 -2 1 -6 4 -3 1 -5 3 -3 2 -5 3 -4 2 -4 2 -5 3 -3 2 -6 3 -2 1 -6 4 -2 1 -7 4 -1 0 -8 4 -297 167 -706 397zm0 59l0 174 267 -169 429 -272 440 -279 414 -262 0 -87c-208,121 -417,241 -625,362l-219 127 -155 90 -551 319zm1681 -2046l-63 0 0 1318 63 -35 0 -1282zm-112 0l0 100 0 0c0,5 -4,10 -9,10l-26 1 0 14 4 0 7 0 7 0 7 0 1 0c5,0 10,4 10,10l0 110 0 0c0,5 -4,9 -8,10l-7 1 -7 1 -7 1 -7 1 -1 0 0 13 24 -3c1,0 1,0 2,0 5,0 10,4 10,10l0 110 0 0c0,5 -3,9 -8,10l-28 6 0 14 23 -5c1,0 2,0 2,0 5,0 10,4 10,10l0 110 0 0c0,4 -3,8 -7,10l-28 8 0 13 2 -1 10 -3 10 -3c1,0 2,-1 3,-1 5,0 10,4 10,10l0 110 0 0c0,4 -3,8 -7,9l-9 3 -9 3 -9 3 -2 1 0 13 23 -8 13 -5 0 14 0 110 0 7 -6 3 -29 12 0 12 21 -9c1,-1 3,-1 4,-1 5,0 10,4 10,10l0 110 0 0c0,4 -2,7 -5,9l-30 15 0 12 21 -11c1,-1 3,-1 5,-1 5,0 10,4 10,10l0 110 0 0c0,3 -2,7 -5,9l-9 5 -9 5 -9 5 -4 2 0 11 20 -12c2,-1 3,-2 5,-2 5,0 10,4 10,10l0 110 0 0c0,3 -2,6 -5,8l-31 20 0 12 63 35 0 -1318 -27 0z"/>
 </g>
</svg>
