<?xml version="1.0" encoding="UTF-8"?>
<!DOCTYPE svg PUBLIC "-//W3C//DTD SVG 1.1//EN" "http://www.w3.org/Graphics/SVG/1.1/DTD/svg11.dtd">
<!-- Creator: CorelDRAW X6 -->
<svg xmlns="http://www.w3.org/2000/svg" xml:space="preserve" width="38.1mm" height="25.4mm" version="1.1" style="shape-rendering:geometricPrecision; text-rendering:geometricPrecision; image-rendering:optimizeQuality; fill-rule:evenodd; clip-rule:evenodd"
viewBox="0 0 3810 2540"
 xmlns:xlink="http://www.w3.org/1999/xlink">
 <defs>
  <style type="text/css">
   <![CDATA[
    .fil1 {fill:#CC6633}
    .fil0 {fill:white}
    .fil2 {fill:#913A0E;fill-rule:nonzero}
   ]]>
  </style>
 </defs>
 <g id="Слой_x0020_1">
  <metadata id="CorelCorpID_0Corel-Layer"/>
  <g id="_843830432">
   <path class="fil0" d="M3578 1416c-258,164 -516,327 -775,491 -228,145 -456,289 -684,434l0 60c0,22 -11,41 -30,51l-148 83c-18,10 -37,10 -55,0l-148 -83c-19,-11 -30,-29 -30,-51l0 -60c-228,-145 -456,-289 -684,-434 -258,-164 -516,-327 -775,-491l-73 41c-17,10 -37,10 -55,0l-84 -46c-19,-10 -30,-29 -30,-51l0 -1298c0,-32 26,-58 57,-58 1232,0 2464,0 3696,0 31,0 57,26 57,58l0 1298c0,22 -11,41 -30,51l-84 46c-18,10 -37,9 -55,0l-73 -41zm-3511 -1355c1232,0 2464,0 3696,0l0 1298 -84 46 -82 -46 0 -24c-274,174 -549,348 -823,522 -237,150 -474,301 -711,451l0 93 -148 83 -148 -83 0 -93c-237,-150 -474,-301 -711,-451 -274,-174 -549,-348 -823,-522l0 24 -82 46 -84 -46 0 -1298z"/>
   <polygon class="fil1" points="3596,62 3678,62 3678,1406 3596,1360 "/>
   <path class="fil2" d="M3596 52l0 0 82 0c5,0 10,4 10,10l0 0 0 1344c0,5 -4,10 -10,10 -2,0 -4,-1 -5,-2l-82 -46c-3,-2 -5,-5 -5,-9l0 0 0 -1298c0,-5 4,-10 10,-10zm72 20l-63 0 0 1282 63 35 0 -1318z"/>
   <polygon class="fil1" points="3762,62 3680,62 3680,1406 3762,1360 "/>
   <path class="fil2" d="M3753 72l-63 0 0 1318 63 -35 0 -1282zm-72 -20l82 0 0 0c5,0 10,4 10,10l0 1298 0 0c0,3 -2,7 -5,9l-82 46c-1,1 -3,2 -5,2 -5,0 -10,-4 -10,-10l0 -1344 0 0c0,-5 4,-10 10,-10z"/>
   <path class="fil1" d="M3631 1204c-286,166 -572,331 -858,497 -286,165 -572,331 -859,497 0,69 0,137 0,205 286,-182 573,-363 859,-545 286,-181 572,-363 858,-544 0,-37 0,-73 0,-110z"/>
   <path class="fil2" d="M3622 1221c-208,121 -417,241 -625,362l-219 127 -155 90c-233,135 -466,270 -699,404l0 182 415 -263 429 -272 440 -279 414 -262 0 -87zm-635 345c213,-123 426,-246 639,-370 2,-1 3,-2 5,-2 5,0 10,4 10,10l0 110 0 0c0,3 -2,6 -5,8l-418 265 -440 279 -429 272 -429 272c-2,1 -3,2 -6,2 -5,0 -10,-4 -10,-10l0 -205 0 0c0,-3 2,-7 5,-9 235,-136 469,-271 704,-407l155 -90 219 -127z"/>
   <path class="fil1" d="M3631 1061c-286,145 -572,290 -858,434 -286,145 -572,290 -859,435 0,69 0,137 0,205 286,-161 573,-322 859,-482 286,-161 572,-322 858,-482 0,-37 0,-73 0,-110z"/>
   <path class="fil2" d="M3622 1077l-415 210 -429 217c-196,99 -393,199 -589,298l-264 134 0 183 844 -474 297 -167c185,-104 371,-208 556,-312l0 -88zm-424 192l429 -217c1,-1 3,-1 5,-1 5,0 10,4 10,10l0 110 0 0c0,3 -2,7 -5,9 -187,105 -374,210 -561,315l-297 167 -858 482c-1,1 -3,2 -5,2 -5,0 -10,-4 -10,-10l0 -205 0 0c0,-4 2,-7 5,-9l269 -136c196,-99 393,-199 589,-298l429 -217z"/>
   <path class="fil1" d="M3631 1061c-286,145 -572,290 -858,434 -286,145 -572,290 -859,435 0,69 0,137 0,205 286,-161 573,-322 859,-482 286,-161 572,-322 858,-482 0,-37 0,-73 0,-110z"/>
   <path class="fil2" d="M3622 1077l-415 210 -429 217c-196,99 -393,199 -589,298l-264 134 0 183 844 -474 297 -167c185,-104 371,-208 556,-312l0 -88zm-424 192l429 -217c1,-1 3,-1 5,-1 5,0 10,4 10,10l0 110 0 0c0,3 -2,7 -5,9 -187,105 -374,210 -561,315l-297 167 -858 482c-1,1 -3,2 -5,2 -5,0 -10,-4 -10,-10l0 -205 0 0c0,-4 2,-7 5,-9l269 -136c196,-99 393,-199 589,-298l429 -217z"/>
   <path class="fil1" d="M3631 919c-286,124 -572,248 -858,372 -286,124 -572,248 -859,373 0,69 0,137 0,205 286,-140 573,-280 859,-420 286,-140 572,-280 858,-420 0,-37 0,-73 0,-110z"/>
   <path class="fil2" d="M3622 933l-422 183 -423 184 -429 186 -423 184 0 183 416 -204 429 -210 423 -207 430 -211 0 -89zm-429 165l434 -189c1,-1 3,-1 4,-1 5,0 10,4 10,10l0 110 0 0c0,4 -2,7 -5,9l-435 213 -423 207 -429 210 -429 210c-1,1 -3,1 -5,1 -5,0 -10,-4 -10,-10l0 -205 0 0c0,-4 2,-7 6,-9l429 -186 429 -186 423 -184z"/>
   <path class="fil1" d="M3631 919c-286,124 -572,248 -858,372 -286,124 -572,248 -859,373 0,69 0,137 0,205 286,-140 573,-280 859,-420 286,-140 572,-280 858,-420 0,-37 0,-73 0,-110z"/>
   <path class="fil2" d="M3622 933l-422 183 -423 184 -429 186 -423 184 0 183 416 -204 429 -210 423 -207 430 -211 0 -89zm-429 165l434 -189c1,-1 3,-1 4,-1 5,0 10,4 10,10l0 110 0 0c0,4 -2,7 -5,9l-435 213 -423 207 -429 210 -429 210c-1,1 -3,1 -5,1 -5,0 -10,-4 -10,-10l0 -205 0 0c0,-4 2,-7 6,-9l429 -186 429 -186 423 -184z"/>
   <path class="fil1" d="M3631 776c-286,103 -572,207 -858,310 -286,103 -572,207 -859,310 0,69 0,137 0,205 286,-119 573,-239 859,-358 286,-119 572,-239 858,-358 0,-37 0,-73 0,-110z"/>
   <path class="fil2" d="M3622 790l-845 306 -578 209 -274 99 0 184 317 -132 528 -220 0 0 0 0c316,-132 499,-208 682,-284l171 -71 0 -89zm-852 287l858 -310m-1435 519l578 -209m-859 310l281 -101m-287 111c0,-4 2,-8 6,-9m-6 215l0 -205 0 0m14 214c-1,1 -3,1 -5,1 -5,0 -10,-4 -10,-10m344 -129l-329 137m858 -358l-528 220m1210 -505c-272,113 -543,227 -682,284l0 0m858 -358l-177 74m183 -83c0,4 -2,8 -6,9m6 -119l0 110 0 0m-10 -120c5,0 10,4 10,10"/>
   <path class="fil1" d="M3631 776c-286,103 -572,207 -858,310 -286,103 -572,207 -859,310 0,69 0,137 0,205 286,-119 573,-239 859,-358 286,-119 572,-239 858,-358 0,-37 0,-73 0,-110z"/>
   <path class="fil2" d="M3622 790l-845 306 -578 209 -274 99 0 184 317 -132 528 -220 0 0c316,-132 499,-208 682,-284l171 -71 0 -89zm-852 287l858 -310 13 -5 0 14 0 110 0 7 -6 3 -177 74c-272,113 -543,227 -682,284l0 0 -528 220 -330 138 -13 6 0 -15 0 -205 0 -7 6 -2 281 -101 578 -209z"/>
   <path class="fil1" d="M3631 633c-286,83 -572,166 -858,248 -286,83 -572,165 -859,248 0,69 0,137 0,205 286,-99 573,-197 859,-296 286,-99 572,-197 858,-296 0,-37 0,-73 0,-110z"/>
   <path class="fil2" d="M3622 646c-213,62 -426,123 -639,185l-207 60 -292 85c-186,54 -373,108 -559,162l0 184c173,-60 346,-119 519,-179l327 -113 206 -71c200,-69 403,-139 646,-223l0 -90zm-644 166c217,-63 434,-126 651,-188 1,0 2,-1 3,-1 5,0 10,4 10,10l0 110 0 0c0,4 -3,8 -7,9 -189,65 -419,145 -652,225l-206 71 -327 113c-177,61 -354,122 -531,183 -1,1 -2,1 -4,1 -5,0 -10,-4 -10,-10l0 -205 0 0c0,-4 3,-8 7,-9 189,-55 377,-109 566,-164l292 -85 207 -60z"/>
   <path class="fil1" d="M3631 633c-286,83 -572,166 -858,248 -286,83 -572,165 -859,248 0,69 0,137 0,205 286,-99 573,-197 859,-296 286,-99 572,-197 858,-296 0,-37 0,-73 0,-110z"/>
   <path class="fil2" d="M3622 646c-213,62 -426,123 -639,185l-207 60 -292 85c-186,54 -373,108 -559,162l0 184c173,-60 346,-119 519,-179l327 -113 206 -71c200,-69 403,-139 646,-223l0 -90zm-644 166c217,-63 434,-126 651,-188 1,0 2,-1 3,-1 5,0 10,4 10,10l0 110 0 0c0,4 -3,8 -7,9 -189,65 -419,145 -652,225l-206 71 -327 113c-177,61 -354,122 -531,183 -1,1 -2,1 -4,1 -5,0 -10,-4 -10,-10l0 -205 0 0c0,-4 3,-8 7,-9 189,-55 377,-109 566,-164l292 -85 207 -60z"/>
   <path class="fil1" d="M3631 490c-286,62 -572,124 -858,186 -286,62 -572,124 -859,186 0,69 0,137 0,205 286,-78 573,-156 859,-234 286,-78 572,-156 858,-234 0,-37 0,-73 0,-110z"/>
   <path class="fil2" d="M3622 503l-847 184 -382 83c-156,34 -312,68 -469,102l0 185c133,-36 304,-83 474,-129l372 -101 0 0 851 -232 0 -90zm-851 164l858 -186c1,0 2,0 2,0 5,0 10,4 10,10l0 110 0 0c0,4 -3,8 -7,10l-858 234 0 0 -372 101c-149,41 -296,81 -486,132 -1,0 -2,1 -3,1 -5,0 -10,-4 -10,-10l0 -205 0 0c0,-5 3,-9 8,-10 159,-34 318,-69 476,-103l382 -83z"/>
   <path class="fil1" d="M3631 490c-286,62 -572,124 -858,186 -286,62 -572,124 -859,186 0,69 0,137 0,205 286,-78 573,-156 859,-234 286,-78 572,-156 858,-234 0,-37 0,-73 0,-110z"/>
   <path class="fil2" d="M3622 503l-847 184 -382 83c-156,34 -312,68 -469,102l0 185c133,-36 304,-83 474,-129l372 -101 0 0 851 -232 0 -90zm-851 164l858 -186c1,0 2,0 2,0 5,0 10,4 10,10l0 110 0 0c0,4 -3,8 -7,10l-858 234 0 0 -372 101c-149,41 -296,81 -486,132 -1,0 -2,1 -3,1 -5,0 -10,-4 -10,-10l0 -205 0 0c0,-5 3,-9 8,-10 159,-34 318,-69 476,-103l382 -83z"/>
   <path class="fil1" d="M3631 347c-286,41 -572,83 -858,124 -286,41 -572,83 -859,124 0,69 0,137 0,205 286,-57 573,-115 859,-172 286,-57 572,-115 858,-172 0,-37 0,-73 0,-110z"/>
   <path class="fil2" d="M3622 359l-253 37c-198,29 -396,57 -594,86l-213 31c-212,31 -425,61 -637,92l0 185c195,-39 389,-78 584,-117l263 -53c201,-40 403,-81 604,-121l246 -49 0 -90zm-256 17l263 -38c1,0 1,0 2,0 5,0 10,4 10,10l0 110 0 0c0,5 -3,9 -8,10l-254 51c-201,40 -403,81 -604,121l-263 53c-198,40 -397,79 -595,119 -1,0 -2,0 -2,0 -5,0 -10,-4 -10,-10l0 -205 0 0c0,-5 3,-9 8,-10 215,-31 431,-62 646,-93l213 -31c198,-29 396,-57 594,-86z"/>
   <path class="fil1" d="M3631 347c-286,41 -572,83 -858,124 -286,41 -572,83 -859,124 0,69 0,137 0,205 286,-57 573,-115 859,-172 286,-57 572,-115 858,-172 0,-37 0,-73 0,-110z"/>
   <path class="fil2" d="M3622 359l-253 37c-198,29 -396,57 -594,86l-213 31c-212,31 -425,61 -637,92l0 185c195,-39 389,-78 584,-117l263 -53c201,-40 403,-81 604,-121l246 -49 0 -90zm-256 17l263 -38c1,0 1,0 2,0 5,0 10,4 10,10l0 110 0 0c0,5 -3,9 -8,10l-254 51c-201,40 -403,81 -604,121l-263 53c-198,40 -397,79 -595,119 -1,0 -2,0 -2,0 -5,0 -10,-4 -10,-10l0 -205 0 0c0,-5 3,-9 8,-10 215,-31 431,-62 646,-93l213 -31c198,-29 396,-57 594,-86z"/>
   <path class="fil1" d="M3631 205c-286,21 -572,41 -858,62 -286,21 -572,41 -859,62 0,69 0,137 0,205 286,-37 573,-73 859,-110 286,-37 572,-73 858,-110 0,-37 0,-73 0,-110z"/>
   <path class="fil2" d="M3622 215c-140,10 -280,20 -419,30 -143,10 -286,21 -428,31 -139,10 -277,20 -416,30 -141,10 -282,20 -433,31l0 185c144,-18 288,-37 432,-55l416 -53c146,-19 292,-37 438,-56 137,-18 275,-35 412,-53l0 -91zm-421 11c143,-10 286,-21 429,-31l1 0c5,0 10,4 10,10l0 110 0 0c0,5 -4,9 -8,10 -140,18 -280,36 -420,54 -146,19 -292,37 -438,56l-416 53c-147,19 -295,38 -442,57 0,0 -1,0 -1,0 -5,0 -10,-4 -10,-10l0 -205 0 0c0,-5 4,-9 9,-10 141,-10 291,-21 442,-32 139,-10 278,-20 416,-30 143,-10 286,-21 428,-31zm429 -31l1 0"/>
   <path class="fil1" d="M3631 205c-286,21 -572,41 -858,62 -286,21 -572,41 -859,62 0,69 0,137 0,205 286,-37 573,-73 859,-110 286,-37 572,-73 858,-110 0,-37 0,-73 0,-110z"/>
   <path class="fil2" d="M3622 215c-140,10 -280,20 -419,30 -143,10 -286,21 -428,31 -139,10 -277,20 -416,30 -141,10 -282,20 -433,31l0 185c144,-18 288,-37 432,-55l416 -53c146,-19 292,-37 438,-56 137,-18 275,-35 412,-53l0 -91zm-421 11c143,-10 286,-21 429,-31l1 0c5,0 10,4 10,10l0 110 0 0c0,5 -4,9 -8,10 -140,18 -280,36 -420,54 -146,19 -292,37 -438,56l-416 53c-147,19 -295,38 -442,57 0,0 -1,0 -1,0 -5,0 -10,-4 -10,-10l0 -205 0 0c0,-5 4,-9 9,-10 141,-10 291,-21 442,-32 139,-10 278,-20 416,-30 143,-10 286,-21 428,-31zm429 -31l1 0"/>
   <path class="fil1" d="M3631 62c-286,0 -572,0 -858,0 -286,0 -572,0 -859,0 0,69 0,137 0,206 286,-16 573,-32 859,-48 286,-16 572,-32 858,-48 0,-37 0,-73 0,-110z"/>
   <path class="fil2" d="M3622 72l-849 0 -849 0 0 185 848 -47 849 -47 0 -91zm-849 -20l858 0 0 0c5,0 10,4 10,10l0 110 0 0c0,5 -4,10 -9,10l-858 48 -858 48 -1 0c-5,0 -10,-4 -10,-10l0 -205 0 0c0,-5 4,-10 10,-10l859 0z"/>
   <polygon class="fil1" points="2063,62 1915,62 1915,2485 2063,2402 "/>
   <path class="fil2" d="M2053 72l-129 0 0 2397 129 -72 0 -2324zm-138 -20l148 0 0 0c5,0 10,4 10,10l0 2340 0 0c0,3 -2,7 -5,9l-147 83c-1,1 -3,2 -5,2 -5,0 -10,-4 -10,-10l0 -2423 0 0c0,-5 4,-10 10,-10z"/>
   <polygon class="fil1" points="233,62 151,62 151,1406 233,1360 "/>
   <path class="fil2" d="M224 72l-63 0 0 1318 63 -35 0 -1282zm-72 -20l82 0 0 0c5,0 10,4 10,10l0 1298 0 0c0,3 -2,7 -5,9l-82 46c-1,1 -3,2 -5,2 -5,0 -10,-4 -10,-10l0 -1344 0 0c0,-5 4,-10 10,-10z"/>
   <polygon class="fil1" points="67,62 149,62 149,1406 67,1360 "/>
   <path class="fil2" d="M67 52l0 0 82 0c5,0 10,4 10,10l0 0 0 1344c0,5 -4,10 -10,10 -2,0 -4,-1 -5,-2l-82 -46c-3,-2 -5,-5 -5,-9l0 0 0 -1298c0,-5 4,-10 10,-10zm72 20l-63 0 0 1282 63 35 0 -1318z"/>
   <path class="fil1" d="M198 1204c286,166 572,331 858,497 286,165 572,331 859,497 0,69 0,137 0,205 -286,-182 -573,-363 -859,-545 -286,-181 -572,-363 -858,-544 0,-37 0,-73 0,-110z"/>
   <path class="fil2" d="M203 1196c213,123 426,247 639,370l219 127 155 90c234,136 469,272 704,407 3,2 5,5 5,9l0 0 0 205c0,5 -4,10 -10,10 -2,0 -4,-1 -6,-2l-429 -272 -429 -272 -440 -279 -418 -265c-3,-2 -5,-5 -5,-8l0 0 0 -110c0,-5 4,-10 10,-10 2,0 4,1 5,2zm629 387c-208,-121 -417,-241 -625,-362l0 87 414 262 440 279 429 272 415 263 0 -182c-233,-135 -466,-270 -699,-404l-155 -90 -219 -127z"/>
   <path class="fil1" d="M198 1061c286,145 572,290 858,434 286,145 572,290 859,435 0,69 0,137 0,205 -286,-161 -573,-322 -859,-482 -286,-161 -572,-322 -858,-482 0,-37 0,-73 0,-110z"/>
   <path class="fil2" d="M203 1053l429 217 429 217c196,99 393,199 589,298l269 136c3,2 5,5 5,9l0 0 0 205c0,5 -4,10 -10,10 -2,0 -4,-1 -5,-2l-858 -482 -297 -167c-187,-105 -374,-210 -561,-315 -3,-2 -5,-5 -5,-9l0 0 0 -110c0,-5 4,-10 10,-10 2,0 3,0 5,1zm420 234l-415 -210 0 88c185,104 370,208 556,312l297 167 844 474 0 -183 -264 -134c-196,-99 -393,-199 -589,-298l-429 -217z"/>
   <path class="fil1" d="M198 1061c286,145 572,290 858,434 286,145 572,290 859,435 0,69 0,137 0,205 -286,-161 -573,-322 -859,-482 -286,-161 -572,-322 -858,-482 0,-37 0,-73 0,-110z"/>
   <path class="fil2" d="M203 1053l429 217 429 217c196,99 393,199 589,298l269 136c3,2 5,5 5,9l0 0 0 205c0,5 -4,10 -10,10 -2,0 -4,-1 -5,-2l-858 -482 -297 -167c-187,-105 -374,-210 -561,-315 -3,-2 -5,-5 -5,-9l0 0 0 -110c0,-5 4,-10 10,-10 2,0 3,0 5,1zm420 234l-415 -210 0 88c185,104 370,208 556,312l297 167 844 474 0 -183 -264 -134c-196,-99 -393,-199 -589,-298l-429 -217z"/>
   <path class="fil1" d="M198 919c286,124 572,248 858,372 286,124 572,248 859,373 0,69 0,137 0,205 -286,-140 -573,-280 -859,-420 -286,-140 -572,-280 -858,-420 0,-37 0,-73 0,-110z"/>
   <path class="fil2" d="M202 910l434 189 423 184 429 186 429 186c4,2 6,5 6,9l0 0 0 205c0,5 -4,10 -10,10 -2,0 -3,-1 -5,-1l-429 -210 -429 -210 -423 -207 -435 -213c-3,-2 -5,-5 -5,-9l0 0 0 -110c0,-5 4,-10 10,-10 2,0 3,0 4,1zm427 207l-422 -183 0 89 430 211 423 207 429 210 416 204 0 -183 -423 -184 -429 -186 -423 -184z"/>
   <path class="fil1" d="M198 919c286,124 572,248 858,372 286,124 572,248 859,373 0,69 0,137 0,205 -286,-140 -573,-280 -859,-420 -286,-140 -572,-280 -858,-420 0,-37 0,-73 0,-110z"/>
   <path class="fil2" d="M202 910l434 189 423 184 429 186 429 186c4,2 6,5 6,9l0 0 0 205c0,5 -4,10 -10,10 -2,0 -3,-1 -5,-1l-429 -210 -429 -210 -423 -207 -435 -213c-3,-2 -5,-5 -5,-9l0 0 0 -110c0,-5 4,-10 10,-10 2,0 3,0 4,1zm427 207l-422 -183 0 89 430 211 423 207 429 210 416 204 0 -183 -423 -184 -429 -186 -423 -184z"/>
   <path class="fil1" d="M198 776c286,103 572,207 858,310 286,103 572,207 859,310 0,69 0,137 0,205 -286,-119 -573,-239 -859,-358 -286,-119 -572,-239 -858,-358 0,-37 0,-73 0,-110z"/>
   <path class="fil2" d="M202 767l858 310 578 209 281 101c4,1 6,5 6,9l0 0 0 205c0,5 -4,10 -10,10 -2,0 -3,0 -5,-1l-329 -137 -528 -220 0 0c-138,-58 -410,-171 -682,-284l-177 -74c-4,-2 -6,-5 -6,-9l0 0 0 -110c0,-5 4,-10 10,-10 1,0 3,0 4,1zm851 329l-845 -306 0 89 171 71c182,76 366,153 682,284l0 0 0 0 528 220 317 132 0 -184 -274 -99 -578 -209z"/>
   <path class="fil1" d="M198 776c286,103 572,207 858,310 286,103 572,207 859,310 0,69 0,137 0,205 -286,-119 -573,-239 -859,-358 -286,-119 -572,-239 -858,-358 0,-37 0,-73 0,-110z"/>
   <path class="fil2" d="M202 767l858 310 578 209 281 101c4,1 6,5 6,9l0 0 0 205c0,5 -4,10 -10,10 -2,0 -3,0 -5,-1l-329 -137 -528 -220 0 0c-138,-58 -410,-171 -682,-284l-177 -74c-4,-2 -6,-5 -6,-9l0 0 0 -110c0,-5 4,-10 10,-10 1,0 3,0 4,1zm851 329l-845 -306 0 89 171 71c182,76 366,153 682,284l0 0 0 0 528 220 317 132 0 -184 -274 -99 -578 -209z"/>
   <path class="fil1" d="M198 633c286,83 572,166 858,248 286,83 572,165 859,248 0,69 0,137 0,205 -286,-99 -573,-197 -859,-296 -286,-99 -572,-197 -858,-296 0,-37 0,-73 0,-110z"/>
   <path class="fil2" d="M201 624c217,63 434,126 651,188l207 60 292 85c189,55 377,109 566,164 4,1 7,5 7,9l0 0 0 205c0,5 -4,10 -10,10 -1,0 -3,0 -4,-1 -177,-61 -354,-122 -531,-183l-327 -113 -206 -71c-233,-80 -463,-160 -652,-225 -4,-1 -7,-5 -7,-9l0 0 0 -110c0,-5 4,-10 10,-10 1,0 2,0 3,1zm646 207c-213,-62 -426,-123 -639,-185l0 90c243,84 446,154 646,223l206 71 327 113c173,60 346,119 519,179l0 -184c-186,-54 -373,-108 -559,-162l-292 -85 -207 -60z"/>
   <path class="fil1" d="M198 633c286,83 572,166 858,248 286,83 572,165 859,248 0,69 0,137 0,205 -286,-99 -573,-197 -859,-296 -286,-99 -572,-197 -858,-296 0,-37 0,-73 0,-110z"/>
   <path class="fil2" d="M201 624c217,63 434,126 651,188l207 60 292 85c189,55 377,109 566,164 4,1 7,5 7,9l0 0 0 205c0,5 -4,10 -10,10 -1,0 -3,0 -4,-1 -177,-61 -354,-122 -531,-183l-327 -113 -206 -71c-233,-80 -463,-160 -652,-225 -4,-1 -7,-5 -7,-9l0 0 0 -110c0,-5 4,-10 10,-10 1,0 2,0 3,1zm646 207c-213,-62 -426,-123 -639,-185l0 90c243,84 446,154 646,223l206 71 327 113c173,60 346,119 519,179l0 -184c-186,-54 -373,-108 -559,-162l-292 -85 -207 -60z"/>
   <path class="fil1" d="M198 490c286,62 572,124 858,186 286,62 572,124 859,186 0,69 0,137 0,205 -286,-78 -573,-156 -859,-234 -286,-78 -572,-156 -858,-234 0,-37 0,-73 0,-110z"/>
   <path class="fil2" d="M200 481l858 186 382 83c159,34 318,69 476,103 5,1 8,5 8,10l0 0 0 205c0,5 -4,10 -10,10 -1,0 -2,0 -3,-1 -189,-52 -337,-92 -486,-132l-372 -101 0 0 -858 -234c-4,-1 -7,-5 -7,-10l0 0 0 -110c0,-5 4,-10 10,-10 1,0 2,0 2,0zm854 205l-847 -184 0 90 851 232 0 0 372 101c170,46 341,93 474,129l0 -185c-156,-34 -312,-68 -469,-102l-382 -83z"/>
   <path class="fil1" d="M198 490c286,62 572,124 858,186 286,62 572,124 859,186 0,69 0,137 0,205 -286,-78 -573,-156 -859,-234 -286,-78 -572,-156 -858,-234 0,-37 0,-73 0,-110z"/>
   <path class="fil2" d="M200 481l858 186 382 83c159,34 318,69 476,103 5,1 8,5 8,10l0 0 0 205c0,5 -4,10 -10,10 -1,0 -2,0 -3,-1 -189,-52 -337,-92 -486,-132l-372 -101 0 0 -858 -234c-4,-1 -7,-5 -7,-10l0 0 0 -110c0,-5 4,-10 10,-10 1,0 2,0 2,0zm854 205l-847 -184 0 90 851 232 0 0 372 101c170,46 341,93 474,129l0 -185c-156,-34 -312,-68 -469,-102l-382 -83z"/>
   <path class="fil1" d="M198 347c286,41 572,83 858,124 286,41 572,83 859,124 0,69 0,137 0,205 -286,-57 -573,-115 -859,-172 -286,-57 -572,-115 -858,-172 0,-37 0,-73 0,-110z"/>
   <path class="fil2" d="M200 338l263 38c198,29 396,57 594,86l213 31c215,31 430,62 646,93 5,1 8,5 8,10l0 0 0 205c0,5 -4,10 -10,10 -1,0 -2,0 -2,0 -198,-40 -397,-79 -595,-119l-263 -53c-201,-40 -403,-81 -604,-121l-254 -51c-5,-1 -8,-5 -8,-10l0 0 0 -110c0,-5 4,-10 10,-10 1,0 1,0 2,0zm261 58l-253 -37 0 90 246 49c201,40 403,81 604,121l263 53c195,39 389,78 584,117l0 -185c-212,-31 -425,-61 -637,-92l-213 -31c-198,-29 -396,-57 -594,-86z"/>
   <path class="fil1" d="M198 347c286,41 572,83 858,124 286,41 572,83 859,124 0,69 0,137 0,205 -286,-57 -573,-115 -859,-172 -286,-57 -572,-115 -858,-172 0,-37 0,-73 0,-110z"/>
   <path class="fil2" d="M200 338l263 38c198,29 396,57 594,86l213 31c215,31 430,62 646,93 5,1 8,5 8,10l0 0 0 205c0,5 -4,10 -10,10 -1,0 -2,0 -2,0 -198,-40 -397,-79 -595,-119l-263 -53c-201,-40 -403,-81 -604,-121l-254 -51c-5,-1 -8,-5 -8,-10l0 0 0 -110c0,-5 4,-10 10,-10 1,0 1,0 2,0zm261 58l-253 -37 0 90 246 49c201,40 403,81 604,121l263 53c195,39 389,78 584,117l0 -185c-212,-31 -425,-61 -637,-92l-213 -31c-198,-29 -396,-57 -594,-86z"/>
   <path class="fil1" d="M198 205c286,21 572,41 858,62 286,21 572,41 859,62 0,69 0,137 0,205 -286,-37 -573,-73 -859,-110 -286,-37 -572,-73 -858,-110 0,-37 0,-73 0,-110z"/>
   <path class="fil2" d="M199 195l1 0 -1 0c-5,0 -10,4 -10,10l0 110 0 0c0,5 4,9 8,10 140,18 280,36 420,54 146,19 292,37 438,56l416 53c147,19 295,38 442,57 0,0 1,0 1,0 5,0 10,-4 10,-10l0 -205 0 0c0,-5 -4,-9 -9,-10 -141,-10 -291,-21 -442,-32 -139,-10 -278,-20 -416,-30 -143,-10 -286,-21 -428,-31 -143,-10 -286,-21 -429,-31m428 51c-140,-10 -280,-20 -419,-30l0 91c137,18 275,35 412,53 146,19 292,37 438,56l416 53c144,18 288,37 432,55l0 -185c-151,-11 -292,-21 -433,-31 -139,-10 -278,-20 -416,-30 -143,-10 -286,-21 -428,-31z"/>
   <path class="fil1" d="M198 205c286,21 572,41 858,62 286,21 572,41 859,62 0,69 0,137 0,205 -286,-37 -573,-73 -859,-110 -286,-37 -572,-73 -858,-110 0,-37 0,-73 0,-110z"/>
   <path class="fil2" d="M199 195c143,10 287,21 430,31 143,10 286,21 428,31 139,10 277,20 416,30 151,11 302,22 442,32l9 1 0 9 0 205 0 11 -11 -1c-148,-19 -295,-38 -443,-57l-416 -53c-146,-19 -292,-37 -438,-56 -140,-18 -280,-36 -420,-54l-8 -1 0 -9 0 -110 0 -11 10 1zm428 51c-140,-10 -280,-20 -419,-30l0 91c137,18 275,35 412,53 146,19 292,37 438,56l416 53c144,18 288,37 432,55l0 -185c-151,-11 -292,-21 -433,-31 -139,-10 -278,-20 -416,-30 -143,-10 -286,-21 -428,-31z"/>
   <path class="fil1" d="M198 62c286,0 572,0 858,0 286,0 572,0 859,0 0,69 0,137 0,206 -286,-16 -573,-32 -859,-48 -286,-16 -572,-32 -858,-48 0,-37 0,-73 0,-110z"/>
   <path class="fil2" d="M198 52l0 0 858 0 859 0c5,0 10,4 10,10l0 0 0 205c0,5 -4,10 -10,10l-1 0 -858 -48 -858 -48c-5,0 -9,-5 -9,-10l0 0 0 -110c0,-5 4,-10 10,-10zm858 20l-849 0 0 91 849 47 848 47 0 -185 -849 0z"/>
   <polygon class="fil1" points="1767,62 1915,62 1915,2485 1767,2402 "/>
   <path class="fil2" d="M1767 52l0 0 148 0c5,0 10,4 10,10l0 0 0 2423c0,5 -4,10 -10,10 -2,0 -4,-1 -5,-2l-147 -83c-3,-2 -5,-5 -5,-9l0 0 0 -2340c0,-5 4,-10 10,-10zm138 20l-129 0 0 2324 129 72 0 -2397z"/>
  </g>
 </g>
</svg>
